<?xml version="1.0" encoding="UTF-8"?><svg xmlns="http://www.w3.org/2000/svg" xmlns:xlink="http://www.w3.org/1999/xlink" viewBox="0 0 1420 105"><defs><style>.k,.l,.m{fill:none;}.n{letter-spacing:0em;}.o{letter-spacing:-.02em;}.p{clip-path:url(#c);}.q{clip-path:url(#d);}.r{fill:#fff;font-family:Aeonik-Medium, Aeonik;font-size:40px;}.l{stroke:#fff;}.l,.m{stroke-linecap:round;stroke-linejoin:round;stroke-width:6px;}.m{stroke:#002a3a;}</style><clipPath id="c"><path class="k" d="M156.92-96.04h0ZM-61.85-222.33h0Zm0,0L156.91-96.04l218.74-126.29-218.74-126.29L-61.84-222.34Z"/></clipPath><clipPath id="d"><path class="k" d="M1283.21-96.04h0Zm-218.76-126.29h0Zm0,0l218.74,126.29,218.74-126.29-218.74-126.29-218.74,126.29Z"/></clipPath></defs><g id="a"/><g id="b"><line class="l" x1="630.3" y1="74.96" x2="701.1" y2="74.96"/><text class="r" transform="translate(552.22 59.59)"><tspan x="0" y="0">The </tspan><tspan class="o" x="79.76" y="0">r</tspan><tspan x="92.88" y="0">eal s</tspan><tspan class="n" x="177.12" y="0">c</tspan><tspan x="199.12" y="0">enario</tspan></text><g class="p"><g><circle class="m" cx="8.77" cy="-3.97" r="1.16"/><circle class="m" cx="24.19" cy="-3.97" r="1.16"/><circle class="m" cx="39.61" cy="-3.97" r="1.16"/><circle class="m" cx="55.03" cy="-3.97" r="1.16"/><circle class="m" cx="70.45" cy="-3.97" r="1.16"/><circle class="m" cx="85.87" cy="-3.97" r="1.16"/><circle class="m" cx="101.3" cy="-3.97" r="1.16"/><circle class="m" cx="116.72" cy="-3.97" r="1.16"/><circle class="m" cx="132.14" cy="-3.97" r="1.16"/><circle class="m" cx="147.56" cy="-3.97" r="1.16"/><circle class="m" cx="162.98" cy="-3.97" r="1.16"/><circle class="m" cx="178.4" cy="-3.97" r="1.16"/><circle class="m" cx="193.83" cy="-3.97" r="1.16"/><circle class="m" cx="209.25" cy="-3.97" r="1.16"/><circle class="m" cx="224.67" cy="-3.97" r="1.16"/><circle class="m" cx="240.09" cy="-3.97" r="1.16"/><circle class="m" cx="255.51" cy="-3.97" r="1.16"/><circle class="m" cx="270.94" cy="-3.97" r="1.16"/><circle class="m" cx="286.36" cy="-3.97" r="1.16"/><circle class="m" cx="301.78" cy="-3.97" r="1.16"/><circle class="m" cx="317.2" cy="-3.97" r="1.16"/><circle class="m" cx="332.62" cy="-3.97" r="1.16"/><circle class="m" cx="348.04" cy="-3.97" r="1.16"/><circle class="m" cx="363.47" cy="-3.97" r="1.16"/></g></g><g class="q"><g><circle class="m" cx="1073.37" cy="-3.97" r="1.16"/><circle class="m" cx="1088.79" cy="-3.97" r="1.16"/><circle class="m" cx="1104.21" cy="-3.97" r="1.16"/><circle class="m" cx="1119.64" cy="-3.97" r="1.16"/><circle class="m" cx="1135.06" cy="-3.97" r="1.16"/><circle class="m" cx="1150.48" cy="-3.97" r="1.16"/><circle class="m" cx="1165.9" cy="-3.97" r="1.16"/><circle class="m" cx="1181.32" cy="-3.97" r="1.16"/><circle class="m" cx="1196.74" cy="-3.97" r="1.16"/><circle class="m" cx="1212.17" cy="-3.97" r="1.16"/><circle class="m" cx="1227.59" cy="-3.97" r="1.16"/><circle class="m" cx="1243.01" cy="-3.97" r="1.16"/><circle class="m" cx="1258.43" cy="-3.97" r="1.16"/><circle class="m" cx="1273.85" cy="-3.97" r="1.16"/><circle class="m" cx="1289.28" cy="-3.97" r="1.16"/><circle class="m" cx="1304.7" cy="-3.97" r="1.16"/><circle class="m" cx="1320.12" cy="-3.97" r="1.16"/><circle class="m" cx="1335.54" cy="-3.97" r="1.16"/><circle class="m" cx="1350.96" cy="-3.97" r="1.16"/><circle class="m" cx="1366.38" cy="-3.97" r="1.16"/><circle class="m" cx="1381.81" cy="-3.97" r="1.16"/><circle class="m" cx="1397.23" cy="-3.97" r="1.16"/><circle class="m" cx="1412.65" cy="-3.97" r="1.16"/></g></g></g><g id="e"/><g id="f"/><g id="g"/><g id="h"/><g id="i"/><g id="j"/></svg>