<?xml version="1.0" encoding="UTF-8"?><svg xmlns="http://www.w3.org/2000/svg" xmlns:xlink="http://www.w3.org/1999/xlink" viewBox="0 0 1420 105"><defs><style>.j{letter-spacing:0em;}.k{stroke-miterlimit:10;}.k,.l,.m{fill:none;}.k,.m{stroke:#002a3a;}.n{letter-spacing:-.01em;}.o{clip-path:url(#c);}.p{fill:#fff;font-family:Aeonik-Medium, Aeonik;font-size:40px;}.l{stroke:#fff;}.l,.m{stroke-linecap:round;stroke-linejoin:round;stroke-width:6px;}</style><clipPath id="c"><path class="k" d="M707.04-84.25h0Zm-218.76-126.29h0Zm0,0l218.74,126.29,218.74-126.29-218.74-126.29-218.74,126.29Z"/></clipPath></defs><g id="a"/><g id="b"><g><g class="o"><g><circle class="m" cx="497.21" cy="7.82" r="1.16"/><circle class="m" cx="512.63" cy="7.82" r="1.16"/><circle class="m" cx="528.05" cy="7.82" r="1.16"/><circle class="m" cx="543.47" cy="7.82" r="1.16"/><circle class="m" cx="558.89" cy="7.82" r="1.16"/><circle class="m" cx="574.32" cy="7.82" r="1.16"/><circle class="m" cx="589.74" cy="7.82" r="1.16"/><circle class="m" cx="605.16" cy="7.82" r="1.16"/><circle class="m" cx="620.58" cy="7.82" r="1.16"/><circle class="m" cx="636" cy="7.82" r="1.16"/><circle class="m" cx="651.42" cy="7.82" r="1.16"/><circle class="m" cx="666.85" cy="7.82" r="1.16"/><circle class="m" cx="682.27" cy="7.82" r="1.16"/><circle class="m" cx="697.69" cy="7.82" r="1.16"/><circle class="m" cx="713.11" cy="7.82" r="1.16"/><circle class="m" cx="728.53" cy="7.82" r="1.16"/><circle class="m" cx="743.96" cy="7.82" r="1.16"/><circle class="m" cx="759.38" cy="7.82" r="1.16"/><circle class="m" cx="774.8" cy="7.82" r="1.16"/><circle class="m" cx="790.22" cy="7.82" r="1.16"/><circle class="m" cx="805.64" cy="7.82" r="1.16"/><circle class="m" cx="821.06" cy="7.82" r="1.16"/><circle class="m" cx="836.49" cy="7.82" r="1.16"/><circle class="m" cx="851.91" cy="7.82" r="1.16"/><circle class="m" cx="867.33" cy="7.82" r="1.16"/><circle class="m" cx="882.75" cy="7.82" r="1.16"/><circle class="m" cx="898.17" cy="7.82" r="1.16"/><circle class="m" cx="913.59" cy="7.82" r="1.16"/></g></g><path class="k" d="M707.04-84.25h0Zm-218.76-126.29h0Zm0,0l218.74,126.29,218.74-126.29-218.74-126.29-218.74,126.29Z"/></g><line class="l" x1="557.63" y1="64.36" x2="768.44" y2="64.36"/><text class="p" transform="translate(480.11 48.99)"><tspan x="0" y="0">The </tspan><tspan class="n" x="79.76" y="0">t</tspan><tspan x="92.72" y="0">echnology s</tspan><tspan class="j" x="315.24" y="0">c</tspan><tspan x="337.24" y="0">enario</tspan></text></g><g id="d"/><g id="e"/><g id="f"/><g id="g"/><g id="h"/><g id="i"/></svg>