<?xml version="1.0" encoding="UTF-8"?><svg xmlns="http://www.w3.org/2000/svg" viewBox="0 0 400 369"><defs><style>.i{letter-spacing:-.04em;}.j{letter-spacing:-.02em;}.k{letter-spacing:-.02em;}.l{letter-spacing:-.02em;}.m{letter-spacing:0em;}.n{letter-spacing:0em;}.o{letter-spacing:-.02em;}.p{letter-spacing:-.02em;}.q{letter-spacing:0em;}.r{letter-spacing:-.02em;}.s{letter-spacing:0em;}.t{letter-spacing:-.03em;}.u{letter-spacing:0em;}.v{letter-spacing:0em;}.w{letter-spacing:-.03em;}.x{letter-spacing:-.01em;}.y{letter-spacing:-.02em;}.a`{fill:#65a5bf;font-family:Aeonik-Regular, Aeonik;font-size:20px;}.aa{letter-spacing:-.01em;}.ab{letter-spacing:-.02em;}.ac{letter-spacing:0em;}.ad{letter-spacing:-.03em;}.ae{letter-spacing:-.01em;}.af{letter-spacing:0em;}.ag{letter-spacing:0em;}.ah{letter-spacing:-.01em;}.ai{letter-spacing:0em;}</style></defs><g id="a"/><g id="b"><text class="a`" transform="translate(15.41 26.02)"><tspan x="0" y="0">SPEAR has been </tspan><tspan class="x" x="153.82" y="0">c</tspan><tspan x="164.6" y="0">on</tspan><tspan class="x" x="187.46" y="0">c</tspan><tspan x="198.24" y="0">ei</tspan><tspan class="l" x="213.32" y="0">v</tspan><tspan x="222.74" y="0">ed </tspan><tspan class="ah" x="251.1" y="0">t</tspan><tspan x="257.22" y="0">o be </tspan><tspan x="0" y="27">plat</tspan><tspan class="j" x="32.98" y="27">f</tspan><tspan x="38.14" y="27">orm independent and easily </tspan><tspan x="0" y="54">in</tspan><tspan class="ah" x="15.1" y="54">t</tspan><tspan x="21.22" y="54">eg</tspan><tspan class="p" x="44.34" y="54">r</tspan><tspan x="50.54" y="54">a</tspan><tspan class="ah" x="61.34" y="54">t</tspan><tspan x="67.46" y="54">ed in the user n</tspan><tspan class="ab" x="205.56" y="54">a</tspan><tspan x="216.06" y="54">vigation d</tspan><tspan class="k" x="302.76" y="54">e</tspan><tspan x="313.56" y="54">vi</tspan><tspan class="x" x="327.26" y="54">c</tspan><tspan class="ad" x="338.04" y="54">e</tspan><tspan x="348.58" y="54">. </tspan><tspan x="0" y="81">Its implemen</tspan><tspan class="v" x="114.04" y="81">t</tspan><tspan x="120.26" y="81">ation as a l</tspan><tspan class="aa" x="215.36" y="81">o</tspan><tspan x="226.7" y="81">w l</tspan><tspan class="l" x="251.46" y="81">ev</tspan><tspan x="271.68" y="81">el </tspan><tspan class="y" x="292" y="81">S</tspan><tspan x="303.7" y="81">W </tspan><tspan x="0" y="108">lib</tspan><tspan class="o" x="19.68" y="108">r</tspan><tspan x="25.88" y="108">a</tspan><tspan class="af" x="36.68" y="108">r</tspan><tspan x="43.46" y="108">y </tspan><tspan class="j" x="58.56" y="108">f</tspan><tspan class="s" x="64.4" y="108">o</tspan><tspan x="76" y="108">s</tspan><tspan class="ah" x="85.98" y="108">t</tspan><tspan x="92.1" y="108">e</tspan><tspan class="r" x="103.3" y="108">r</tspan><tspan x="109.6" y="108">s por</tspan><tspan class="u" x="155.06" y="108">t</tspan><tspan x="160.6" y="108">abilit</tspan><tspan class="i" x="201.34" y="108">y</tspan><tspan x="210.42" y="108">, in</tspan><tspan class="ah" x="234.88" y="108">t</tspan><tspan x="241" y="108">eg</tspan><tspan class="o" x="264.12" y="108">r</tspan><tspan x="270.32" y="108">ation and </tspan><tspan x="0" y="135">scalabilit</tspan><tspan class="i" x="76.4" y="135">y</tspan><tspan x="85.48" y="135">. SPEAR is specially sui</tspan><tspan class="ah" x="286.23" y="135">t</tspan><tspan x="292.35" y="135">ed </tspan><tspan class="j" x="320.71" y="135">f</tspan><tspan x="326.55" y="135">or </tspan><tspan x="0" y="162">ma</tspan><tspan class="ac" x="28.14" y="162">s</tspan><tspan class="v" x="37.92" y="162">s</tspan><tspan x="47.74" y="162">-mar</tspan><tspan class="w" x="91.3" y="162">k</tspan><tspan class="q" x="101.06" y="162">e</tspan><tspan x="112.14" y="162">t or p</tspan><tspan class="t" x="159.24" y="162">r</tspan><tspan x="165.34" y="162">emium ma</tspan><tspan class="ac" x="259.5" y="162">s</tspan><tspan class="u" x="269.28" y="162">s</tspan><tspan x="279.1" y="162">-mar</tspan><tspan class="t" x="322.66" y="162">k</tspan><tspan class="q" x="332.42" y="162">e</tspan><tspan x="343.5" y="162">t </tspan><tspan x="0" y="189">n</tspan><tspan class="aa" x="11.22" y="189">a</tspan><tspan x="21.72" y="189">vigation equipmen</tspan><tspan class="ai" x="186.2" y="189">t</tspan><tspan x="192.68" y="189">, o</tspan><tspan class="q" x="213.68" y="189">p</tspan><tspan x="225.48" y="189">timizing the </tspan><tspan x="0" y="216">per</tspan><tspan class="j" x="29.8" y="216">f</tspan><tspan x="34.96" y="216">orman</tspan><tspan class="x" x="92.64" y="216">c</tspan><tspan x="103.42" y="216">e and p</tspan><tspan class="w" x="170.96" y="216">r</tspan><tspan class="l" x="177.06" y="216">o</tspan><tspan x="188.3" y="216">viding a</tspan><tspan class="x" x="256.98" y="216">c</tspan><tspan x="267.76" y="216">cu</tspan><tspan class="o" x="289.78" y="216">r</tspan><tspan x="295.98" y="216">a</tspan><tspan class="ae" x="306.78" y="216">t</tspan><tspan x="312.9" y="216">e </tspan><tspan x="0" y="243">n</tspan><tspan class="aa" x="11.22" y="243">a</tspan><tspan x="21.72" y="243">vigation at an af</tspan><tspan class="j" x="163.28" y="243">f</tspan><tspan x="168.44" y="243">o</tspan><tspan class="t" x="180.08" y="243">r</tspan><tspan x="186.18" y="243">dable </tspan><tspan class="x" x="241.14" y="243">c</tspan><tspan class="s" x="251.92" y="243">o</tspan><tspan x="263.51" y="243">s</tspan><tspan class="af" x="273.49" y="243">t</tspan><tspan x="279.97" y="243">. SPEAR </tspan><tspan x="0" y="270">has been </tspan><tspan class="l" x="88.04" y="270">v</tspan><tspan x="97.46" y="270">alida</tspan><tspan class="ah" x="138.74" y="270">t</tspan><tspan x="144.86" y="270">ed in plat</tspan><tspan class="j" x="226.54" y="270">f</tspan><tspan x="231.7" y="270">orms as </tspan><tspan x="0" y="297">dif</tspan><tspan class="j" x="22.1" y="297">f</tspan><tspan x="27.26" y="297">e</tspan><tspan class="w" x="38.46" y="297">r</tspan><tspan x="44.56" y="297">ent as a</tspan><tspan class="m" x="115.42" y="297">u</tspan><tspan class="ae" x="126.48" y="297">t</tspan><tspan x="132.6" y="297">om</tspan><tspan class="q" x="161.58" y="297">o</tspan><tspan x="173.1" y="297">ti</tspan><tspan class="l" x="183.36" y="297">v</tspan><tspan x="192.78" y="297">e n</tspan><tspan class="aa" x="220.44" y="297">a</tspan><tspan x="230.94" y="297">vigation O</tspan><tspan class="ag" x="320.75" y="297">B</tspan><tspan class="n" x="333.11" y="297">Us </tspan><tspan x="0" y="324">or And</tspan><tspan class="t" x="59.86" y="324">r</tspan><tspan x="65.96" y="324">oid smartphon</tspan><tspan class="s" x="195.16" y="324">e</tspan><tspan class="v" x="206.32" y="324">s</tspan><tspan x="216.14" y="324">.</tspan></text></g><g id="c"/><g id="d"/><g id="e"/><g id="f"/><g id="g"/><g id="h"/></svg>