<?xml version="1.0" encoding="UTF-8"?><svg xmlns="http://www.w3.org/2000/svg" viewBox="0 0 223 236"><defs><style>.i{fill:#65a5bf;}.i,.j,.k,.l,.m,.n{stroke:#002a3a;stroke-linecap:round;stroke-linejoin:round;stroke-width:6px;}.j{fill:#feae76;}.k{fill:#002a3a;}.l{fill:#005d84;}.m{fill:#e65300;}.n{fill:none;}</style></defs><g id="a"/><g id="b"><g><g><path class="n" d="M111.86,204.97h0ZM20.62,152.3h0Zm0,0l91.23,52.67,91.23-52.67-91.23-52.67L20.63,152.29Z"/><path class="k" d="M111.86,220.73h0ZM20.62,161.16h0Zm0,6.89l91.23,52.67v-15.76L20.62,152.29v15.76Z"/><path class="n" d="M111.87,220.73h0Zm91.23-68.43l-91.23,52.67v15.76l91.23-52.67v-15.76Z"/></g><path class="k" d="M75.64,91.77h0Zm-9.68-5.68l9.68,5.67v-16.05l-9.68-5.84v16.22Z"/><path class="k" d="M66.51,112.96h0Zm-9.68-16.4h0Zm0,10.73l9.68,5.67v-16.05l-9.68-5.67v16.05Z"/><path class="l" d="M66.51,112.96h0Zm22.4-28.76l-22.4,12.71v16.05l22.4-12.71v-16.05Z"/><line class="n" x1="56.83" y1="91.24" x2="66.14" y2="85.97"/><path class="j" d="M89.07,100.15h0Z"/><path class="k" d="M75.64,123.8h0Zm-9.68-16.4h0Zm0,10.73l9.68,5.67v-16.05l-9.68,5.21v5.17Z"/><path class="j" d="M75.64,123.8h0Zm22.4-28.76l-22.4,12.71v16.05l22.4-12.71v-16.05Z"/><path class="j" d="M98.2,110.99h0Zm22.4-28.76l-22.4,12.71v16.05l22.4-12.71v-16.05Z"/><path class="j" d="M120.76,98.18h0Zm22.4-28.76l-22.4,12.71v16.05l22.4-12.71v-16.05Z"/><path class="j" d="M143.31,85.38h0Zm22.4-28.76l-22.4,12.71v16.05l22.4-12.71v-16.05Z"/><path class="k" d="M66.51,144.99h0Zm-9.68-16.4h0Zm0,10.73l9.68,5.67v-16.05l-9.68-5.67v16.05Z"/><path class="l" d="M66.51,144.99h0Zm22.4-28.76l-22.4,12.71v16.05l22.4-12.71v-16.05Z"/><line class="n" x1="56.83" y1="123.27" x2="66.14" y2="118"/><path class="j" d="M89.07,132.18h0Zm22.4-28.76l-22.4,12.71v16.05l22.4-12.71v-16.05Z"/><path class="j" d="M111.63,119.38h0Zm22.4-28.76l-22.4,12.71v16.05l22.4-12.71v-16.05Z"/><path class="j" d="M134.19,106.57h0Zm22.4-28.76l-22.4,12.71v16.05l22.4-12.71v-16.05Z"/><path class="m" d="M75.64,155.84h0Zm-9.68-16.4h0Zm0,10.73l9.68,5.67v-16.05l-9.68,5.21v5.17Z"/><path class="j" d="M75.64,155.84h0Zm22.4-28.76l-22.4,12.71v16.05l22.4-12.71v-16.05Z"/><path class="j" d="M98.2,143.03h0Zm22.4-28.76l-22.4,12.71v16.05l22.4-12.71v-16.05Z"/><path class="j" d="M120.76,130.22h0Zm22.4-28.76l-22.4,12.71v16.05l22.4-12.71v-16.05Z"/><path class="j" d="M143.31,117.41h0Zm22.4-28.76l-22.4,12.71v16.05l22.4-12.71v-16.05Z"/><path class="k" d="M66.51,177.03h0Zm-9.68-16.4h0Zm0,10.73l9.68,5.67v-16.05l-9.68-5.67v16.05Z"/><path class="l" d="M66.51,177.03h0Zm22.4-28.76l-22.4,12.71v16.05l22.4-12.71v-16.05Z"/><line class="k" x1="56.83" y1="155.3" x2="66.14" y2="150.03"/><path class="j" d="M89.07,164.22h0Zm22.4-28.76l-22.4,12.71v16.05l22.4-12.71v-16.05Z"/><path class="j" d="M111.63,151.41h0Zm22.4-28.76l-22.4,12.71v16.05l22.4-12.71v-16.05Z"/><path class="j" d="M134.19,138.6h0Zm22.4-28.76l-22.4,12.71v16.05l22.4-12.71v-16.05Z"/><polyline class="n" points="98.21 63.08 120.35 50.54 130.29 56.04"/><path class="k" d="M85.31,97.54h0Zm-9.68-16.4h0Zm0,10.73l9.68,5.67v-16.05l-9.68-5.84v16.22Z"/><path class="j" d="M85.32,97.54h0Z"/><path class="k" d="M76.18,118.73h0Zm-9.68-16.4h0Zm0,10.73l9.68,5.67v-16.05l-9.68-5.67v16.05Z"/><path class="l" d="M76.19,118.73h0Zm22.4-28.76l-22.4,12.71v16.05l22.4-12.71v-16.05Z"/><line class="n" x1="66.51" y1="97.01" x2="75.81" y2="91.74"/><path class="j" d="M98.75,105.92h0Zm22.4-28.76l-22.4,12.71v16.05l22.4-12.71v-16.05Z"/><path class="j" d="M121.3,93.12h0Zm22.4-28.76l-22.4,12.71v16.05l22.4-12.71v-16.05Z"/><path class="j" d="M143.86,80.31h0Zm22.4-28.76l-22.4,12.71v16.05l22.4-12.71v-16.05Z"/><path class="k" d="M85.31,129.58h0Zm-9.68-16.4h0Zm0,10.73l9.68,5.67v-16.05l-9.68,5.21v5.17Z"/><path class="j" d="M85.32,129.58h0Zm22.4-28.76l-22.4,12.71v16.05l22.4-12.71v-16.05Z"/><path class="j" d="M107.88,116.77h0Zm22.4-28.76l-22.4,12.71v16.05l22.4-12.71v-16.05Z"/><path class="j" d="M130.43,103.96h0Zm22.4-28.76l-22.4,12.71v16.05l22.4-12.71v-16.05Z"/><path class="k" d="M76.18,150.77h0Zm-9.68-16.4h0Zm0,10.73l9.68,5.67v-16.05l-9.68-5.67v16.05Z"/><path class="l" d="M76.19,150.77h0Zm22.4-28.76l-22.4,12.71v16.05l22.4-12.71v-16.05Z"/><line class="n" x1="66.51" y1="129.04" x2="75.81" y2="123.77"/><path class="j" d="M98.75,137.96h0Zm22.4-28.76l-22.4,12.71v16.05l22.4-12.71v-16.05Z"/><path class="j" d="M121.3,125.15h0Zm22.4-28.76l-22.4,12.71v16.05l22.4-12.71v-16.05Z"/><path class="j" d="M143.86,112.34h0Zm22.4-28.76l-22.4,12.71v16.05l22.4-12.71v-16.05Z"/><path class="k" d="M85.31,161.61h0Zm-9.68-16.4h0Zm0,10.73l9.68,5.67v-16.05l-9.68,5.21v5.17Z"/><path class="j" d="M85.32,161.61h0Zm22.4-28.76l-22.4,12.71v16.05l22.4-12.71v-16.05Z"/><path class="j" d="M107.88,148.8h0Zm22.4-28.76l-22.4,12.71v16.05l22.4-12.71v-16.05Z"/><path class="j" d="M130.43,135.99h0Zm22.4-28.76l-22.4,12.71v16.05l22.4-12.71v-16.05Z"/><path class="k" d="M76.18,182.8h0Zm-9.68-16.4h0Zm0,10.73l9.68,5.67v-16.05l-9.68-5.67v16.05Z"/><path class="l" d="M76.19,182.8h0Zm22.4-28.76l-22.4,12.71v16.05l22.4-12.71v-16.05Z"/><line class="n" x1="66.51" y1="161.07" x2="75.81" y2="155.8"/><path class="j" d="M98.75,169.99h0Zm22.4-28.76l-22.4,12.71v16.05l22.4-12.71v-16.05Z"/><path class="j" d="M121.3,157.18h0Zm22.4-28.76l-22.4,12.71v16.05l22.4-12.71v-16.05Z"/><path class="j" d="M143.86,144.37h0Zm22.4-28.76l-22.4,12.71v16.05l22.4-12.71v-16.05Z"/><polyline class="n" points="107.89 68.78 130.02 56.25 139.97 61.75"/><polyline class="n" points="66.14 69.93 88.28 57.4 98.22 62.9"/><polyline class="n" points="75.81 75.71 97.95 63.17 107.89 68.67"/><polyline class="n" points="85.49 81.41 107.63 68.88 117.57 74.38"/><polyline class="n" points="130.44 55.98 152.58 43.44 162.52 48.94"/><path class="k" d="M94.99,103.25h0Zm-9.68-16.4h0Zm0,10.73l9.68,5.67v-16.05l-9.68-5.84v16.22Z"/><path class="i" d="M94.99,103.25h0Zm22.4-28.76l-22.4,12.71v16.05l22.4-12.71v-16.05Z"/><path class="i" d="M117.55,90.44h0Zm22.4-28.76l-22.4,12.71v16.05l22.4-12.71v-16.05Z"/><path class="i" d="M140.11,77.63h0Zm22.4-28.76l-22.4,12.71v16.05l22.4-12.71v-16.05Z"/><path class="k" d="M85.86,124.44h0Zm-9.68-16.4h0Zm0,10.73l9.68,5.67v-16.05l-9.68-5.67v16.05Z"/><path class="i" d="M85.87,124.44h0Zm22.4-28.76l-22.4,12.71v16.05l22.4-12.71v-16.05Z"/><line class="n" x1="76.18" y1="102.71" x2="85.49" y2="97.44"/><path class="i" d="M108.42,111.63h0Zm22.4-28.76l-22.4,12.71v16.05l22.4-12.71v-16.05Z"/><path class="m" d="M130.98,98.82h0Zm22.4-28.76l-22.4,12.71v16.05l22.4-12.71v-16.05Z"/><path class="i" d="M153.54,86.01h0Zm22.4-28.76l-22.4,12.71v16.05l22.4-12.71v-16.05Z"/><path class="k" d="M94.99,135.28h0Zm-9.68-16.4h0Zm0,10.73l9.68,5.67v-16.05l-9.68,5.21v5.17Z"/><path class="i" d="M94.99,135.28h0Zm22.4-28.76l-22.4,12.71v16.05l22.4-12.71v-16.05Z"/><path class="i" d="M117.55,122.47h0Zm22.4-28.76l-22.4,12.71v16.05l22.4-12.71v-16.05Z"/><path class="i" d="M140.11,109.66h0Zm22.4-28.76l-22.4,12.71v16.05l22.4-12.71v-16.05Z"/><path class="k" d="M85.86,156.47h0Zm-9.68-16.4h0Zm0,10.73l9.68,5.67v-16.05l-9.68-5.67v16.05Z"/><path class="i" d="M85.87,156.47h0Zm22.4-28.76l-22.4,12.71v16.05l22.4-12.71v-16.05Z"/><line class="n" x1="76.18" y1="134.75" x2="85.49" y2="129.48"/><path class="i" d="M108.42,143.66h0Zm22.4-28.76l-22.4,12.71v16.05l22.4-12.71v-16.05Z"/><path class="i" d="M130.98,130.85h0Zm22.4-28.76l-22.4,12.71v16.05l22.4-12.71v-16.05Z"/><path class="i" d="M153.54,118.05h0Zm22.4-28.76l-22.4,12.71v16.05l22.4-12.71v-16.05Z"/><path class="k" d="M94.99,167.31h0Zm-9.68-16.4h0Zm0,10.73l9.68,5.67v-16.05l-9.68,5.21v5.17Z"/><path class="m" d="M94.99,167.31h0Zm22.4-28.76l-22.4,12.71v16.05l22.4-12.71v-16.05Z"/><path class="i" d="M117.55,154.51h0Zm22.4-28.76l-22.4,12.71v16.05l22.4-12.71v-16.05Z"/><path class="i" d="M140.11,141.7h0Zm22.4-28.76l-22.4,12.71v16.05l22.4-12.71v-16.05Z"/><path class="k" d="M85.86,188.51h0Zm-9.68-16.4h0Zm0,10.73l9.68,5.67v-16.05l-9.68-5.67v16.05Z"/><path class="i" d="M85.87,188.51h0Zm22.4-28.76l-22.4,12.71v16.05l22.4-12.71v-16.05Z"/><line class="n" x1="76.18" y1="166.78" x2="85.49" y2="161.51"/><path class="i" d="M108.42,175.7h0Zm22.4-28.76l-22.4,12.71v16.05l22.4-12.71v-16.05Z"/><path class="i" d="M130.98,162.89h0Zm22.4-28.76l-22.4,12.71v16.05l22.4-12.71v-16.05Z"/><path class="m" d="M153.54,150.08h0Zm22.4-28.76l-22.4,12.71v16.05l22.4-12.71v-16.05Z"/><line class="n" x1="166.8" y1="52.27" x2="175.93" y2="57.32"/><line class="n" x1="166.8" y1="84.27" x2="175.93" y2="89.32"/><line class="n" x1="166.8" y1="116.27" x2="175.93" y2="121.32"/><line class="n" x1="37.21" y1="141.8" x2="37.21" y2="136.84"/><line class="n" x1="44.53" y1="147.54" x2="44.53" y2="139.78"/><line class="n" x1="149.89" y1="168.69" x2="149.89" y2="163.72"/><line class="n" x1="188.52" y1="142.61" x2="188.52" y2="135.28"/><line class="n" x1="196.83" y1="146.85" x2="196.83" y2="141.89"/><line class="n" x1="168.89" y1="168.2" x2="168.89" y2="163.24"/><line class="n" x1="159.28" y1="165.79" x2="159.28" y2="158.03"/></g></g><g id="c"/><g id="d"/><g id="e"/><g id="f"/><g id="g"/><g id="h"/></svg>