<?xml version="1.0" encoding="UTF-8"?><svg xmlns="http://www.w3.org/2000/svg" xmlns:xlink="http://www.w3.org/1999/xlink" viewBox="0 0 484.69 481.33"><defs><style>.j{letter-spacing:.1em;}.k{letter-spacing:.2em;}.l{font-family:Aeonik-Black, Aeonik;font-size:22px;}.l,.m{fill:#65a5bf;}.n{letter-spacing:.16em;}.o{stroke-miterlimit:10;}.o,.m,.p,.q,.r{stroke:#002a3a;}.o,.s,.r{fill:none;}.t{letter-spacing:.18em;}.u{clip-path:url(#c);}.m,.p,.q,.s,.r{stroke-linecap:round;stroke-linejoin:round;stroke-width:6px;}.p{fill:#002a3a;}.q{fill:#005d84;}.s{stroke:#005d84;}</style><clipPath id="c"><path class="o" d="M243.04,452.58h0ZM24.28,326.29h0Zm0,0l218.74,126.29,218.74-126.29-218.74-126.29L24.29,326.28Z"/></clipPath></defs><g id="a"/><g id="b"><g><g class="u"><g><circle class="r" cx="33.21" cy="108.82" r="1.16"/><circle class="r" cx="48.63" cy="108.82" r="1.16"/><circle class="r" cx="64.05" cy="108.82" r="1.16"/><circle class="r" cx="79.47" cy="108.82" r="1.16"/><circle class="r" cx="94.89" cy="108.82" r="1.16"/><circle class="r" cx="110.32" cy="108.82" r="1.16"/><circle class="r" cx="125.74" cy="108.82" r="1.16"/><circle class="r" cx="141.16" cy="108.82" r="1.16"/><circle class="r" cx="156.58" cy="108.82" r="1.16"/><circle class="r" cx="172" cy="108.82" r="1.16"/><circle class="r" cx="187.42" cy="108.82" r="1.16"/><circle class="r" cx="202.85" cy="108.82" r="1.16"/><circle class="r" cx="218.27" cy="108.82" r="1.16"/><circle class="r" cx="233.69" cy="108.82" r="1.16"/><circle class="r" cx="249.11" cy="108.82" r="1.16"/><circle class="r" cx="264.53" cy="108.82" r="1.16"/><circle class="r" cx="279.95" cy="108.82" r="1.16"/><circle class="r" cx="295.38" cy="108.82" r="1.16"/><circle class="r" cx="310.8" cy="108.82" r="1.16"/><circle class="r" cx="326.22" cy="108.82" r="1.16"/><circle class="r" cx="341.64" cy="108.82" r="1.16"/><circle class="r" cx="357.06" cy="108.82" r="1.16"/><circle class="r" cx="372.49" cy="108.82" r="1.16"/><circle class="r" cx="387.91" cy="108.82" r="1.16"/><circle class="r" cx="403.33" cy="108.82" r="1.16"/><circle class="r" cx="418.75" cy="108.82" r="1.16"/><circle class="r" cx="434.17" cy="108.82" r="1.16"/><circle class="r" cx="449.59" cy="108.82" r="1.16"/><circle class="r" cx="33.21" cy="125.58" r="1.16"/><circle class="r" cx="48.63" cy="125.58" r="1.16"/><circle class="r" cx="64.05" cy="125.58" r="1.16"/><circle class="r" cx="79.47" cy="125.58" r="1.16"/><circle class="r" cx="94.89" cy="125.58" r="1.16"/><circle class="r" cx="110.32" cy="125.58" r="1.16"/><circle class="r" cx="125.74" cy="125.58" r="1.16"/><circle class="r" cx="141.16" cy="125.58" r="1.16"/><circle class="r" cx="156.58" cy="125.58" r="1.16"/><circle class="r" cx="172" cy="125.58" r="1.16"/><circle class="r" cx="187.42" cy="125.58" r="1.16"/><circle class="r" cx="202.85" cy="125.58" r="1.16"/><circle class="r" cx="218.27" cy="125.58" r="1.16"/><circle class="r" cx="233.69" cy="125.58" r="1.16"/><circle class="r" cx="249.11" cy="125.58" r="1.16"/><circle class="r" cx="264.53" cy="125.58" r="1.16"/><circle class="r" cx="279.95" cy="125.58" r="1.16"/><circle class="r" cx="295.38" cy="125.58" r="1.16"/><circle class="r" cx="310.8" cy="125.58" r="1.16"/><circle class="r" cx="326.22" cy="125.58" r="1.16"/><circle class="r" cx="341.64" cy="125.58" r="1.16"/><circle class="r" cx="357.06" cy="125.58" r="1.16"/><circle class="r" cx="372.49" cy="125.58" r="1.16"/><circle class="r" cx="387.91" cy="125.58" r="1.16"/><circle class="r" cx="403.33" cy="125.58" r="1.16"/><circle class="r" cx="418.75" cy="125.58" r="1.16"/><circle class="r" cx="434.17" cy="125.58" r="1.16"/><circle class="r" cx="449.59" cy="125.58" r="1.16"/><circle class="r" cx="33.21" cy="142.34" r="1.16"/><circle class="r" cx="48.63" cy="142.34" r="1.16"/><circle class="r" cx="64.05" cy="142.34" r="1.16"/><circle class="r" cx="79.47" cy="142.34" r="1.16"/><circle class="r" cx="94.89" cy="142.34" r="1.16"/><circle class="r" cx="110.32" cy="142.34" r="1.16"/><circle class="r" cx="125.74" cy="142.34" r="1.16"/><circle class="r" cx="141.16" cy="142.34" r="1.16"/><circle class="r" cx="156.58" cy="142.34" r="1.16"/><circle class="r" cx="172" cy="142.34" r="1.16"/><circle class="r" cx="187.42" cy="142.34" r="1.16"/><circle class="r" cx="202.85" cy="142.34" r="1.16"/><circle class="r" cx="218.27" cy="142.34" r="1.16"/><circle class="r" cx="233.69" cy="142.34" r="1.16"/><circle class="r" cx="249.11" cy="142.34" r="1.16"/><circle class="r" cx="264.53" cy="142.34" r="1.16"/><circle class="r" cx="279.95" cy="142.34" r="1.16"/><circle class="r" cx="295.38" cy="142.34" r="1.16"/><circle class="r" cx="310.8" cy="142.34" r="1.16"/><circle class="r" cx="326.22" cy="142.34" r="1.16"/><circle class="r" cx="341.64" cy="142.34" r="1.16"/><circle class="r" cx="357.06" cy="142.34" r="1.16"/><circle class="r" cx="372.49" cy="142.34" r="1.16"/><circle class="r" cx="387.91" cy="142.34" r="1.16"/><circle class="r" cx="403.33" cy="142.34" r="1.16"/><circle class="r" cx="418.75" cy="142.34" r="1.16"/><circle class="r" cx="434.17" cy="142.34" r="1.16"/><circle class="r" cx="449.59" cy="142.34" r="1.16"/><circle class="r" cx="33.21" cy="159.11" r="1.16"/><circle class="r" cx="48.63" cy="159.11" r="1.16"/><circle class="r" cx="64.05" cy="159.11" r="1.16"/><circle class="r" cx="79.47" cy="159.11" r="1.16"/><circle class="r" cx="94.89" cy="159.11" r="1.16"/><circle class="r" cx="110.32" cy="159.11" r="1.16"/><circle class="r" cx="125.74" cy="159.11" r="1.16"/><circle class="r" cx="141.16" cy="159.11" r="1.16"/><circle class="r" cx="156.58" cy="159.11" r="1.16"/><circle class="r" cx="172" cy="159.11" r="1.16"/><circle class="r" cx="187.42" cy="159.11" r="1.16"/><circle class="r" cx="202.85" cy="159.11" r="1.16"/><circle class="r" cx="218.27" cy="159.11" r="1.16"/><circle class="r" cx="233.69" cy="159.11" r="1.16"/><circle class="r" cx="249.11" cy="159.11" r="1.16"/><circle class="r" cx="264.53" cy="159.11" r="1.16"/><circle class="r" cx="279.95" cy="159.11" r="1.16"/><circle class="r" cx="295.38" cy="159.11" r="1.16"/><circle class="r" cx="310.8" cy="159.11" r="1.16"/><circle class="r" cx="326.22" cy="159.11" r="1.16"/><circle class="r" cx="341.64" cy="159.11" r="1.16"/><circle class="r" cx="357.06" cy="159.11" r="1.16"/><circle class="r" cx="372.49" cy="159.11" r="1.16"/><circle class="r" cx="387.91" cy="159.11" r="1.16"/><circle class="r" cx="403.33" cy="159.11" r="1.16"/><circle class="r" cx="418.75" cy="159.11" r="1.16"/><circle class="r" cx="434.17" cy="159.11" r="1.16"/><circle class="r" cx="449.59" cy="159.11" r="1.16"/><circle class="r" cx="33.21" cy="175.87" r="1.16"/><circle class="r" cx="48.63" cy="175.87" r="1.16"/><circle class="r" cx="64.05" cy="175.87" r="1.16"/><circle class="r" cx="79.47" cy="175.87" r="1.16"/><circle class="r" cx="94.89" cy="175.87" r="1.16"/><circle class="r" cx="110.32" cy="175.87" r="1.16"/><circle class="r" cx="125.74" cy="175.87" r="1.16"/><circle class="r" cx="141.16" cy="175.87" r="1.16"/><circle class="r" cx="156.58" cy="175.87" r="1.16"/><circle class="r" cx="172" cy="175.87" r="1.16"/><circle class="r" cx="187.42" cy="175.87" r="1.16"/><circle class="r" cx="202.85" cy="175.87" r="1.16"/><circle class="r" cx="218.27" cy="175.87" r="1.16"/><circle class="r" cx="233.69" cy="175.87" r="1.16"/><circle class="r" cx="249.11" cy="175.87" r="1.16"/><circle class="r" cx="264.53" cy="175.87" r="1.16"/><circle class="r" cx="279.95" cy="175.87" r="1.16"/><circle class="r" cx="295.38" cy="175.87" r="1.16"/><circle class="r" cx="310.8" cy="175.87" r="1.16"/><circle class="r" cx="326.22" cy="175.87" r="1.16"/><circle class="r" cx="341.64" cy="175.87" r="1.16"/><circle class="r" cx="357.06" cy="175.87" r="1.16"/><circle class="r" cx="372.49" cy="175.87" r="1.16"/><circle class="r" cx="387.91" cy="175.87" r="1.16"/><circle class="r" cx="403.33" cy="175.87" r="1.16"/><circle class="r" cx="418.75" cy="175.87" r="1.16"/><circle class="r" cx="434.17" cy="175.87" r="1.16"/><circle class="r" cx="449.59" cy="175.87" r="1.16"/><circle class="r" cx="33.21" cy="192.63" r="1.16"/><circle class="r" cx="48.63" cy="192.63" r="1.16"/><circle class="r" cx="64.05" cy="192.63" r="1.16"/><circle class="r" cx="79.47" cy="192.63" r="1.16"/><circle class="r" cx="94.89" cy="192.63" r="1.16"/><circle class="r" cx="110.32" cy="192.63" r="1.16"/><circle class="r" cx="125.74" cy="192.63" r="1.16"/><circle class="r" cx="141.16" cy="192.63" r="1.16"/><circle class="r" cx="156.58" cy="192.63" r="1.16"/><circle class="r" cx="172" cy="192.63" r="1.16"/><circle class="r" cx="187.42" cy="192.63" r="1.16"/><circle class="r" cx="202.85" cy="192.63" r="1.16"/><circle class="r" cx="218.27" cy="192.63" r="1.16"/><circle class="r" cx="233.69" cy="192.63" r="1.16"/><circle class="r" cx="249.11" cy="192.63" r="1.16"/><circle class="r" cx="264.53" cy="192.63" r="1.16"/><circle class="r" cx="279.95" cy="192.63" r="1.16"/><circle class="r" cx="295.38" cy="192.63" r="1.16"/><circle class="r" cx="310.8" cy="192.63" r="1.16"/><circle class="r" cx="326.22" cy="192.63" r="1.16"/><circle class="r" cx="341.64" cy="192.63" r="1.16"/><circle class="r" cx="357.06" cy="192.63" r="1.16"/><circle class="r" cx="372.49" cy="192.63" r="1.16"/><circle class="r" cx="387.91" cy="192.63" r="1.16"/><circle class="r" cx="403.33" cy="192.63" r="1.16"/><circle class="r" cx="418.75" cy="192.63" r="1.16"/><circle class="r" cx="434.17" cy="192.63" r="1.16"/><circle class="r" cx="449.59" cy="192.63" r="1.16"/><circle class="r" cx="33.21" cy="209.39" r="1.16"/><circle class="r" cx="48.63" cy="209.39" r="1.16"/><circle class="r" cx="64.05" cy="209.39" r="1.16"/><circle class="r" cx="79.47" cy="209.39" r="1.16"/><circle class="r" cx="94.89" cy="209.39" r="1.16"/><circle class="r" cx="110.32" cy="209.39" r="1.16"/><circle class="r" cx="125.74" cy="209.39" r="1.16"/><circle class="r" cx="141.16" cy="209.39" r="1.16"/><circle class="r" cx="156.58" cy="209.39" r="1.16"/><circle class="r" cx="172" cy="209.39" r="1.16"/><circle class="r" cx="187.42" cy="209.39" r="1.16"/><circle class="r" cx="202.85" cy="209.39" r="1.16"/><circle class="r" cx="218.27" cy="209.39" r="1.16"/><circle class="r" cx="233.69" cy="209.39" r="1.16"/><circle class="r" cx="249.11" cy="209.39" r="1.16"/><circle class="r" cx="264.53" cy="209.39" r="1.16"/><circle class="r" cx="279.95" cy="209.39" r="1.16"/><circle class="r" cx="295.38" cy="209.39" r="1.16"/><circle class="r" cx="310.8" cy="209.39" r="1.16"/><circle class="r" cx="326.22" cy="209.39" r="1.16"/><circle class="r" cx="341.64" cy="209.39" r="1.16"/><circle class="r" cx="357.06" cy="209.39" r="1.16"/><circle class="r" cx="372.49" cy="209.39" r="1.16"/><circle class="r" cx="387.91" cy="209.39" r="1.16"/><circle class="r" cx="403.33" cy="209.39" r="1.16"/><circle class="r" cx="418.75" cy="209.39" r="1.16"/><circle class="r" cx="434.17" cy="209.39" r="1.16"/><circle class="r" cx="449.59" cy="209.39" r="1.16"/><circle class="r" cx="33.21" cy="226.16" r="1.16"/><circle class="r" cx="48.63" cy="226.16" r="1.16"/><circle class="r" cx="64.05" cy="226.16" r="1.16"/><circle class="r" cx="79.47" cy="226.16" r="1.16"/><circle class="r" cx="94.89" cy="226.16" r="1.16"/><circle class="r" cx="110.32" cy="226.16" r="1.16"/><circle class="r" cx="125.74" cy="226.16" r="1.16"/><circle class="r" cx="141.16" cy="226.16" r="1.16"/><circle class="r" cx="156.58" cy="226.16" r="1.16"/><circle class="r" cx="172" cy="226.16" r="1.16"/><circle class="r" cx="187.42" cy="226.16" r="1.16"/><circle class="r" cx="202.85" cy="226.16" r="1.16"/><circle class="r" cx="218.27" cy="226.16" r="1.16"/><circle class="r" cx="233.69" cy="226.16" r="1.16"/><circle class="r" cx="249.11" cy="226.16" r="1.16"/><circle class="r" cx="264.53" cy="226.16" r="1.16"/><circle class="r" cx="279.95" cy="226.16" r="1.16"/><circle class="r" cx="295.38" cy="226.16" r="1.16"/><circle class="r" cx="310.8" cy="226.16" r="1.16"/><circle class="r" cx="326.22" cy="226.16" r="1.16"/><circle class="r" cx="341.64" cy="226.16" r="1.16"/><circle class="r" cx="357.06" cy="226.16" r="1.16"/><circle class="r" cx="372.49" cy="226.16" r="1.16"/><circle class="r" cx="387.91" cy="226.16" r="1.16"/><circle class="r" cx="403.33" cy="226.16" r="1.16"/><circle class="r" cx="418.75" cy="226.16" r="1.16"/><circle class="r" cx="434.17" cy="226.16" r="1.16"/><circle class="r" cx="449.59" cy="226.16" r="1.16"/><circle class="r" cx="33.21" cy="242.92" r="1.16"/><circle class="r" cx="48.63" cy="242.92" r="1.16"/><circle class="r" cx="64.05" cy="242.92" r="1.16"/><circle class="r" cx="79.47" cy="242.92" r="1.16"/><circle class="r" cx="94.89" cy="242.92" r="1.16"/><circle class="r" cx="110.32" cy="242.92" r="1.16"/><circle class="r" cx="125.74" cy="242.92" r="1.16"/><circle class="r" cx="141.16" cy="242.92" r="1.16"/><circle class="r" cx="156.58" cy="242.92" r="1.16"/><circle class="r" cx="172" cy="242.92" r="1.16"/><circle class="r" cx="187.42" cy="242.92" r="1.16"/><circle class="r" cx="202.85" cy="242.92" r="1.16"/><circle class="r" cx="218.27" cy="242.92" r="1.16"/><circle class="r" cx="233.69" cy="242.92" r="1.16"/><circle class="r" cx="249.11" cy="242.92" r="1.16"/><circle class="r" cx="264.53" cy="242.92" r="1.16"/><circle class="r" cx="279.95" cy="242.92" r="1.16"/><circle class="r" cx="295.38" cy="242.92" r="1.16"/><circle class="r" cx="310.8" cy="242.92" r="1.16"/><circle class="r" cx="326.22" cy="242.92" r="1.16"/><circle class="r" cx="341.64" cy="242.92" r="1.16"/><circle class="r" cx="357.06" cy="242.92" r="1.16"/><circle class="r" cx="372.49" cy="242.92" r="1.16"/><circle class="r" cx="387.91" cy="242.92" r="1.16"/><circle class="r" cx="403.33" cy="242.92" r="1.16"/><circle class="r" cx="418.75" cy="242.92" r="1.16"/><circle class="r" cx="434.17" cy="242.92" r="1.16"/><circle class="r" cx="449.59" cy="242.92" r="1.16"/><circle class="r" cx="33.21" cy="259.68" r="1.16"/><circle class="r" cx="48.63" cy="259.68" r="1.16"/><circle class="r" cx="64.05" cy="259.68" r="1.16"/><circle class="r" cx="79.47" cy="259.68" r="1.16"/><circle class="r" cx="94.89" cy="259.68" r="1.16"/><circle class="r" cx="110.32" cy="259.68" r="1.16"/><circle class="r" cx="125.74" cy="259.68" r="1.16"/><circle class="r" cx="141.16" cy="259.68" r="1.16"/><circle class="r" cx="156.58" cy="259.68" r="1.16"/><circle class="r" cx="172" cy="259.68" r="1.16"/><circle class="r" cx="187.42" cy="259.68" r="1.16"/><circle class="r" cx="202.85" cy="259.68" r="1.16"/><circle class="r" cx="218.27" cy="259.68" r="1.16"/><circle class="r" cx="233.69" cy="259.68" r="1.16"/><circle class="r" cx="249.11" cy="259.68" r="1.16"/><circle class="r" cx="264.53" cy="259.68" r="1.16"/><circle class="r" cx="279.95" cy="259.68" r="1.16"/><circle class="r" cx="295.38" cy="259.68" r="1.16"/><circle class="r" cx="310.8" cy="259.68" r="1.16"/><circle class="r" cx="326.22" cy="259.68" r="1.16"/><circle class="r" cx="341.64" cy="259.68" r="1.16"/><circle class="r" cx="357.06" cy="259.68" r="1.16"/><circle class="r" cx="372.49" cy="259.68" r="1.16"/><circle class="r" cx="387.91" cy="259.68" r="1.16"/><circle class="r" cx="403.33" cy="259.68" r="1.16"/><circle class="r" cx="418.75" cy="259.68" r="1.16"/><circle class="r" cx="434.17" cy="259.68" r="1.16"/><circle class="r" cx="449.59" cy="259.68" r="1.16"/><circle class="r" cx="33.21" cy="276.44" r="1.16"/><circle class="r" cx="48.63" cy="276.44" r="1.16"/><circle class="r" cx="64.05" cy="276.44" r="1.16"/><circle class="r" cx="79.47" cy="276.44" r="1.16"/><circle class="r" cx="94.89" cy="276.44" r="1.16"/><circle class="r" cx="110.32" cy="276.44" r="1.16"/><circle class="r" cx="125.74" cy="276.44" r="1.16"/><circle class="r" cx="141.16" cy="276.44" r="1.16"/><circle class="r" cx="156.58" cy="276.44" r="1.16"/><circle class="r" cx="172" cy="276.44" r="1.16"/><circle class="r" cx="187.42" cy="276.44" r="1.16"/><circle class="r" cx="202.85" cy="276.44" r="1.16"/><circle class="r" cx="218.27" cy="276.44" r="1.16"/><circle class="r" cx="233.69" cy="276.44" r="1.16"/><circle class="r" cx="249.11" cy="276.44" r="1.16"/><circle class="r" cx="264.53" cy="276.44" r="1.16"/><circle class="r" cx="279.95" cy="276.44" r="1.16"/><circle class="r" cx="295.38" cy="276.44" r="1.16"/><circle class="r" cx="310.8" cy="276.44" r="1.16"/><circle class="r" cx="326.22" cy="276.44" r="1.16"/><circle class="r" cx="341.64" cy="276.44" r="1.16"/><circle class="r" cx="357.06" cy="276.44" r="1.16"/><circle class="r" cx="372.49" cy="276.44" r="1.16"/><circle class="r" cx="387.91" cy="276.44" r="1.16"/><circle class="r" cx="403.33" cy="276.44" r="1.16"/><circle class="r" cx="418.75" cy="276.44" r="1.16"/><circle class="r" cx="434.17" cy="276.44" r="1.16"/><circle class="r" cx="449.59" cy="276.44" r="1.16"/><circle class="r" cx="33.21" cy="293.21" r="1.16"/><circle class="r" cx="48.63" cy="293.21" r="1.16"/><circle class="r" cx="64.05" cy="293.21" r="1.16"/><circle class="r" cx="79.47" cy="293.21" r="1.16"/><circle class="r" cx="94.89" cy="293.21" r="1.16"/><circle class="r" cx="110.32" cy="293.21" r="1.16"/><circle class="r" cx="125.74" cy="293.21" r="1.16"/><circle class="r" cx="141.16" cy="293.21" r="1.16"/><circle class="r" cx="156.58" cy="293.21" r="1.16"/><circle class="r" cx="172" cy="293.21" r="1.16"/><circle class="r" cx="187.42" cy="293.21" r="1.16"/><circle class="r" cx="202.85" cy="293.21" r="1.16"/><circle class="r" cx="218.27" cy="293.21" r="1.16"/><circle class="r" cx="233.69" cy="293.21" r="1.16"/><circle class="r" cx="249.11" cy="293.21" r="1.16"/><circle class="r" cx="264.53" cy="293.21" r="1.16"/><circle class="r" cx="279.95" cy="293.21" r="1.16"/><circle class="r" cx="295.38" cy="293.21" r="1.16"/><circle class="r" cx="310.8" cy="293.21" r="1.16"/><circle class="r" cx="326.22" cy="293.21" r="1.16"/><circle class="r" cx="341.64" cy="293.21" r="1.16"/><circle class="r" cx="357.06" cy="293.21" r="1.16"/><circle class="r" cx="372.49" cy="293.21" r="1.16"/><circle class="r" cx="387.91" cy="293.21" r="1.16"/><circle class="r" cx="403.33" cy="293.21" r="1.16"/><circle class="r" cx="418.75" cy="293.21" r="1.16"/><circle class="r" cx="434.17" cy="293.21" r="1.16"/><circle class="r" cx="449.59" cy="293.21" r="1.16"/><circle class="r" cx="33.21" cy="309.97" r="1.16"/><circle class="r" cx="48.63" cy="309.97" r="1.16"/><circle class="r" cx="64.05" cy="309.97" r="1.16"/><circle class="r" cx="79.47" cy="309.97" r="1.16"/><circle class="r" cx="94.89" cy="309.97" r="1.16"/><circle class="r" cx="110.32" cy="309.97" r="1.16"/><circle class="r" cx="125.74" cy="309.97" r="1.16"/><circle class="r" cx="141.16" cy="309.97" r="1.16"/><circle class="r" cx="156.58" cy="309.97" r="1.16"/><circle class="r" cx="172" cy="309.97" r="1.16"/><circle class="r" cx="187.42" cy="309.97" r="1.16"/><circle class="r" cx="202.85" cy="309.97" r="1.16"/><circle class="r" cx="218.27" cy="309.97" r="1.16"/><circle class="r" cx="233.69" cy="309.97" r="1.16"/><circle class="r" cx="249.11" cy="309.97" r="1.16"/><circle class="r" cx="264.53" cy="309.97" r="1.16"/><circle class="r" cx="279.95" cy="309.97" r="1.16"/><circle class="r" cx="295.38" cy="309.97" r="1.16"/><circle class="r" cx="310.8" cy="309.97" r="1.16"/><circle class="r" cx="326.22" cy="309.97" r="1.16"/><circle class="r" cx="341.64" cy="309.97" r="1.16"/><circle class="r" cx="357.06" cy="309.97" r="1.16"/><circle class="r" cx="372.49" cy="309.97" r="1.16"/><circle class="r" cx="387.91" cy="309.97" r="1.16"/><circle class="r" cx="403.33" cy="309.97" r="1.16"/><circle class="r" cx="418.75" cy="309.97" r="1.16"/><circle class="r" cx="434.17" cy="309.97" r="1.16"/><circle class="r" cx="449.59" cy="309.97" r="1.16"/><circle class="r" cx="33.21" cy="326.73" r="1.16"/><circle class="r" cx="48.63" cy="326.73" r="1.16"/><circle class="r" cx="64.05" cy="326.73" r="1.16"/><circle class="r" cx="79.47" cy="326.73" r="1.16"/><circle class="r" cx="94.89" cy="326.73" r="1.16"/><circle class="r" cx="110.32" cy="326.73" r="1.16"/><circle class="r" cx="125.74" cy="326.73" r="1.16"/><circle class="r" cx="141.16" cy="326.73" r="1.16"/><circle class="r" cx="156.58" cy="326.73" r="1.16"/><circle class="r" cx="172" cy="326.73" r="1.16"/><circle class="r" cx="187.42" cy="326.73" r="1.16"/><circle class="r" cx="202.85" cy="326.73" r="1.16"/><circle class="r" cx="218.27" cy="326.73" r="1.16"/><circle class="r" cx="233.69" cy="326.73" r="1.16"/><circle class="r" cx="249.11" cy="326.73" r="1.16"/><circle class="r" cx="264.53" cy="326.73" r="1.16"/><circle class="r" cx="279.95" cy="326.73" r="1.16"/><circle class="r" cx="295.38" cy="326.73" r="1.16"/><circle class="r" cx="326.22" cy="326.73" r="1.16"/><circle class="r" cx="341.64" cy="326.73" r="1.16"/><circle class="r" cx="357.06" cy="326.73" r="1.16"/><circle class="r" cx="372.49" cy="326.73" r="1.16"/><circle class="r" cx="387.91" cy="326.73" r="1.16"/><circle class="r" cx="403.33" cy="326.73" r="1.16"/><circle class="r" cx="418.75" cy="326.73" r="1.16"/><circle class="r" cx="434.17" cy="326.73" r="1.16"/><circle class="r" cx="449.59" cy="326.73" r="1.16"/><circle class="r" cx="33.21" cy="343.5" r="1.16"/><circle class="r" cx="48.63" cy="343.5" r="1.16"/><circle class="r" cx="64.05" cy="343.5" r="1.16"/><circle class="r" cx="79.47" cy="343.5" r="1.16"/><circle class="r" cx="94.89" cy="343.5" r="1.16"/><circle class="r" cx="110.32" cy="343.5" r="1.16"/><circle class="r" cx="125.74" cy="343.5" r="1.16"/><circle class="r" cx="141.16" cy="343.5" r="1.16"/><circle class="r" cx="156.58" cy="343.5" r="1.16"/><circle class="r" cx="172" cy="343.5" r="1.16"/><circle class="r" cx="187.42" cy="343.5" r="1.16"/><circle class="r" cx="202.85" cy="343.5" r="1.16"/><circle class="r" cx="218.27" cy="343.5" r="1.16"/><circle class="r" cx="233.69" cy="343.5" r="1.16"/><circle class="r" cx="249.11" cy="343.5" r="1.16"/><circle class="r" cx="264.53" cy="343.5" r="1.16"/><circle class="r" cx="279.95" cy="343.5" r="1.16"/><circle class="r" cx="295.38" cy="343.5" r="1.16"/><circle class="r" cx="310.8" cy="343.5" r="1.16"/><circle class="r" cx="326.22" cy="343.5" r="1.16"/><circle class="r" cx="341.64" cy="343.5" r="1.16"/><circle class="r" cx="357.06" cy="343.5" r="1.16"/><circle class="r" cx="372.49" cy="343.5" r="1.16"/><circle class="r" cx="387.91" cy="343.5" r="1.16"/><circle class="r" cx="403.33" cy="343.5" r="1.16"/><circle class="r" cx="418.75" cy="343.5" r="1.16"/><circle class="r" cx="434.17" cy="343.5" r="1.16"/><circle class="r" cx="449.59" cy="343.5" r="1.16"/><circle class="r" cx="33.21" cy="360.26" r="1.16"/><circle class="r" cx="48.63" cy="360.26" r="1.16"/><circle class="r" cx="64.05" cy="360.26" r="1.16"/><circle class="r" cx="79.47" cy="360.26" r="1.16"/><circle class="r" cx="94.89" cy="360.26" r="1.16"/><circle class="r" cx="110.32" cy="360.26" r="1.16"/><circle class="r" cx="125.74" cy="360.26" r="1.16"/><circle class="r" cx="141.16" cy="360.26" r="1.16"/><circle class="r" cx="156.58" cy="360.26" r="1.16"/><circle class="r" cx="172" cy="360.26" r="1.16"/><circle class="r" cx="187.42" cy="360.26" r="1.16"/><circle class="r" cx="202.85" cy="360.26" r="1.16"/><circle class="r" cx="218.27" cy="360.26" r="1.16"/><circle class="r" cx="233.69" cy="360.26" r="1.16"/><circle class="r" cx="249.11" cy="360.26" r="1.16"/><circle class="r" cx="264.53" cy="360.26" r="1.16"/><circle class="r" cx="279.95" cy="360.26" r="1.16"/><circle class="r" cx="295.38" cy="360.26" r="1.16"/><circle class="r" cx="310.8" cy="360.26" r="1.16"/><circle class="r" cx="326.22" cy="360.26" r="1.16"/><circle class="r" cx="341.64" cy="360.26" r="1.16"/><circle class="r" cx="357.06" cy="360.26" r="1.16"/><circle class="r" cx="372.49" cy="360.26" r="1.16"/><circle class="r" cx="387.91" cy="360.26" r="1.16"/><circle class="r" cx="403.33" cy="360.26" r="1.16"/><circle class="r" cx="418.75" cy="360.26" r="1.16"/><circle class="r" cx="434.17" cy="360.26" r="1.16"/><circle class="r" cx="449.59" cy="360.26" r="1.16"/><circle class="r" cx="33.21" cy="377.02" r="1.16"/><circle class="r" cx="48.63" cy="377.02" r="1.16"/><circle class="r" cx="64.05" cy="377.02" r="1.16"/><circle class="r" cx="79.47" cy="377.02" r="1.16"/><circle class="r" cx="94.89" cy="377.02" r="1.16"/><circle class="r" cx="110.32" cy="377.02" r="1.16"/><circle class="r" cx="125.74" cy="377.02" r="1.16"/><circle class="r" cx="141.16" cy="377.02" r="1.16"/><circle class="r" cx="156.58" cy="377.02" r="1.16"/><circle class="r" cx="172" cy="377.02" r="1.16"/><circle class="r" cx="187.42" cy="377.02" r="1.16"/><circle class="r" cx="202.85" cy="377.02" r="1.16"/><circle class="r" cx="218.27" cy="377.02" r="1.16"/><circle class="r" cx="233.69" cy="377.02" r="1.16"/><circle class="r" cx="249.11" cy="377.02" r="1.16"/><circle class="r" cx="264.53" cy="377.02" r="1.16"/><circle class="r" cx="279.95" cy="377.02" r="1.16"/><circle class="r" cx="295.38" cy="377.02" r="1.16"/><circle class="r" cx="310.8" cy="377.02" r="1.16"/><circle class="r" cx="326.22" cy="377.02" r="1.16"/><circle class="r" cx="341.64" cy="377.02" r="1.16"/><circle class="r" cx="357.06" cy="377.02" r="1.16"/><circle class="r" cx="372.49" cy="377.02" r="1.16"/><circle class="r" cx="387.91" cy="377.02" r="1.16"/><circle class="r" cx="403.33" cy="377.02" r="1.16"/><circle class="r" cx="418.75" cy="377.02" r="1.16"/><circle class="r" cx="434.17" cy="377.02" r="1.16"/><circle class="r" cx="449.59" cy="377.02" r="1.16"/><circle class="r" cx="33.21" cy="393.78" r="1.16"/><circle class="r" cx="48.63" cy="393.78" r="1.16"/><circle class="r" cx="64.05" cy="393.78" r="1.16"/><circle class="r" cx="79.47" cy="393.78" r="1.16"/><circle class="r" cx="94.89" cy="393.78" r="1.16"/><circle class="r" cx="110.32" cy="393.78" r="1.16"/><circle class="r" cx="125.74" cy="393.78" r="1.16"/><circle class="r" cx="141.16" cy="393.78" r="1.16"/><circle class="r" cx="156.58" cy="393.78" r="1.16"/><circle class="r" cx="172" cy="393.78" r="1.16"/><circle class="r" cx="187.42" cy="393.78" r="1.16"/><circle class="r" cx="202.85" cy="393.78" r="1.16"/><circle class="r" cx="218.27" cy="393.78" r="1.16"/><circle class="r" cx="233.69" cy="393.78" r="1.16"/><circle class="r" cx="249.11" cy="393.78" r="1.16"/><circle class="r" cx="264.53" cy="393.78" r="1.16"/><circle class="r" cx="279.95" cy="393.78" r="1.16"/><circle class="r" cx="295.38" cy="393.78" r="1.16"/><circle class="r" cx="310.8" cy="393.78" r="1.16"/><circle class="r" cx="326.22" cy="393.78" r="1.16"/><circle class="r" cx="341.64" cy="393.78" r="1.16"/><circle class="r" cx="357.06" cy="393.78" r="1.16"/><circle class="r" cx="372.49" cy="393.78" r="1.16"/><circle class="r" cx="387.91" cy="393.78" r="1.16"/><circle class="r" cx="403.33" cy="393.78" r="1.16"/><circle class="r" cx="418.75" cy="393.78" r="1.16"/><circle class="r" cx="434.17" cy="393.78" r="1.16"/><circle class="r" cx="449.59" cy="393.78" r="1.16"/><circle class="r" cx="33.21" cy="410.55" r="1.16"/><circle class="r" cx="48.63" cy="410.55" r="1.16"/><circle class="r" cx="64.05" cy="410.55" r="1.16"/><circle class="r" cx="79.47" cy="410.55" r="1.16"/><circle class="r" cx="94.89" cy="410.55" r="1.16"/><circle class="r" cx="110.32" cy="410.55" r="1.16"/><circle class="r" cx="125.74" cy="410.55" r="1.16"/><circle class="r" cx="141.16" cy="410.55" r="1.16"/><circle class="r" cx="156.58" cy="410.55" r="1.16"/><circle class="r" cx="172" cy="410.55" r="1.16"/><circle class="r" cx="187.42" cy="410.55" r="1.16"/><circle class="r" cx="202.85" cy="410.55" r="1.16"/><circle class="r" cx="218.27" cy="410.55" r="1.16"/><circle class="r" cx="233.69" cy="410.55" r="1.16"/><circle class="r" cx="249.11" cy="410.55" r="1.16"/><circle class="r" cx="264.53" cy="410.55" r="1.16"/><circle class="r" cx="279.95" cy="410.55" r="1.16"/><circle class="r" cx="295.38" cy="410.55" r="1.16"/><circle class="r" cx="310.8" cy="410.55" r="1.16"/><circle class="r" cx="326.22" cy="410.55" r="1.16"/><circle class="r" cx="341.64" cy="410.55" r="1.16"/><circle class="r" cx="357.06" cy="410.55" r="1.16"/><circle class="r" cx="372.49" cy="410.55" r="1.16"/><circle class="r" cx="387.91" cy="410.55" r="1.16"/><circle class="r" cx="403.33" cy="410.55" r="1.16"/><circle class="r" cx="418.75" cy="410.55" r="1.16"/><circle class="r" cx="434.17" cy="410.55" r="1.16"/><circle class="r" cx="449.59" cy="410.55" r="1.16"/><circle class="r" cx="33.21" cy="427.31" r="1.16"/><circle class="r" cx="48.63" cy="427.31" r="1.16"/><circle class="r" cx="64.05" cy="427.31" r="1.16"/><circle class="r" cx="79.47" cy="427.31" r="1.16"/><circle class="r" cx="94.89" cy="427.31" r="1.16"/><circle class="r" cx="110.32" cy="427.31" r="1.16"/><circle class="r" cx="125.74" cy="427.31" r="1.16"/><circle class="r" cx="141.16" cy="427.31" r="1.16"/><circle class="r" cx="156.58" cy="427.31" r="1.16"/><circle class="r" cx="172" cy="427.31" r="1.16"/><circle class="r" cx="187.42" cy="427.31" r="1.16"/><circle class="r" cx="202.85" cy="427.31" r="1.16"/><circle class="r" cx="218.27" cy="427.31" r="1.16"/><circle class="r" cx="233.69" cy="427.31" r="1.16"/><circle class="r" cx="249.11" cy="427.31" r="1.16"/><circle class="r" cx="264.53" cy="427.31" r="1.16"/><circle class="r" cx="279.95" cy="427.31" r="1.16"/><circle class="r" cx="295.38" cy="427.31" r="1.16"/><circle class="r" cx="310.8" cy="427.31" r="1.16"/><circle class="r" cx="326.22" cy="427.31" r="1.16"/><circle class="r" cx="341.64" cy="427.31" r="1.16"/><circle class="r" cx="357.06" cy="427.31" r="1.16"/><circle class="r" cx="372.49" cy="427.31" r="1.16"/><circle class="r" cx="387.91" cy="427.31" r="1.16"/><circle class="r" cx="403.33" cy="427.31" r="1.16"/><circle class="r" cx="418.75" cy="427.31" r="1.16"/><circle class="r" cx="434.17" cy="427.31" r="1.16"/><circle class="r" cx="449.59" cy="427.31" r="1.16"/><circle class="r" cx="33.21" cy="444.07" r="1.16"/><circle class="r" cx="48.63" cy="444.07" r="1.16"/><circle class="r" cx="64.05" cy="444.07" r="1.16"/><circle class="r" cx="79.47" cy="444.07" r="1.16"/><circle class="r" cx="94.89" cy="444.07" r="1.16"/><circle class="r" cx="110.32" cy="444.07" r="1.16"/><circle class="r" cx="125.74" cy="444.07" r="1.16"/><circle class="r" cx="141.16" cy="444.07" r="1.16"/><circle class="r" cx="156.58" cy="444.07" r="1.16"/><circle class="r" cx="172" cy="444.07" r="1.16"/><circle class="r" cx="187.42" cy="444.07" r="1.16"/><circle class="r" cx="202.85" cy="444.07" r="1.16"/><circle class="r" cx="218.27" cy="444.07" r="1.16"/><circle class="r" cx="233.69" cy="444.07" r="1.16"/><circle class="r" cx="249.11" cy="444.07" r="1.16"/><circle class="r" cx="264.53" cy="444.07" r="1.16"/><circle class="r" cx="279.95" cy="444.07" r="1.16"/><circle class="r" cx="295.38" cy="444.07" r="1.16"/><circle class="r" cx="310.8" cy="444.07" r="1.16"/><circle class="r" cx="326.22" cy="444.07" r="1.16"/><circle class="r" cx="341.64" cy="444.07" r="1.16"/><circle class="r" cx="357.06" cy="444.07" r="1.16"/><circle class="r" cx="372.49" cy="444.07" r="1.16"/><circle class="r" cx="387.91" cy="444.07" r="1.16"/><circle class="r" cx="403.33" cy="444.07" r="1.16"/><circle class="r" cx="418.75" cy="444.07" r="1.16"/><circle class="r" cx="434.17" cy="444.07" r="1.16"/><circle class="r" cx="449.59" cy="444.07" r="1.16"/><circle class="r" cx="33.21" cy="460.84" r="1.16"/><circle class="r" cx="48.63" cy="460.84" r="1.16"/><circle class="r" cx="64.05" cy="460.84" r="1.16"/><circle class="r" cx="79.47" cy="460.84" r="1.16"/><circle class="r" cx="94.89" cy="460.84" r="1.16"/><circle class="r" cx="110.32" cy="460.84" r="1.16"/><circle class="r" cx="125.74" cy="460.84" r="1.16"/><circle class="r" cx="141.16" cy="460.84" r="1.16"/><circle class="r" cx="156.58" cy="460.84" r="1.16"/><circle class="r" cx="172" cy="460.84" r="1.16"/><circle class="r" cx="187.42" cy="460.84" r="1.16"/><circle class="r" cx="202.85" cy="460.84" r="1.16"/><circle class="r" cx="218.27" cy="460.84" r="1.16"/><circle class="r" cx="233.69" cy="460.84" r="1.16"/><circle class="r" cx="249.11" cy="460.84" r="1.16"/><circle class="r" cx="264.53" cy="460.84" r="1.16"/><circle class="r" cx="279.95" cy="460.84" r="1.16"/><circle class="r" cx="295.38" cy="460.84" r="1.16"/><circle class="r" cx="310.8" cy="460.84" r="1.16"/><circle class="r" cx="326.22" cy="460.84" r="1.16"/><circle class="r" cx="341.64" cy="460.84" r="1.16"/><circle class="r" cx="357.06" cy="460.84" r="1.16"/><circle class="r" cx="372.49" cy="460.84" r="1.16"/><circle class="r" cx="387.91" cy="460.84" r="1.16"/><circle class="r" cx="403.33" cy="460.84" r="1.16"/><circle class="r" cx="418.75" cy="460.84" r="1.16"/><circle class="r" cx="434.17" cy="460.84" r="1.16"/><circle class="r" cx="449.59" cy="460.84" r="1.16"/><circle class="r" cx="33.21" cy="477.6" r="1.16"/><circle class="r" cx="48.63" cy="477.6" r="1.16"/><circle class="r" cx="64.05" cy="477.6" r="1.16"/><circle class="r" cx="79.47" cy="477.6" r="1.16"/><circle class="r" cx="94.89" cy="477.6" r="1.16"/><circle class="r" cx="110.32" cy="477.6" r="1.16"/><circle class="r" cx="125.74" cy="477.6" r="1.16"/><circle class="r" cx="141.16" cy="477.6" r="1.16"/><circle class="r" cx="156.58" cy="477.6" r="1.16"/><circle class="r" cx="172" cy="477.6" r="1.16"/><circle class="r" cx="187.42" cy="477.6" r="1.16"/><circle class="r" cx="202.85" cy="477.6" r="1.16"/><circle class="r" cx="218.27" cy="477.6" r="1.16"/><circle class="r" cx="233.69" cy="477.6" r="1.16"/><circle class="r" cx="249.11" cy="477.6" r="1.16"/><circle class="r" cx="264.53" cy="477.6" r="1.16"/><circle class="r" cx="279.95" cy="477.6" r="1.16"/><circle class="r" cx="295.38" cy="477.6" r="1.16"/><circle class="r" cx="310.8" cy="477.6" r="1.16"/><circle class="r" cx="326.22" cy="477.6" r="1.16"/><circle class="r" cx="341.64" cy="477.6" r="1.16"/><circle class="r" cx="357.06" cy="477.6" r="1.16"/><circle class="r" cx="372.49" cy="477.6" r="1.16"/><circle class="r" cx="387.91" cy="477.6" r="1.16"/><circle class="r" cx="403.33" cy="477.6" r="1.16"/><circle class="r" cx="418.75" cy="477.6" r="1.16"/><circle class="r" cx="434.17" cy="477.6" r="1.16"/><circle class="r" cx="449.59" cy="477.6" r="1.16"/></g></g><path class="o" d="M243.04,452.58h0ZM24.28,326.29h0Zm0,0l218.74,126.29,218.74-126.29-218.74-126.29L24.29,326.28Z"/></g><path class="r" d="M244.06,452.35h0ZM25.3,326.06h0Zm218.75-126.29L25.31,326.05l218.74,126.29,218.74-126.29-126.39-72.97"/><g><path class="q" d="M193.54,28.38l14.82-8.81c3.45-2.42,8.19-2.96,12.36-.55l79.42,45.85c9.29,5.37,15.02,15.28,15.02,26.01v231.55c0,3.98-1.76,7.56-4.76,9.32-3.52,2.05-16.16,9.68-16.16,9.68"/><path class="p" d="M188.31,270.55V38.02c0-8.85,9.58-14.39,17.25-9.96l79.42,45.85c9.29,5.37,15.02,15.28,15.02,26.01v231.55c0,8.8-9.49,14.34-17.16,10.01l-79.27-44.78c-9.43-5.33-15.26-15.32-15.26-26.15Z"/><line class="s" x1="233.73" y1="63.65" x2="254.35" y2="75.56"/><line class="r" x1="310.04" y1="123.82" x2="310.04" y2="153.02"/></g><g><path class="m" d="M301.91,277.06l13.84,9.49c10.25,7.38,9.7,22.81-1.05,29.44l-18.71,10.01h-38.37v-10.35c0-8.72,7.07-15.8,15.8-15.8h22.22l16.42-8.71"/><path class="m" d="M312.44,244.96l13.84,9.49c10.25,7.38,9.7,22.81-1.05,29.44l-29.25,16.3h-38.37v-10.35c0-8.72,7.07-15.8,15.8-15.8h22.22l16.42-8.71"/><path class="m" d="M316.88,216.42l13.84,9.49c10.25,7.38,9.7,22.81-1.05,29.44l-29.25,16.3h-38.37v-10.35c0-8.72,7.07-15.8,15.8-15.8h22.22l16.42-8.71"/><path class="m" d="M212.9,332.65c0-56.43-34.34-70.22-34.34-70.22l22.24-41.86c6.76-12.73,2.28-28.54-10.17-35.82l-39.78,77.68v94.53l-7.88,20.2,74.38,43.21,10.67-23.77c40.79-10.38,54.82-55.11,54.82-55.11l4.38-14.75h-29.6l-50.09-28.86"/><polyline class="m" points="124.8 381.44 129.57 369.37 228.02 426.57 223.25 438.28"/></g><text class="l" transform="translate(588.9 455.89)"><tspan class="n" x="0" y="0">A</tspan><tspan class="k" x="19.25" y="0">UGMEN</tspan><tspan class="j" x="121.68" y="0">TA</tspan><tspan class="k" x="155.17" y="0">TION SE</tspan><tspan class="t" x="270.05" y="0">R</tspan><tspan class="k" x="288.37" y="0">VICES</tspan></text></g><g id="d"/><g id="e"/><g id="f"/><g id="g"/><g id="h"/><g id="i"/></svg>