<?xml version="1.0" encoding="UTF-8"?><svg xmlns="http://www.w3.org/2000/svg" viewBox="0 0 484.69 333.46"><defs><style>.i{fill:#65a5bf;}.i,.j,.k,.l,.m{stroke-linecap:round;stroke-linejoin:round;stroke-width:6px;}.i,.j,.k,.m{stroke:#002a3a;}.j{fill:#feae76;}.k{fill:#002a3a;}.l{stroke:#fff;}.l,.m{fill:none;}</style></defs><g id="a"/><g id="b"><g><path class="l" d="M179.83,212.35c15.56,18.84,39.11,30.85,65.46,30.85s47.49-10.82,63.02-28.03"/><path class="l" d="M156.13,237.29c22.05,24.21,53.83,39.4,89.16,39.4s67.2-15.24,89.25-39.5"/><path class="l" d="M132.97,260.39c27.99,30.13,67.95,48.98,112.31,48.98s85.53-19.42,113.56-50.34"/></g><g><line class="j" x1="49.03" y1="42.74" x2="222.37" y2="142.82"/><path class="i" d="M28.48,67.89l140.36,81.04,63.57-35.74L92.05,32.15,28.48,67.89Z"/><line class="j" x1="98.66" y1="108.41" x2="162.23" y2="72.67"/><line class="j" x1="62.28" y1="87.57" x2="125.85" y2="51.83"/><line class="j" x1="132.79" y1="128.16" x2="196.37" y2="92.42"/><path class="k" d="M214.77,193.98c-7.33,0-14.45-3.8-18.37-10.6-5.85-10.14-2.38-23.1,7.76-28.95l60.86-34.91c10.14-5.85,23.1-2.38,28.95,7.76,5.85,10.14,2.38,23.1-7.76,28.95l-60.86,34.91c-3.34,1.93-6.98,2.84-10.58,2.84Z"/><line class="j" x1="261.15" y1="168.82" x2="437.95" y2="270.89"/><path class="i" d="M253.38,201.35l140.36,81.04,63.57-35.74-140.36-81.04-63.57,35.74Z"/><line class="j" x1="323.56" y1="241.87" x2="387.13" y2="206.13"/><line class="j" x1="287.18" y1="221.03" x2="350.76" y2="185.29"/><line class="m" x1="357.7" y1="261.61" x2="421.27" y2="225.87"/></g></g><g id="c"/><g id="d"/><g id="e"/><g id="f"/><g id="g"/><g id="h"/></svg>