<?xml version="1.0" encoding="UTF-8"?><svg xmlns="http://www.w3.org/2000/svg" viewBox="0 0 400 369"><defs><style>.i{letter-spacing:-.04em;}.j{letter-spacing:-.02em;}.k{letter-spacing:-.02em;}.l{letter-spacing:-.02em;}.m{letter-spacing:0em;}.n{letter-spacing:0em;}.o{letter-spacing:-.02em;}.p{letter-spacing:-.02em;}.q{letter-spacing:0em;}.r{letter-spacing:-.03em;}.s{letter-spacing:0em;}.t{letter-spacing:-.03em;}.u{letter-spacing:0em;}.v{letter-spacing:0em;}.w{letter-spacing:-.03em;}.x{letter-spacing:-.01em;}.y{letter-spacing:-.02em;}.a`{fill:#65a5bf;font-family:Aeonik-Regular, Aeonik;font-size:20px;}.aa{letter-spacing:-.01em;}.ab{letter-spacing:-.02em;}.ac{letter-spacing:0em;}.ad{letter-spacing:-.03em;}.ae{letter-spacing:-.01em;}.af{letter-spacing:0em;}.ag{letter-spacing:-.01em;}.ah{letter-spacing:0em;}</style></defs><g id="a"/><g id="b"><text class="a`" transform="translate(16.99 26.02)"><tspan x="0" y="0">SPEAR supports a</tspan><tspan class="ac" x="160.66" y="0">s</tspan><tspan x="170.44" y="0">sis</tspan><tspan class="v" x="194.28" y="0">t</tspan><tspan x="200.5" y="0">an</tspan><tspan class="x" x="222.52" y="0">c</tspan><tspan x="233.3" y="0">e n</tspan><tspan class="aa" x="260.96" y="0">a</tspan><tspan x="271.46" y="0">vigation </tspan><tspan class="ag" x="0" y="27">t</tspan><tspan x="6.12" y="27">echnologi</tspan><tspan class="s" x="93.74" y="27">e</tspan><tspan x="104.9" y="27">s that inc</tspan><tspan class="w" x="186.26" y="27">r</tspan><tspan x="192.36" y="27">ease the engine </tspan><tspan x="0" y="54">per</tspan><tspan class="j" x="29.8" y="54">f</tspan><tspan x="34.96" y="54">orman</tspan><tspan class="x" x="92.64" y="54">c</tspan><tspan x="103.42" y="54">e such as augmen</tspan><tspan class="u" x="267.86" y="54">t</tspan><tspan x="274.08" y="54">ation </tspan><tspan x="0" y="81">se</tspan><tspan class="ah" x="21.18" y="81">r</tspan><tspan x="27.96" y="81">vi</tspan><tspan class="x" x="41.66" y="81">c</tspan><tspan class="s" x="52.44" y="81">e</tspan><tspan class="m" x="63.6" y="81">s or </tspan><tspan class="ae" x="102.38" y="81">S</tspan><tspan x="114.26" y="81">SR </tspan><tspan class="x" x="143.86" y="81">c</tspan><tspan x="154.64" y="81">or</tspan><tspan class="t" x="172.96" y="81">r</tspan><tspan x="179.06" y="81">ections such as </tspan><tspan x="0" y="108">Galileo High </tspan><tspan class="y" x="111.18" y="108">A</tspan><tspan class="x" x="123.9" y="108">c</tspan><tspan x="134.68" y="108">cu</tspan><tspan class="p" x="156.7" y="108">r</tspan><tspan x="162.9" y="108">a</tspan><tspan class="l" x="173.7" y="108">c</tspan><tspan x="184.3" y="108">y Se</tspan><tspan class="af" x="222.74" y="108">r</tspan><tspan class="n" x="229.52" y="108">vi</tspan><tspan class="x" x="243.22" y="108">c</tspan><tspan x="254" y="108">e (H</tspan><tspan class="r" x="289.88" y="108">A</tspan><tspan x="302.54" y="108">S).</tspan><tspan x="0" y="162">In addition, SPEAR has been d</tspan><tspan class="s" x="267.65" y="162">e</tspan><tspan x="278.81" y="162">signed </tspan><tspan class="ag" x="344.17" y="162">t</tspan><tspan x="350.29" y="162">o </tspan><tspan x="0" y="189">fuse GN</tspan><tspan class="ag" x="72.22" y="189">S</tspan><tspan x="84.1" y="189">S da</tspan><tspan class="u" x="124.2" y="189">t</tspan><tspan x="130.42" y="189">a with </tspan><tspan class="q" x="188.84" y="189">o</tspan><tspan x="200.36" y="189">ther </tspan><tspan class="ag" x="241.1" y="189">t</tspan><tspan x="247.22" y="189">echnologi</tspan><tspan class="s" x="334.84" y="189">e</tspan><tspan x="346" y="189">s </tspan><tspan x="0" y="216">such as Wi-Fi </tspan><tspan class="t" x="126.64" y="216">r</tspan><tspan x="132.74" y="216">ound t</tspan><tspan class="p" x="190.16" y="216">r</tspan><tspan class="aa" x="196.36" y="216">a</tspan><tspan class="l" x="206.86" y="216">v</tspan><tspan x="216.28" y="216">el tim</tspan><tspan class="ad" x="264.2" y="216">e</tspan><tspan x="274.74" y="216">, </tspan><tspan x="0" y="243">Ult</tspan><tspan class="o" x="22.82" y="243">r</tspan><tspan x="29.02" y="243">a</tspan><tspan class="k" x="39.82" y="243">-</tspan><tspan x="48.16" y="243">wideband or inertial sensor da</tspan><tspan class="v" x="316.6" y="243">t</tspan><tspan x="322.82" y="243">a. </tspan><tspan x="0" y="270">This multi-n</tspan><tspan class="aa" x="103.94" y="270">a</tspan><tspan x="114.44" y="270">vigation natu</tspan><tspan class="t" x="228.64" y="270">r</tspan><tspan x="234.74" y="270">e imp</tspan><tspan class="w" x="284.31" y="270">r</tspan><tspan class="l" x="290.42" y="270">ov</tspan><tspan class="s" x="311.08" y="270">e</tspan><tspan x="322.23" y="270">s </tspan><tspan x="0" y="297">SPEAR n</tspan><tspan class="aa" x="77" y="297">a</tspan><tspan x="87.5" y="297">vigation </tspan><tspan class="ab" x="162.28" y="297">a</tspan><tspan class="k" x="172.78" y="297">v</tspan><tspan x="182.2" y="297">ailabilit</tspan><tspan class="i" x="241.5" y="297">y</tspan><tspan x="250.58" y="297">, </tspan><tspan class="l" x="259.94" y="297">ev</tspan><tspan x="280.15" y="297">en in </tspan><tspan x="0" y="324">GN</tspan><tspan class="ag" x="28.48" y="324">S</tspan><tspan x="40.36" y="324">S </tspan><tspan class="x" x="57.74" y="324">c</tspan><tspan x="68.52" y="324">omp</tspan><tspan class="w" x="109.42" y="324">r</tspan><tspan x="115.52" y="324">omised or denied s</tspan><tspan class="x" x="286.84" y="324">c</tspan><tspan x="297.62" y="324">enari</tspan><tspan class="s" x="341.4" y="324">o</tspan><tspan class="v" x="353" y="324">s</tspan><tspan x="362.82" y="324">.</tspan></text></g><g id="c"/><g id="d"/><g id="e"/><g id="f"/><g id="g"/><g id="h"/></svg>