<?xml version="1.0" encoding="UTF-8"?><svg xmlns="http://www.w3.org/2000/svg" viewBox="0 0 400 369"><defs><style>.i{letter-spacing:-.01em;}.j{letter-spacing:-.02em;}.k{letter-spacing:-.02em;}.l{letter-spacing:-.02em;}.m{letter-spacing:0em;}.n{letter-spacing:0em;}.o{letter-spacing:0em;}.p{letter-spacing:0em;}.q{letter-spacing:-.01em;}.r{letter-spacing:-.02em;}.s{letter-spacing:-.02em;}.t{letter-spacing:0em;}.u{letter-spacing:-.02em;}.v{letter-spacing:0em;}.w{letter-spacing:-.02em;}.x{letter-spacing:-.01em;}.y{letter-spacing:-.03em;}.a`{letter-spacing:0em;}.aa{letter-spacing:0em;}.ab{letter-spacing:-.03em;}.ac{letter-spacing:0em;}.ad{letter-spacing:-.01em;}.ae{fill:#65a5bf;font-family:Aeonik-Regular, Aeonik;font-size:20px;}.af{letter-spacing:-.05em;}.ag{letter-spacing:-.01em;}.ah{letter-spacing:-.02em;}.ai{letter-spacing:0em;}.aj{letter-spacing:-.02em;}.ak{letter-spacing:-.01em;}.al{letter-spacing:-.02em;}.am{letter-spacing:-.01em;}.an{letter-spacing:0em;}</style></defs><g id="a"/><g id="b"><text class="ae" transform="translate(17.8 26.02)"><tspan x="0" y="0">The multi-n</tspan><tspan class="ag" x="101.28" y="0">a</tspan><tspan x="111.78" y="0">vigation, multi</tspan><tspan class="aj" x="232.5" y="0">-</tspan><tspan x="240.89" y="0">f</tspan><tspan class="ab" x="247.19" y="0">r</tspan><tspan x="253.29" y="0">equen</tspan><tspan class="l" x="309.85" y="0">c</tspan><tspan x="320.45" y="0">y </tspan><tspan x="0" y="27">and multi</tspan><tspan class="an" x="81" y="27">-</tspan><tspan class="ad" x="89.84" y="27">c</tspan><tspan x="100.62" y="27">ons</tspan><tspan class="ak" x="133.46" y="27">t</tspan><tspan class="p" x="139.58" y="27">ellation </tspan><tspan class="am" x="207.7" y="27">t</tspan><tspan x="213.82" y="27">echnology </tspan><tspan x="0" y="54">natu</tspan><tspan class="ab" x="39.42" y="54">r</tspan><tspan class="p" x="45.52" y="54">e </tspan><tspan class="t" x="61.96" y="54">o</tspan><tspan x="73.48" y="54">f SPEAR </tspan><tspan class="t" x="150.8" y="54">o</tspan><tspan x="162.32" y="54">f</tspan><tspan class="j" x="168.62" y="54">f</tspan><tspan x="173.78" y="54">e</tspan><tspan class="u" x="184.98" y="54">r</tspan><tspan x="191.28" y="54">s an </tspan><tspan class="l" x="233.75" y="54">e</tspan><tspan class="ac" x="244.56" y="54">x</tspan><tspan x="254.62" y="54">t</tspan><tspan class="r" x="260.31" y="54">r</tspan><tspan x="266.52" y="54">a l</tspan><tspan class="ag" x="286.43" y="54">a</tspan><tspan class="l" x="296.93" y="54">y</tspan><tspan x="306.39" y="54">er </tspan><tspan class="t" x="329.51" y="54">o</tspan><tspan x="341.03" y="54">f </tspan><tspan x="0" y="81">p</tspan><tspan class="v" x="11.92" y="81">o</tspan><tspan x="23.52" y="81">sition </tspan><tspan class="ab" x="75.74" y="81">r</tspan><tspan x="81.84" y="81">obustn</tspan><tspan class="v" x="144" y="81">e</tspan><tspan class="i" x="155.16" y="81">s</tspan><tspan x="164.94" y="81">s that will all</tspan><tspan class="ag" x="271.28" y="81">o</tspan><tspan x="282.62" y="81">w </tspan><tspan x="0" y="108">on</tspan><tspan class="x" x="22.86" y="108">-</tspan><tspan x="31.32" y="108">th</tspan><tspan class="an" x="48.94" y="108">e</tspan><tspan class="al" x="60.24" y="108">-</tspan><tspan x="68.64" y="108">fly p</tspan><tspan class="v" x="105.84" y="108">o</tspan><tspan x="117.44" y="108">sition c</tspan><tspan class="ab" x="180.66" y="108">r</tspan><tspan class="v" x="186.76" y="108">o</tspan><tspan class="i" x="198.36" y="108">s</tspan><tspan class="a`" x="208.14" y="108">s</tspan><tspan class="an" x="217.96" y="108">-</tspan><tspan x="226.79" y="108">check with </tspan><tspan x="0" y="135">al</tspan><tspan class="am" x="14.68" y="135">t</tspan><tspan x="20.12" y="135">ernati</tspan><tspan class="l" x="70.28" y="135">v</tspan><tspan x="79.7" y="135">e n</tspan><tspan class="ag" x="107.36" y="135">a</tspan><tspan x="117.86" y="135">vigation </tspan><tspan class="q" x="192.64" y="135">s</tspan><tspan class="i" x="202.38" y="135">y</tspan><tspan x="212.04" y="135">s</tspan><tspan class="am" x="222.02" y="135">t</tspan><tspan x="228.14" y="135">em</tspan><tspan class="a`" x="256.68" y="135">s</tspan><tspan x="266.5" y="135">. B</tspan><tspan class="v" x="288.32" y="135">e</tspan><tspan x="299.48" y="135">sid</tspan><tspan class="v" x="325.26" y="135">e</tspan><tspan x="336.42" y="135">s </tspan><tspan x="0" y="162">in</tspan><tspan class="ad" x="15.1" y="162">c</tspan><tspan x="25.88" y="162">orpo</tspan><tspan class="s" x="67.76" y="162">r</tspan><tspan x="73.96" y="162">ating a </tspan><tspan class="af" x="139.44" y="162">F</tspan><tspan x="149.1" y="162">ault D</tspan><tspan class="m" x="199.12" y="162">e</tspan><tspan class="am" x="210.2" y="162">t</tspan><tspan x="216.32" y="162">ection and </tspan><tspan x="0" y="189">E</tspan><tspan class="r" x="11.14" y="189">x</tspan><tspan class="o" x="20.76" y="189">clusion (FDE) l</tspan><tspan class="ag" x="144.82" y="189">a</tspan><tspan class="l" x="155.32" y="189">y</tspan><tspan x="164.78" y="189">er </tspan><tspan class="am" x="187.9" y="189">t</tspan><tspan x="194.02" y="189">o d</tspan><tspan class="t" x="222.82" y="189">e</tspan><tspan class="am" x="233.9" y="189">t</tspan><tspan x="240.02" y="189">ect and </tspan><tspan x="0" y="216">disca</tspan><tspan class="ab" x="47.58" y="216">r</tspan><tspan x="53.68" y="216">d p</tspan><tspan class="m" x="82.76" y="216">o</tspan><tspan class="am" x="94.28" y="216">t</tspan><tspan x="100.4" y="216">ential harmful da</tspan><tspan class="aa" x="248.22" y="216">t</tspan><tspan x="254.44" y="216">a, SPEAR will </tspan><tspan x="0" y="243">also p</tspan><tspan class="y" x="53.46" y="243">r</tspan><tspan class="k" x="59.56" y="243">o</tspan><tspan x="70.8" y="243">vide an </tspan><tspan class="l" x="140.12" y="243">e</tspan><tspan class="v" x="150.92" y="243">x</tspan><tspan x="160.98" y="243">t</tspan><tspan class="s" x="166.68" y="243">r</tspan><tspan x="172.88" y="243">a security l</tspan><tspan class="ah" x="268.04" y="243">a</tspan><tspan class="l" x="278.54" y="243">y</tspan><tspan class="o" x="288" y="243">er </tspan><tspan x="0" y="270">against spo</tspan><tspan class="t" x="103.76" y="270">o</tspan><tspan x="115.28" y="270">fing than</tspan><tspan class="w" x="193.7" y="270">k</tspan><tspan x="203.72" y="270">s </tspan><tspan class="am" x="218.94" y="270">t</tspan><tspan x="225.06" y="270">o the Galileo </tspan><tspan x="0" y="297">Open Se</tspan><tspan class="an" x="77.96" y="297">r</tspan><tspan x="84.74" y="297">vi</tspan><tspan class="ad" x="98.44" y="297">c</tspan><tspan x="109.22" y="297">e N</tspan><tspan class="ag" x="139.2" y="297">a</tspan><tspan x="149.7" y="297">vigation M</tspan><tspan class="v" x="241.42" y="297">e</tspan><tspan class="ai" x="252.58" y="297">s</tspan><tspan x="262.36" y="297">sage </tspan><tspan class="al" x="0" y="324">A</tspan><tspan class="n" x="12.82" y="324">u</tspan><tspan x="23.88" y="324">thentication (O</tspan><tspan class="an" x="155.38" y="324">S</tspan><tspan x="167.62" y="324">-NM</tspan><tspan class="l" x="206.84" y="324">A</tspan><tspan x="219.6" y="324">).</tspan></text></g><g id="c"/><g id="d"/><g id="e"/><g id="f"/><g id="g"/><g id="h"/></svg>