<?xml version="1.0" encoding="UTF-8"?><svg xmlns="http://www.w3.org/2000/svg" viewBox="0 0 221.12 236"><defs><style>.i{fill:#65a5bf;}.i,.j,.k,.l,.m{stroke-linecap:round;stroke-linejoin:round;stroke-width:6px;}.i,.j,.m{stroke:#002a3a;}.j{fill:#002a3a;}.k{fill:#fff;stroke:#fff;}.l{fill:#e65300;stroke:#e65300;}.m{fill:none;}</style></defs><g id="a"/><g id="b"><g><g><path class="m" d="M111.81,204.97h0ZM20.57,152.3h0Zm0,0l91.23,52.67,91.23-52.67-91.23-52.67L20.57,152.29Z"/><path class="j" d="M111.81,220.73h0ZM20.57,161.16h0Zm0,6.89l91.23,52.67v-15.76L20.57,152.29v15.76Z"/><path class="m" d="M111.81,220.73h0Zm91.23-68.43l-91.23,52.67v15.76l91.23-52.67v-15.76Z"/></g><line class="m" x1="107.6" y1="177.44" x2="117.79" y2="19.34"/><line class="m" x1="105.6" y1="22.98" x2="160.77" y2="148.08"/><line class="m" x1="115.18" y1="44.05" x2="78.48" y2="134.42"/><ellipse class="i" cx="126.25" cy="91.59" rx="43.17" ry="33.54" transform="translate(-21.93 140.29) rotate(-54.15)"/><ellipse class="i" cx="126.3" cy="91.63" rx="26.71" ry="19.44" transform="translate(-21.94 140.34) rotate(-54.15)"/><ellipse class="l" cx="126.25" cy="91.6" rx="9.42" ry="6.37" transform="translate(-21.93 140.29) rotate(-54.15)"/><line class="m" x1="54.54" y1="155.12" x2="54.54" y2="150.16"/><line class="m" x1="64.04" y1="155.12" x2="64.04" y2="147.16"/><line class="m" x1="72.37" y1="161.16" x2="72.37" y2="155.12"/><line class="m" x1="132.88" y1="167.38" x2="132.88" y2="172.54"/><line class="m" x1="142.09" y1="159.21" x2="142.09" y2="164.36"/><line class="m" x1="151.87" y1="160.09" x2="151.87" y2="165.25"/><line class="m" x1="69.04" y1="118.76" x2="69.04" y2="123.91"/><line class="m" x1="77.06" y1="115.03" x2="77.06" y2="119.14"/><polyline class="k" points="127.66 91.55 163.31 110.35 165.68 119.46 177.51 125.86 174.75 115.95 184.02 112.17 171.79 105.85 163.31 110.35"/><line class="m" x1="192.68" y1="139.29" x2="192.68" y2="144.45"/></g></g><g id="c"/><g id="d"/><g id="e"/><g id="f"/><g id="g"/><g id="h"/></svg>