<?xml version="1.0" encoding="UTF-8"?><svg xmlns="http://www.w3.org/2000/svg" viewBox="0 0 400 369"><defs><style>.i{letter-spacing:-.01em;}.j{letter-spacing:-.02em;}.k{letter-spacing:-.02em;}.l{letter-spacing:-.02em;}.m{letter-spacing:0em;}.n{letter-spacing:0em;}.o{letter-spacing:0em;}.p{letter-spacing:-.02em;}.q{letter-spacing:0em;}.r{letter-spacing:-.02em;}.s{letter-spacing:-.03em;}.t{letter-spacing:-.06em;}.u{letter-spacing:0em;}.v{letter-spacing:-.03em;}.w{letter-spacing:0em;}.x{letter-spacing:0em;}.y{letter-spacing:-.03em;}.a`{letter-spacing:0em;}.aa{letter-spacing:-.01em;}.ab{fill:#65a5bf;font-family:Aeonik-Regular, Aeonik;font-size:20px;}.ac{letter-spacing:-.02em;}.ad{letter-spacing:-.04em;}.ae{letter-spacing:-.01em;}.af{letter-spacing:0em;}.ag{letter-spacing:-.03em;}.ah{letter-spacing:0em;}.ai{letter-spacing:0em;}.aj{letter-spacing:-.01em;}.ak{letter-spacing:0em;}.al{letter-spacing:-.03em;}</style></defs><g id="a"/><g id="b"><text class="ab" transform="translate(17.26 26.02)"><tspan x="0" y="0">SPEAR deli</tspan><tspan class="l" x="96.66" y="0">v</tspan><tspan x="106.08" y="0">e</tspan><tspan class="r" x="117.28" y="0">r</tspan><tspan x="123.58" y="0">s decim</tspan><tspan class="m" x="194.14" y="0">e</tspan><tspan x="205.22" y="0">tri</tspan><tspan class="ai" x="222.16" y="0">c</tspan><tspan x="233.26" y="0">-l</tspan><tspan class="l" x="245.88" y="0">ev</tspan><tspan x="266.1" y="0">el a</tspan><tspan class="aa" x="297.22" y="0">c</tspan><tspan x="308" y="0">cu</tspan><tspan class="p" x="330.02" y="0">r</tspan><tspan x="336.22" y="0">a</tspan><tspan class="l" x="347.02" y="0">c</tspan><tspan x="357.62" y="0">y </tspan><tspan class="j" x="0" y="27">f</tspan><tspan x="5.84" y="27">or ma</tspan><tspan class="af" x="57.54" y="27">s</tspan><tspan class="x" x="67.32" y="27">s</tspan><tspan x="77.14" y="27">-mar</tspan><tspan class="y" x="120.7" y="27">k</tspan><tspan class="q" x="130.46" y="27">e</tspan><tspan x="141.54" y="27">t GN</tspan><tspan class="aj" x="181.64" y="27">S</tspan><tspan x="193.52" y="27">S applications </tspan><tspan class="k" x="323.44" y="27">b</tspan><tspan class="o" x="334.96" y="27">y </tspan><tspan x="0" y="54">o</tspan><tspan class="q" x="11.64" y="54">p</tspan><tspan x="23.44" y="54">timally </tspan><tspan class="aa" x="84.7" y="54">c</tspan><tspan x="95.48" y="54">onfiguring itself based on the </tspan><tspan class="ae" x="0" y="81">a</tspan><tspan class="l" x="10.5" y="81">v</tspan><tspan x="19.92" y="81">ailable da</tspan><tspan class="x" x="104.24" y="81">t</tspan><tspan x="110.46" y="81">a in the d</tspan><tspan class="k" x="192.82" y="81">e</tspan><tspan x="203.62" y="81">vi</tspan><tspan class="aa" x="217.32" y="81">c</tspan><tspan class="ag" x="228.1" y="81">e</tspan><tspan x="238.64" y="81">. </tspan><tspan class="k" x="248" y="81">B</tspan><tspan x="260.06" y="81">y ado</tspan><tspan class="q" x="309.52" y="81">p</tspan><tspan x="321.31" y="81">ting </tspan><tspan x="0" y="108">c</tspan><tspan class="n" x="11" y="108">u</tspan><tspan x="22.06" y="108">tting</tspan><tspan class="ak" x="61.16" y="108">-</tspan><tspan x="70" y="108">edge GN</tspan><tspan class="aj" x="149.96" y="108">S</tspan><tspan x="161.84" y="108">S da</tspan><tspan class="w" x="201.94" y="108">t</tspan><tspan x="208.16" y="108">a p</tspan><tspan class="v" x="236.12" y="108">r</tspan><tspan x="242.22" y="108">o</tspan><tspan class="aa" x="253.86" y="108">c</tspan><tspan class="a`" x="264.64" y="108">e</tspan><tspan class="i" x="275.8" y="108">s</tspan><tspan x="285.58" y="108">sing </tspan><tspan x="0" y="135">st</tspan><tspan class="p" x="16.36" y="135">r</tspan><tspan x="22.56" y="135">a</tspan><tspan class="aj" x="33.36" y="135">t</tspan><tspan x="39.48" y="135">egi</tspan><tspan class="u" x="66.48" y="135">e</tspan><tspan x="77.64" y="135">s based on un</tspan><tspan class="aa" x="204.26" y="135">c</tspan><tspan x="215.04" y="135">ombined and </tspan><tspan x="0" y="162">undif</tspan><tspan class="j" x="44.34" y="162">f</tspan><tspan x="49.5" y="162">e</tspan><tspan class="y" x="60.7" y="162">r</tspan><tspan x="66.8" y="162">en</tspan><tspan class="aa" x="89.22" y="162">c</tspan><tspan x="100" y="162">ed da</tspan><tspan class="x" x="151.08" y="162">t</tspan><tspan x="157.3" y="162">a, SPEAR supports </tspan><tspan x="0" y="189">P</tspan><tspan class="y" x="11.88" y="189">r</tspan><tspan class="o" x="17.98" y="189">ecise </tspan><tspan class="al" x="70.48" y="189">P</tspan><tspan x="81.84" y="189">oint </tspan><tspan class="s" x="120.2" y="189">P</tspan><tspan class="u" x="131.56" y="189">o</tspan><tspan x="143.16" y="189">sitioning (PPP) or </tspan><tspan x="0" y="216">dif</tspan><tspan class="j" x="22.1" y="216">f</tspan><tspan x="27.26" y="216">e</tspan><tspan class="y" x="38.46" y="216">r</tspan><tspan x="44.56" y="216">ential </tspan><tspan class="aj" x="97.16" y="216">t</tspan><tspan x="103.28" y="216">echniqu</tspan><tspan class="u" x="174.76" y="216">e</tspan><tspan x="185.92" y="216">s such as </tspan><tspan class="al" x="275.64" y="216">R</tspan><tspan x="287.34" y="216">eal </tspan><tspan class="ah" x="318.46" y="216">T</tspan><tspan x="330.18" y="216">ime </tspan><tspan x="0" y="243">Kinematics (</tspan><tspan class="ad" x="109.68" y="243">R</tspan><tspan x="121.14" y="243">T</tspan><tspan class="ak" x="132.96" y="243">K</tspan><tspan x="145.82" y="243">) and </tspan><tspan class="q" x="196.24" y="243">o</tspan><tspan x="207.76" y="243">f</tspan><tspan class="ac" x="214.06" y="243">f</tspan><tspan x="219.22" y="243">e</tspan><tspan class="r" x="230.42" y="243">r</tspan><tspan class="o" x="236.72" y="243">s a higher </tspan><tspan x="0" y="270">deg</tspan><tspan class="y" x="35.04" y="270">r</tspan><tspan class="o" x="41.14" y="270">ee </tspan><tspan class="q" x="68.78" y="270">o</tspan><tspan x="80.3" y="270">f fl</tspan><tspan class="l" x="102.02" y="270">e</tspan><tspan x="112.82" y="270">xibility in the p</tspan><tspan class="y" x="238.16" y="270">r</tspan><tspan x="244.26" y="270">o</tspan><tspan class="aa" x="255.9" y="270">c</tspan><tspan class="u" x="266.68" y="270">e</tspan><tspan class="i" x="277.84" y="270">s</tspan><tspan x="287.62" y="270">sing </tspan><tspan x="0" y="297">st</tspan><tspan class="p" x="16.36" y="297">r</tspan><tspan x="22.56" y="297">a</tspan><tspan class="aj" x="33.36" y="297">t</tspan><tspan x="39.48" y="297">egy: single </tspan><tspan class="v" x="139.14" y="297">r</tspan><tspan class="l" x="145.24" y="297">ov</tspan><tspan x="165.9" y="297">er with singl</tspan><tspan class="ak" x="272.28" y="297">e</tspan><tspan x="283.58" y="297">- or </tspan><tspan x="0" y="324">multi-base </tspan><tspan class="v" x="99.7" y="324">r</tspan><tspan x="105.8" y="324">e</tspan><tspan class="aa" x="117" y="324">c</tspan><tspan x="127.78" y="324">ei</tspan><tspan class="k" x="142.86" y="324">v</tspan><tspan x="152.28" y="324">e</tspan><tspan class="r" x="163.48" y="324">r</tspan><tspan class="x" x="169.78" y="324">s</tspan><tspan x="179.6" y="324">, pa</tspan><tspan class="p" x="211.68" y="324">r</tspan><tspan x="217.88" y="324">allel multi-</tspan><tspan class="v" x="307.32" y="324">r</tspan><tspan class="l" x="313.42" y="324">ov</tspan><tspan x="334.08" y="324">e</tspan><tspan class="t" x="345.28" y="324">r</tspan><tspan x="350.86" y="324">, ...</tspan></text></g><g id="c"/><g id="d"/><g id="e"/><g id="f"/><g id="g"/><g id="h"/></svg>