<?xml version="1.0" encoding="UTF-8"?><svg xmlns="http://www.w3.org/2000/svg" xmlns:xlink="http://www.w3.org/1999/xlink" viewBox="0 0 510.91 440"><defs><style>.j,.k,.l{fill:none;}.m{clip-path:url(#c);}.n{fill:#65a5bf;}.n,.o,.p,.k,.l{stroke-linecap:round;stroke-linejoin:round;stroke-width:6px;}.n,.p,.l{stroke:#65a5bf;}.o,.p{fill:#002a3a;}.o,.k{stroke:#002a3a;}</style><clipPath id="c"><path class="j" d="M254.3,390.09h0ZM35.54,263.8h0Zm0,0l218.74,126.29,218.74-126.29-218.74-126.29L35.55,263.79Z"/></clipPath></defs><g id="a"/><g id="b"><g><g><path class="k" d="M254.3,390.09h0ZM35.54,263.8h0Zm0,0l218.74,126.29,218.74-126.29-218.74-126.29L35.55,263.79Z"/><path class="o" d="M254.3,411.34h0ZM35.54,285.05h0Zm0,0l218.74,126.29v-21.25L35.55,263.79v21.25Z"/><path class="k" d="M254.32,411.34h0Zm218.73-147.55l-218.74,126.29v21.25l218.74-126.29v-21.25Z"/></g><g class="m"><g><circle class="k" cx="44.46" cy="46.33" r="1.16"/><circle class="k" cx="59.89" cy="46.33" r="1.16"/><circle class="k" cx="75.31" cy="46.33" r="1.16"/><circle class="k" cx="90.73" cy="46.33" r="1.16"/><circle class="k" cx="106.15" cy="46.33" r="1.16"/><circle class="k" cx="121.57" cy="46.33" r="1.16"/><circle class="k" cx="137" cy="46.33" r="1.16"/><circle class="k" cx="152.42" cy="46.33" r="1.16"/><circle class="k" cx="167.84" cy="46.33" r="1.16"/><circle class="k" cx="183.26" cy="46.33" r="1.16"/><circle class="k" cx="198.68" cy="46.33" r="1.16"/><circle class="k" cx="214.1" cy="46.33" r="1.16"/><circle class="k" cx="229.53" cy="46.33" r="1.16"/><circle class="k" cx="244.95" cy="46.33" r="1.16"/><circle class="k" cx="260.37" cy="46.33" r="1.16"/><circle class="k" cx="275.79" cy="46.33" r="1.16"/><circle class="k" cx="291.21" cy="46.33" r="1.16"/><circle class="k" cx="306.63" cy="46.33" r="1.16"/><circle class="k" cx="322.06" cy="46.33" r="1.16"/><circle class="k" cx="337.48" cy="46.33" r="1.16"/><circle class="k" cx="352.9" cy="46.33" r="1.16"/><circle class="k" cx="368.32" cy="46.33" r="1.16"/><circle class="k" cx="383.74" cy="46.33" r="1.16"/><circle class="k" cx="399.16" cy="46.33" r="1.16"/><circle class="k" cx="414.59" cy="46.33" r="1.16"/><circle class="k" cx="430.01" cy="46.33" r="1.16"/><circle class="k" cx="445.43" cy="46.33" r="1.16"/><circle class="k" cx="460.85" cy="46.33" r="1.16"/><circle class="k" cx="44.46" cy="63.09" r="1.16"/><circle class="k" cx="59.89" cy="63.09" r="1.16"/><circle class="k" cx="75.31" cy="63.09" r="1.16"/><circle class="k" cx="90.73" cy="63.09" r="1.16"/><circle class="k" cx="106.15" cy="63.09" r="1.16"/><circle class="k" cx="121.57" cy="63.09" r="1.16"/><circle class="k" cx="137" cy="63.09" r="1.16"/><circle class="k" cx="152.42" cy="63.09" r="1.16"/><circle class="k" cx="167.84" cy="63.09" r="1.16"/><circle class="k" cx="183.26" cy="63.09" r="1.16"/><circle class="k" cx="198.68" cy="63.09" r="1.16"/><circle class="k" cx="214.1" cy="63.09" r="1.16"/><circle class="k" cx="229.53" cy="63.09" r="1.16"/><circle class="k" cx="244.95" cy="63.09" r="1.16"/><circle class="k" cx="260.37" cy="63.09" r="1.16"/><circle class="k" cx="275.79" cy="63.09" r="1.16"/><circle class="k" cx="291.21" cy="63.09" r="1.16"/><circle class="k" cx="306.63" cy="63.09" r="1.16"/><circle class="k" cx="322.06" cy="63.09" r="1.16"/><circle class="k" cx="337.48" cy="63.09" r="1.16"/><circle class="k" cx="352.9" cy="63.09" r="1.16"/><circle class="k" cx="368.32" cy="63.09" r="1.16"/><circle class="k" cx="383.74" cy="63.09" r="1.16"/><circle class="k" cx="399.16" cy="63.09" r="1.16"/><circle class="k" cx="414.59" cy="63.09" r="1.16"/><circle class="k" cx="430.01" cy="63.09" r="1.16"/><circle class="k" cx="445.43" cy="63.09" r="1.16"/><circle class="k" cx="460.85" cy="63.09" r="1.16"/><circle class="k" cx="44.46" cy="79.86" r="1.16"/><circle class="k" cx="59.89" cy="79.86" r="1.16"/><circle class="k" cx="75.31" cy="79.86" r="1.16"/><circle class="k" cx="90.73" cy="79.86" r="1.16"/><circle class="k" cx="106.15" cy="79.86" r="1.16"/><circle class="k" cx="121.57" cy="79.86" r="1.16"/><circle class="k" cx="137" cy="79.86" r="1.16"/><circle class="k" cx="152.42" cy="79.86" r="1.16"/><circle class="k" cx="167.84" cy="79.86" r="1.16"/><circle class="k" cx="183.26" cy="79.86" r="1.16"/><circle class="k" cx="198.68" cy="79.86" r="1.16"/><circle class="k" cx="214.1" cy="79.86" r="1.16"/><circle class="k" cx="229.53" cy="79.86" r="1.16"/><circle class="k" cx="244.95" cy="79.86" r="1.16"/><circle class="k" cx="260.37" cy="79.86" r="1.16"/><circle class="k" cx="275.79" cy="79.86" r="1.16"/><circle class="k" cx="291.21" cy="79.86" r="1.16"/><circle class="k" cx="306.63" cy="79.86" r="1.16"/><circle class="k" cx="322.06" cy="79.86" r="1.16"/><circle class="k" cx="337.48" cy="79.86" r="1.16"/><circle class="k" cx="352.9" cy="79.86" r="1.16"/><circle class="k" cx="368.32" cy="79.86" r="1.16"/><circle class="k" cx="383.74" cy="79.86" r="1.16"/><circle class="k" cx="399.16" cy="79.86" r="1.16"/><circle class="k" cx="414.59" cy="79.86" r="1.16"/><circle class="k" cx="430.01" cy="79.86" r="1.16"/><circle class="k" cx="445.43" cy="79.86" r="1.16"/><circle class="k" cx="460.85" cy="79.86" r="1.16"/><circle class="k" cx="44.46" cy="96.62" r="1.16"/><circle class="k" cx="59.89" cy="96.62" r="1.16"/><circle class="k" cx="75.31" cy="96.62" r="1.16"/><circle class="k" cx="90.73" cy="96.62" r="1.16"/><circle class="k" cx="106.15" cy="96.62" r="1.16"/><circle class="k" cx="121.57" cy="96.62" r="1.16"/><circle class="k" cx="137" cy="96.62" r="1.16"/><circle class="k" cx="152.42" cy="96.62" r="1.16"/><circle class="k" cx="167.84" cy="96.62" r="1.16"/><circle class="k" cx="183.26" cy="96.62" r="1.16"/><circle class="k" cx="198.68" cy="96.62" r="1.16"/><circle class="k" cx="214.1" cy="96.62" r="1.16"/><circle class="k" cx="229.53" cy="96.62" r="1.16"/><circle class="k" cx="244.95" cy="96.62" r="1.16"/><circle class="k" cx="260.37" cy="96.62" r="1.16"/><circle class="k" cx="275.79" cy="96.62" r="1.16"/><circle class="k" cx="291.21" cy="96.62" r="1.16"/><circle class="k" cx="306.63" cy="96.62" r="1.16"/><circle class="k" cx="322.06" cy="96.62" r="1.16"/><circle class="k" cx="337.48" cy="96.62" r="1.16"/><circle class="k" cx="352.9" cy="96.62" r="1.16"/><circle class="k" cx="368.32" cy="96.62" r="1.16"/><circle class="k" cx="383.74" cy="96.62" r="1.16"/><circle class="k" cx="399.16" cy="96.62" r="1.16"/><circle class="k" cx="414.59" cy="96.62" r="1.16"/><circle class="k" cx="430.01" cy="96.62" r="1.16"/><circle class="k" cx="445.43" cy="96.62" r="1.16"/><circle class="k" cx="460.85" cy="96.62" r="1.16"/><circle class="k" cx="44.46" cy="113.38" r="1.16"/><circle class="k" cx="59.89" cy="113.38" r="1.16"/><circle class="k" cx="75.31" cy="113.38" r="1.16"/><circle class="k" cx="90.73" cy="113.38" r="1.16"/><circle class="k" cx="106.15" cy="113.38" r="1.16"/><circle class="k" cx="121.57" cy="113.38" r="1.16"/><circle class="k" cx="137" cy="113.38" r="1.16"/><circle class="k" cx="152.42" cy="113.38" r="1.16"/><circle class="k" cx="167.84" cy="113.38" r="1.16"/><circle class="k" cx="183.26" cy="113.38" r="1.16"/><circle class="k" cx="198.68" cy="113.38" r="1.16"/><circle class="k" cx="214.1" cy="113.38" r="1.16"/><circle class="k" cx="229.53" cy="113.38" r="1.16"/><circle class="k" cx="244.95" cy="113.38" r="1.16"/><circle class="k" cx="260.37" cy="113.38" r="1.16"/><circle class="k" cx="275.79" cy="113.38" r="1.16"/><circle class="k" cx="291.21" cy="113.38" r="1.16"/><circle class="k" cx="306.63" cy="113.38" r="1.16"/><circle class="k" cx="322.06" cy="113.38" r="1.16"/><circle class="k" cx="337.48" cy="113.38" r="1.16"/><circle class="k" cx="352.9" cy="113.38" r="1.16"/><circle class="k" cx="368.32" cy="113.38" r="1.16"/><circle class="k" cx="383.74" cy="113.38" r="1.16"/><circle class="k" cx="399.16" cy="113.38" r="1.16"/><circle class="k" cx="414.59" cy="113.38" r="1.16"/><circle class="k" cx="430.01" cy="113.38" r="1.16"/><circle class="k" cx="445.43" cy="113.38" r="1.16"/><circle class="k" cx="460.85" cy="113.38" r="1.16"/><circle class="k" cx="44.46" cy="130.14" r="1.16"/><circle class="k" cx="59.89" cy="130.14" r="1.16"/><circle class="k" cx="75.31" cy="130.14" r="1.16"/><circle class="k" cx="90.73" cy="130.14" r="1.16"/><circle class="k" cx="106.15" cy="130.14" r="1.16"/><circle class="k" cx="121.57" cy="130.14" r="1.16"/><circle class="k" cx="137" cy="130.14" r="1.16"/><circle class="k" cx="152.42" cy="130.14" r="1.16"/><circle class="k" cx="167.84" cy="130.14" r="1.16"/><circle class="k" cx="183.26" cy="130.14" r="1.16"/><circle class="k" cx="198.68" cy="130.14" r="1.16"/><circle class="k" cx="214.1" cy="130.14" r="1.16"/><circle class="k" cx="229.53" cy="130.14" r="1.16"/><circle class="k" cx="244.95" cy="130.14" r="1.16"/><circle class="k" cx="260.37" cy="130.14" r="1.16"/><circle class="k" cx="275.79" cy="130.14" r="1.16"/><circle class="k" cx="291.21" cy="130.14" r="1.16"/><circle class="k" cx="306.63" cy="130.14" r="1.16"/><circle class="k" cx="322.06" cy="130.14" r="1.16"/><circle class="k" cx="337.48" cy="130.14" r="1.16"/><circle class="k" cx="352.9" cy="130.14" r="1.16"/><circle class="k" cx="368.32" cy="130.14" r="1.16"/><circle class="k" cx="383.74" cy="130.14" r="1.16"/><circle class="k" cx="399.16" cy="130.14" r="1.16"/><circle class="k" cx="414.59" cy="130.14" r="1.16"/><circle class="k" cx="430.01" cy="130.14" r="1.16"/><circle class="k" cx="445.43" cy="130.14" r="1.16"/><circle class="k" cx="460.85" cy="130.14" r="1.16"/><circle class="k" cx="44.46" cy="146.91" r="1.16"/><circle class="k" cx="59.89" cy="146.91" r="1.16"/><circle class="k" cx="75.31" cy="146.91" r="1.16"/><circle class="k" cx="90.73" cy="146.91" r="1.16"/><circle class="k" cx="106.15" cy="146.91" r="1.16"/><circle class="k" cx="121.57" cy="146.91" r="1.16"/><circle class="k" cx="137" cy="146.91" r="1.16"/><circle class="k" cx="152.42" cy="146.91" r="1.16"/><circle class="k" cx="167.84" cy="146.91" r="1.16"/><circle class="k" cx="183.26" cy="146.91" r="1.16"/><circle class="k" cx="198.68" cy="146.91" r="1.16"/><circle class="k" cx="214.1" cy="146.91" r="1.16"/><circle class="k" cx="229.53" cy="146.91" r="1.16"/><circle class="k" cx="244.95" cy="146.91" r="1.16"/><circle class="k" cx="260.37" cy="146.91" r="1.16"/><circle class="k" cx="275.79" cy="146.91" r="1.16"/><circle class="k" cx="291.21" cy="146.91" r="1.16"/><circle class="k" cx="306.63" cy="146.91" r="1.16"/><circle class="k" cx="322.06" cy="146.91" r="1.16"/><circle class="k" cx="337.48" cy="146.91" r="1.16"/><circle class="k" cx="352.9" cy="146.91" r="1.16"/><circle class="k" cx="368.32" cy="146.91" r="1.16"/><circle class="k" cx="383.74" cy="146.91" r="1.16"/><circle class="k" cx="399.16" cy="146.91" r="1.16"/><circle class="k" cx="414.59" cy="146.91" r="1.16"/><circle class="k" cx="430.01" cy="146.91" r="1.16"/><circle class="k" cx="445.43" cy="146.91" r="1.16"/><circle class="k" cx="460.85" cy="146.91" r="1.16"/><circle class="k" cx="44.46" cy="163.67" r="1.16"/><circle class="k" cx="59.89" cy="163.67" r="1.16"/><circle class="k" cx="75.31" cy="163.67" r="1.16"/><circle class="k" cx="90.73" cy="163.67" r="1.16"/><circle class="k" cx="106.15" cy="163.67" r="1.16"/><circle class="k" cx="121.57" cy="163.67" r="1.16"/><circle class="k" cx="137" cy="163.67" r="1.16"/><circle class="k" cx="152.42" cy="163.67" r="1.16"/><circle class="k" cx="167.84" cy="163.67" r="1.16"/><circle class="k" cx="183.26" cy="163.67" r="1.16"/><circle class="k" cx="198.68" cy="163.67" r="1.16"/><circle class="k" cx="214.1" cy="163.67" r="1.16"/><circle class="k" cx="229.53" cy="163.67" r="1.16"/><circle class="k" cx="244.95" cy="163.67" r="1.16"/><circle class="k" cx="260.37" cy="163.67" r="1.16"/><circle class="k" cx="275.79" cy="163.67" r="1.16"/><circle class="k" cx="291.21" cy="163.67" r="1.16"/><circle class="k" cx="306.63" cy="163.67" r="1.16"/><circle class="k" cx="322.06" cy="163.67" r="1.16"/><circle class="k" cx="337.48" cy="163.67" r="1.16"/><circle class="k" cx="352.9" cy="163.67" r="1.16"/><circle class="k" cx="368.32" cy="163.67" r="1.16"/><circle class="k" cx="383.74" cy="163.67" r="1.16"/><circle class="k" cx="399.16" cy="163.67" r="1.16"/><circle class="k" cx="414.59" cy="163.67" r="1.16"/><circle class="k" cx="430.01" cy="163.67" r="1.16"/><circle class="k" cx="445.43" cy="163.67" r="1.16"/><circle class="k" cx="460.85" cy="163.67" r="1.16"/><circle class="k" cx="44.46" cy="180.43" r="1.16"/><circle class="k" cx="59.89" cy="180.43" r="1.16"/><circle class="k" cx="75.31" cy="180.43" r="1.16"/><circle class="k" cx="90.73" cy="180.43" r="1.16"/><circle class="k" cx="106.15" cy="180.43" r="1.16"/><circle class="k" cx="121.57" cy="180.43" r="1.16"/><circle class="k" cx="137" cy="180.43" r="1.16"/><circle class="k" cx="152.42" cy="180.43" r="1.16"/><circle class="k" cx="167.84" cy="180.43" r="1.16"/><circle class="k" cx="183.26" cy="180.43" r="1.16"/><circle class="k" cx="198.68" cy="180.43" r="1.16"/><circle class="k" cx="214.1" cy="180.43" r="1.16"/><circle class="k" cx="229.53" cy="180.43" r="1.16"/><circle class="k" cx="244.95" cy="180.43" r="1.16"/><circle class="k" cx="260.37" cy="180.43" r="1.16"/><circle class="k" cx="275.79" cy="180.43" r="1.16"/><circle class="k" cx="291.21" cy="180.43" r="1.16"/><circle class="k" cx="306.63" cy="180.43" r="1.16"/><circle class="k" cx="322.06" cy="180.43" r="1.16"/><circle class="k" cx="337.48" cy="180.43" r="1.16"/><circle class="k" cx="352.9" cy="180.43" r="1.16"/><circle class="k" cx="368.32" cy="180.43" r="1.16"/><circle class="k" cx="383.74" cy="180.43" r="1.16"/><circle class="k" cx="399.16" cy="180.43" r="1.16"/><circle class="k" cx="414.59" cy="180.43" r="1.16"/><circle class="k" cx="430.01" cy="180.43" r="1.16"/><circle class="k" cx="445.43" cy="180.43" r="1.16"/><circle class="k" cx="460.85" cy="180.43" r="1.16"/><circle class="k" cx="44.46" cy="197.2" r="1.16"/><circle class="k" cx="59.89" cy="197.2" r="1.16"/><circle class="k" cx="75.31" cy="197.2" r="1.16"/><circle class="k" cx="90.73" cy="197.2" r="1.16"/><circle class="k" cx="106.15" cy="197.2" r="1.16"/><circle class="k" cx="121.57" cy="197.2" r="1.16"/><circle class="k" cx="137" cy="197.2" r="1.16"/><circle class="k" cx="152.42" cy="197.2" r="1.16"/><circle class="k" cx="167.84" cy="197.2" r="1.16"/><circle class="k" cx="183.26" cy="197.2" r="1.16"/><circle class="k" cx="198.68" cy="197.2" r="1.16"/><circle class="k" cx="214.1" cy="197.2" r="1.16"/><circle class="k" cx="229.53" cy="197.2" r="1.16"/><circle class="k" cx="244.95" cy="197.2" r="1.16"/><circle class="k" cx="260.37" cy="197.2" r="1.16"/><circle class="k" cx="275.79" cy="197.2" r="1.16"/><circle class="k" cx="291.21" cy="197.2" r="1.16"/><circle class="k" cx="306.63" cy="197.2" r="1.16"/><circle class="k" cx="322.06" cy="197.2" r="1.16"/><circle class="k" cx="337.48" cy="197.2" r="1.16"/><circle class="k" cx="352.9" cy="197.2" r="1.16"/><circle class="k" cx="368.32" cy="197.2" r="1.16"/><circle class="k" cx="383.74" cy="197.2" r="1.16"/><circle class="k" cx="399.16" cy="197.2" r="1.16"/><circle class="k" cx="414.59" cy="197.2" r="1.16"/><circle class="k" cx="430.01" cy="197.2" r="1.16"/><circle class="k" cx="445.43" cy="197.2" r="1.16"/><circle class="k" cx="460.85" cy="197.2" r="1.16"/><circle class="k" cx="44.46" cy="213.96" r="1.16"/><circle class="k" cx="59.89" cy="213.96" r="1.16"/><circle class="k" cx="75.31" cy="213.96" r="1.16"/><circle class="k" cx="90.73" cy="213.96" r="1.16"/><circle class="k" cx="106.15" cy="213.96" r="1.16"/><circle class="k" cx="121.57" cy="213.96" r="1.16"/><circle class="k" cx="137" cy="213.96" r="1.16"/><circle class="k" cx="152.42" cy="213.96" r="1.16"/><circle class="k" cx="167.84" cy="213.96" r="1.16"/><circle class="k" cx="183.26" cy="213.96" r="1.16"/><circle class="k" cx="198.68" cy="213.96" r="1.16"/><circle class="k" cx="214.1" cy="213.96" r="1.16"/><circle class="k" cx="229.53" cy="213.96" r="1.16"/><circle class="k" cx="244.95" cy="213.96" r="1.16"/><circle class="k" cx="260.37" cy="213.96" r="1.16"/><circle class="k" cx="275.79" cy="213.96" r="1.16"/><circle class="k" cx="291.21" cy="213.96" r="1.16"/><circle class="k" cx="306.63" cy="213.96" r="1.16"/><circle class="k" cx="322.06" cy="213.96" r="1.16"/><circle class="k" cx="337.48" cy="213.96" r="1.16"/><circle class="k" cx="352.9" cy="213.96" r="1.16"/><circle class="k" cx="368.32" cy="213.96" r="1.16"/><circle class="k" cx="383.74" cy="213.96" r="1.16"/><circle class="k" cx="399.16" cy="213.96" r="1.16"/><circle class="k" cx="414.59" cy="213.96" r="1.16"/><circle class="k" cx="430.01" cy="213.96" r="1.16"/><circle class="k" cx="445.43" cy="213.96" r="1.16"/><circle class="k" cx="460.85" cy="213.96" r="1.16"/><circle class="k" cx="44.46" cy="230.72" r="1.16"/><circle class="k" cx="59.89" cy="230.72" r="1.16"/><circle class="k" cx="75.31" cy="230.72" r="1.16"/><circle class="k" cx="90.73" cy="230.72" r="1.16"/><circle class="k" cx="106.15" cy="230.72" r="1.16"/><circle class="k" cx="121.57" cy="230.72" r="1.16"/><circle class="k" cx="137" cy="230.72" r="1.16"/><circle class="k" cx="152.42" cy="230.72" r="1.16"/><circle class="k" cx="167.84" cy="230.72" r="1.16"/><circle class="k" cx="183.26" cy="230.72" r="1.16"/><circle class="k" cx="198.68" cy="230.72" r="1.16"/><circle class="k" cx="214.1" cy="230.72" r="1.16"/><circle class="k" cx="229.53" cy="230.72" r="1.16"/><circle class="k" cx="244.95" cy="230.72" r="1.16"/><circle class="k" cx="260.37" cy="230.72" r="1.16"/><circle class="k" cx="275.79" cy="230.72" r="1.16"/><circle class="k" cx="291.21" cy="230.72" r="1.16"/><circle class="k" cx="306.63" cy="230.72" r="1.16"/><circle class="k" cx="322.06" cy="230.72" r="1.16"/><circle class="k" cx="337.48" cy="230.72" r="1.16"/><circle class="k" cx="352.9" cy="230.72" r="1.16"/><circle class="k" cx="368.32" cy="230.72" r="1.16"/><circle class="k" cx="383.74" cy="230.72" r="1.16"/><circle class="k" cx="399.16" cy="230.72" r="1.16"/><circle class="k" cx="414.59" cy="230.72" r="1.16"/><circle class="k" cx="430.01" cy="230.72" r="1.16"/><circle class="k" cx="445.43" cy="230.72" r="1.16"/><circle class="k" cx="460.85" cy="230.72" r="1.16"/><circle class="k" cx="44.46" cy="247.48" r="1.16"/><circle class="k" cx="59.89" cy="247.48" r="1.16"/><circle class="k" cx="75.31" cy="247.48" r="1.16"/><circle class="k" cx="90.73" cy="247.48" r="1.16"/><circle class="k" cx="106.15" cy="247.48" r="1.16"/><circle class="k" cx="121.57" cy="247.48" r="1.16"/><circle class="k" cx="137" cy="247.48" r="1.16"/><circle class="k" cx="152.42" cy="247.48" r="1.16"/><circle class="k" cx="167.84" cy="247.48" r="1.16"/><circle class="k" cx="183.26" cy="247.48" r="1.16"/><circle class="k" cx="198.68" cy="247.48" r="1.16"/><circle class="k" cx="214.1" cy="247.48" r="1.16"/><circle class="k" cx="229.53" cy="247.48" r="1.16"/><circle class="k" cx="244.95" cy="247.48" r="1.16"/><circle class="k" cx="260.37" cy="247.48" r="1.16"/><circle class="k" cx="275.79" cy="247.48" r="1.16"/><circle class="k" cx="291.21" cy="247.48" r="1.16"/><circle class="k" cx="306.63" cy="247.48" r="1.16"/><circle class="k" cx="322.06" cy="247.48" r="1.16"/><circle class="k" cx="337.48" cy="247.48" r="1.16"/><circle class="k" cx="352.9" cy="247.48" r="1.16"/><circle class="k" cx="368.32" cy="247.48" r="1.16"/><circle class="k" cx="383.74" cy="247.48" r="1.16"/><circle class="k" cx="399.16" cy="247.48" r="1.16"/><circle class="k" cx="414.59" cy="247.48" r="1.16"/><circle class="k" cx="430.01" cy="247.48" r="1.16"/><circle class="k" cx="445.43" cy="247.48" r="1.16"/><circle class="k" cx="460.85" cy="247.48" r="1.16"/><circle class="k" cx="44.46" cy="264.25" r="1.16"/><circle class="k" cx="59.89" cy="264.25" r="1.16"/><circle class="k" cx="75.31" cy="264.25" r="1.16"/><circle class="k" cx="90.73" cy="264.25" r="1.16"/><circle class="k" cx="106.15" cy="264.25" r="1.16"/><circle class="k" cx="121.57" cy="264.25" r="1.16"/><circle class="k" cx="137" cy="264.25" r="1.16"/><circle class="k" cx="152.42" cy="264.25" r="1.16"/><circle class="k" cx="167.84" cy="264.25" r="1.16"/><circle class="k" cx="183.26" cy="264.25" r="1.16"/><circle class="k" cx="198.68" cy="264.25" r="1.16"/><circle class="k" cx="214.1" cy="264.25" r="1.16"/><circle class="k" cx="229.53" cy="264.25" r="1.16"/><circle class="k" cx="244.95" cy="264.25" r="1.16"/><circle class="k" cx="260.37" cy="264.25" r="1.16"/><circle class="k" cx="275.79" cy="264.25" r="1.16"/><circle class="k" cx="291.21" cy="264.25" r="1.16"/><circle class="k" cx="306.63" cy="264.25" r="1.16"/><circle class="k" cx="322.06" cy="264.25" r="1.16"/><circle class="k" cx="337.48" cy="264.25" r="1.16"/><circle class="k" cx="352.9" cy="264.25" r="1.16"/><circle class="k" cx="368.32" cy="264.25" r="1.16"/><circle class="k" cx="383.74" cy="264.25" r="1.16"/><circle class="k" cx="399.16" cy="264.25" r="1.16"/><circle class="k" cx="414.59" cy="264.25" r="1.16"/><circle class="k" cx="430.01" cy="264.25" r="1.16"/><circle class="k" cx="445.43" cy="264.25" r="1.16"/><circle class="k" cx="460.85" cy="264.25" r="1.16"/><circle class="k" cx="44.46" cy="281.01" r="1.16"/><circle class="k" cx="59.89" cy="281.01" r="1.16"/><circle class="k" cx="75.31" cy="281.01" r="1.16"/><circle class="k" cx="90.73" cy="281.01" r="1.16"/><circle class="k" cx="106.15" cy="281.01" r="1.16"/><circle class="k" cx="121.57" cy="281.01" r="1.16"/><circle class="k" cx="137" cy="281.01" r="1.16"/><circle class="k" cx="152.42" cy="281.01" r="1.16"/><circle class="k" cx="167.84" cy="281.01" r="1.16"/><circle class="k" cx="183.26" cy="281.01" r="1.16"/><circle class="k" cx="198.68" cy="281.01" r="1.16"/><circle class="k" cx="214.1" cy="281.01" r="1.16"/><circle class="k" cx="229.53" cy="281.01" r="1.16"/><circle class="k" cx="244.95" cy="281.01" r="1.16"/><circle class="k" cx="260.37" cy="281.01" r="1.16"/><circle class="k" cx="275.79" cy="281.01" r="1.16"/><circle class="k" cx="291.21" cy="281.01" r="1.16"/><circle class="k" cx="306.63" cy="281.01" r="1.16"/><circle class="k" cx="322.06" cy="281.01" r="1.16"/><circle class="k" cx="337.48" cy="281.01" r="1.16"/><circle class="k" cx="352.9" cy="281.01" r="1.16"/><circle class="k" cx="368.32" cy="281.01" r="1.16"/><circle class="k" cx="383.74" cy="281.01" r="1.16"/><circle class="k" cx="399.16" cy="281.01" r="1.16"/><circle class="k" cx="414.59" cy="281.01" r="1.16"/><circle class="k" cx="430.01" cy="281.01" r="1.16"/><circle class="k" cx="445.43" cy="281.01" r="1.16"/><circle class="k" cx="460.85" cy="281.01" r="1.16"/><circle class="k" cx="44.46" cy="297.77" r="1.16"/><circle class="k" cx="59.89" cy="297.77" r="1.16"/><circle class="k" cx="75.31" cy="297.77" r="1.16"/><circle class="k" cx="90.73" cy="297.77" r="1.16"/><circle class="k" cx="106.15" cy="297.77" r="1.16"/><circle class="k" cx="121.57" cy="297.77" r="1.16"/><circle class="k" cx="137" cy="297.77" r="1.16"/><circle class="k" cx="152.42" cy="297.77" r="1.16"/><circle class="k" cx="167.84" cy="297.77" r="1.16"/><circle class="k" cx="183.26" cy="297.77" r="1.16"/><circle class="k" cx="198.68" cy="297.77" r="1.16"/><circle class="k" cx="214.1" cy="297.77" r="1.16"/><circle class="k" cx="229.53" cy="297.77" r="1.16"/><circle class="k" cx="244.95" cy="297.77" r="1.16"/><circle class="k" cx="260.37" cy="297.77" r="1.16"/><circle class="k" cx="275.79" cy="297.77" r="1.16"/><circle class="k" cx="291.21" cy="297.77" r="1.16"/><circle class="k" cx="306.63" cy="297.77" r="1.16"/><circle class="k" cx="322.06" cy="297.77" r="1.16"/><circle class="k" cx="337.48" cy="297.77" r="1.16"/><circle class="k" cx="352.9" cy="297.77" r="1.16"/><circle class="k" cx="368.32" cy="297.77" r="1.16"/><circle class="k" cx="383.74" cy="297.77" r="1.16"/><circle class="k" cx="399.16" cy="297.77" r="1.16"/><circle class="k" cx="414.59" cy="297.77" r="1.16"/><circle class="k" cx="430.01" cy="297.77" r="1.16"/><circle class="k" cx="445.43" cy="297.77" r="1.16"/><circle class="k" cx="460.85" cy="297.77" r="1.16"/><circle class="k" cx="44.46" cy="314.53" r="1.16"/><circle class="k" cx="59.89" cy="314.53" r="1.16"/><circle class="k" cx="75.31" cy="314.53" r="1.16"/><circle class="k" cx="90.73" cy="314.53" r="1.16"/><circle class="k" cx="106.15" cy="314.53" r="1.16"/><circle class="k" cx="121.57" cy="314.53" r="1.16"/><circle class="k" cx="137" cy="314.53" r="1.16"/><circle class="k" cx="152.42" cy="314.53" r="1.16"/><circle class="k" cx="167.84" cy="314.53" r="1.16"/><circle class="k" cx="183.26" cy="314.53" r="1.16"/><circle class="k" cx="198.68" cy="314.53" r="1.16"/><circle class="k" cx="214.1" cy="314.53" r="1.16"/><circle class="k" cx="229.53" cy="314.53" r="1.16"/><circle class="k" cx="244.95" cy="314.53" r="1.16"/><circle class="k" cx="260.37" cy="314.53" r="1.16"/><circle class="k" cx="275.79" cy="314.53" r="1.16"/><circle class="k" cx="291.21" cy="314.53" r="1.16"/><circle class="k" cx="306.63" cy="314.53" r="1.16"/><circle class="k" cx="322.06" cy="314.53" r="1.16"/><circle class="k" cx="337.48" cy="314.53" r="1.16"/><circle class="k" cx="352.9" cy="314.53" r="1.16"/><circle class="k" cx="368.32" cy="314.53" r="1.16"/><circle class="k" cx="383.74" cy="314.53" r="1.16"/><circle class="k" cx="399.16" cy="314.53" r="1.16"/><circle class="k" cx="414.59" cy="314.53" r="1.16"/><circle class="k" cx="430.01" cy="314.53" r="1.16"/><circle class="k" cx="445.43" cy="314.53" r="1.16"/><circle class="k" cx="460.85" cy="314.53" r="1.16"/><circle class="k" cx="44.46" cy="331.3" r="1.16"/><circle class="k" cx="59.89" cy="331.3" r="1.16"/><circle class="k" cx="75.31" cy="331.3" r="1.16"/><circle class="k" cx="90.73" cy="331.3" r="1.16"/><circle class="k" cx="106.15" cy="331.3" r="1.16"/><circle class="k" cx="121.57" cy="331.3" r="1.16"/><circle class="k" cx="137" cy="331.3" r="1.16"/><circle class="k" cx="152.42" cy="331.3" r="1.16"/><circle class="k" cx="167.84" cy="331.3" r="1.16"/><circle class="k" cx="183.26" cy="331.3" r="1.16"/><circle class="k" cx="198.68" cy="331.3" r="1.16"/><circle class="k" cx="214.1" cy="331.3" r="1.16"/><circle class="k" cx="229.53" cy="331.3" r="1.16"/><circle class="k" cx="244.95" cy="331.3" r="1.16"/><circle class="k" cx="260.37" cy="331.3" r="1.16"/><circle class="k" cx="275.79" cy="331.3" r="1.16"/><circle class="k" cx="291.21" cy="331.3" r="1.16"/><circle class="k" cx="306.63" cy="331.3" r="1.16"/><circle class="k" cx="322.06" cy="331.3" r="1.16"/><circle class="k" cx="337.48" cy="331.3" r="1.16"/><circle class="k" cx="352.9" cy="331.3" r="1.16"/><circle class="k" cx="368.32" cy="331.3" r="1.16"/><circle class="k" cx="383.74" cy="331.3" r="1.16"/><circle class="k" cx="399.16" cy="331.3" r="1.16"/><circle class="k" cx="414.59" cy="331.3" r="1.16"/><circle class="k" cx="430.01" cy="331.3" r="1.16"/><circle class="k" cx="445.43" cy="331.3" r="1.16"/><circle class="k" cx="460.85" cy="331.3" r="1.16"/><circle class="k" cx="44.46" cy="348.06" r="1.16"/><circle class="k" cx="59.89" cy="348.06" r="1.16"/><circle class="k" cx="75.31" cy="348.06" r="1.16"/><circle class="k" cx="90.73" cy="348.06" r="1.16"/><circle class="k" cx="106.15" cy="348.06" r="1.16"/><circle class="k" cx="121.57" cy="348.06" r="1.16"/><circle class="k" cx="137" cy="348.06" r="1.16"/><circle class="k" cx="152.42" cy="348.06" r="1.16"/><circle class="k" cx="167.84" cy="348.06" r="1.16"/><circle class="k" cx="183.26" cy="348.06" r="1.16"/><circle class="k" cx="198.68" cy="348.06" r="1.16"/><circle class="k" cx="214.1" cy="348.06" r="1.16"/><circle class="k" cx="229.53" cy="348.06" r="1.16"/><circle class="k" cx="244.95" cy="348.06" r="1.16"/><circle class="k" cx="260.37" cy="348.06" r="1.16"/><circle class="k" cx="275.79" cy="348.06" r="1.16"/><circle class="k" cx="291.21" cy="348.06" r="1.16"/><circle class="k" cx="306.63" cy="348.06" r="1.16"/><circle class="k" cx="322.06" cy="348.06" r="1.16"/><circle class="k" cx="337.48" cy="348.06" r="1.16"/><circle class="k" cx="352.9" cy="348.06" r="1.16"/><circle class="k" cx="368.32" cy="348.06" r="1.16"/><circle class="k" cx="383.74" cy="348.06" r="1.16"/><circle class="k" cx="399.16" cy="348.06" r="1.16"/><circle class="k" cx="414.59" cy="348.06" r="1.16"/><circle class="k" cx="430.01" cy="348.06" r="1.16"/><circle class="k" cx="445.43" cy="348.06" r="1.16"/><circle class="k" cx="460.85" cy="348.06" r="1.16"/><circle class="k" cx="44.46" cy="364.82" r="1.16"/><circle class="k" cx="59.89" cy="364.82" r="1.16"/><circle class="k" cx="75.31" cy="364.82" r="1.16"/><circle class="k" cx="90.73" cy="364.82" r="1.16"/><circle class="k" cx="106.15" cy="364.82" r="1.16"/><circle class="k" cx="121.57" cy="364.82" r="1.16"/><circle class="k" cx="137" cy="364.82" r="1.16"/><circle class="k" cx="152.42" cy="364.82" r="1.16"/><circle class="k" cx="167.84" cy="364.82" r="1.16"/><circle class="k" cx="183.26" cy="364.82" r="1.16"/><circle class="k" cx="198.68" cy="364.82" r="1.16"/><circle class="k" cx="214.1" cy="364.82" r="1.16"/><circle class="k" cx="229.53" cy="364.82" r="1.16"/><circle class="k" cx="244.95" cy="364.82" r="1.16"/><circle class="k" cx="260.37" cy="364.82" r="1.16"/><circle class="k" cx="275.79" cy="364.82" r="1.16"/><circle class="k" cx="291.21" cy="364.82" r="1.16"/><circle class="k" cx="306.63" cy="364.82" r="1.16"/><circle class="k" cx="322.06" cy="364.82" r="1.16"/><circle class="k" cx="337.48" cy="364.82" r="1.16"/><circle class="k" cx="352.9" cy="364.82" r="1.16"/><circle class="k" cx="368.32" cy="364.82" r="1.16"/><circle class="k" cx="383.74" cy="364.82" r="1.16"/><circle class="k" cx="399.16" cy="364.82" r="1.16"/><circle class="k" cx="414.59" cy="364.82" r="1.16"/><circle class="k" cx="430.01" cy="364.82" r="1.16"/><circle class="k" cx="445.43" cy="364.82" r="1.16"/><circle class="k" cx="460.85" cy="364.82" r="1.16"/><circle class="k" cx="44.46" cy="381.59" r="1.16"/><circle class="k" cx="59.89" cy="381.59" r="1.16"/><circle class="k" cx="75.31" cy="381.59" r="1.16"/><circle class="k" cx="90.73" cy="381.59" r="1.16"/><circle class="k" cx="106.15" cy="381.59" r="1.16"/><circle class="k" cx="121.57" cy="381.59" r="1.16"/><circle class="k" cx="137" cy="381.59" r="1.16"/><circle class="k" cx="152.42" cy="381.59" r="1.16"/><circle class="k" cx="167.84" cy="381.59" r="1.16"/><circle class="k" cx="183.26" cy="381.59" r="1.16"/><circle class="k" cx="198.68" cy="381.59" r="1.16"/><circle class="k" cx="214.1" cy="381.59" r="1.16"/><circle class="k" cx="229.53" cy="381.59" r="1.16"/><circle class="k" cx="244.95" cy="381.59" r="1.16"/><circle class="k" cx="260.37" cy="381.59" r="1.16"/><circle class="k" cx="275.79" cy="381.59" r="1.16"/><circle class="k" cx="291.21" cy="381.59" r="1.16"/><circle class="k" cx="306.63" cy="381.59" r="1.16"/><circle class="k" cx="322.06" cy="381.59" r="1.16"/><circle class="k" cx="337.48" cy="381.59" r="1.16"/><circle class="k" cx="352.9" cy="381.59" r="1.16"/><circle class="k" cx="368.32" cy="381.59" r="1.16"/><circle class="k" cx="383.74" cy="381.59" r="1.16"/><circle class="k" cx="399.16" cy="381.59" r="1.16"/><circle class="k" cx="414.59" cy="381.59" r="1.16"/><circle class="k" cx="430.01" cy="381.59" r="1.16"/><circle class="k" cx="445.43" cy="381.59" r="1.16"/><circle class="k" cx="460.85" cy="381.59" r="1.16"/><circle class="k" cx="44.46" cy="398.35" r="1.16"/><circle class="k" cx="59.89" cy="398.35" r="1.16"/><circle class="k" cx="75.31" cy="398.35" r="1.16"/><circle class="k" cx="90.73" cy="398.35" r="1.16"/><circle class="k" cx="106.15" cy="398.35" r="1.16"/><circle class="k" cx="121.57" cy="398.35" r="1.16"/><circle class="k" cx="137" cy="398.35" r="1.16"/><circle class="k" cx="152.42" cy="398.35" r="1.16"/><circle class="k" cx="167.84" cy="398.35" r="1.16"/><circle class="k" cx="183.26" cy="398.35" r="1.16"/><circle class="k" cx="198.68" cy="398.35" r="1.16"/><circle class="k" cx="214.1" cy="398.35" r="1.16"/><circle class="k" cx="229.53" cy="398.35" r="1.16"/><circle class="k" cx="244.95" cy="398.35" r="1.16"/><circle class="k" cx="260.37" cy="398.35" r="1.16"/><circle class="k" cx="275.79" cy="398.35" r="1.16"/><circle class="k" cx="291.21" cy="398.35" r="1.16"/><circle class="k" cx="306.63" cy="398.35" r="1.16"/><circle class="k" cx="322.06" cy="398.35" r="1.16"/><circle class="k" cx="337.48" cy="398.35" r="1.16"/><circle class="k" cx="352.9" cy="398.35" r="1.16"/><circle class="k" cx="368.32" cy="398.35" r="1.16"/><circle class="k" cx="383.74" cy="398.35" r="1.16"/><circle class="k" cx="399.16" cy="398.35" r="1.16"/><circle class="k" cx="414.59" cy="398.35" r="1.16"/><circle class="k" cx="430.01" cy="398.35" r="1.16"/><circle class="k" cx="445.43" cy="398.35" r="1.16"/><circle class="k" cx="460.85" cy="398.35" r="1.16"/><circle class="k" cx="44.46" cy="415.11" r="1.16"/><circle class="k" cx="59.89" cy="415.11" r="1.16"/><circle class="k" cx="75.31" cy="415.11" r="1.16"/><circle class="k" cx="90.73" cy="415.11" r="1.16"/><circle class="k" cx="106.15" cy="415.11" r="1.16"/><circle class="k" cx="121.57" cy="415.11" r="1.16"/><circle class="k" cx="137" cy="415.11" r="1.16"/><circle class="k" cx="152.42" cy="415.11" r="1.16"/><circle class="k" cx="167.84" cy="415.11" r="1.16"/><circle class="k" cx="183.26" cy="415.11" r="1.16"/><circle class="k" cx="198.68" cy="415.11" r="1.16"/><circle class="k" cx="214.1" cy="415.11" r="1.16"/><circle class="k" cx="229.53" cy="415.11" r="1.16"/><circle class="k" cx="244.95" cy="415.11" r="1.16"/><circle class="k" cx="260.37" cy="415.11" r="1.16"/><circle class="k" cx="275.79" cy="415.11" r="1.16"/><circle class="k" cx="291.21" cy="415.11" r="1.16"/><circle class="k" cx="306.63" cy="415.11" r="1.16"/><circle class="k" cx="322.06" cy="415.11" r="1.16"/><circle class="k" cx="337.48" cy="415.11" r="1.16"/><circle class="k" cx="352.9" cy="415.11" r="1.16"/><circle class="k" cx="368.32" cy="415.11" r="1.16"/><circle class="k" cx="383.74" cy="415.11" r="1.16"/><circle class="k" cx="399.16" cy="415.11" r="1.16"/><circle class="k" cx="414.59" cy="415.11" r="1.16"/><circle class="k" cx="430.01" cy="415.11" r="1.16"/><circle class="k" cx="445.43" cy="415.11" r="1.16"/><circle class="k" cx="460.85" cy="415.11" r="1.16"/><circle class="k" cx="44.46" cy="431.87" r="1.16"/><circle class="k" cx="59.89" cy="431.87" r="1.16"/><circle class="k" cx="75.31" cy="431.87" r="1.16"/><circle class="k" cx="90.73" cy="431.87" r="1.16"/><circle class="k" cx="106.15" cy="431.87" r="1.16"/><circle class="k" cx="121.57" cy="431.87" r="1.16"/><circle class="k" cx="137" cy="431.87" r="1.16"/><circle class="k" cx="152.42" cy="431.87" r="1.16"/><circle class="k" cx="167.84" cy="431.87" r="1.16"/><circle class="k" cx="183.26" cy="431.87" r="1.16"/><circle class="k" cx="198.68" cy="431.87" r="1.16"/><circle class="k" cx="214.1" cy="431.87" r="1.16"/><circle class="k" cx="229.53" cy="431.87" r="1.16"/><circle class="k" cx="244.95" cy="431.87" r="1.16"/><circle class="k" cx="260.37" cy="431.87" r="1.16"/><circle class="k" cx="275.79" cy="431.87" r="1.16"/><circle class="k" cx="291.21" cy="431.87" r="1.16"/><circle class="k" cx="306.63" cy="431.87" r="1.16"/><circle class="k" cx="322.06" cy="431.87" r="1.16"/><circle class="k" cx="337.48" cy="431.87" r="1.16"/><circle class="k" cx="352.9" cy="431.87" r="1.16"/><circle class="k" cx="368.32" cy="431.87" r="1.16"/><circle class="k" cx="383.74" cy="431.87" r="1.16"/><circle class="k" cx="399.16" cy="431.87" r="1.16"/><circle class="k" cx="414.59" cy="431.87" r="1.16"/><circle class="k" cx="430.01" cy="431.87" r="1.16"/><circle class="k" cx="445.43" cy="431.87" r="1.16"/><circle class="k" cx="460.85" cy="431.87" r="1.16"/></g></g><path class="o" d="M254.3,390.09h0ZM35.54,263.8h0Zm0,0l171.79,99.25,218.74-126.29-171.79-99.25L35.55,263.79Z"/><g><polyline class="p" points="215.39 293.61 162.13 262.63 162.13 256.55 170.98 242.49 199.12 226.12 224.24 200.49 252.38 184.12 268.99 188.06 323.38 219.48 323.38 230.4 322.25 231.64 215.73 293.61"/><polygon class="n" points="220.93 206.13 258.99 228.53 245.48 252.68 199.12 226.12 220.93 206.13"/><polygon class="n" points="263.68 246.33 274.17 229.41 307.77 210.46 317.47 216.06 263.68 246.33"/><line class="l" x1="170.98" y1="242.49" x2="223.02" y2="273.05"/><polyline class="n" points="212.49 289.4 223.56 273.32 212.81 267.05 201.41 283.6"/><polyline class="n" points="170.18 267.31 182.15 249.92 171.4 243.65 162.56 257.11"/><ellipse class="p" cx="243.8" cy="279.69" rx="10.27" ry="7.13" transform="translate(-115.98 370.37) rotate(-63.07)"/><ellipse class="p" cx="305.06" cy="243.65" rx="10.27" ry="7.13" transform="translate(-50.34 405.26) rotate(-63.07)"/></g><g><path class="o" d="M190.15,50.39l34.47,19.91,11.43-6.71-34.47-19.91-11.43,6.71Z"/><path class="k" d="M166.77,191.01V54.27c0-10.99,11.97-17.79,21.41-12.18l23.38,13.91"/></g><line class="o" x1="66" y1="254.92" x2="66" y2="226.82"/><line class="o" x1="122.29" y1="222.67" x2="122.29" y2="194.57"/><path class="k" d="M134.75,173.47l-88.15,51.01-10.77,13.45,10.77-1.06,88.15-51.01v-12.39Z"/></g></g><g id="d"/><g id="e"/><g id="f"/><g id="g"/><g id="h"/><g id="i"/></svg>