<?xml version="1.0" encoding="UTF-8"?><svg xmlns="http://www.w3.org/2000/svg" viewBox="0 0 222 236"><defs><style>.i{stroke-dasharray:0 0 .94 13.12;}.i,.j,.k,.l,.m,.n{stroke-linecap:round;stroke-linejoin:round;stroke-width:6px;}.i,.m{stroke:#fff;}.i,.m,.n{fill:none;}.j{fill:#65a5bf;}.j,.k,.l,.n{stroke:#002a3a;}.k{fill:#002a3a;}.l{fill:#005d84;}</style></defs><g id="a"/><g id="b"><g><g><path class="n" d="M111.38,204.97h0ZM20.14,152.3h0Zm0,0l91.23,52.67,91.23-52.67-91.23-52.67L20.15,152.29Z"/><path class="k" d="M111.38,220.73h0ZM20.14,161.16h0Zm0,6.89l91.23,52.67v-15.76L20.15,152.29v15.76Z"/><path class="n" d="M111.39,220.73h0Zm91.23-68.43l-91.23,52.67v15.76l91.23-52.67v-15.76Z"/></g><g><path class="n" d="M111.38,204.97h0ZM20.14,152.3h0Zm0,0l91.23,52.67,91.23-52.67-91.23-52.67L20.15,152.29Z"/><path class="k" d="M111.38,220.73h0ZM20.14,161.16h0Zm0,6.89l91.23,52.67v-15.76L20.15,152.29v15.76Z"/><path class="n" d="M111.39,220.73h0Zm91.23-68.43l-91.23,52.67v15.76l91.23-52.67v-15.76Z"/></g><g><g><path class="l" d="M101.45,168.83h0Zm-48.87-28.2h0Zm117.92-11.67l-48.86-28.2-69.05,39.87,48.86,28.2"/><path class="k" d="M57.29,151.49l38.1,21.98c2.69,1.55,6.06-.39,6.06-3.5v-1.15l-48.86-28.2v2.71c0,3.36,1.79,6.46,4.7,8.14Z"/><path class="n" d="M97.03,174l7.32,.72m66.16-45.76l-25.18,14.54-.08,3.95-11.72,6.72-3.58-1.84-28.5,16.5v2.81c0,2.37,2.57,3.85,4.62,2.67l60.03-34.66c2.73-1.58,4.41-4.49,4.41-7.64v-3.05Z"/></g><path class="k" d="M52.59,140.63l-10.05-51.55c-1.04-5.33,1.41-10.73,6.1-13.46l52.8-30.76c4.57-2.66,10.39,.04,11.3,5.25l8.9,50.66"/><g><line class="k" x1="82.71" y1="157.58" x2="150.33" y2="118.14"/><line class="k" x1="63.6" y1="145.87" x2="131.22" y2="106.43"/><line class="k" x1="73.33" y1="151.6" x2="140.95" y2="112.17"/><line class="k" x1="92.36" y1="151.87" x2="62.36" y2="134.56"/><line class="k" x1="101.79" y1="145.94" x2="71.79" y2="128.63"/><line class="k" x1="111.22" y1="140.01" x2="81.22" y2="122.7"/><line class="k" x1="120.64" y1="134.09" x2="90.64" y2="116.77"/><line class="k" x1="130.07" y1="128.16" x2="100.07" y2="110.84"/><line class="k" x1="139.5" y1="122.23" x2="109.5" y2="104.92"/></g></g><g><path class="n" d="M170.87,17.16l-3.79-2.25c-.88-.62-2.09-.76-3.16-.14l-20.3,11.72c-2.38,1.37-3.84,3.91-3.84,6.65v59.19c0,1.02,.45,1.93,1.22,2.38,.9,.53,4.13,2.48,4.13,2.48"/><path class="j" d="M172.21,79.06V19.62c0-2.26-2.45-3.68-4.41-2.55l-20.3,11.72c-2.38,1.37-3.84,3.91-3.84,6.65v59.19c0,2.25,2.43,3.67,4.39,2.56l20.26-11.45c2.41-1.36,3.9-3.92,3.9-6.68Z"/><line class="n" x1="159.93" y1="31.35" x2="156.95" y2="33.07"/></g><line class="n" x1="116.52" y1="188.95" x2="116.52" y2="183.98"/><line class="n" x1="197.44" y1="149.17" x2="197.44" y2="144.21"/><line class="n" x1="179.68" y1="150.83" x2="179.68" y2="145.87"/><line class="n" x1="135.53" y1="188.47" x2="135.53" y2="183.5"/><line class="n" x1="125.92" y1="186.05" x2="125.92" y2="178.3"/><line class="n" x1="34.25" y1="143.67" x2="34.25" y2="135.92"/><line class="n" x1="26.04" y1="146.44" x2="26.04" y2="141.98"/><g><line class="m" x1="85.23" y1="97.3" x2="85.66" y2="97.05"/><line class="i" x1="97" y1="90.44" x2="152.09" y2="58.38"/><line class="m" x1="157.76" y1="55.08" x2="158.19" y2="54.82"/></g></g></g><g id="c"/><g id="d"/><g id="e"/><g id="f"/><g id="g"/><g id="h"/></svg>