<?xml version="1.0" encoding="UTF-8"?><svg xmlns="http://www.w3.org/2000/svg" xmlns:xlink="http://www.w3.org/1999/xlink" viewBox="0 0 510.34 478.36"><defs><style>.k,.l,.m{fill:none;}.n{clip-path:url(#c);}.o{clip-path:url(#d);}.p{fill:#65a5bf;}.p,.q,.r,.s,.l,.m{stroke-linecap:round;stroke-linejoin:round;stroke-width:6px;}.p,.r,.s,.m{stroke:#65a5bf;}.q,.s{fill:#002a3a;}.q,.l{stroke:#002a3a;}.r{fill:#005d84;}</style><clipPath id="c"><path class="k" d="M256.24,429.16h0ZM37.48,302.86h0Zm0,0l218.74,126.29,218.74-126.29-218.74-126.29L37.49,302.86Z"/></clipPath><clipPath id="d"><path class="k" d="M-7.22-58.54h0Zm-218.76-126.29h0Zm0,0L-7.23-58.55l218.74-126.29L-7.24-311.13l-218.74,126.29Z"/></clipPath></defs><g id="a"/><g id="b"><g><g><path class="l" d="M256.22,429.16h0ZM37.45,302.87h0Zm0,0l218.74,126.29,218.74-126.29-218.74-126.29L37.46,302.87Z"/><path class="q" d="M256.22,450.42h0ZM37.45,324.12h0Zm0,0l218.74,126.29v-21.25L37.46,302.87v21.25Z"/><path class="l" d="M256.24,450.42h0Zm218.73-147.55l-218.74,126.29v21.25l218.74-126.29v-21.25Z"/></g><g class="n"><g><circle class="l" cx="46.41" cy="85.39" r="1.16"/><circle class="l" cx="61.83" cy="85.39" r="1.16"/><circle class="l" cx="77.25" cy="85.39" r="1.16"/><circle class="l" cx="92.67" cy="85.39" r="1.16"/><circle class="l" cx="108.09" cy="85.39" r="1.16"/><circle class="l" cx="123.51" cy="85.39" r="1.16"/><circle class="l" cx="138.94" cy="85.39" r="1.16"/><circle class="l" cx="154.36" cy="85.39" r="1.16"/><circle class="l" cx="169.78" cy="85.39" r="1.16"/><circle class="l" cx="185.2" cy="85.39" r="1.16"/><circle class="l" cx="200.62" cy="85.39" r="1.16"/><circle class="l" cx="216.04" cy="85.39" r="1.16"/><circle class="l" cx="231.47" cy="85.39" r="1.16"/><circle class="l" cx="246.89" cy="85.39" r="1.16"/><circle class="l" cx="262.31" cy="85.39" r="1.16"/><circle class="l" cx="277.73" cy="85.39" r="1.16"/><circle class="l" cx="293.15" cy="85.39" r="1.16"/><circle class="l" cx="308.58" cy="85.39" r="1.16"/><circle class="l" cx="324" cy="85.39" r="1.16"/><circle class="l" cx="339.42" cy="85.39" r="1.16"/><circle class="l" cx="354.84" cy="85.39" r="1.16"/><circle class="l" cx="370.26" cy="85.39" r="1.16"/><circle class="l" cx="385.68" cy="85.39" r="1.16"/><circle class="l" cx="401.11" cy="85.39" r="1.16"/><circle class="l" cx="416.53" cy="85.39" r="1.16"/><circle class="l" cx="431.95" cy="85.39" r="1.16"/><circle class="l" cx="447.37" cy="85.39" r="1.16"/><circle class="l" cx="462.79" cy="85.39" r="1.16"/><circle class="l" cx="46.41" cy="102.16" r="1.16"/><circle class="l" cx="61.83" cy="102.16" r="1.16"/><circle class="l" cx="77.25" cy="102.16" r="1.16"/><circle class="l" cx="92.67" cy="102.16" r="1.16"/><circle class="l" cx="108.09" cy="102.16" r="1.16"/><circle class="l" cx="123.51" cy="102.16" r="1.16"/><circle class="l" cx="138.94" cy="102.16" r="1.16"/><circle class="l" cx="154.36" cy="102.16" r="1.16"/><circle class="l" cx="169.78" cy="102.16" r="1.16"/><circle class="l" cx="185.2" cy="102.16" r="1.16"/><circle class="l" cx="200.62" cy="102.16" r="1.16"/><circle class="l" cx="216.04" cy="102.16" r="1.16"/><circle class="l" cx="231.47" cy="102.16" r="1.16"/><circle class="l" cx="246.89" cy="102.16" r="1.16"/><circle class="l" cx="262.31" cy="102.16" r="1.16"/><circle class="l" cx="277.73" cy="102.16" r="1.16"/><circle class="l" cx="293.15" cy="102.16" r="1.16"/><circle class="l" cx="308.58" cy="102.16" r="1.16"/><circle class="l" cx="324" cy="102.16" r="1.16"/><circle class="l" cx="339.42" cy="102.16" r="1.16"/><circle class="l" cx="354.84" cy="102.16" r="1.16"/><circle class="l" cx="370.26" cy="102.16" r="1.16"/><circle class="l" cx="385.68" cy="102.16" r="1.16"/><circle class="l" cx="401.11" cy="102.16" r="1.16"/><circle class="l" cx="416.53" cy="102.16" r="1.16"/><circle class="l" cx="431.95" cy="102.16" r="1.16"/><circle class="l" cx="447.37" cy="102.16" r="1.16"/><circle class="l" cx="462.79" cy="102.16" r="1.16"/><circle class="l" cx="46.41" cy="118.92" r="1.16"/><circle class="l" cx="61.83" cy="118.92" r="1.16"/><circle class="l" cx="77.25" cy="118.92" r="1.16"/><circle class="l" cx="92.67" cy="118.92" r="1.16"/><circle class="l" cx="108.09" cy="118.92" r="1.16"/><circle class="l" cx="123.51" cy="118.92" r="1.16"/><circle class="l" cx="138.94" cy="118.92" r="1.16"/><circle class="l" cx="154.36" cy="118.92" r="1.16"/><circle class="l" cx="169.78" cy="118.92" r="1.16"/><circle class="l" cx="185.2" cy="118.92" r="1.16"/><circle class="l" cx="200.62" cy="118.92" r="1.16"/><circle class="l" cx="216.04" cy="118.92" r="1.16"/><circle class="l" cx="231.47" cy="118.92" r="1.16"/><circle class="l" cx="246.89" cy="118.92" r="1.16"/><circle class="l" cx="262.31" cy="118.92" r="1.16"/><circle class="l" cx="277.73" cy="118.92" r="1.16"/><circle class="l" cx="293.15" cy="118.92" r="1.16"/><circle class="l" cx="308.58" cy="118.92" r="1.16"/><circle class="l" cx="324" cy="118.92" r="1.16"/><circle class="l" cx="339.42" cy="118.92" r="1.16"/><circle class="l" cx="354.84" cy="118.92" r="1.16"/><circle class="l" cx="370.26" cy="118.92" r="1.16"/><circle class="l" cx="385.68" cy="118.92" r="1.16"/><circle class="l" cx="401.11" cy="118.92" r="1.16"/><circle class="l" cx="416.53" cy="118.92" r="1.16"/><circle class="l" cx="431.95" cy="118.92" r="1.16"/><circle class="l" cx="447.37" cy="118.92" r="1.16"/><circle class="l" cx="462.79" cy="118.92" r="1.16"/><circle class="l" cx="46.41" cy="135.68" r="1.16"/><circle class="l" cx="61.83" cy="135.68" r="1.16"/><circle class="l" cx="77.25" cy="135.68" r="1.16"/><circle class="l" cx="92.67" cy="135.68" r="1.16"/><circle class="l" cx="108.09" cy="135.68" r="1.16"/><circle class="l" cx="123.51" cy="135.68" r="1.16"/><circle class="l" cx="138.94" cy="135.68" r="1.16"/><circle class="l" cx="154.36" cy="135.68" r="1.16"/><circle class="l" cx="169.78" cy="135.68" r="1.16"/><circle class="l" cx="185.2" cy="135.68" r="1.16"/><circle class="l" cx="200.62" cy="135.68" r="1.16"/><circle class="l" cx="216.04" cy="135.68" r="1.16"/><circle class="l" cx="231.47" cy="135.68" r="1.16"/><circle class="l" cx="246.89" cy="135.68" r="1.16"/><circle class="l" cx="262.31" cy="135.68" r="1.16"/><circle class="l" cx="277.73" cy="135.68" r="1.16"/><circle class="l" cx="293.15" cy="135.68" r="1.16"/><circle class="l" cx="308.58" cy="135.68" r="1.16"/><circle class="l" cx="324" cy="135.68" r="1.16"/><circle class="l" cx="339.42" cy="135.68" r="1.16"/><circle class="l" cx="354.84" cy="135.68" r="1.16"/><circle class="l" cx="370.26" cy="135.68" r="1.16"/><circle class="l" cx="385.68" cy="135.68" r="1.16"/><circle class="l" cx="401.11" cy="135.68" r="1.16"/><circle class="l" cx="416.53" cy="135.68" r="1.16"/><circle class="l" cx="431.95" cy="135.68" r="1.16"/><circle class="l" cx="447.37" cy="135.68" r="1.16"/><circle class="l" cx="462.79" cy="135.68" r="1.16"/><circle class="l" cx="46.41" cy="152.45" r="1.16"/><circle class="l" cx="61.83" cy="152.45" r="1.16"/><circle class="l" cx="77.25" cy="152.45" r="1.16"/><circle class="l" cx="92.67" cy="152.45" r="1.16"/><circle class="l" cx="108.09" cy="152.45" r="1.16"/><circle class="l" cx="123.51" cy="152.45" r="1.16"/><circle class="l" cx="138.94" cy="152.45" r="1.16"/><circle class="l" cx="154.36" cy="152.45" r="1.16"/><circle class="l" cx="169.78" cy="152.45" r="1.16"/><circle class="l" cx="185.2" cy="152.45" r="1.16"/><circle class="l" cx="200.62" cy="152.45" r="1.16"/><circle class="l" cx="216.04" cy="152.45" r="1.16"/><circle class="l" cx="231.47" cy="152.45" r="1.16"/><circle class="l" cx="246.89" cy="152.45" r="1.16"/><circle class="l" cx="262.31" cy="152.45" r="1.16"/><circle class="l" cx="277.73" cy="152.45" r="1.16"/><circle class="l" cx="293.15" cy="152.45" r="1.16"/><circle class="l" cx="308.58" cy="152.45" r="1.16"/><circle class="l" cx="324" cy="152.45" r="1.16"/><circle class="l" cx="339.42" cy="152.45" r="1.16"/><circle class="l" cx="354.84" cy="152.45" r="1.16"/><circle class="l" cx="370.26" cy="152.45" r="1.16"/><circle class="l" cx="385.68" cy="152.45" r="1.16"/><circle class="l" cx="401.11" cy="152.45" r="1.16"/><circle class="l" cx="416.53" cy="152.45" r="1.16"/><circle class="l" cx="431.95" cy="152.45" r="1.16"/><circle class="l" cx="447.37" cy="152.45" r="1.16"/><circle class="l" cx="462.79" cy="152.45" r="1.16"/><circle class="l" cx="46.41" cy="169.21" r="1.16"/><circle class="l" cx="61.83" cy="169.21" r="1.16"/><circle class="l" cx="77.25" cy="169.21" r="1.16"/><circle class="l" cx="92.67" cy="169.21" r="1.16"/><circle class="l" cx="108.09" cy="169.21" r="1.16"/><circle class="l" cx="123.51" cy="169.21" r="1.16"/><circle class="l" cx="138.94" cy="169.21" r="1.16"/><circle class="l" cx="154.36" cy="169.21" r="1.16"/><circle class="l" cx="169.78" cy="169.21" r="1.16"/><circle class="l" cx="185.2" cy="169.21" r="1.16"/><circle class="l" cx="200.62" cy="169.21" r="1.16"/><circle class="l" cx="216.04" cy="169.21" r="1.16"/><circle class="l" cx="231.47" cy="169.21" r="1.16"/><circle class="l" cx="246.89" cy="169.21" r="1.16"/><circle class="l" cx="262.31" cy="169.21" r="1.16"/><circle class="l" cx="277.73" cy="169.21" r="1.16"/><circle class="l" cx="293.15" cy="169.21" r="1.16"/><circle class="l" cx="308.58" cy="169.21" r="1.16"/><circle class="l" cx="324" cy="169.21" r="1.16"/><circle class="l" cx="339.42" cy="169.21" r="1.16"/><circle class="l" cx="354.84" cy="169.21" r="1.16"/><circle class="l" cx="370.26" cy="169.21" r="1.16"/><circle class="l" cx="385.68" cy="169.21" r="1.16"/><circle class="l" cx="401.11" cy="169.21" r="1.16"/><circle class="l" cx="416.53" cy="169.21" r="1.16"/><circle class="l" cx="431.95" cy="169.21" r="1.16"/><circle class="l" cx="447.37" cy="169.21" r="1.16"/><circle class="l" cx="462.79" cy="169.21" r="1.16"/><circle class="l" cx="46.41" cy="185.97" r="1.16"/><circle class="l" cx="61.83" cy="185.97" r="1.16"/><circle class="l" cx="77.25" cy="185.97" r="1.16"/><circle class="l" cx="92.67" cy="185.97" r="1.16"/><circle class="l" cx="108.09" cy="185.97" r="1.16"/><circle class="l" cx="123.51" cy="185.97" r="1.16"/><circle class="l" cx="138.94" cy="185.97" r="1.16"/><circle class="l" cx="154.36" cy="185.97" r="1.16"/><circle class="l" cx="169.78" cy="185.97" r="1.16"/><circle class="l" cx="185.2" cy="185.97" r="1.16"/><circle class="l" cx="200.62" cy="185.97" r="1.16"/><circle class="l" cx="216.04" cy="185.97" r="1.16"/><circle class="l" cx="231.47" cy="185.97" r="1.16"/><circle class="l" cx="246.89" cy="185.97" r="1.16"/><circle class="l" cx="262.31" cy="185.97" r="1.16"/><circle class="l" cx="277.73" cy="185.97" r="1.16"/><circle class="l" cx="293.15" cy="185.97" r="1.16"/><circle class="l" cx="308.58" cy="185.97" r="1.16"/><circle class="l" cx="324" cy="185.97" r="1.16"/><circle class="l" cx="339.42" cy="185.97" r="1.16"/><circle class="l" cx="354.84" cy="185.97" r="1.16"/><circle class="l" cx="370.26" cy="185.97" r="1.16"/><circle class="l" cx="385.68" cy="185.97" r="1.16"/><circle class="l" cx="401.11" cy="185.97" r="1.16"/><circle class="l" cx="416.53" cy="185.97" r="1.16"/><circle class="l" cx="431.95" cy="185.97" r="1.16"/><circle class="l" cx="447.37" cy="185.97" r="1.16"/><circle class="l" cx="462.79" cy="185.97" r="1.16"/><circle class="l" cx="46.41" cy="202.73" r="1.16"/><circle class="l" cx="61.83" cy="202.73" r="1.16"/><circle class="l" cx="77.25" cy="202.73" r="1.16"/><circle class="l" cx="92.67" cy="202.73" r="1.16"/><circle class="l" cx="108.09" cy="202.73" r="1.16"/><circle class="l" cx="123.51" cy="202.73" r="1.16"/><circle class="l" cx="138.94" cy="202.73" r="1.16"/><circle class="l" cx="154.36" cy="202.73" r="1.16"/><circle class="l" cx="169.78" cy="202.73" r="1.16"/><circle class="l" cx="185.2" cy="202.73" r="1.16"/><circle class="l" cx="200.62" cy="202.73" r="1.16"/><circle class="l" cx="216.04" cy="202.73" r="1.16"/><circle class="l" cx="231.47" cy="202.73" r="1.16"/><circle class="l" cx="246.89" cy="202.73" r="1.16"/><circle class="l" cx="262.31" cy="202.73" r="1.16"/><circle class="l" cx="277.73" cy="202.73" r="1.16"/><circle class="l" cx="293.15" cy="202.73" r="1.16"/><circle class="l" cx="308.58" cy="202.73" r="1.16"/><circle class="l" cx="324" cy="202.73" r="1.16"/><circle class="l" cx="339.42" cy="202.73" r="1.16"/><circle class="l" cx="354.84" cy="202.73" r="1.16"/><circle class="l" cx="370.26" cy="202.73" r="1.16"/><circle class="l" cx="385.68" cy="202.73" r="1.16"/><circle class="l" cx="401.11" cy="202.73" r="1.16"/><circle class="l" cx="416.53" cy="202.73" r="1.16"/><circle class="l" cx="431.95" cy="202.73" r="1.16"/><circle class="l" cx="447.37" cy="202.73" r="1.16"/><circle class="l" cx="462.79" cy="202.73" r="1.16"/><circle class="l" cx="46.41" cy="219.5" r="1.16"/><circle class="l" cx="61.83" cy="219.5" r="1.16"/><circle class="l" cx="77.25" cy="219.5" r="1.16"/><circle class="l" cx="92.67" cy="219.5" r="1.16"/><circle class="l" cx="108.09" cy="219.5" r="1.16"/><circle class="l" cx="123.51" cy="219.5" r="1.16"/><circle class="l" cx="138.94" cy="219.5" r="1.16"/><circle class="l" cx="154.36" cy="219.5" r="1.16"/><circle class="l" cx="169.78" cy="219.5" r="1.16"/><circle class="l" cx="185.2" cy="219.5" r="1.16"/><circle class="l" cx="200.62" cy="219.5" r="1.16"/><circle class="l" cx="216.04" cy="219.5" r="1.16"/><circle class="l" cx="231.47" cy="219.5" r="1.16"/><circle class="l" cx="246.89" cy="219.5" r="1.16"/><circle class="l" cx="262.31" cy="219.5" r="1.16"/><circle class="l" cx="277.73" cy="219.5" r="1.16"/><circle class="l" cx="293.15" cy="219.5" r="1.16"/><circle class="l" cx="308.58" cy="219.5" r="1.16"/><circle class="l" cx="324" cy="219.5" r="1.16"/><circle class="l" cx="339.42" cy="219.5" r="1.16"/><circle class="l" cx="354.84" cy="219.5" r="1.16"/><circle class="l" cx="370.26" cy="219.5" r="1.16"/><circle class="l" cx="385.68" cy="219.5" r="1.16"/><circle class="l" cx="401.11" cy="219.5" r="1.16"/><circle class="l" cx="416.53" cy="219.5" r="1.16"/><circle class="l" cx="431.95" cy="219.5" r="1.16"/><circle class="l" cx="447.37" cy="219.5" r="1.16"/><circle class="l" cx="462.79" cy="219.5" r="1.16"/><circle class="l" cx="46.41" cy="236.26" r="1.16"/><circle class="l" cx="61.83" cy="236.26" r="1.16"/><circle class="l" cx="77.25" cy="236.26" r="1.16"/><circle class="l" cx="92.67" cy="236.26" r="1.16"/><circle class="l" cx="108.09" cy="236.26" r="1.16"/><circle class="l" cx="123.51" cy="236.26" r="1.16"/><circle class="l" cx="138.94" cy="236.26" r="1.16"/><circle class="l" cx="154.36" cy="236.26" r="1.16"/><circle class="l" cx="169.78" cy="236.26" r="1.16"/><circle class="l" cx="185.2" cy="236.26" r="1.16"/><circle class="l" cx="200.62" cy="236.26" r="1.16"/><circle class="l" cx="216.04" cy="236.26" r="1.16"/><circle class="l" cx="231.47" cy="236.26" r="1.16"/><circle class="l" cx="246.89" cy="236.26" r="1.16"/><circle class="l" cx="262.31" cy="236.26" r="1.16"/><circle class="l" cx="277.73" cy="236.26" r="1.16"/><circle class="l" cx="293.15" cy="236.26" r="1.16"/><circle class="l" cx="308.58" cy="236.26" r="1.16"/><circle class="l" cx="324" cy="236.26" r="1.16"/><circle class="l" cx="339.42" cy="236.26" r="1.16"/><circle class="l" cx="354.84" cy="236.26" r="1.16"/><circle class="l" cx="370.26" cy="236.26" r="1.16"/><circle class="l" cx="385.68" cy="236.26" r="1.16"/><circle class="l" cx="401.11" cy="236.26" r="1.16"/><circle class="l" cx="416.53" cy="236.26" r="1.16"/><circle class="l" cx="431.95" cy="236.26" r="1.16"/><circle class="l" cx="447.37" cy="236.26" r="1.16"/><circle class="l" cx="462.79" cy="236.26" r="1.16"/><circle class="l" cx="46.41" cy="253.02" r="1.16"/><circle class="l" cx="61.83" cy="253.02" r="1.16"/><circle class="l" cx="77.25" cy="253.02" r="1.16"/><circle class="l" cx="92.67" cy="253.02" r="1.16"/><circle class="l" cx="108.09" cy="253.02" r="1.16"/><circle class="l" cx="123.51" cy="253.02" r="1.16"/><circle class="l" cx="138.94" cy="253.02" r="1.16"/><circle class="l" cx="154.36" cy="253.02" r="1.16"/><circle class="l" cx="169.78" cy="253.02" r="1.16"/><circle class="l" cx="185.2" cy="253.02" r="1.16"/><circle class="l" cx="200.62" cy="253.02" r="1.16"/><circle class="l" cx="216.04" cy="253.02" r="1.16"/><circle class="l" cx="231.47" cy="253.02" r="1.16"/><circle class="l" cx="246.89" cy="253.02" r="1.16"/><circle class="l" cx="262.31" cy="253.02" r="1.16"/><circle class="l" cx="277.73" cy="253.02" r="1.16"/><circle class="l" cx="293.15" cy="253.02" r="1.16"/><circle class="l" cx="308.58" cy="253.02" r="1.16"/><circle class="l" cx="324" cy="253.02" r="1.16"/><circle class="l" cx="339.42" cy="253.02" r="1.16"/><circle class="l" cx="354.84" cy="253.02" r="1.16"/><circle class="l" cx="370.26" cy="253.02" r="1.16"/><circle class="l" cx="385.68" cy="253.02" r="1.16"/><circle class="l" cx="401.11" cy="253.02" r="1.16"/><circle class="l" cx="416.53" cy="253.02" r="1.16"/><circle class="l" cx="431.95" cy="253.02" r="1.16"/><circle class="l" cx="447.37" cy="253.02" r="1.16"/><circle class="l" cx="462.79" cy="253.02" r="1.16"/><circle class="l" cx="46.41" cy="269.78" r="1.16"/><circle class="l" cx="61.83" cy="269.78" r="1.16"/><circle class="l" cx="77.25" cy="269.78" r="1.16"/><circle class="l" cx="92.67" cy="269.78" r="1.16"/><circle class="l" cx="108.09" cy="269.78" r="1.16"/><circle class="l" cx="123.51" cy="269.78" r="1.16"/><circle class="l" cx="138.94" cy="269.78" r="1.16"/><circle class="l" cx="154.36" cy="269.78" r="1.16"/><circle class="l" cx="169.78" cy="269.78" r="1.16"/><circle class="l" cx="185.2" cy="269.78" r="1.16"/><circle class="l" cx="200.62" cy="269.78" r="1.16"/><circle class="l" cx="216.04" cy="269.78" r="1.16"/><circle class="l" cx="231.47" cy="269.78" r="1.16"/><circle class="l" cx="246.89" cy="269.78" r="1.16"/><circle class="l" cx="262.31" cy="269.78" r="1.16"/><circle class="l" cx="277.73" cy="269.78" r="1.16"/><circle class="l" cx="293.15" cy="269.78" r="1.16"/><circle class="l" cx="308.58" cy="269.78" r="1.16"/><circle class="l" cx="324" cy="269.78" r="1.16"/><circle class="l" cx="339.42" cy="269.78" r="1.16"/><circle class="l" cx="354.84" cy="269.78" r="1.16"/><circle class="l" cx="370.26" cy="269.78" r="1.16"/><circle class="l" cx="385.68" cy="269.78" r="1.16"/><circle class="l" cx="401.11" cy="269.78" r="1.16"/><circle class="l" cx="416.53" cy="269.78" r="1.16"/><circle class="l" cx="431.95" cy="269.78" r="1.16"/><circle class="l" cx="447.37" cy="269.78" r="1.16"/><circle class="l" cx="462.79" cy="269.78" r="1.16"/><circle class="l" cx="46.41" cy="286.55" r="1.16"/><circle class="l" cx="61.83" cy="286.55" r="1.16"/><circle class="l" cx="77.25" cy="286.55" r="1.16"/><circle class="l" cx="92.67" cy="286.55" r="1.16"/><circle class="l" cx="108.09" cy="286.55" r="1.16"/><circle class="l" cx="123.51" cy="286.55" r="1.16"/><circle class="l" cx="138.94" cy="286.55" r="1.16"/><circle class="l" cx="154.36" cy="286.55" r="1.16"/><circle class="l" cx="169.78" cy="286.55" r="1.16"/><circle class="l" cx="185.2" cy="286.55" r="1.16"/><circle class="l" cx="200.62" cy="286.55" r="1.16"/><circle class="l" cx="216.04" cy="286.55" r="1.16"/><circle class="l" cx="231.47" cy="286.55" r="1.16"/><circle class="l" cx="246.89" cy="286.55" r="1.16"/><circle class="l" cx="262.31" cy="286.55" r="1.16"/><circle class="l" cx="277.73" cy="286.55" r="1.16"/><circle class="l" cx="293.15" cy="286.55" r="1.16"/><circle class="l" cx="308.58" cy="286.55" r="1.16"/><circle class="l" cx="324" cy="286.55" r="1.16"/><circle class="l" cx="339.42" cy="286.55" r="1.16"/><circle class="l" cx="354.84" cy="286.55" r="1.16"/><circle class="l" cx="370.26" cy="286.55" r="1.16"/><circle class="l" cx="385.68" cy="286.55" r="1.16"/><circle class="l" cx="401.11" cy="286.55" r="1.16"/><circle class="l" cx="416.53" cy="286.55" r="1.16"/><circle class="l" cx="431.95" cy="286.55" r="1.16"/><circle class="l" cx="447.37" cy="286.55" r="1.16"/><circle class="l" cx="462.79" cy="286.55" r="1.16"/><circle class="l" cx="46.41" cy="303.31" r="1.16"/><circle class="l" cx="61.83" cy="303.31" r="1.16"/><circle class="l" cx="77.25" cy="303.31" r="1.16"/><circle class="l" cx="92.67" cy="303.31" r="1.16"/><circle class="l" cx="108.09" cy="303.31" r="1.16"/><circle class="l" cx="123.51" cy="303.31" r="1.16"/><circle class="l" cx="138.94" cy="303.31" r="1.16"/><circle class="l" cx="154.36" cy="303.31" r="1.16"/><circle class="l" cx="169.78" cy="303.31" r="1.16"/><circle class="l" cx="185.2" cy="303.31" r="1.16"/><circle class="l" cx="200.62" cy="303.31" r="1.16"/><circle class="l" cx="216.04" cy="303.31" r="1.16"/><circle class="l" cx="231.47" cy="303.31" r="1.16"/><circle class="l" cx="246.89" cy="303.31" r="1.16"/><circle class="l" cx="262.31" cy="303.31" r="1.16"/><circle class="l" cx="277.73" cy="303.31" r="1.16"/><circle class="l" cx="293.15" cy="303.31" r="1.16"/><circle class="l" cx="308.58" cy="303.31" r="1.16"/><circle class="l" cx="324" cy="303.31" r="1.16"/><circle class="l" cx="339.42" cy="303.31" r="1.16"/><circle class="l" cx="354.84" cy="303.31" r="1.16"/><circle class="l" cx="370.26" cy="303.31" r="1.16"/><circle class="l" cx="385.68" cy="303.31" r="1.16"/><circle class="l" cx="401.11" cy="303.31" r="1.16"/><circle class="l" cx="416.53" cy="303.31" r="1.16"/><circle class="l" cx="431.95" cy="303.31" r="1.16"/><circle class="l" cx="447.37" cy="303.31" r="1.16"/><circle class="l" cx="462.79" cy="303.31" r="1.16"/><circle class="l" cx="46.41" cy="320.07" r="1.16"/><circle class="l" cx="61.83" cy="320.07" r="1.16"/><circle class="l" cx="77.25" cy="320.07" r="1.16"/><circle class="l" cx="92.67" cy="320.07" r="1.16"/><circle class="l" cx="108.09" cy="320.07" r="1.16"/><circle class="l" cx="123.51" cy="320.07" r="1.16"/><circle class="l" cx="138.94" cy="320.07" r="1.16"/><circle class="l" cx="154.36" cy="320.07" r="1.16"/><circle class="l" cx="169.78" cy="320.07" r="1.16"/><circle class="l" cx="185.2" cy="320.07" r="1.16"/><circle class="l" cx="200.62" cy="320.07" r="1.16"/><circle class="l" cx="216.04" cy="320.07" r="1.16"/><circle class="l" cx="231.47" cy="320.07" r="1.16"/><circle class="l" cx="246.89" cy="320.07" r="1.16"/><circle class="l" cx="262.31" cy="320.07" r="1.16"/><circle class="l" cx="277.73" cy="320.07" r="1.16"/><circle class="l" cx="293.15" cy="320.07" r="1.16"/><circle class="l" cx="308.58" cy="320.07" r="1.16"/><circle class="l" cx="324" cy="320.07" r="1.16"/><circle class="l" cx="339.42" cy="320.07" r="1.16"/><circle class="l" cx="354.84" cy="320.07" r="1.16"/><circle class="l" cx="370.26" cy="320.07" r="1.16"/><circle class="l" cx="385.68" cy="320.07" r="1.16"/><circle class="l" cx="401.11" cy="320.07" r="1.16"/><circle class="l" cx="416.53" cy="320.07" r="1.16"/><circle class="l" cx="431.95" cy="320.07" r="1.16"/><circle class="l" cx="447.37" cy="320.07" r="1.16"/><circle class="l" cx="462.79" cy="320.07" r="1.16"/><circle class="l" cx="46.41" cy="336.84" r="1.16"/><circle class="l" cx="61.83" cy="336.84" r="1.16"/><circle class="l" cx="77.25" cy="336.84" r="1.16"/><circle class="l" cx="92.67" cy="336.84" r="1.16"/><circle class="l" cx="108.09" cy="336.84" r="1.16"/><circle class="l" cx="123.51" cy="336.84" r="1.16"/><circle class="l" cx="138.94" cy="336.84" r="1.16"/><circle class="l" cx="154.36" cy="336.84" r="1.16"/><circle class="l" cx="169.78" cy="336.84" r="1.16"/><circle class="l" cx="185.2" cy="336.84" r="1.16"/><circle class="l" cx="200.62" cy="336.84" r="1.16"/><circle class="l" cx="216.04" cy="336.84" r="1.16"/><circle class="l" cx="231.47" cy="336.84" r="1.16"/><circle class="l" cx="246.89" cy="336.84" r="1.16"/><circle class="l" cx="262.31" cy="336.84" r="1.16"/><circle class="l" cx="277.73" cy="336.84" r="1.16"/><circle class="l" cx="293.15" cy="336.84" r="1.16"/><circle class="l" cx="308.58" cy="336.84" r="1.16"/><circle class="l" cx="324" cy="336.84" r="1.16"/><circle class="l" cx="339.42" cy="336.84" r="1.16"/><circle class="l" cx="354.84" cy="336.84" r="1.16"/><circle class="l" cx="370.26" cy="336.84" r="1.16"/><circle class="l" cx="385.68" cy="336.84" r="1.16"/><circle class="l" cx="401.11" cy="336.84" r="1.16"/><circle class="l" cx="416.53" cy="336.84" r="1.16"/><circle class="l" cx="431.95" cy="336.84" r="1.16"/><circle class="l" cx="447.37" cy="336.84" r="1.16"/><circle class="l" cx="462.79" cy="336.84" r="1.16"/><circle class="l" cx="46.41" cy="353.6" r="1.16"/><circle class="l" cx="61.83" cy="353.6" r="1.16"/><circle class="l" cx="77.25" cy="353.6" r="1.16"/><circle class="l" cx="92.67" cy="353.6" r="1.16"/><circle class="l" cx="108.09" cy="353.6" r="1.16"/><circle class="l" cx="123.51" cy="353.6" r="1.16"/><circle class="l" cx="138.94" cy="353.6" r="1.16"/><circle class="l" cx="154.36" cy="353.6" r="1.16"/><circle class="l" cx="169.78" cy="353.6" r="1.16"/><circle class="l" cx="185.2" cy="353.6" r="1.16"/><circle class="l" cx="200.62" cy="353.6" r="1.16"/><circle class="l" cx="216.04" cy="353.6" r="1.16"/><circle class="l" cx="231.47" cy="353.6" r="1.16"/><circle class="l" cx="246.89" cy="353.6" r="1.16"/><circle class="l" cx="262.31" cy="353.6" r="1.16"/><circle class="l" cx="277.73" cy="353.6" r="1.16"/><circle class="l" cx="293.15" cy="353.6" r="1.16"/><circle class="l" cx="308.58" cy="353.6" r="1.16"/><circle class="l" cx="324" cy="353.6" r="1.16"/><circle class="l" cx="339.42" cy="353.6" r="1.16"/><circle class="l" cx="354.84" cy="353.6" r="1.16"/><circle class="l" cx="370.26" cy="353.6" r="1.16"/><circle class="l" cx="385.68" cy="353.6" r="1.16"/><circle class="l" cx="401.11" cy="353.6" r="1.16"/><circle class="l" cx="416.53" cy="353.6" r="1.16"/><circle class="l" cx="431.95" cy="353.6" r="1.16"/><circle class="l" cx="447.37" cy="353.6" r="1.16"/><circle class="l" cx="462.79" cy="353.6" r="1.16"/><circle class="l" cx="46.41" cy="370.36" r="1.16"/><circle class="l" cx="61.83" cy="370.36" r="1.16"/><circle class="l" cx="77.25" cy="370.36" r="1.16"/><circle class="l" cx="92.67" cy="370.36" r="1.16"/><circle class="l" cx="108.09" cy="370.36" r="1.16"/><circle class="l" cx="123.51" cy="370.36" r="1.16"/><circle class="l" cx="138.94" cy="370.36" r="1.16"/><circle class="l" cx="154.36" cy="370.36" r="1.16"/><circle class="l" cx="169.78" cy="370.36" r="1.16"/><circle class="l" cx="185.2" cy="370.36" r="1.16"/><circle class="l" cx="200.62" cy="370.36" r="1.16"/><circle class="l" cx="216.04" cy="370.36" r="1.16"/><circle class="l" cx="231.47" cy="370.36" r="1.16"/><circle class="l" cx="246.89" cy="370.36" r="1.16"/><circle class="l" cx="262.31" cy="370.36" r="1.16"/><circle class="l" cx="277.73" cy="370.36" r="1.16"/><circle class="l" cx="293.15" cy="370.36" r="1.16"/><circle class="l" cx="308.58" cy="370.36" r="1.16"/><circle class="l" cx="324" cy="370.36" r="1.16"/><circle class="l" cx="339.42" cy="370.36" r="1.16"/><circle class="l" cx="354.84" cy="370.36" r="1.16"/><circle class="l" cx="370.26" cy="370.36" r="1.16"/><circle class="l" cx="385.68" cy="370.36" r="1.16"/><circle class="l" cx="401.11" cy="370.36" r="1.16"/><circle class="l" cx="416.53" cy="370.36" r="1.16"/><circle class="l" cx="431.95" cy="370.36" r="1.16"/><circle class="l" cx="447.37" cy="370.36" r="1.16"/><circle class="l" cx="462.79" cy="370.36" r="1.16"/><circle class="l" cx="46.41" cy="387.12" r="1.16"/><circle class="l" cx="61.83" cy="387.12" r="1.16"/><circle class="l" cx="77.25" cy="387.12" r="1.16"/><circle class="l" cx="92.67" cy="387.12" r="1.16"/><circle class="l" cx="108.09" cy="387.12" r="1.16"/><circle class="l" cx="123.51" cy="387.12" r="1.16"/><circle class="l" cx="138.94" cy="387.12" r="1.16"/><circle class="l" cx="154.36" cy="387.12" r="1.16"/><circle class="l" cx="169.78" cy="387.12" r="1.16"/><circle class="l" cx="185.2" cy="387.12" r="1.16"/><circle class="l" cx="200.62" cy="387.12" r="1.16"/><circle class="l" cx="216.04" cy="387.12" r="1.16"/><circle class="l" cx="231.47" cy="387.12" r="1.16"/><circle class="l" cx="246.89" cy="387.12" r="1.16"/><circle class="l" cx="262.31" cy="387.12" r="1.16"/><circle class="l" cx="277.73" cy="387.12" r="1.16"/><circle class="l" cx="293.15" cy="387.12" r="1.16"/><circle class="l" cx="308.58" cy="387.12" r="1.16"/><circle class="l" cx="324" cy="387.12" r="1.16"/><circle class="l" cx="339.42" cy="387.12" r="1.16"/><circle class="l" cx="354.84" cy="387.12" r="1.16"/><circle class="l" cx="370.26" cy="387.12" r="1.16"/><circle class="l" cx="385.68" cy="387.12" r="1.16"/><circle class="l" cx="401.11" cy="387.12" r="1.16"/><circle class="l" cx="416.53" cy="387.12" r="1.16"/><circle class="l" cx="431.95" cy="387.12" r="1.16"/><circle class="l" cx="447.37" cy="387.12" r="1.16"/><circle class="l" cx="462.79" cy="387.12" r="1.16"/><circle class="l" cx="46.41" cy="403.89" r="1.16"/><circle class="l" cx="61.83" cy="403.89" r="1.16"/><circle class="l" cx="77.25" cy="403.89" r="1.16"/><circle class="l" cx="92.67" cy="403.89" r="1.16"/><circle class="l" cx="108.09" cy="403.89" r="1.16"/><circle class="l" cx="123.51" cy="403.89" r="1.16"/><circle class="l" cx="138.94" cy="403.89" r="1.16"/><circle class="l" cx="154.36" cy="403.89" r="1.16"/><circle class="l" cx="169.78" cy="403.89" r="1.16"/><circle class="l" cx="185.2" cy="403.89" r="1.16"/><circle class="l" cx="200.62" cy="403.89" r="1.16"/><circle class="l" cx="216.04" cy="403.89" r="1.16"/><circle class="l" cx="231.47" cy="403.89" r="1.16"/><circle class="l" cx="246.89" cy="403.89" r="1.16"/><circle class="l" cx="262.31" cy="403.89" r="1.16"/><circle class="l" cx="277.73" cy="403.89" r="1.16"/><circle class="l" cx="293.15" cy="403.89" r="1.16"/><circle class="l" cx="308.58" cy="403.89" r="1.16"/><circle class="l" cx="324" cy="403.89" r="1.16"/><circle class="l" cx="339.42" cy="403.89" r="1.16"/><circle class="l" cx="354.84" cy="403.89" r="1.16"/><circle class="l" cx="370.26" cy="403.89" r="1.16"/><circle class="l" cx="385.68" cy="403.89" r="1.16"/><circle class="l" cx="401.11" cy="403.89" r="1.16"/><circle class="l" cx="416.53" cy="403.89" r="1.16"/><circle class="l" cx="431.95" cy="403.89" r="1.16"/><circle class="l" cx="447.37" cy="403.89" r="1.16"/><circle class="l" cx="462.79" cy="403.89" r="1.16"/><circle class="l" cx="46.41" cy="420.65" r="1.16"/><circle class="l" cx="61.83" cy="420.65" r="1.16"/><circle class="l" cx="77.25" cy="420.65" r="1.16"/><circle class="l" cx="92.67" cy="420.65" r="1.16"/><circle class="l" cx="108.09" cy="420.65" r="1.16"/><circle class="l" cx="123.51" cy="420.65" r="1.16"/><circle class="l" cx="138.94" cy="420.65" r="1.16"/><circle class="l" cx="154.36" cy="420.65" r="1.16"/><circle class="l" cx="169.78" cy="420.65" r="1.16"/><circle class="l" cx="185.2" cy="420.65" r="1.16"/><circle class="l" cx="200.62" cy="420.65" r="1.16"/><circle class="l" cx="216.04" cy="420.65" r="1.16"/><circle class="l" cx="231.47" cy="420.65" r="1.16"/><circle class="l" cx="246.89" cy="420.65" r="1.16"/><circle class="l" cx="262.31" cy="420.65" r="1.16"/><circle class="l" cx="277.73" cy="420.65" r="1.16"/><circle class="l" cx="293.15" cy="420.65" r="1.16"/><circle class="l" cx="308.58" cy="420.65" r="1.16"/><circle class="l" cx="324" cy="420.65" r="1.16"/><circle class="l" cx="339.42" cy="420.65" r="1.16"/><circle class="l" cx="354.84" cy="420.65" r="1.16"/><circle class="l" cx="370.26" cy="420.65" r="1.16"/><circle class="l" cx="385.68" cy="420.65" r="1.16"/><circle class="l" cx="401.11" cy="420.65" r="1.16"/><circle class="l" cx="416.53" cy="420.65" r="1.16"/><circle class="l" cx="431.95" cy="420.65" r="1.16"/><circle class="l" cx="447.37" cy="420.65" r="1.16"/><circle class="l" cx="462.79" cy="420.65" r="1.16"/><circle class="l" cx="46.41" cy="437.41" r="1.16"/><circle class="l" cx="61.83" cy="437.41" r="1.16"/><circle class="l" cx="77.25" cy="437.41" r="1.16"/><circle class="l" cx="92.67" cy="437.41" r="1.16"/><circle class="l" cx="108.09" cy="437.41" r="1.16"/><circle class="l" cx="123.51" cy="437.41" r="1.16"/><circle class="l" cx="138.94" cy="437.41" r="1.16"/><circle class="l" cx="154.36" cy="437.41" r="1.16"/><circle class="l" cx="169.78" cy="437.41" r="1.16"/><circle class="l" cx="185.2" cy="437.41" r="1.16"/><circle class="l" cx="200.62" cy="437.41" r="1.16"/><circle class="l" cx="216.04" cy="437.41" r="1.16"/><circle class="l" cx="231.47" cy="437.41" r="1.16"/><circle class="l" cx="246.89" cy="437.41" r="1.16"/><circle class="l" cx="262.31" cy="437.41" r="1.16"/><circle class="l" cx="277.73" cy="437.41" r="1.16"/><circle class="l" cx="293.15" cy="437.41" r="1.16"/><circle class="l" cx="308.58" cy="437.41" r="1.16"/><circle class="l" cx="324" cy="437.41" r="1.16"/><circle class="l" cx="339.42" cy="437.41" r="1.16"/><circle class="l" cx="354.84" cy="437.41" r="1.16"/><circle class="l" cx="370.26" cy="437.41" r="1.16"/><circle class="l" cx="385.68" cy="437.41" r="1.16"/><circle class="l" cx="401.11" cy="437.41" r="1.16"/><circle class="l" cx="416.53" cy="437.41" r="1.16"/><circle class="l" cx="431.95" cy="437.41" r="1.16"/><circle class="l" cx="447.37" cy="437.41" r="1.16"/><circle class="l" cx="462.79" cy="437.41" r="1.16"/><circle class="l" cx="46.41" cy="454.17" r="1.16"/><circle class="l" cx="61.83" cy="454.17" r="1.16"/><circle class="l" cx="77.25" cy="454.17" r="1.16"/><circle class="l" cx="92.67" cy="454.17" r="1.16"/><circle class="l" cx="108.09" cy="454.17" r="1.16"/><circle class="l" cx="123.51" cy="454.17" r="1.16"/><circle class="l" cx="138.94" cy="454.17" r="1.16"/><circle class="l" cx="154.36" cy="454.17" r="1.16"/><circle class="l" cx="169.78" cy="454.17" r="1.16"/><circle class="l" cx="185.2" cy="454.17" r="1.16"/><circle class="l" cx="200.62" cy="454.17" r="1.16"/><circle class="l" cx="216.04" cy="454.17" r="1.16"/><circle class="l" cx="231.47" cy="454.17" r="1.16"/><circle class="l" cx="246.89" cy="454.17" r="1.16"/><circle class="l" cx="262.31" cy="454.17" r="1.16"/><circle class="l" cx="277.73" cy="454.17" r="1.16"/><circle class="l" cx="293.15" cy="454.17" r="1.16"/><circle class="l" cx="308.58" cy="454.17" r="1.16"/><circle class="l" cx="324" cy="454.17" r="1.16"/><circle class="l" cx="339.42" cy="454.17" r="1.16"/><circle class="l" cx="354.84" cy="454.17" r="1.16"/><circle class="l" cx="370.26" cy="454.17" r="1.16"/><circle class="l" cx="385.68" cy="454.17" r="1.16"/><circle class="l" cx="401.11" cy="454.17" r="1.16"/><circle class="l" cx="416.53" cy="454.17" r="1.16"/><circle class="l" cx="431.95" cy="454.17" r="1.16"/><circle class="l" cx="447.37" cy="454.17" r="1.16"/><circle class="l" cx="462.79" cy="454.17" r="1.16"/><circle class="l" cx="46.41" cy="470.94" r="1.16"/><circle class="l" cx="61.83" cy="470.94" r="1.16"/><circle class="l" cx="77.25" cy="470.94" r="1.16"/><circle class="l" cx="92.67" cy="470.94" r="1.16"/><circle class="l" cx="108.09" cy="470.94" r="1.16"/><circle class="l" cx="123.51" cy="470.94" r="1.16"/><circle class="l" cx="138.94" cy="470.94" r="1.16"/><circle class="l" cx="154.36" cy="470.94" r="1.16"/><circle class="l" cx="169.78" cy="470.94" r="1.16"/><circle class="l" cx="185.2" cy="470.94" r="1.16"/><circle class="l" cx="200.62" cy="470.94" r="1.16"/><circle class="l" cx="216.04" cy="470.94" r="1.16"/><circle class="l" cx="231.47" cy="470.94" r="1.16"/><circle class="l" cx="246.89" cy="470.94" r="1.16"/><circle class="l" cx="262.31" cy="470.94" r="1.16"/><circle class="l" cx="277.73" cy="470.94" r="1.16"/><circle class="l" cx="293.15" cy="470.94" r="1.16"/><circle class="l" cx="308.58" cy="470.94" r="1.16"/><circle class="l" cx="324" cy="470.94" r="1.16"/><circle class="l" cx="339.42" cy="470.94" r="1.16"/><circle class="l" cx="354.84" cy="470.94" r="1.16"/><circle class="l" cx="370.26" cy="470.94" r="1.16"/><circle class="l" cx="385.68" cy="470.94" r="1.16"/><circle class="l" cx="401.11" cy="470.94" r="1.16"/><circle class="l" cx="416.53" cy="470.94" r="1.16"/><circle class="l" cx="431.95" cy="470.94" r="1.16"/><circle class="l" cx="447.37" cy="470.94" r="1.16"/><circle class="l" cx="462.79" cy="470.94" r="1.16"/></g></g><path class="q" d="M235.02,383.84h0Zm168.81-97.47h0Zm-168.81-97.46l-168.81,97.46,192.39,113.95,168.81-97.46-192.39-113.95Z"/><g><polyline class="m" points="356.48 298.03 383.82 167.31 387.53 319.8"/><line class="m" x1="383.82" y1="167.31" x2="413.29" y2="291.74"/><path class="s" d="M402.13,137.95l8.13,39.13c.29,.87,.44,1.77,.44,2.68,0,8.18-12.03,14.81-26.87,14.81s-26.87-6.63-26.87-14.81c0-.87,.14-1.73,.4-2.56l8.17-39.26"/><ellipse class="p" cx="383.82" cy="137.95" rx="18.3" ry="10.09"/></g><g><line class="m" x1="383.81" y1="107.54" x2="383.81" y2="69.71"/><line class="m" x1="354.78" y1="119.57" x2="328.02" y2="92.82"/><line class="m" x1="412.9" y1="119.57" x2="439.65" y2="92.82"/></g><g><path class="r" d="M222.49,334.68v12.72c0,10.72,15.77,19.41,35.22,19.41s35.22-8.69,35.22-19.41v-12.72"/><ellipse class="s" cx="257.71" cy="334.68" rx="35.22" ry="19.41"/><ellipse class="m" cx="257.71" cy="334.68" rx="7.4" ry="4.08"/><polyline class="r" points="219.47 366.99 232.66 361.58 226.78 372.05"/></g><g><polyline class="s" points="243.67 226.06 243.67 245.97 227.01 236.02"/><polyline class="s" points="150.68 279.86 150.68 299.51 134.24 289.69"/><path class="s" d="M244.24,203.17h0Zm13.57-7.28h0Zm-52.55-30.72l-13.57,7.28,52.54,30.72,13.57-7.28-52.54-30.72Z"/><path class="s" d="M244.24,226.12h0Zm13.57-7.28h0Zm0-22.95l-13.57,7.28v22.95l13.57-7.28v-22.95Z"/><path class="p" d="M244.22,226.12h0Zm-.01,0v-22.95l-52.55-30.72v11.43"/><path class="s" d="M148.65,271.69h0Zm95.55-57.11h0Zm-95.56,57.1l95.55-57.1-39.83-23.38-85.86,51.3"/><path class="s" d="M148.65,283.16h0Zm95.55-57.11h0Zm0-11.47l-95.55,57.1v11.47l95.55-57.1v-11.47Z"/><path class="s" d="M148.63,283.16h0Z"/><polygon class="s" points="204.36 191.21 199.93 160.52 106.09 214.59 109.75 247.21 204.36 191.21"/><polygon class="s" points="199.93 160.52 191.69 155.73 97.71 209.6 106.09 214.59 199.93 160.52"/><polygon class="p" points="109.75 247.21 106.09 214.59 97.71 209.6 101.54 243.14 109.75 247.21"/><path class="s" d="M135.06,267.49h0Zm13.57-7.28h0Zm-52.55-30.72l-13.57,7.28,52.54,30.72,13.57-7.28-52.54-30.72Z"/><path class="s" d="M135.06,290.44h0Zm13.57-7.28h0Zm0-22.95l-13.57,7.28v22.95l13.57-7.28v-22.95Z"/><path class="p" d="M135.04,290.44h0Zm-52.56-30.73l52.55,30.72v-22.95l-52.55-30.72v22.95Z"/><polyline class="m" points="145.5 182.5 153.88 186.93 158.49 218.72 198.61 242.18 198.61 253.3"/></g></g><g class="o"><g><circle class="l" cx="-1.16" cy="0" r="1.16"/><circle class="l" cx="14.26" cy="0" r="1.16"/><circle class="l" cx="29.69" cy="0" r="1.16"/><circle class="l" cx="45.11" cy="0" r="1.16"/><circle class="l" cx="60.53" cy="0" r="1.16"/><circle class="l" cx="75.95" cy="0" r="1.16"/><circle class="l" cx="91.37" cy="0" r="1.16"/><circle class="l" cx="106.79" cy="0" r="1.16"/><circle class="l" cx="122.22" cy="0" r="1.16"/><circle class="l" cx="137.64" cy="0" r="1.16"/><circle class="l" cx="153.06" cy="0" r="1.16"/><circle class="l" cx="168.48" cy="0" r="1.16"/><circle class="l" cx="183.9" cy="0" r="1.16"/><circle class="l" cx="199.33" cy="0" r="1.16"/><circle class="l" cx="-1.16" cy="16.76" r="1.16"/><circle class="l" cx="14.26" cy="16.76" r="1.16"/><circle class="l" cx="29.69" cy="16.76" r="1.16"/><circle class="l" cx="45.11" cy="16.76" r="1.16"/><circle class="l" cx="60.53" cy="16.76" r="1.16"/><circle class="l" cx="75.95" cy="16.76" r="1.16"/><circle class="l" cx="91.37" cy="16.76" r="1.16"/><circle class="l" cx="106.79" cy="16.76" r="1.16"/><circle class="l" cx="122.22" cy="16.76" r="1.16"/><circle class="l" cx="137.64" cy="16.76" r="1.16"/><circle class="l" cx="153.06" cy="16.76" r="1.16"/><circle class="l" cx="168.48" cy="16.76" r="1.16"/><circle class="l" cx="183.9" cy="16.76" r="1.16"/><circle class="l" cx="199.33" cy="16.76" r="1.16"/><circle class="l" cx="-1.16" cy="33.53" r="1.16"/><circle class="l" cx="14.26" cy="33.53" r="1.16"/><circle class="l" cx="29.69" cy="33.53" r="1.16"/><circle class="l" cx="45.11" cy="33.53" r="1.16"/><circle class="l" cx="60.53" cy="33.53" r="1.16"/><circle class="l" cx="75.95" cy="33.53" r="1.16"/><circle class="l" cx="91.37" cy="33.53" r="1.16"/><circle class="l" cx="106.79" cy="33.53" r="1.16"/><circle class="l" cx="122.22" cy="33.53" r="1.16"/><circle class="l" cx="137.64" cy="33.53" r="1.16"/><circle class="l" cx="153.06" cy="33.53" r="1.16"/><circle class="l" cx="168.48" cy="33.53" r="1.16"/><circle class="l" cx="183.9" cy="33.53" r="1.16"/><circle class="l" cx="199.33" cy="33.53" r="1.16"/></g></g></g><g id="e"/><g id="f"/><g id="g"/><g id="h"/><g id="i"/><g id="j"/></svg>