<?xml version="1.0" encoding="UTF-8"?><svg xmlns="http://www.w3.org/2000/svg" viewBox="0 0 222 236"><defs><style>.i{fill:#65a5bf;}.i,.j,.k,.l,.m{stroke-linecap:round;stroke-linejoin:round;stroke-width:6px;}.i,.j,.k,.m{stroke:#002a3a;}.j{fill:#002a3a;}.k{fill:#e65300;}.l{stroke:#fff;}.l,.m{fill:none;}</style></defs><g id="a"/><g id="b"><g><path class="m" d="M111.12,204.97h0ZM19.88,152.3h0Zm0,0l91.23,52.67,91.23-52.67-91.23-52.67L19.88,152.29Z"/><path class="j" d="M111.12,220.73h0ZM19.88,161.16h0Zm0,6.89l91.23,52.67v-15.76L19.88,152.29v15.76Z"/><path class="m" d="M111.12,220.73h0Zm91.23-68.43l-91.23,52.67v15.76l91.23-52.67v-15.76Z"/><line class="m" x1="52.36" y1="169.4" x2="52.36" y2="164.36"/><line class="m" x1="61.86" y1="166.21" x2="61.86" y2="158.25"/><line class="m" x1="71.62" y1="169.4" x2="71.62" y2="163.36"/><line class="m" x1="135.97" y1="169.4" x2="135.97" y2="174.56"/><line class="m" x1="115.55" y1="171.09" x2="115.55" y2="176.25"/><line class="m" x1="125.33" y1="171.98" x2="125.33" y2="177.13"/><line class="m" x1="45.31" y1="129.63" x2="45.31" y2="134.79"/><line class="m" x1="55.55" y1="125.53" x2="55.55" y2="129.63"/></g><g><path class="j" d="M121.23,148.79c-.66,.12-1.03,.48-.93,.92,.34,1.53-.72,2.84-2.82,3.52-2.24,.72-5.46,.47-8.02-.62-2.12-.9-5.02-3.12-5.51-4.47-.16-.45-.21-.89-.14-1.3l-.03-8.61-9.34-5.36v-6.99c.81,1,16.52,4.77,17.99,5.57,.57,.34,1.17,.67,1.84,.97,3.9,1.74,8.84,2.17,12.3,1.06,8.05-2.56,3.66-9.75-4.8-12.11v-11.15l29.93,.73v11.15c-2.42,.23-4.46,.99-5.75,2.19-2.07,1.94-1.56,4.81,1.28,7.12,2.22,1.81,5.44,3.11,8.85,3.55,3.4,.44,6.57,0,8.7-1.22,1.22-.7,16.91-4.83,16.91-4.83,0,0-.03,6.78,.02,7.05s-.07,.53-.39,.72l-6.28,3.43,1.8,.68s.01,9.45,.03,10.69c.01,.78-1.62,2.99-2.29,3.51-1.18,.91-4.23,2.31-6.39,2.22-2.13-.08-4.32-.7-6.01-1.69-1.56-.92-2.55-2.05-2.79-3.2-.09-.43-.61-.85-1.33-1.06-.72-.21-1.49-.18-1.95,.09l-15.51,8.64-19.09-11.16"/><path class="i" d="M112.68,136.5l-18.24-10.62,14.53-8.32c.81,1,1.99,1.95,3.46,2.75,.57,.34,1.17,.67,1.84,.97,3.9,1.74,8.84,2.17,12.3,1.06,8.05-2.56,3.66-9.75-4.8-12.11l14.53-8.32,44.71,26.28c.8,.47,.93,1.15,.29,1.51l-13.39,7.82c-.46,.27,.26,.31,1.68,.3,2.13,.17,4.84,.92,6.33,3.12,1.94,2.35,1.08,5.59-1.36,7.08-1.18,.91-3.86,1.68-6.01,1.6-2.68,.07-5.76-.57-7.35-1.66-1.96-1.34-2.73-2.98-3.31-4.4-.72-.21-.95-.07-1.42,.2l-15.89,9.26-18.87-11.03s-.21,.08-.11,.45c.4,1.48-.38,4.02-3.72,5.09-.99,.32-2.13,.48-3.33,.48-1.87,0-3.87-.39-5.64-1.14-2.47-1.05-4.17-2.57-4.79-4.27-.71-1.94,.09-3.86,2.08-5,1.52-.87,3.63-1.25,5.96-1.05,.29,.02,.46-.03,.49-.04"/></g><g><path class="j" d="M65.17,89.4c-.66,.12-1.03,.48-.93,.92,.34,1.53-.72,2.84-2.82,3.52-2.24,.72-5.46,.47-8.02-.62-2.12-.9-5.02-3.12-5.51-4.47-.16-.45-.21-.89-.14-1.3l-.03-8.61-9.34-5.36v-6.99c.81,1,16.52,4.77,17.99,5.57,.57,.34,1.17,.67,1.84,.97,3.9,1.74,8.84,2.17,12.3,1.06,8.05-2.56,3.66-9.75-4.8-12.11v-11.15l29.93,.73v11.15c-2.42,.23-4.46,.99-5.75,2.19-2.07,1.94-1.56,4.81,1.28,7.12,2.22,1.81,5.44,3.11,8.85,3.55,3.4,.44,6.57,0,8.7-1.22,1.22-.7,16.91-4.83,16.91-4.83,0,0-.03,6.78,.02,7.05s-.07,.53-.39,.72l-6.28,3.43,1.8,.68s.01,9.45,.03,10.69c.01,.78-1.62,2.99-2.29,3.51-1.18,.91-4.23,2.31-6.39,2.22-2.13-.08-4.32-.7-6.01-1.69-1.56-.92-2.55-2.05-2.79-3.2-.09-.43-.61-.85-1.33-1.06-.72-.21-1.49-.18-1.95,.09l-15.51,8.64-19.09-11.16"/><path class="k" d="M56.61,77.1l-18.24-10.62,41.87-23.97,15.4,9.05c-2.42,.23-4.46,.99-5.75,2.19-2.07,1.94-1.56,4.81,1.28,7.12,2.22,1.81,5.44,3.11,8.85,3.55,3.4,.44,6.57,0,8.7-1.22,1.22-.7,2-1.6,2.31-2.61l13.93,8.19c.8,.47,.93,1.15,.29,1.51l-13.39,7.82c-.46,.27,.26,.31,1.68,.3,2.13,.17,4.84,.92,6.33,3.12,1.94,2.35,1.08,5.59-1.36,7.08-1.18,.91-3.86,1.68-6.01,1.6-2.68,.07-5.76-.57-7.35-1.66-1.96-1.34-2.73-2.98-3.31-4.4-.72-.21-.95-.07-1.42,.2l-15.89,9.26-18.87-11.03s-.21,.08-.11,.45c.4,1.48-.38,4.02-3.72,5.09-.99,.32-2.13,.48-3.33,.48-1.87,0-3.87-.39-5.64-1.14-2.47-1.05-4.17-2.57-4.79-4.27-.71-1.94,.09-3.86,2.08-5,1.52-.87,3.63-1.25,5.96-1.05,.29,.02,.46-.03,.49-.04"/></g><polyline class="l" points="175.85 70.74 152.02 89.59 144.09 82.43"/></g><g id="c"/><g id="d"/><g id="e"/><g id="f"/><g id="g"/><g id="h"/></svg>