<?xml version="1.0" encoding="UTF-8"?><svg xmlns="http://www.w3.org/2000/svg" xmlns:xlink="http://www.w3.org/1999/xlink" viewBox="0 0 510.5 440"><defs><style>.j,.k,.l{fill:none;}.m{stroke:#fff;}.m,.n,.o,.p,.k,.l{stroke-linecap:round;stroke-linejoin:round;stroke-width:6px;}.m,.o,.p{fill:#002a3a;}.q{clip-path:url(#c);}.n{fill:#65a5bf;}.n,.p,.l{stroke:#65a5bf;}.o,.k{stroke:#002a3a;}</style><clipPath id="c"><path class="j" d="M252.97,390.09h0ZM34.2,263.8h0Zm0,0l218.74,126.29,218.74-126.29-218.74-126.29L34.21,263.79Z"/></clipPath></defs><g id="a"/><g id="b"><g><g><path class="k" d="M252.97,390.09h0ZM34.2,263.8h0Zm0,0l218.74,126.29,218.74-126.29-218.74-126.29L34.21,263.79Z"/><path class="o" d="M252.97,411.34h0ZM34.2,285.05h0Zm0,0l218.74,126.29v-21.25L34.21,263.79v21.25Z"/><path class="k" d="M252.98,411.34h0Zm218.73-147.55l-218.74,126.29v21.25l218.74-126.29v-21.25Z"/></g><g class="q"><g><circle class="k" cx="43.13" cy="46.33" r="1.16"/><circle class="k" cx="58.55" cy="46.33" r="1.16"/><circle class="k" cx="73.97" cy="46.33" r="1.16"/><circle class="k" cx="89.39" cy="46.33" r="1.16"/><circle class="k" cx="104.82" cy="46.33" r="1.16"/><circle class="k" cx="120.24" cy="46.33" r="1.16"/><circle class="k" cx="135.66" cy="46.33" r="1.16"/><circle class="k" cx="151.08" cy="46.33" r="1.16"/><circle class="k" cx="166.5" cy="46.33" r="1.16"/><circle class="k" cx="181.92" cy="46.33" r="1.16"/><circle class="k" cx="197.35" cy="46.33" r="1.16"/><circle class="k" cx="212.77" cy="46.33" r="1.16"/><circle class="k" cx="228.19" cy="46.33" r="1.16"/><circle class="k" cx="243.61" cy="46.33" r="1.16"/><circle class="k" cx="259.03" cy="46.33" r="1.16"/><circle class="k" cx="274.45" cy="46.33" r="1.16"/><circle class="k" cx="289.88" cy="46.33" r="1.16"/><circle class="k" cx="305.3" cy="46.33" r="1.16"/><circle class="k" cx="320.72" cy="46.33" r="1.16"/><circle class="k" cx="336.14" cy="46.33" r="1.16"/><circle class="k" cx="351.56" cy="46.33" r="1.16"/><circle class="k" cx="366.99" cy="46.33" r="1.16"/><circle class="k" cx="382.41" cy="46.33" r="1.16"/><circle class="k" cx="397.83" cy="46.33" r="1.16"/><circle class="k" cx="413.25" cy="46.33" r="1.16"/><circle class="k" cx="428.67" cy="46.33" r="1.16"/><circle class="k" cx="444.09" cy="46.33" r="1.16"/><circle class="k" cx="459.52" cy="46.33" r="1.16"/><circle class="k" cx="43.13" cy="63.09" r="1.16"/><circle class="k" cx="58.55" cy="63.09" r="1.16"/><circle class="k" cx="73.97" cy="63.09" r="1.16"/><circle class="k" cx="89.39" cy="63.09" r="1.16"/><circle class="k" cx="104.82" cy="63.09" r="1.16"/><circle class="k" cx="120.24" cy="63.09" r="1.16"/><circle class="k" cx="135.66" cy="63.09" r="1.16"/><circle class="k" cx="151.08" cy="63.09" r="1.16"/><circle class="k" cx="166.5" cy="63.09" r="1.16"/><circle class="k" cx="181.92" cy="63.09" r="1.16"/><circle class="k" cx="197.35" cy="63.09" r="1.16"/><circle class="k" cx="212.77" cy="63.09" r="1.16"/><circle class="k" cx="228.19" cy="63.09" r="1.16"/><circle class="k" cx="243.61" cy="63.09" r="1.16"/><circle class="k" cx="259.03" cy="63.09" r="1.16"/><circle class="k" cx="274.45" cy="63.09" r="1.16"/><circle class="k" cx="289.88" cy="63.09" r="1.16"/><circle class="k" cx="305.3" cy="63.09" r="1.16"/><circle class="k" cx="320.72" cy="63.09" r="1.16"/><circle class="k" cx="336.14" cy="63.09" r="1.16"/><circle class="k" cx="351.56" cy="63.09" r="1.16"/><circle class="k" cx="366.99" cy="63.09" r="1.16"/><circle class="k" cx="382.41" cy="63.09" r="1.16"/><circle class="k" cx="397.83" cy="63.09" r="1.16"/><circle class="k" cx="413.25" cy="63.09" r="1.16"/><circle class="k" cx="428.67" cy="63.09" r="1.16"/><circle class="k" cx="444.09" cy="63.09" r="1.16"/><circle class="k" cx="459.52" cy="63.09" r="1.16"/><circle class="k" cx="43.13" cy="79.86" r="1.16"/><circle class="k" cx="58.55" cy="79.86" r="1.16"/><circle class="k" cx="73.97" cy="79.86" r="1.16"/><circle class="k" cx="89.39" cy="79.86" r="1.16"/><circle class="k" cx="104.82" cy="79.86" r="1.16"/><circle class="k" cx="120.24" cy="79.86" r="1.16"/><circle class="k" cx="135.66" cy="79.86" r="1.16"/><circle class="k" cx="151.08" cy="79.86" r="1.16"/><circle class="k" cx="166.5" cy="79.86" r="1.16"/><circle class="k" cx="181.92" cy="79.86" r="1.16"/><circle class="k" cx="197.35" cy="79.86" r="1.16"/><circle class="k" cx="212.77" cy="79.86" r="1.16"/><circle class="k" cx="228.19" cy="79.86" r="1.16"/><circle class="k" cx="243.61" cy="79.86" r="1.16"/><circle class="k" cx="259.03" cy="79.86" r="1.16"/><circle class="k" cx="274.45" cy="79.86" r="1.16"/><circle class="k" cx="289.88" cy="79.86" r="1.16"/><circle class="k" cx="305.3" cy="79.86" r="1.16"/><circle class="k" cx="320.72" cy="79.86" r="1.16"/><circle class="k" cx="336.14" cy="79.86" r="1.16"/><circle class="k" cx="351.56" cy="79.86" r="1.16"/><circle class="k" cx="366.99" cy="79.86" r="1.16"/><circle class="k" cx="382.41" cy="79.86" r="1.16"/><circle class="k" cx="397.83" cy="79.86" r="1.16"/><circle class="k" cx="413.25" cy="79.86" r="1.16"/><circle class="k" cx="428.67" cy="79.86" r="1.16"/><circle class="k" cx="444.09" cy="79.86" r="1.16"/><circle class="k" cx="459.52" cy="79.86" r="1.16"/><circle class="k" cx="43.13" cy="96.62" r="1.16"/><circle class="k" cx="58.55" cy="96.62" r="1.16"/><circle class="k" cx="73.97" cy="96.62" r="1.16"/><circle class="k" cx="89.39" cy="96.62" r="1.16"/><circle class="k" cx="104.82" cy="96.62" r="1.16"/><circle class="k" cx="120.24" cy="96.62" r="1.16"/><circle class="k" cx="135.66" cy="96.62" r="1.16"/><circle class="k" cx="151.08" cy="96.62" r="1.16"/><circle class="k" cx="166.5" cy="96.62" r="1.16"/><circle class="k" cx="181.92" cy="96.62" r="1.16"/><circle class="k" cx="197.35" cy="96.62" r="1.16"/><circle class="k" cx="212.77" cy="96.62" r="1.16"/><circle class="k" cx="228.19" cy="96.62" r="1.16"/><circle class="k" cx="243.61" cy="96.62" r="1.16"/><circle class="k" cx="259.03" cy="96.62" r="1.16"/><circle class="k" cx="274.45" cy="96.62" r="1.16"/><circle class="k" cx="289.88" cy="96.62" r="1.16"/><circle class="k" cx="305.3" cy="96.62" r="1.16"/><circle class="k" cx="320.72" cy="96.62" r="1.16"/><circle class="k" cx="336.14" cy="96.62" r="1.16"/><circle class="k" cx="351.56" cy="96.62" r="1.16"/><circle class="k" cx="366.99" cy="96.62" r="1.16"/><circle class="k" cx="382.41" cy="96.62" r="1.16"/><circle class="k" cx="397.83" cy="96.62" r="1.16"/><circle class="k" cx="413.25" cy="96.62" r="1.16"/><circle class="k" cx="428.67" cy="96.62" r="1.16"/><circle class="k" cx="444.09" cy="96.62" r="1.16"/><circle class="k" cx="459.52" cy="96.62" r="1.16"/><circle class="k" cx="43.13" cy="113.38" r="1.16"/><circle class="k" cx="58.55" cy="113.38" r="1.16"/><circle class="k" cx="73.97" cy="113.38" r="1.16"/><circle class="k" cx="89.39" cy="113.38" r="1.16"/><circle class="k" cx="104.82" cy="113.38" r="1.16"/><circle class="k" cx="120.24" cy="113.38" r="1.16"/><circle class="k" cx="135.66" cy="113.38" r="1.16"/><circle class="k" cx="151.08" cy="113.38" r="1.16"/><circle class="k" cx="166.5" cy="113.38" r="1.16"/><circle class="k" cx="181.92" cy="113.38" r="1.16"/><circle class="k" cx="197.35" cy="113.38" r="1.16"/><circle class="k" cx="212.77" cy="113.38" r="1.16"/><circle class="k" cx="228.19" cy="113.38" r="1.16"/><circle class="k" cx="243.61" cy="113.38" r="1.16"/><circle class="k" cx="259.03" cy="113.38" r="1.16"/><circle class="k" cx="274.45" cy="113.38" r="1.16"/><circle class="k" cx="289.88" cy="113.38" r="1.16"/><circle class="k" cx="305.3" cy="113.38" r="1.16"/><circle class="k" cx="320.72" cy="113.38" r="1.16"/><circle class="k" cx="336.14" cy="113.38" r="1.16"/><circle class="k" cx="351.56" cy="113.38" r="1.16"/><circle class="k" cx="366.99" cy="113.38" r="1.16"/><circle class="k" cx="382.41" cy="113.38" r="1.16"/><circle class="k" cx="397.83" cy="113.38" r="1.16"/><circle class="k" cx="413.25" cy="113.38" r="1.16"/><circle class="k" cx="428.67" cy="113.38" r="1.16"/><circle class="k" cx="444.09" cy="113.38" r="1.16"/><circle class="k" cx="459.52" cy="113.38" r="1.16"/><circle class="k" cx="43.13" cy="130.14" r="1.16"/><circle class="k" cx="58.55" cy="130.14" r="1.16"/><circle class="k" cx="73.97" cy="130.14" r="1.16"/><circle class="k" cx="89.39" cy="130.14" r="1.16"/><circle class="k" cx="104.82" cy="130.14" r="1.16"/><circle class="k" cx="120.24" cy="130.14" r="1.16"/><circle class="k" cx="135.66" cy="130.14" r="1.16"/><circle class="k" cx="151.08" cy="130.14" r="1.16"/><circle class="k" cx="166.5" cy="130.14" r="1.16"/><circle class="k" cx="181.92" cy="130.14" r="1.16"/><circle class="k" cx="197.35" cy="130.14" r="1.16"/><circle class="k" cx="212.77" cy="130.14" r="1.16"/><circle class="k" cx="228.19" cy="130.14" r="1.16"/><circle class="k" cx="243.61" cy="130.14" r="1.16"/><circle class="k" cx="259.03" cy="130.14" r="1.16"/><circle class="k" cx="274.45" cy="130.14" r="1.16"/><circle class="k" cx="289.88" cy="130.14" r="1.16"/><circle class="k" cx="305.3" cy="130.14" r="1.16"/><circle class="k" cx="320.72" cy="130.14" r="1.16"/><circle class="k" cx="336.14" cy="130.14" r="1.16"/><circle class="k" cx="351.56" cy="130.14" r="1.16"/><circle class="k" cx="366.99" cy="130.14" r="1.16"/><circle class="k" cx="382.41" cy="130.14" r="1.16"/><circle class="k" cx="397.83" cy="130.14" r="1.16"/><circle class="k" cx="413.25" cy="130.14" r="1.16"/><circle class="k" cx="428.67" cy="130.14" r="1.16"/><circle class="k" cx="444.09" cy="130.14" r="1.16"/><circle class="k" cx="459.52" cy="130.14" r="1.16"/><circle class="k" cx="43.13" cy="146.91" r="1.16"/><circle class="k" cx="58.55" cy="146.91" r="1.16"/><circle class="k" cx="73.97" cy="146.91" r="1.16"/><circle class="k" cx="89.39" cy="146.91" r="1.16"/><circle class="k" cx="104.82" cy="146.91" r="1.16"/><circle class="k" cx="120.24" cy="146.91" r="1.16"/><circle class="k" cx="135.66" cy="146.91" r="1.16"/><circle class="k" cx="151.08" cy="146.91" r="1.16"/><circle class="k" cx="166.5" cy="146.91" r="1.16"/><circle class="k" cx="181.92" cy="146.91" r="1.16"/><circle class="k" cx="197.35" cy="146.91" r="1.16"/><circle class="k" cx="212.77" cy="146.91" r="1.16"/><circle class="k" cx="228.19" cy="146.91" r="1.16"/><circle class="k" cx="243.61" cy="146.91" r="1.16"/><circle class="k" cx="259.03" cy="146.91" r="1.16"/><circle class="k" cx="274.45" cy="146.91" r="1.16"/><circle class="k" cx="289.88" cy="146.91" r="1.16"/><circle class="k" cx="305.3" cy="146.91" r="1.16"/><circle class="k" cx="320.72" cy="146.91" r="1.16"/><circle class="k" cx="336.14" cy="146.91" r="1.16"/><circle class="k" cx="351.56" cy="146.91" r="1.16"/><circle class="k" cx="366.99" cy="146.91" r="1.16"/><circle class="k" cx="382.41" cy="146.91" r="1.16"/><circle class="k" cx="397.83" cy="146.91" r="1.16"/><circle class="k" cx="413.25" cy="146.91" r="1.16"/><circle class="k" cx="428.67" cy="146.91" r="1.16"/><circle class="k" cx="444.09" cy="146.91" r="1.16"/><circle class="k" cx="459.52" cy="146.91" r="1.16"/><circle class="k" cx="43.13" cy="163.67" r="1.16"/><circle class="k" cx="58.55" cy="163.67" r="1.16"/><circle class="k" cx="73.97" cy="163.67" r="1.16"/><circle class="k" cx="89.39" cy="163.67" r="1.16"/><circle class="k" cx="104.82" cy="163.67" r="1.16"/><circle class="k" cx="120.24" cy="163.67" r="1.16"/><circle class="k" cx="135.66" cy="163.67" r="1.16"/><circle class="k" cx="151.08" cy="163.67" r="1.16"/><circle class="k" cx="166.5" cy="163.67" r="1.16"/><circle class="k" cx="181.92" cy="163.67" r="1.16"/><circle class="k" cx="197.35" cy="163.67" r="1.16"/><circle class="k" cx="212.77" cy="163.67" r="1.16"/><circle class="k" cx="228.19" cy="163.67" r="1.16"/><circle class="k" cx="243.61" cy="163.67" r="1.16"/><circle class="k" cx="259.03" cy="163.67" r="1.16"/><circle class="k" cx="274.45" cy="163.67" r="1.16"/><circle class="k" cx="289.88" cy="163.67" r="1.16"/><circle class="k" cx="305.3" cy="163.67" r="1.16"/><circle class="k" cx="320.72" cy="163.67" r="1.16"/><circle class="k" cx="336.14" cy="163.67" r="1.16"/><circle class="k" cx="351.56" cy="163.67" r="1.16"/><circle class="k" cx="366.99" cy="163.67" r="1.16"/><circle class="k" cx="382.41" cy="163.67" r="1.16"/><circle class="k" cx="397.83" cy="163.67" r="1.16"/><circle class="k" cx="413.25" cy="163.67" r="1.16"/><circle class="k" cx="428.67" cy="163.67" r="1.16"/><circle class="k" cx="444.09" cy="163.67" r="1.16"/><circle class="k" cx="459.52" cy="163.67" r="1.16"/><circle class="k" cx="43.13" cy="180.43" r="1.16"/><circle class="k" cx="58.55" cy="180.43" r="1.16"/><circle class="k" cx="73.97" cy="180.43" r="1.16"/><circle class="k" cx="89.39" cy="180.43" r="1.16"/><circle class="k" cx="104.82" cy="180.43" r="1.16"/><circle class="k" cx="120.24" cy="180.43" r="1.16"/><circle class="k" cx="135.66" cy="180.43" r="1.16"/><circle class="k" cx="151.08" cy="180.43" r="1.16"/><circle class="k" cx="166.5" cy="180.43" r="1.16"/><circle class="k" cx="181.92" cy="180.43" r="1.16"/><circle class="k" cx="197.35" cy="180.43" r="1.16"/><circle class="k" cx="212.77" cy="180.43" r="1.16"/><circle class="k" cx="228.19" cy="180.43" r="1.16"/><circle class="k" cx="243.61" cy="180.43" r="1.16"/><circle class="k" cx="259.03" cy="180.43" r="1.16"/><circle class="k" cx="274.45" cy="180.43" r="1.16"/><circle class="k" cx="289.88" cy="180.43" r="1.16"/><circle class="k" cx="305.3" cy="180.43" r="1.16"/><circle class="k" cx="320.72" cy="180.43" r="1.16"/><circle class="k" cx="336.14" cy="180.43" r="1.16"/><circle class="k" cx="351.56" cy="180.43" r="1.16"/><circle class="k" cx="366.99" cy="180.43" r="1.16"/><circle class="k" cx="382.41" cy="180.43" r="1.16"/><circle class="k" cx="397.83" cy="180.43" r="1.16"/><circle class="k" cx="413.25" cy="180.43" r="1.16"/><circle class="k" cx="428.67" cy="180.43" r="1.16"/><circle class="k" cx="444.09" cy="180.43" r="1.16"/><circle class="k" cx="459.52" cy="180.43" r="1.16"/><circle class="k" cx="43.13" cy="197.2" r="1.16"/><circle class="k" cx="58.55" cy="197.2" r="1.16"/><circle class="k" cx="73.97" cy="197.2" r="1.16"/><circle class="k" cx="89.39" cy="197.2" r="1.16"/><circle class="k" cx="104.82" cy="197.2" r="1.16"/><circle class="k" cx="120.24" cy="197.2" r="1.16"/><circle class="k" cx="135.66" cy="197.2" r="1.16"/><circle class="k" cx="151.08" cy="197.2" r="1.16"/><circle class="k" cx="166.5" cy="197.2" r="1.16"/><circle class="k" cx="181.92" cy="197.2" r="1.16"/><circle class="k" cx="197.35" cy="197.2" r="1.16"/><circle class="k" cx="212.77" cy="197.2" r="1.16"/><circle class="k" cx="228.19" cy="197.2" r="1.16"/><circle class="k" cx="243.61" cy="197.2" r="1.16"/><circle class="k" cx="259.03" cy="197.2" r="1.16"/><circle class="k" cx="274.45" cy="197.2" r="1.16"/><circle class="k" cx="289.88" cy="197.2" r="1.16"/><circle class="k" cx="305.3" cy="197.2" r="1.16"/><circle class="k" cx="320.72" cy="197.2" r="1.16"/><circle class="k" cx="336.14" cy="197.2" r="1.16"/><circle class="k" cx="351.56" cy="197.2" r="1.16"/><circle class="k" cx="366.99" cy="197.2" r="1.16"/><circle class="k" cx="382.41" cy="197.2" r="1.16"/><circle class="k" cx="397.83" cy="197.2" r="1.16"/><circle class="k" cx="413.25" cy="197.2" r="1.16"/><circle class="k" cx="428.67" cy="197.2" r="1.16"/><circle class="k" cx="444.09" cy="197.2" r="1.16"/><circle class="k" cx="459.52" cy="197.2" r="1.16"/><circle class="k" cx="43.13" cy="213.96" r="1.16"/><circle class="k" cx="58.55" cy="213.96" r="1.16"/><circle class="k" cx="73.97" cy="213.96" r="1.16"/><circle class="k" cx="89.39" cy="213.96" r="1.16"/><circle class="k" cx="104.82" cy="213.96" r="1.16"/><circle class="k" cx="120.24" cy="213.96" r="1.16"/><circle class="k" cx="135.66" cy="213.96" r="1.16"/><circle class="k" cx="151.08" cy="213.96" r="1.16"/><circle class="k" cx="166.5" cy="213.96" r="1.16"/><circle class="k" cx="181.92" cy="213.96" r="1.16"/><circle class="k" cx="197.35" cy="213.96" r="1.16"/><circle class="k" cx="212.77" cy="213.96" r="1.16"/><circle class="k" cx="228.19" cy="213.96" r="1.16"/><circle class="k" cx="243.61" cy="213.96" r="1.16"/><circle class="k" cx="259.03" cy="213.96" r="1.16"/><circle class="k" cx="274.45" cy="213.96" r="1.16"/><circle class="k" cx="289.88" cy="213.96" r="1.16"/><circle class="k" cx="305.3" cy="213.96" r="1.16"/><circle class="k" cx="320.72" cy="213.96" r="1.16"/><circle class="k" cx="336.14" cy="213.96" r="1.16"/><circle class="k" cx="351.56" cy="213.96" r="1.16"/><circle class="k" cx="366.99" cy="213.96" r="1.16"/><circle class="k" cx="382.41" cy="213.96" r="1.16"/><circle class="k" cx="397.83" cy="213.96" r="1.16"/><circle class="k" cx="413.25" cy="213.96" r="1.16"/><circle class="k" cx="428.67" cy="213.96" r="1.16"/><circle class="k" cx="444.09" cy="213.96" r="1.16"/><circle class="k" cx="459.52" cy="213.96" r="1.16"/><circle class="k" cx="43.13" cy="230.72" r="1.16"/><circle class="k" cx="58.55" cy="230.72" r="1.16"/><circle class="k" cx="73.97" cy="230.72" r="1.16"/><circle class="k" cx="89.39" cy="230.72" r="1.16"/><circle class="k" cx="104.82" cy="230.72" r="1.16"/><circle class="k" cx="120.24" cy="230.72" r="1.16"/><circle class="k" cx="135.66" cy="230.72" r="1.16"/><circle class="k" cx="151.08" cy="230.72" r="1.16"/><circle class="k" cx="166.5" cy="230.72" r="1.16"/><circle class="k" cx="181.92" cy="230.72" r="1.16"/><circle class="k" cx="197.35" cy="230.72" r="1.16"/><circle class="k" cx="212.77" cy="230.72" r="1.16"/><circle class="k" cx="228.19" cy="230.72" r="1.16"/><circle class="k" cx="243.61" cy="230.72" r="1.16"/><circle class="k" cx="259.03" cy="230.72" r="1.16"/><circle class="k" cx="274.45" cy="230.72" r="1.16"/><circle class="k" cx="289.88" cy="230.72" r="1.16"/><circle class="k" cx="305.3" cy="230.72" r="1.16"/><circle class="k" cx="320.72" cy="230.72" r="1.16"/><circle class="k" cx="336.14" cy="230.72" r="1.16"/><circle class="k" cx="351.56" cy="230.72" r="1.16"/><circle class="k" cx="366.99" cy="230.72" r="1.16"/><circle class="k" cx="382.41" cy="230.72" r="1.16"/><circle class="k" cx="397.83" cy="230.72" r="1.16"/><circle class="k" cx="413.25" cy="230.72" r="1.16"/><circle class="k" cx="428.67" cy="230.72" r="1.16"/><circle class="k" cx="444.09" cy="230.72" r="1.16"/><circle class="k" cx="459.52" cy="230.72" r="1.16"/><circle class="k" cx="43.13" cy="247.48" r="1.16"/><circle class="k" cx="58.55" cy="247.48" r="1.16"/><circle class="k" cx="73.97" cy="247.48" r="1.16"/><circle class="k" cx="89.39" cy="247.48" r="1.16"/><circle class="k" cx="104.82" cy="247.48" r="1.16"/><circle class="k" cx="120.24" cy="247.48" r="1.16"/><circle class="k" cx="135.66" cy="247.48" r="1.16"/><circle class="k" cx="151.08" cy="247.48" r="1.16"/><circle class="k" cx="166.5" cy="247.48" r="1.16"/><circle class="k" cx="181.92" cy="247.48" r="1.16"/><circle class="k" cx="197.35" cy="247.48" r="1.16"/><circle class="k" cx="212.77" cy="247.48" r="1.16"/><circle class="k" cx="228.19" cy="247.48" r="1.16"/><circle class="k" cx="243.61" cy="247.48" r="1.16"/><circle class="k" cx="259.03" cy="247.48" r="1.16"/><circle class="k" cx="274.45" cy="247.48" r="1.16"/><circle class="k" cx="289.88" cy="247.48" r="1.16"/><circle class="k" cx="305.3" cy="247.48" r="1.16"/><circle class="k" cx="320.72" cy="247.48" r="1.16"/><circle class="k" cx="336.14" cy="247.48" r="1.16"/><circle class="k" cx="351.56" cy="247.48" r="1.16"/><circle class="k" cx="366.99" cy="247.48" r="1.16"/><circle class="k" cx="382.41" cy="247.48" r="1.16"/><circle class="k" cx="397.83" cy="247.48" r="1.16"/><circle class="k" cx="413.25" cy="247.48" r="1.16"/><circle class="k" cx="428.67" cy="247.48" r="1.16"/><circle class="k" cx="444.09" cy="247.48" r="1.16"/><circle class="k" cx="459.52" cy="247.48" r="1.16"/><circle class="k" cx="43.13" cy="264.25" r="1.16"/><circle class="k" cx="58.55" cy="264.25" r="1.16"/><circle class="k" cx="73.97" cy="264.25" r="1.16"/><circle class="k" cx="89.39" cy="264.25" r="1.16"/><circle class="k" cx="104.82" cy="264.25" r="1.16"/><circle class="k" cx="120.24" cy="264.25" r="1.16"/><circle class="k" cx="135.66" cy="264.25" r="1.16"/><circle class="k" cx="151.08" cy="264.25" r="1.16"/><circle class="k" cx="166.5" cy="264.25" r="1.16"/><circle class="k" cx="181.92" cy="264.25" r="1.16"/><circle class="k" cx="197.35" cy="264.25" r="1.16"/><circle class="k" cx="212.77" cy="264.25" r="1.16"/><circle class="k" cx="228.19" cy="264.25" r="1.16"/><circle class="k" cx="243.61" cy="264.25" r="1.16"/><circle class="k" cx="259.03" cy="264.25" r="1.16"/><circle class="k" cx="274.45" cy="264.25" r="1.16"/><circle class="k" cx="289.88" cy="264.25" r="1.16"/><circle class="k" cx="305.3" cy="264.25" r="1.16"/><circle class="k" cx="320.72" cy="264.25" r="1.16"/><circle class="k" cx="336.14" cy="264.25" r="1.16"/><circle class="k" cx="351.56" cy="264.25" r="1.16"/><circle class="k" cx="366.99" cy="264.25" r="1.16"/><circle class="k" cx="382.41" cy="264.25" r="1.16"/><circle class="k" cx="397.83" cy="264.25" r="1.16"/><circle class="k" cx="413.25" cy="264.25" r="1.16"/><circle class="k" cx="428.67" cy="264.25" r="1.16"/><circle class="k" cx="444.09" cy="264.25" r="1.16"/><circle class="k" cx="459.52" cy="264.25" r="1.16"/><circle class="k" cx="43.13" cy="281.01" r="1.16"/><circle class="k" cx="58.55" cy="281.01" r="1.16"/><circle class="k" cx="73.97" cy="281.01" r="1.16"/><circle class="k" cx="89.39" cy="281.01" r="1.16"/><circle class="k" cx="104.82" cy="281.01" r="1.16"/><circle class="k" cx="120.24" cy="281.01" r="1.16"/><circle class="k" cx="135.66" cy="281.01" r="1.16"/><circle class="k" cx="151.08" cy="281.01" r="1.16"/><circle class="k" cx="166.5" cy="281.01" r="1.16"/><circle class="k" cx="181.92" cy="281.01" r="1.16"/><circle class="k" cx="197.35" cy="281.01" r="1.16"/><circle class="k" cx="212.77" cy="281.01" r="1.16"/><circle class="k" cx="228.19" cy="281.01" r="1.16"/><circle class="k" cx="243.61" cy="281.01" r="1.16"/><circle class="k" cx="259.03" cy="281.01" r="1.16"/><circle class="k" cx="274.45" cy="281.01" r="1.16"/><circle class="k" cx="289.88" cy="281.01" r="1.16"/><circle class="k" cx="305.3" cy="281.01" r="1.16"/><circle class="k" cx="320.72" cy="281.01" r="1.16"/><circle class="k" cx="336.14" cy="281.01" r="1.16"/><circle class="k" cx="351.56" cy="281.01" r="1.16"/><circle class="k" cx="366.99" cy="281.01" r="1.16"/><circle class="k" cx="382.41" cy="281.01" r="1.16"/><circle class="k" cx="397.83" cy="281.01" r="1.16"/><circle class="k" cx="413.25" cy="281.01" r="1.16"/><circle class="k" cx="428.67" cy="281.01" r="1.16"/><circle class="k" cx="444.09" cy="281.01" r="1.16"/><circle class="k" cx="459.52" cy="281.01" r="1.16"/><circle class="k" cx="43.13" cy="297.77" r="1.16"/><circle class="k" cx="58.55" cy="297.77" r="1.16"/><circle class="k" cx="73.97" cy="297.77" r="1.16"/><circle class="k" cx="89.39" cy="297.77" r="1.16"/><circle class="k" cx="104.82" cy="297.77" r="1.16"/><circle class="k" cx="120.24" cy="297.77" r="1.16"/><circle class="k" cx="135.66" cy="297.77" r="1.16"/><circle class="k" cx="151.08" cy="297.77" r="1.16"/><circle class="k" cx="166.5" cy="297.77" r="1.16"/><circle class="k" cx="181.92" cy="297.77" r="1.16"/><circle class="k" cx="197.35" cy="297.77" r="1.16"/><circle class="k" cx="212.77" cy="297.77" r="1.16"/><circle class="k" cx="228.19" cy="297.77" r="1.16"/><circle class="k" cx="243.61" cy="297.77" r="1.16"/><circle class="k" cx="259.03" cy="297.77" r="1.16"/><circle class="k" cx="274.45" cy="297.77" r="1.16"/><circle class="k" cx="289.88" cy="297.77" r="1.16"/><circle class="k" cx="305.3" cy="297.77" r="1.16"/><circle class="k" cx="320.72" cy="297.77" r="1.16"/><circle class="k" cx="336.14" cy="297.77" r="1.16"/><circle class="k" cx="351.56" cy="297.77" r="1.16"/><circle class="k" cx="366.99" cy="297.77" r="1.16"/><circle class="k" cx="382.41" cy="297.77" r="1.16"/><circle class="k" cx="397.83" cy="297.77" r="1.16"/><circle class="k" cx="413.25" cy="297.77" r="1.16"/><circle class="k" cx="428.67" cy="297.77" r="1.16"/><circle class="k" cx="444.09" cy="297.77" r="1.16"/><circle class="k" cx="459.52" cy="297.77" r="1.16"/><circle class="k" cx="43.13" cy="314.53" r="1.16"/><circle class="k" cx="58.55" cy="314.53" r="1.16"/><circle class="k" cx="73.97" cy="314.53" r="1.16"/><circle class="k" cx="89.39" cy="314.53" r="1.16"/><circle class="k" cx="104.82" cy="314.53" r="1.16"/><circle class="k" cx="120.24" cy="314.53" r="1.16"/><circle class="k" cx="135.66" cy="314.53" r="1.16"/><circle class="k" cx="151.08" cy="314.53" r="1.16"/><circle class="k" cx="166.5" cy="314.53" r="1.16"/><circle class="k" cx="181.92" cy="314.53" r="1.16"/><circle class="k" cx="197.35" cy="314.53" r="1.16"/><circle class="k" cx="212.77" cy="314.53" r="1.16"/><circle class="k" cx="228.19" cy="314.53" r="1.16"/><circle class="k" cx="243.61" cy="314.53" r="1.16"/><circle class="k" cx="259.03" cy="314.53" r="1.16"/><circle class="k" cx="274.45" cy="314.53" r="1.16"/><circle class="k" cx="289.88" cy="314.53" r="1.16"/><circle class="k" cx="305.3" cy="314.53" r="1.16"/><circle class="k" cx="320.72" cy="314.53" r="1.16"/><circle class="k" cx="336.14" cy="314.53" r="1.16"/><circle class="k" cx="351.56" cy="314.53" r="1.16"/><circle class="k" cx="366.99" cy="314.53" r="1.16"/><circle class="k" cx="382.41" cy="314.53" r="1.16"/><circle class="k" cx="397.83" cy="314.53" r="1.16"/><circle class="k" cx="413.25" cy="314.53" r="1.16"/><circle class="k" cx="428.67" cy="314.53" r="1.16"/><circle class="k" cx="444.09" cy="314.53" r="1.16"/><circle class="k" cx="459.52" cy="314.53" r="1.16"/><circle class="k" cx="43.13" cy="331.3" r="1.16"/><circle class="k" cx="58.55" cy="331.3" r="1.16"/><circle class="k" cx="73.97" cy="331.3" r="1.16"/><circle class="k" cx="89.39" cy="331.3" r="1.16"/><circle class="k" cx="104.82" cy="331.3" r="1.16"/><circle class="k" cx="120.24" cy="331.3" r="1.16"/><circle class="k" cx="135.66" cy="331.3" r="1.16"/><circle class="k" cx="151.08" cy="331.3" r="1.16"/><circle class="k" cx="166.5" cy="331.3" r="1.16"/><circle class="k" cx="181.92" cy="331.3" r="1.16"/><circle class="k" cx="197.35" cy="331.3" r="1.16"/><circle class="k" cx="212.77" cy="331.3" r="1.16"/><circle class="k" cx="228.19" cy="331.3" r="1.16"/><circle class="k" cx="243.61" cy="331.3" r="1.16"/><circle class="k" cx="259.03" cy="331.3" r="1.16"/><circle class="k" cx="274.45" cy="331.3" r="1.16"/><circle class="k" cx="289.88" cy="331.3" r="1.16"/><circle class="k" cx="305.3" cy="331.3" r="1.16"/><circle class="k" cx="320.72" cy="331.3" r="1.16"/><circle class="k" cx="336.14" cy="331.3" r="1.16"/><circle class="k" cx="351.56" cy="331.3" r="1.16"/><circle class="k" cx="366.99" cy="331.3" r="1.16"/><circle class="k" cx="382.41" cy="331.3" r="1.16"/><circle class="k" cx="397.83" cy="331.3" r="1.16"/><circle class="k" cx="413.25" cy="331.3" r="1.16"/><circle class="k" cx="428.67" cy="331.3" r="1.16"/><circle class="k" cx="444.09" cy="331.3" r="1.16"/><circle class="k" cx="459.52" cy="331.3" r="1.16"/><circle class="k" cx="43.13" cy="348.06" r="1.16"/><circle class="k" cx="58.55" cy="348.06" r="1.16"/><circle class="k" cx="73.97" cy="348.06" r="1.16"/><circle class="k" cx="89.39" cy="348.06" r="1.16"/><circle class="k" cx="104.82" cy="348.06" r="1.16"/><circle class="k" cx="120.24" cy="348.06" r="1.16"/><circle class="k" cx="135.66" cy="348.06" r="1.16"/><circle class="k" cx="151.08" cy="348.06" r="1.16"/><circle class="k" cx="166.5" cy="348.06" r="1.16"/><circle class="k" cx="181.92" cy="348.06" r="1.16"/><circle class="k" cx="197.35" cy="348.06" r="1.16"/><circle class="k" cx="212.77" cy="348.06" r="1.16"/><circle class="k" cx="228.19" cy="348.06" r="1.16"/><circle class="k" cx="243.61" cy="348.06" r="1.16"/><circle class="k" cx="259.03" cy="348.06" r="1.16"/><circle class="k" cx="274.45" cy="348.06" r="1.16"/><circle class="k" cx="289.88" cy="348.06" r="1.16"/><circle class="k" cx="305.3" cy="348.06" r="1.16"/><circle class="k" cx="320.72" cy="348.06" r="1.16"/><circle class="k" cx="336.14" cy="348.06" r="1.16"/><circle class="k" cx="351.56" cy="348.06" r="1.16"/><circle class="k" cx="366.99" cy="348.06" r="1.16"/><circle class="k" cx="382.41" cy="348.06" r="1.16"/><circle class="k" cx="397.83" cy="348.06" r="1.16"/><circle class="k" cx="413.25" cy="348.06" r="1.16"/><circle class="k" cx="428.67" cy="348.06" r="1.16"/><circle class="k" cx="444.09" cy="348.06" r="1.16"/><circle class="k" cx="459.52" cy="348.06" r="1.16"/><circle class="k" cx="43.13" cy="364.82" r="1.16"/><circle class="k" cx="58.55" cy="364.82" r="1.16"/><circle class="k" cx="73.97" cy="364.82" r="1.16"/><circle class="k" cx="89.39" cy="364.82" r="1.16"/><circle class="k" cx="104.82" cy="364.82" r="1.16"/><circle class="k" cx="120.24" cy="364.82" r="1.16"/><circle class="k" cx="135.66" cy="364.82" r="1.16"/><circle class="k" cx="151.08" cy="364.82" r="1.16"/><circle class="k" cx="166.5" cy="364.82" r="1.16"/><circle class="k" cx="181.92" cy="364.82" r="1.16"/><circle class="k" cx="197.35" cy="364.82" r="1.16"/><circle class="k" cx="212.77" cy="364.82" r="1.16"/><circle class="k" cx="228.19" cy="364.82" r="1.16"/><circle class="k" cx="243.61" cy="364.82" r="1.16"/><circle class="k" cx="259.03" cy="364.82" r="1.16"/><circle class="k" cx="274.45" cy="364.82" r="1.16"/><circle class="k" cx="289.88" cy="364.82" r="1.16"/><circle class="k" cx="305.3" cy="364.82" r="1.16"/><circle class="k" cx="320.72" cy="364.82" r="1.16"/><circle class="k" cx="336.14" cy="364.82" r="1.16"/><circle class="k" cx="351.56" cy="364.82" r="1.16"/><circle class="k" cx="366.99" cy="364.82" r="1.16"/><circle class="k" cx="382.41" cy="364.82" r="1.16"/><circle class="k" cx="397.83" cy="364.82" r="1.16"/><circle class="k" cx="413.25" cy="364.82" r="1.16"/><circle class="k" cx="428.67" cy="364.82" r="1.16"/><circle class="k" cx="444.09" cy="364.82" r="1.16"/><circle class="k" cx="459.52" cy="364.82" r="1.16"/><circle class="k" cx="43.13" cy="381.59" r="1.16"/><circle class="k" cx="58.55" cy="381.59" r="1.16"/><circle class="k" cx="73.97" cy="381.59" r="1.16"/><circle class="k" cx="89.39" cy="381.59" r="1.16"/><circle class="k" cx="104.82" cy="381.59" r="1.16"/><circle class="k" cx="120.24" cy="381.59" r="1.16"/><circle class="k" cx="135.66" cy="381.59" r="1.16"/><circle class="k" cx="151.08" cy="381.59" r="1.16"/><circle class="k" cx="166.5" cy="381.59" r="1.16"/><circle class="k" cx="181.92" cy="381.59" r="1.16"/><circle class="k" cx="197.35" cy="381.59" r="1.16"/><circle class="k" cx="212.77" cy="381.59" r="1.16"/><circle class="k" cx="228.19" cy="381.59" r="1.16"/><circle class="k" cx="243.61" cy="381.59" r="1.16"/><circle class="k" cx="259.03" cy="381.59" r="1.16"/><circle class="k" cx="274.45" cy="381.59" r="1.16"/><circle class="k" cx="289.88" cy="381.59" r="1.16"/><circle class="k" cx="305.3" cy="381.59" r="1.16"/><circle class="k" cx="320.72" cy="381.59" r="1.16"/><circle class="k" cx="336.14" cy="381.59" r="1.16"/><circle class="k" cx="351.56" cy="381.59" r="1.16"/><circle class="k" cx="366.99" cy="381.59" r="1.16"/><circle class="k" cx="382.41" cy="381.59" r="1.16"/><circle class="k" cx="397.83" cy="381.59" r="1.16"/><circle class="k" cx="413.25" cy="381.59" r="1.16"/><circle class="k" cx="428.67" cy="381.59" r="1.16"/><circle class="k" cx="444.09" cy="381.59" r="1.16"/><circle class="k" cx="459.52" cy="381.59" r="1.16"/><circle class="k" cx="43.13" cy="398.35" r="1.16"/><circle class="k" cx="58.55" cy="398.35" r="1.16"/><circle class="k" cx="73.97" cy="398.35" r="1.16"/><circle class="k" cx="89.39" cy="398.35" r="1.16"/><circle class="k" cx="104.82" cy="398.35" r="1.16"/><circle class="k" cx="120.24" cy="398.35" r="1.16"/><circle class="k" cx="135.66" cy="398.35" r="1.16"/><circle class="k" cx="151.08" cy="398.35" r="1.16"/><circle class="k" cx="166.5" cy="398.35" r="1.16"/><circle class="k" cx="181.92" cy="398.35" r="1.16"/><circle class="k" cx="197.35" cy="398.35" r="1.16"/><circle class="k" cx="212.77" cy="398.35" r="1.16"/><circle class="k" cx="228.19" cy="398.35" r="1.16"/><circle class="k" cx="243.61" cy="398.35" r="1.16"/><circle class="k" cx="259.03" cy="398.35" r="1.16"/><circle class="k" cx="274.45" cy="398.35" r="1.16"/><circle class="k" cx="289.88" cy="398.35" r="1.16"/><circle class="k" cx="305.3" cy="398.35" r="1.16"/><circle class="k" cx="320.72" cy="398.35" r="1.16"/><circle class="k" cx="336.14" cy="398.35" r="1.16"/><circle class="k" cx="351.56" cy="398.35" r="1.16"/><circle class="k" cx="366.99" cy="398.35" r="1.16"/><circle class="k" cx="382.41" cy="398.35" r="1.16"/><circle class="k" cx="397.83" cy="398.35" r="1.16"/><circle class="k" cx="413.25" cy="398.35" r="1.16"/><circle class="k" cx="428.67" cy="398.35" r="1.16"/><circle class="k" cx="444.09" cy="398.35" r="1.16"/><circle class="k" cx="459.52" cy="398.35" r="1.16"/><circle class="k" cx="43.13" cy="415.11" r="1.16"/><circle class="k" cx="58.55" cy="415.11" r="1.16"/><circle class="k" cx="73.97" cy="415.11" r="1.16"/><circle class="k" cx="89.39" cy="415.11" r="1.16"/><circle class="k" cx="104.82" cy="415.11" r="1.16"/><circle class="k" cx="120.24" cy="415.11" r="1.16"/><circle class="k" cx="135.66" cy="415.11" r="1.16"/><circle class="k" cx="151.08" cy="415.11" r="1.16"/><circle class="k" cx="166.5" cy="415.11" r="1.16"/><circle class="k" cx="181.92" cy="415.11" r="1.16"/><circle class="k" cx="197.35" cy="415.11" r="1.16"/><circle class="k" cx="212.77" cy="415.11" r="1.16"/><circle class="k" cx="228.19" cy="415.11" r="1.16"/><circle class="k" cx="243.61" cy="415.11" r="1.16"/><circle class="k" cx="259.03" cy="415.11" r="1.16"/><circle class="k" cx="274.45" cy="415.11" r="1.16"/><circle class="k" cx="289.88" cy="415.11" r="1.16"/><circle class="k" cx="305.3" cy="415.11" r="1.16"/><circle class="k" cx="320.72" cy="415.11" r="1.16"/><circle class="k" cx="336.14" cy="415.11" r="1.16"/><circle class="k" cx="351.56" cy="415.11" r="1.16"/><circle class="k" cx="366.99" cy="415.11" r="1.16"/><circle class="k" cx="382.41" cy="415.11" r="1.16"/><circle class="k" cx="397.83" cy="415.11" r="1.16"/><circle class="k" cx="413.25" cy="415.11" r="1.16"/><circle class="k" cx="428.67" cy="415.11" r="1.16"/><circle class="k" cx="444.09" cy="415.11" r="1.16"/><circle class="k" cx="459.52" cy="415.11" r="1.16"/><circle class="k" cx="43.13" cy="431.87" r="1.16"/><circle class="k" cx="58.55" cy="431.87" r="1.16"/><circle class="k" cx="73.97" cy="431.87" r="1.16"/><circle class="k" cx="89.39" cy="431.87" r="1.16"/><circle class="k" cx="104.82" cy="431.87" r="1.16"/><circle class="k" cx="120.24" cy="431.87" r="1.16"/><circle class="k" cx="135.66" cy="431.87" r="1.16"/><circle class="k" cx="151.08" cy="431.87" r="1.16"/><circle class="k" cx="166.5" cy="431.87" r="1.16"/><circle class="k" cx="181.92" cy="431.87" r="1.16"/><circle class="k" cx="197.35" cy="431.87" r="1.16"/><circle class="k" cx="212.77" cy="431.87" r="1.16"/><circle class="k" cx="228.19" cy="431.87" r="1.16"/><circle class="k" cx="243.61" cy="431.87" r="1.16"/><circle class="k" cx="259.03" cy="431.87" r="1.16"/><circle class="k" cx="274.45" cy="431.87" r="1.16"/><circle class="k" cx="289.88" cy="431.87" r="1.16"/><circle class="k" cx="305.3" cy="431.87" r="1.16"/><circle class="k" cx="320.72" cy="431.87" r="1.16"/><circle class="k" cx="336.14" cy="431.87" r="1.16"/><circle class="k" cx="351.56" cy="431.87" r="1.16"/><circle class="k" cx="366.99" cy="431.87" r="1.16"/><circle class="k" cx="382.41" cy="431.87" r="1.16"/><circle class="k" cx="397.83" cy="431.87" r="1.16"/><circle class="k" cx="413.25" cy="431.87" r="1.16"/><circle class="k" cx="428.67" cy="431.87" r="1.16"/><circle class="k" cx="444.09" cy="431.87" r="1.16"/><circle class="k" cx="459.52" cy="431.87" r="1.16"/></g></g><path class="o" d="M251.95,390.09h0Zm218.74-126.3h0Zm-218.74-126.29L80.16,236.75l218.74,126.29,171.79-99.25-218.74-126.29Z"/><g><g><path class="p" d="M335.22,320.08h0Zm-66.44-38.56h0Zm0,0l66.43,38.56,70.29-40.23-66.43-38.56-70.29,40.23Z"/><path class="p" d="M335.22,333.06h0Zm-66.44-38.56h0Zm0,0l66.43,38.56v-12.98l-66.43-38.56v12.98Z"/><path class="p" d="M335.23,333.06h0Zm70.29-53.21l-70.29,40.23v12.98l70.29-40.23v-12.98Z"/><path class="p" d="M362.13,253.22l11.94,18.84c.43,1.35,.65,2.74,.65,4.17,0,12.7-17.68,22.99-39.49,22.99s-39.49-10.29-39.49-22.99c0-1.35,.2-2.68,.59-3.97l12-19.04"/><ellipse class="n" cx="335.23" cy="255.67" rx="26.9" ry="14.83"/><path class="p" d="M323.69,221.46v34.21c0,3.51,5.17,6.36,11.54,6.36s11.54-2.85,11.54-6.36v-34.21"/><ellipse class="p" cx="335.23" cy="221.46" rx="11.54" ry="6.36"/></g><g><path class="p" d="M382.44,198.91c-2.47-1.92-3.86-5.07-3.39-8.38,.7-4.92,5.26-8.34,10.18-7.64l22.83,3.72c4.92,.7,8.34,5.26,7.64,10.18-.7,4.92-5.26,8.34-10.18,7.64l-22.83-3.72c-1.61-.23-3.06-.87-4.25-1.8Z"/><path class="p" d="M340.2,204.26l-15.76-7.96c-2.66-1.28-4.69-3.88-5.54-7.6-1.9-8.29,2.71-19.02,10.31-23.96,4.39-2.86,8.82-3.16,12.14-1.31l15.38,7.83"/><ellipse class="p" cx="347.8" cy="187.43" rx="18.49" ry="12.83" transform="translate(23.17 412.61) rotate(-63.07)"/><ellipse class="p" cx="347.82" cy="187.44" rx="2.31" ry="1.61" transform="translate(23.17 412.63) rotate(-63.07)"/><line class="p" x1="384.4" y1="191.03" x2="363.42" y2="188.05"/></g><line class="l" x1="335.23" y1="218.36" x2="335.21" y2="202.84"/><path class="p" d="M373.45,132.75l-15.42-7.52c-1.85-.89-3.25-2.69-3.84-5.27-1.32-5.75,1.88-13.19,7.15-16.62,3.05-1.98,6.11-2.19,8.42-.91l15.15,7.43"/><ellipse class="p" cx="379.19" cy="121.29" rx="12.82" ry="8.9" transform="translate(99.3 404.42) rotate(-63.07)"/><path class="p" d="M195.3,275.96l-9.49-4.63c-1.14-.55-2-1.66-2.37-3.25-.81-3.54,1.16-8.12,4.4-10.23,1.88-1.22,3.77-1.35,5.18-.56l9.33,4.57"/><ellipse class="p" cx="198.83" cy="268.91" rx="7.9" ry="5.48" transform="translate(-130.97 324.38) rotate(-63.07)"/><ellipse class="p" cx="379.2" cy="121.3" rx="1.6" ry="1.11" transform="translate(99.3 404.43) rotate(-63.07)"/><line class="l" x1="321.42" y1="173.53" x2="356.58" y2="108.45"/><line class="l" x1="336.45" y1="181.65" x2="371.62" y2="116.57"/><line class="l" x1="358.95" y1="193.79" x2="386.99" y2="125.71"/><path class="p" d="M251.96,222.55c-3.06,.65-6.36-.32-8.59-2.81-3.31-3.71-2.98-9.4,.73-12.71l29.86-27.61c3.71-3.31,9.4-2.98,12.71,.73,3.31,3.71,2.98,9.4-.73,12.71l-29.86,27.61c-1.21,1.08-2.64,1.77-4.12,2.09Z"/><path class="p" d="M384.91,109.86s-16.92-7.99-19.24-8.2c-.77-.07-1.55-.04-2.32,.09-1.49,.25-2.95,.89-4.2,1.92l-46.15,41.36c-3.84,3.15-4.4,8.82-1.25,12.67,3.15,3.84,8.82,4.4,12.67,1.25l52.51-49.2"/><line class="p" x1="247.2" y1="215.97" x2="198.59" y2="259.48"/><line class="p" x1="309.91" y1="154.51" x2="283.8" y2="177.88"/><line class="p" x1="315.2" y1="160.76" x2="288.82" y2="184.38"/><line class="l" x1="192.81" y1="262.34" x2="192.81" y2="237.73"/><path class="p" d="M197.53,246.23c-.91,0-1.83-.21-2.7-.66l-9.45-5.3c-2.86-1.49-3.98-5.02-2.48-7.89,1.49-2.87,5.02-3.98,7.89-2.48l9.45,5.3c2.86,1.49,3.98,5.02,2.48,7.89-1.04,2-3.08,3.15-5.19,3.15Z"/><polyline class="l" points="181.46 232.87 175.29 219.09 184.22 205.31"/></g><g><path class="m" d="M183.84,168.72v46.26c0,3.47,5.1,6.28,11.39,6.28s11.39-2.81,11.39-6.28v-46.26"/><ellipse class="m" cx="195.22" cy="167.76" rx="11.39" ry="6.28"/></g><polyline class="l" points="202.71 239.1 213.46 229.87 206.38 208.11"/></g></g><g id="d"/><g id="e"/><g id="f"/><g id="g"/><g id="h"/><g id="i"/></svg>