<?xml version="1.0" encoding="UTF-8"?><svg xmlns="http://www.w3.org/2000/svg" xmlns:xlink="http://www.w3.org/1999/xlink" viewBox="0 0 510.33 480"><defs><style>.k,.l,.m{fill:none;}.n{clip-path:url(#c);}.o{clip-path:url(#d);}.p{fill:#65a5bf;}.p,.q,.r,.l,.m{stroke-linecap:round;stroke-linejoin:round;stroke-width:6px;}.p,.r,.m{stroke:#65a5bf;}.q,.r{fill:#002a3a;}.q,.l{stroke:#002a3a;}</style><clipPath id="c"><path class="k" d="M524.88-56.91h0Zm-218.76-126.29h0Zm0,0l218.74,126.29,218.74-126.29-218.74-126.29-218.74,126.29Z"/></clipPath><clipPath id="d"><path class="k" d="M254.61,430.79h0ZM35.85,304.5h0Zm0,0l218.74,126.29,218.74-126.29-218.74-126.29L35.86,304.5Z"/></clipPath></defs><g id="a"/><g id="b"><g class="n"><g><circle class="l" cx="315.04" cy="1.64" r="1.16"/><circle class="l" cx="330.47" cy="1.64" r="1.16"/><circle class="l" cx="345.89" cy="1.64" r="1.16"/><circle class="l" cx="361.31" cy="1.64" r="1.16"/><circle class="l" cx="376.73" cy="1.64" r="1.16"/><circle class="l" cx="392.15" cy="1.64" r="1.16"/><circle class="l" cx="407.57" cy="1.64" r="1.16"/><circle class="l" cx="423" cy="1.64" r="1.16"/><circle class="l" cx="438.42" cy="1.64" r="1.16"/><circle class="l" cx="453.84" cy="1.64" r="1.16"/><circle class="l" cx="469.26" cy="1.64" r="1.16"/><circle class="l" cx="484.68" cy="1.64" r="1.16"/><circle class="l" cx="500.1" cy="1.64" r="1.16"/><circle class="l" cx="315.04" cy="18.4" r="1.16"/><circle class="l" cx="330.47" cy="18.4" r="1.16"/><circle class="l" cx="345.89" cy="18.4" r="1.16"/><circle class="l" cx="361.31" cy="18.4" r="1.16"/><circle class="l" cx="376.73" cy="18.4" r="1.16"/><circle class="l" cx="392.15" cy="18.4" r="1.16"/><circle class="l" cx="407.57" cy="18.4" r="1.16"/><circle class="l" cx="423" cy="18.4" r="1.16"/><circle class="l" cx="438.42" cy="18.4" r="1.16"/><circle class="l" cx="453.84" cy="18.4" r="1.16"/><circle class="l" cx="469.26" cy="18.4" r="1.16"/><circle class="l" cx="484.68" cy="18.4" r="1.16"/><circle class="l" cx="500.1" cy="18.4" r="1.16"/><circle class="l" cx="315.04" cy="35.16" r="1.16"/><circle class="l" cx="330.47" cy="35.16" r="1.16"/><circle class="l" cx="345.89" cy="35.16" r="1.16"/><circle class="l" cx="361.31" cy="35.16" r="1.16"/><circle class="l" cx="376.73" cy="35.16" r="1.16"/><circle class="l" cx="392.15" cy="35.16" r="1.16"/><circle class="l" cx="407.57" cy="35.16" r="1.16"/><circle class="l" cx="423" cy="35.16" r="1.16"/><circle class="l" cx="438.42" cy="35.16" r="1.16"/><circle class="l" cx="453.84" cy="35.16" r="1.16"/><circle class="l" cx="469.26" cy="35.16" r="1.16"/><circle class="l" cx="484.68" cy="35.16" r="1.16"/><circle class="l" cx="500.1" cy="35.16" r="1.16"/></g></g><g><g><path class="l" d="M254.61,430.8h0ZM35.85,304.51h0Zm0,0l218.74,126.29,218.74-126.29-218.74-126.29L35.86,304.5Z"/><path class="q" d="M254.61,452.05h0ZM35.85,325.76h0Zm0,0l218.74,126.29v-21.25L35.86,304.5v21.25Z"/><path class="l" d="M254.63,452.05h0Zm218.73-147.55l-218.74,126.29v21.25l218.74-126.29v-21.25Z"/></g><g class="o"><g><circle class="l" cx="44.77" cy="87.03" r="1.16"/><circle class="l" cx="60.2" cy="87.03" r="1.16"/><circle class="l" cx="75.62" cy="87.03" r="1.16"/><circle class="l" cx="91.04" cy="87.03" r="1.16"/><circle class="l" cx="106.46" cy="87.03" r="1.16"/><circle class="l" cx="121.88" cy="87.03" r="1.16"/><circle class="l" cx="137.3" cy="87.03" r="1.16"/><circle class="l" cx="152.73" cy="87.03" r="1.16"/><circle class="l" cx="168.15" cy="87.03" r="1.16"/><circle class="l" cx="183.57" cy="87.03" r="1.16"/><circle class="l" cx="198.99" cy="87.03" r="1.16"/><circle class="l" cx="214.41" cy="87.03" r="1.16"/><circle class="l" cx="229.84" cy="87.03" r="1.16"/><circle class="l" cx="245.26" cy="87.03" r="1.16"/><circle class="l" cx="260.68" cy="87.03" r="1.16"/><circle class="l" cx="276.1" cy="87.03" r="1.16"/><circle class="l" cx="291.52" cy="87.03" r="1.16"/><circle class="l" cx="306.94" cy="87.03" r="1.16"/><circle class="l" cx="322.37" cy="87.03" r="1.16"/><circle class="l" cx="337.79" cy="87.03" r="1.16"/><circle class="l" cx="353.21" cy="87.03" r="1.16"/><circle class="l" cx="368.63" cy="87.03" r="1.16"/><circle class="l" cx="384.05" cy="87.03" r="1.16"/><circle class="l" cx="399.47" cy="87.03" r="1.16"/><circle class="l" cx="414.9" cy="87.03" r="1.16"/><circle class="l" cx="430.32" cy="87.03" r="1.16"/><circle class="l" cx="445.74" cy="87.03" r="1.16"/><circle class="l" cx="461.16" cy="87.03" r="1.16"/><circle class="l" cx="44.77" cy="103.79" r="1.16"/><circle class="l" cx="60.2" cy="103.79" r="1.16"/><circle class="l" cx="75.62" cy="103.79" r="1.16"/><circle class="l" cx="91.04" cy="103.79" r="1.16"/><circle class="l" cx="106.46" cy="103.79" r="1.16"/><circle class="l" cx="121.88" cy="103.79" r="1.16"/><circle class="l" cx="137.3" cy="103.79" r="1.16"/><circle class="l" cx="152.73" cy="103.79" r="1.16"/><circle class="l" cx="168.15" cy="103.79" r="1.16"/><circle class="l" cx="183.57" cy="103.79" r="1.16"/><circle class="l" cx="198.99" cy="103.79" r="1.16"/><circle class="l" cx="214.41" cy="103.79" r="1.16"/><circle class="l" cx="229.84" cy="103.79" r="1.16"/><circle class="l" cx="245.26" cy="103.79" r="1.16"/><circle class="l" cx="260.68" cy="103.79" r="1.16"/><circle class="l" cx="276.1" cy="103.79" r="1.16"/><circle class="l" cx="291.52" cy="103.79" r="1.16"/><circle class="l" cx="306.94" cy="103.79" r="1.16"/><circle class="l" cx="322.37" cy="103.79" r="1.16"/><circle class="l" cx="337.79" cy="103.79" r="1.16"/><circle class="l" cx="353.21" cy="103.79" r="1.16"/><circle class="l" cx="368.63" cy="103.79" r="1.16"/><circle class="l" cx="384.05" cy="103.79" r="1.16"/><circle class="l" cx="399.47" cy="103.79" r="1.16"/><circle class="l" cx="414.9" cy="103.79" r="1.16"/><circle class="l" cx="430.32" cy="103.79" r="1.16"/><circle class="l" cx="445.74" cy="103.79" r="1.16"/><circle class="l" cx="461.16" cy="103.79" r="1.16"/><circle class="l" cx="44.77" cy="120.56" r="1.16"/><circle class="l" cx="60.2" cy="120.56" r="1.16"/><circle class="l" cx="75.62" cy="120.56" r="1.16"/><circle class="l" cx="91.04" cy="120.56" r="1.16"/><circle class="l" cx="106.46" cy="120.56" r="1.16"/><circle class="l" cx="121.88" cy="120.56" r="1.16"/><circle class="l" cx="137.3" cy="120.56" r="1.16"/><circle class="l" cx="152.73" cy="120.56" r="1.16"/><circle class="l" cx="168.15" cy="120.56" r="1.16"/><circle class="l" cx="183.57" cy="120.56" r="1.16"/><circle class="l" cx="198.99" cy="120.56" r="1.16"/><circle class="l" cx="214.41" cy="120.56" r="1.16"/><circle class="l" cx="229.84" cy="120.56" r="1.16"/><circle class="l" cx="245.26" cy="120.56" r="1.16"/><circle class="l" cx="260.68" cy="120.56" r="1.16"/><circle class="l" cx="276.1" cy="120.56" r="1.16"/><circle class="l" cx="291.52" cy="120.56" r="1.16"/><circle class="l" cx="306.94" cy="120.56" r="1.16"/><circle class="l" cx="322.37" cy="120.56" r="1.16"/><circle class="l" cx="337.79" cy="120.56" r="1.16"/><circle class="l" cx="353.21" cy="120.56" r="1.16"/><circle class="l" cx="368.63" cy="120.56" r="1.16"/><circle class="l" cx="384.05" cy="120.56" r="1.16"/><circle class="l" cx="399.47" cy="120.56" r="1.16"/><circle class="l" cx="414.9" cy="120.56" r="1.16"/><circle class="l" cx="430.32" cy="120.56" r="1.16"/><circle class="l" cx="445.74" cy="120.56" r="1.16"/><circle class="l" cx="461.16" cy="120.56" r="1.16"/><circle class="l" cx="44.77" cy="137.32" r="1.16"/><circle class="l" cx="60.2" cy="137.32" r="1.16"/><circle class="l" cx="75.62" cy="137.32" r="1.16"/><circle class="l" cx="91.04" cy="137.32" r="1.16"/><circle class="l" cx="106.46" cy="137.32" r="1.16"/><circle class="l" cx="121.88" cy="137.32" r="1.16"/><circle class="l" cx="137.3" cy="137.32" r="1.16"/><circle class="l" cx="152.73" cy="137.32" r="1.16"/><circle class="l" cx="168.15" cy="137.32" r="1.16"/><circle class="l" cx="183.57" cy="137.32" r="1.16"/><circle class="l" cx="198.99" cy="137.32" r="1.16"/><circle class="l" cx="214.41" cy="137.32" r="1.16"/><circle class="l" cx="229.84" cy="137.32" r="1.16"/><circle class="l" cx="245.26" cy="137.32" r="1.16"/><circle class="l" cx="260.68" cy="137.32" r="1.16"/><circle class="l" cx="276.1" cy="137.32" r="1.16"/><circle class="l" cx="291.52" cy="137.32" r="1.16"/><circle class="l" cx="306.94" cy="137.32" r="1.16"/><circle class="l" cx="322.37" cy="137.32" r="1.16"/><circle class="l" cx="337.79" cy="137.32" r="1.16"/><circle class="l" cx="353.21" cy="137.32" r="1.16"/><circle class="l" cx="368.63" cy="137.32" r="1.16"/><circle class="l" cx="384.05" cy="137.32" r="1.16"/><circle class="l" cx="399.47" cy="137.32" r="1.16"/><circle class="l" cx="414.9" cy="137.32" r="1.16"/><circle class="l" cx="430.32" cy="137.32" r="1.16"/><circle class="l" cx="445.74" cy="137.32" r="1.16"/><circle class="l" cx="461.16" cy="137.32" r="1.16"/><circle class="l" cx="44.77" cy="154.08" r="1.16"/><circle class="l" cx="60.2" cy="154.08" r="1.16"/><circle class="l" cx="75.62" cy="154.08" r="1.16"/><circle class="l" cx="91.04" cy="154.08" r="1.16"/><circle class="l" cx="106.46" cy="154.08" r="1.16"/><circle class="l" cx="121.88" cy="154.08" r="1.16"/><circle class="l" cx="137.3" cy="154.08" r="1.16"/><circle class="l" cx="152.73" cy="154.08" r="1.16"/><circle class="l" cx="168.15" cy="154.08" r="1.16"/><circle class="l" cx="183.57" cy="154.08" r="1.16"/><circle class="l" cx="198.99" cy="154.08" r="1.16"/><circle class="l" cx="214.41" cy="154.08" r="1.16"/><circle class="l" cx="229.84" cy="154.08" r="1.16"/><circle class="l" cx="245.26" cy="154.08" r="1.16"/><circle class="l" cx="260.68" cy="154.08" r="1.16"/><circle class="l" cx="276.1" cy="154.08" r="1.16"/><circle class="l" cx="291.52" cy="154.08" r="1.16"/><circle class="l" cx="306.94" cy="154.08" r="1.16"/><circle class="l" cx="322.37" cy="154.08" r="1.16"/><circle class="l" cx="337.79" cy="154.08" r="1.16"/><circle class="l" cx="353.21" cy="154.08" r="1.16"/><circle class="l" cx="368.63" cy="154.08" r="1.16"/><circle class="l" cx="384.05" cy="154.08" r="1.16"/><circle class="l" cx="399.47" cy="154.08" r="1.16"/><circle class="l" cx="414.9" cy="154.08" r="1.16"/><circle class="l" cx="430.32" cy="154.08" r="1.16"/><circle class="l" cx="445.74" cy="154.08" r="1.16"/><circle class="l" cx="461.16" cy="154.08" r="1.16"/><circle class="l" cx="44.77" cy="170.85" r="1.16"/><circle class="l" cx="60.2" cy="170.85" r="1.16"/><circle class="l" cx="75.62" cy="170.85" r="1.16"/><circle class="l" cx="91.04" cy="170.85" r="1.16"/><circle class="l" cx="106.46" cy="170.85" r="1.16"/><circle class="l" cx="121.88" cy="170.85" r="1.16"/><circle class="l" cx="137.3" cy="170.85" r="1.16"/><circle class="l" cx="152.73" cy="170.85" r="1.16"/><circle class="l" cx="168.15" cy="170.85" r="1.16"/><circle class="l" cx="183.57" cy="170.85" r="1.16"/><circle class="l" cx="198.99" cy="170.85" r="1.16"/><circle class="l" cx="214.41" cy="170.85" r="1.16"/><circle class="l" cx="229.84" cy="170.85" r="1.16"/><circle class="l" cx="245.26" cy="170.85" r="1.16"/><circle class="l" cx="260.68" cy="170.85" r="1.16"/><circle class="l" cx="276.1" cy="170.85" r="1.16"/><circle class="l" cx="291.52" cy="170.85" r="1.16"/><circle class="l" cx="306.94" cy="170.85" r="1.16"/><circle class="l" cx="322.37" cy="170.85" r="1.16"/><circle class="l" cx="337.79" cy="170.85" r="1.16"/><circle class="l" cx="353.21" cy="170.85" r="1.16"/><circle class="l" cx="368.63" cy="170.85" r="1.16"/><circle class="l" cx="384.05" cy="170.85" r="1.16"/><circle class="l" cx="399.47" cy="170.85" r="1.16"/><circle class="l" cx="414.9" cy="170.85" r="1.16"/><circle class="l" cx="430.32" cy="170.85" r="1.16"/><circle class="l" cx="445.74" cy="170.85" r="1.16"/><circle class="l" cx="461.16" cy="170.85" r="1.16"/><circle class="l" cx="44.77" cy="187.61" r="1.16"/><circle class="l" cx="60.2" cy="187.61" r="1.16"/><circle class="l" cx="75.62" cy="187.61" r="1.16"/><circle class="l" cx="91.04" cy="187.61" r="1.16"/><circle class="l" cx="106.46" cy="187.61" r="1.16"/><circle class="l" cx="121.88" cy="187.61" r="1.16"/><circle class="l" cx="137.3" cy="187.61" r="1.16"/><circle class="l" cx="152.73" cy="187.61" r="1.16"/><circle class="l" cx="168.15" cy="187.61" r="1.16"/><circle class="l" cx="183.57" cy="187.61" r="1.16"/><circle class="l" cx="198.99" cy="187.61" r="1.16"/><circle class="l" cx="214.41" cy="187.61" r="1.16"/><circle class="l" cx="229.84" cy="187.61" r="1.16"/><circle class="l" cx="245.26" cy="187.61" r="1.16"/><circle class="l" cx="260.68" cy="187.61" r="1.16"/><circle class="l" cx="276.1" cy="187.61" r="1.16"/><circle class="l" cx="291.52" cy="187.61" r="1.16"/><circle class="l" cx="306.94" cy="187.61" r="1.16"/><circle class="l" cx="322.37" cy="187.61" r="1.16"/><circle class="l" cx="337.79" cy="187.61" r="1.16"/><circle class="l" cx="353.21" cy="187.61" r="1.16"/><circle class="l" cx="368.63" cy="187.61" r="1.16"/><circle class="l" cx="384.05" cy="187.61" r="1.16"/><circle class="l" cx="399.47" cy="187.61" r="1.16"/><circle class="l" cx="414.9" cy="187.61" r="1.16"/><circle class="l" cx="430.32" cy="187.61" r="1.16"/><circle class="l" cx="445.74" cy="187.61" r="1.16"/><circle class="l" cx="461.16" cy="187.61" r="1.16"/><circle class="l" cx="44.77" cy="204.37" r="1.16"/><circle class="l" cx="60.2" cy="204.37" r="1.16"/><circle class="l" cx="75.62" cy="204.37" r="1.16"/><circle class="l" cx="91.04" cy="204.37" r="1.16"/><circle class="l" cx="106.46" cy="204.37" r="1.16"/><circle class="l" cx="121.88" cy="204.37" r="1.16"/><circle class="l" cx="137.3" cy="204.37" r="1.16"/><circle class="l" cx="152.73" cy="204.37" r="1.16"/><circle class="l" cx="168.15" cy="204.37" r="1.16"/><circle class="l" cx="183.57" cy="204.37" r="1.16"/><circle class="l" cx="198.99" cy="204.37" r="1.16"/><circle class="l" cx="214.41" cy="204.37" r="1.16"/><circle class="l" cx="229.84" cy="204.37" r="1.16"/><circle class="l" cx="245.26" cy="204.37" r="1.16"/><circle class="l" cx="260.68" cy="204.37" r="1.16"/><circle class="l" cx="276.1" cy="204.37" r="1.16"/><circle class="l" cx="291.52" cy="204.37" r="1.16"/><circle class="l" cx="306.94" cy="204.37" r="1.16"/><circle class="l" cx="322.37" cy="204.37" r="1.16"/><circle class="l" cx="337.79" cy="204.37" r="1.16"/><circle class="l" cx="353.21" cy="204.37" r="1.16"/><circle class="l" cx="368.63" cy="204.37" r="1.16"/><circle class="l" cx="384.05" cy="204.37" r="1.16"/><circle class="l" cx="399.47" cy="204.37" r="1.16"/><circle class="l" cx="414.9" cy="204.37" r="1.16"/><circle class="l" cx="430.32" cy="204.37" r="1.16"/><circle class="l" cx="445.74" cy="204.37" r="1.16"/><circle class="l" cx="461.16" cy="204.37" r="1.16"/><circle class="l" cx="44.77" cy="221.13" r="1.16"/><circle class="l" cx="60.2" cy="221.13" r="1.16"/><circle class="l" cx="75.62" cy="221.13" r="1.16"/><circle class="l" cx="91.04" cy="221.13" r="1.16"/><circle class="l" cx="106.46" cy="221.13" r="1.16"/><circle class="l" cx="121.88" cy="221.13" r="1.16"/><circle class="l" cx="137.3" cy="221.13" r="1.16"/><circle class="l" cx="152.73" cy="221.13" r="1.16"/><circle class="l" cx="168.15" cy="221.13" r="1.16"/><circle class="l" cx="183.57" cy="221.13" r="1.16"/><circle class="l" cx="198.99" cy="221.13" r="1.16"/><circle class="l" cx="214.41" cy="221.13" r="1.16"/><circle class="l" cx="229.84" cy="221.13" r="1.16"/><circle class="l" cx="245.26" cy="221.13" r="1.16"/><circle class="l" cx="260.68" cy="221.13" r="1.16"/><circle class="l" cx="276.1" cy="221.13" r="1.16"/><circle class="l" cx="291.52" cy="221.13" r="1.16"/><circle class="l" cx="306.94" cy="221.13" r="1.16"/><circle class="l" cx="322.37" cy="221.13" r="1.16"/><circle class="l" cx="337.79" cy="221.13" r="1.16"/><circle class="l" cx="353.21" cy="221.13" r="1.16"/><circle class="l" cx="368.63" cy="221.13" r="1.16"/><circle class="l" cx="384.05" cy="221.13" r="1.16"/><circle class="l" cx="399.47" cy="221.13" r="1.16"/><circle class="l" cx="414.9" cy="221.13" r="1.16"/><circle class="l" cx="430.32" cy="221.13" r="1.16"/><circle class="l" cx="445.74" cy="221.13" r="1.16"/><circle class="l" cx="461.16" cy="221.13" r="1.16"/><circle class="l" cx="44.77" cy="237.9" r="1.16"/><circle class="l" cx="60.2" cy="237.9" r="1.16"/><circle class="l" cx="75.62" cy="237.9" r="1.16"/><circle class="l" cx="91.04" cy="237.9" r="1.16"/><circle class="l" cx="106.46" cy="237.9" r="1.16"/><circle class="l" cx="121.88" cy="237.9" r="1.16"/><circle class="l" cx="137.3" cy="237.9" r="1.16"/><circle class="l" cx="152.73" cy="237.9" r="1.16"/><circle class="l" cx="168.15" cy="237.9" r="1.16"/><circle class="l" cx="183.57" cy="237.9" r="1.16"/><circle class="l" cx="198.99" cy="237.9" r="1.16"/><circle class="l" cx="214.41" cy="237.9" r="1.16"/><circle class="l" cx="229.84" cy="237.9" r="1.16"/><circle class="l" cx="245.26" cy="237.9" r="1.16"/><circle class="l" cx="260.68" cy="237.9" r="1.16"/><circle class="l" cx="276.1" cy="237.9" r="1.16"/><circle class="l" cx="291.52" cy="237.9" r="1.16"/><circle class="l" cx="306.94" cy="237.9" r="1.16"/><circle class="l" cx="322.37" cy="237.9" r="1.16"/><circle class="l" cx="337.79" cy="237.9" r="1.16"/><circle class="l" cx="353.21" cy="237.9" r="1.16"/><circle class="l" cx="368.63" cy="237.9" r="1.16"/><circle class="l" cx="384.05" cy="237.9" r="1.16"/><circle class="l" cx="399.47" cy="237.9" r="1.16"/><circle class="l" cx="414.9" cy="237.9" r="1.16"/><circle class="l" cx="430.32" cy="237.9" r="1.16"/><circle class="l" cx="445.74" cy="237.9" r="1.16"/><circle class="l" cx="461.16" cy="237.9" r="1.16"/><circle class="l" cx="44.77" cy="254.66" r="1.16"/><circle class="l" cx="60.2" cy="254.66" r="1.16"/><circle class="l" cx="75.62" cy="254.66" r="1.16"/><circle class="l" cx="91.04" cy="254.66" r="1.16"/><circle class="l" cx="106.46" cy="254.66" r="1.16"/><circle class="l" cx="121.88" cy="254.66" r="1.16"/><circle class="l" cx="137.3" cy="254.66" r="1.16"/><circle class="l" cx="152.73" cy="254.66" r="1.16"/><circle class="l" cx="168.15" cy="254.66" r="1.16"/><circle class="l" cx="183.57" cy="254.66" r="1.16"/><circle class="l" cx="198.99" cy="254.66" r="1.16"/><circle class="l" cx="214.41" cy="254.66" r="1.16"/><circle class="l" cx="229.84" cy="254.66" r="1.16"/><circle class="l" cx="245.26" cy="254.66" r="1.16"/><circle class="l" cx="260.68" cy="254.66" r="1.16"/><circle class="l" cx="276.1" cy="254.66" r="1.16"/><circle class="l" cx="291.52" cy="254.66" r="1.16"/><circle class="l" cx="306.94" cy="254.66" r="1.16"/><circle class="l" cx="322.37" cy="254.66" r="1.16"/><circle class="l" cx="337.79" cy="254.66" r="1.16"/><circle class="l" cx="353.21" cy="254.66" r="1.16"/><circle class="l" cx="368.63" cy="254.66" r="1.16"/><circle class="l" cx="384.05" cy="254.66" r="1.16"/><circle class="l" cx="399.47" cy="254.66" r="1.16"/><circle class="l" cx="414.9" cy="254.66" r="1.16"/><circle class="l" cx="430.32" cy="254.66" r="1.16"/><circle class="l" cx="445.74" cy="254.66" r="1.16"/><circle class="l" cx="461.16" cy="254.66" r="1.16"/><circle class="l" cx="44.77" cy="271.42" r="1.16"/><circle class="l" cx="60.2" cy="271.42" r="1.16"/><circle class="l" cx="75.62" cy="271.42" r="1.16"/><circle class="l" cx="91.04" cy="271.42" r="1.16"/><circle class="l" cx="106.46" cy="271.42" r="1.16"/><circle class="l" cx="121.88" cy="271.42" r="1.16"/><circle class="l" cx="137.3" cy="271.42" r="1.16"/><circle class="l" cx="152.73" cy="271.42" r="1.16"/><circle class="l" cx="168.15" cy="271.42" r="1.16"/><circle class="l" cx="183.57" cy="271.42" r="1.16"/><circle class="l" cx="198.99" cy="271.42" r="1.16"/><circle class="l" cx="214.41" cy="271.42" r="1.16"/><circle class="l" cx="229.84" cy="271.42" r="1.16"/><circle class="l" cx="245.26" cy="271.42" r="1.16"/><circle class="l" cx="260.68" cy="271.42" r="1.16"/><circle class="l" cx="276.1" cy="271.42" r="1.16"/><circle class="l" cx="291.52" cy="271.42" r="1.16"/><circle class="l" cx="306.94" cy="271.42" r="1.16"/><circle class="l" cx="322.37" cy="271.42" r="1.16"/><circle class="l" cx="337.79" cy="271.42" r="1.16"/><circle class="l" cx="353.21" cy="271.42" r="1.16"/><circle class="l" cx="368.63" cy="271.42" r="1.16"/><circle class="l" cx="384.05" cy="271.42" r="1.16"/><circle class="l" cx="399.47" cy="271.42" r="1.16"/><circle class="l" cx="414.9" cy="271.42" r="1.16"/><circle class="l" cx="430.32" cy="271.42" r="1.16"/><circle class="l" cx="445.74" cy="271.42" r="1.16"/><circle class="l" cx="461.16" cy="271.42" r="1.16"/><circle class="l" cx="44.77" cy="288.18" r="1.16"/><circle class="l" cx="60.2" cy="288.18" r="1.16"/><circle class="l" cx="75.62" cy="288.18" r="1.16"/><circle class="l" cx="91.04" cy="288.18" r="1.16"/><circle class="l" cx="106.46" cy="288.18" r="1.16"/><circle class="l" cx="121.88" cy="288.18" r="1.16"/><circle class="l" cx="137.3" cy="288.18" r="1.16"/><circle class="l" cx="152.73" cy="288.18" r="1.16"/><circle class="l" cx="168.15" cy="288.18" r="1.16"/><circle class="l" cx="183.57" cy="288.18" r="1.16"/><circle class="l" cx="198.99" cy="288.18" r="1.16"/><circle class="l" cx="214.41" cy="288.18" r="1.16"/><circle class="l" cx="229.84" cy="288.18" r="1.16"/><circle class="l" cx="245.26" cy="288.18" r="1.16"/><circle class="l" cx="260.68" cy="288.18" r="1.16"/><circle class="l" cx="276.1" cy="288.18" r="1.16"/><circle class="l" cx="291.52" cy="288.18" r="1.16"/><circle class="l" cx="306.94" cy="288.18" r="1.16"/><circle class="l" cx="322.37" cy="288.18" r="1.16"/><circle class="l" cx="337.79" cy="288.18" r="1.16"/><circle class="l" cx="353.21" cy="288.18" r="1.16"/><circle class="l" cx="368.63" cy="288.18" r="1.16"/><circle class="l" cx="384.05" cy="288.18" r="1.16"/><circle class="l" cx="399.47" cy="288.18" r="1.16"/><circle class="l" cx="414.9" cy="288.18" r="1.16"/><circle class="l" cx="430.32" cy="288.18" r="1.16"/><circle class="l" cx="445.74" cy="288.18" r="1.16"/><circle class="l" cx="461.16" cy="288.18" r="1.16"/><circle class="l" cx="44.77" cy="304.95" r="1.16"/><circle class="l" cx="60.2" cy="304.95" r="1.16"/><circle class="l" cx="75.62" cy="304.95" r="1.16"/><circle class="l" cx="91.04" cy="304.95" r="1.16"/><circle class="l" cx="106.46" cy="304.95" r="1.16"/><circle class="l" cx="121.88" cy="304.95" r="1.16"/><circle class="l" cx="137.3" cy="304.95" r="1.16"/><circle class="l" cx="152.73" cy="304.95" r="1.16"/><circle class="l" cx="168.15" cy="304.95" r="1.16"/><circle class="l" cx="183.57" cy="304.95" r="1.16"/><circle class="l" cx="198.99" cy="304.95" r="1.16"/><circle class="l" cx="214.41" cy="304.95" r="1.16"/><circle class="l" cx="229.84" cy="304.95" r="1.16"/><circle class="l" cx="245.26" cy="304.95" r="1.16"/><circle class="l" cx="260.68" cy="304.95" r="1.16"/><circle class="l" cx="276.1" cy="304.95" r="1.16"/><circle class="l" cx="291.52" cy="304.95" r="1.16"/><circle class="l" cx="306.94" cy="304.95" r="1.16"/><circle class="l" cx="322.37" cy="304.95" r="1.16"/><circle class="l" cx="337.79" cy="304.95" r="1.16"/><circle class="l" cx="353.21" cy="304.95" r="1.16"/><circle class="l" cx="368.63" cy="304.95" r="1.16"/><circle class="l" cx="384.05" cy="304.95" r="1.16"/><circle class="l" cx="399.47" cy="304.95" r="1.16"/><circle class="l" cx="414.9" cy="304.95" r="1.16"/><circle class="l" cx="430.32" cy="304.95" r="1.16"/><circle class="l" cx="445.74" cy="304.95" r="1.16"/><circle class="l" cx="461.16" cy="304.95" r="1.16"/><circle class="l" cx="44.77" cy="321.71" r="1.16"/><circle class="l" cx="60.2" cy="321.71" r="1.16"/><circle class="l" cx="75.62" cy="321.71" r="1.16"/><circle class="l" cx="91.04" cy="321.71" r="1.16"/><circle class="l" cx="106.46" cy="321.71" r="1.16"/><circle class="l" cx="121.88" cy="321.71" r="1.16"/><circle class="l" cx="137.3" cy="321.71" r="1.16"/><circle class="l" cx="152.73" cy="321.71" r="1.16"/><circle class="l" cx="168.15" cy="321.71" r="1.16"/><circle class="l" cx="183.57" cy="321.71" r="1.16"/><circle class="l" cx="198.99" cy="321.71" r="1.16"/><circle class="l" cx="214.41" cy="321.71" r="1.16"/><circle class="l" cx="229.84" cy="321.71" r="1.16"/><circle class="l" cx="245.26" cy="321.71" r="1.16"/><circle class="l" cx="260.68" cy="321.71" r="1.16"/><circle class="l" cx="276.1" cy="321.71" r="1.16"/><circle class="l" cx="291.52" cy="321.71" r="1.16"/><circle class="l" cx="306.94" cy="321.71" r="1.16"/><circle class="l" cx="322.37" cy="321.71" r="1.16"/><circle class="l" cx="337.79" cy="321.71" r="1.16"/><circle class="l" cx="353.21" cy="321.71" r="1.16"/><circle class="l" cx="368.63" cy="321.71" r="1.16"/><circle class="l" cx="384.05" cy="321.71" r="1.16"/><circle class="l" cx="399.47" cy="321.71" r="1.16"/><circle class="l" cx="414.9" cy="321.71" r="1.16"/><circle class="l" cx="430.32" cy="321.71" r="1.16"/><circle class="l" cx="445.74" cy="321.71" r="1.16"/><circle class="l" cx="461.16" cy="321.71" r="1.16"/><circle class="l" cx="44.77" cy="338.47" r="1.16"/><circle class="l" cx="60.2" cy="338.47" r="1.16"/><circle class="l" cx="75.62" cy="338.47" r="1.16"/><circle class="l" cx="91.04" cy="338.47" r="1.16"/><circle class="l" cx="106.46" cy="338.47" r="1.16"/><circle class="l" cx="121.88" cy="338.47" r="1.16"/><circle class="l" cx="137.3" cy="338.47" r="1.16"/><circle class="l" cx="152.73" cy="338.47" r="1.16"/><circle class="l" cx="168.15" cy="338.47" r="1.16"/><circle class="l" cx="183.57" cy="338.47" r="1.16"/><circle class="l" cx="198.99" cy="338.47" r="1.16"/><circle class="l" cx="214.41" cy="338.47" r="1.16"/><circle class="l" cx="229.84" cy="338.47" r="1.16"/><circle class="l" cx="245.26" cy="338.47" r="1.16"/><circle class="l" cx="260.68" cy="338.47" r="1.16"/><circle class="l" cx="276.1" cy="338.47" r="1.16"/><circle class="l" cx="291.52" cy="338.47" r="1.16"/><circle class="l" cx="306.94" cy="338.47" r="1.16"/><circle class="l" cx="322.37" cy="338.47" r="1.16"/><circle class="l" cx="337.79" cy="338.47" r="1.16"/><circle class="l" cx="353.21" cy="338.47" r="1.16"/><circle class="l" cx="368.63" cy="338.47" r="1.16"/><circle class="l" cx="384.05" cy="338.47" r="1.16"/><circle class="l" cx="399.47" cy="338.47" r="1.16"/><circle class="l" cx="414.9" cy="338.47" r="1.16"/><circle class="l" cx="430.32" cy="338.47" r="1.16"/><circle class="l" cx="445.74" cy="338.47" r="1.16"/><circle class="l" cx="461.16" cy="338.47" r="1.16"/><circle class="l" cx="44.77" cy="355.24" r="1.16"/><circle class="l" cx="60.2" cy="355.24" r="1.16"/><circle class="l" cx="75.62" cy="355.24" r="1.16"/><circle class="l" cx="91.04" cy="355.24" r="1.16"/><circle class="l" cx="106.46" cy="355.24" r="1.16"/><circle class="l" cx="121.88" cy="355.24" r="1.16"/><circle class="l" cx="137.3" cy="355.24" r="1.16"/><circle class="l" cx="152.73" cy="355.24" r="1.16"/><circle class="l" cx="168.15" cy="355.24" r="1.16"/><circle class="l" cx="183.57" cy="355.24" r="1.16"/><circle class="l" cx="198.99" cy="355.24" r="1.16"/><circle class="l" cx="214.41" cy="355.24" r="1.16"/><circle class="l" cx="229.84" cy="355.24" r="1.16"/><circle class="l" cx="245.26" cy="355.24" r="1.16"/><circle class="l" cx="260.68" cy="355.24" r="1.16"/><circle class="l" cx="276.1" cy="355.24" r="1.16"/><circle class="l" cx="291.52" cy="355.24" r="1.16"/><circle class="l" cx="306.94" cy="355.24" r="1.16"/><circle class="l" cx="322.37" cy="355.24" r="1.16"/><circle class="l" cx="337.79" cy="355.24" r="1.16"/><circle class="l" cx="353.21" cy="355.24" r="1.16"/><circle class="l" cx="368.63" cy="355.24" r="1.16"/><circle class="l" cx="384.05" cy="355.24" r="1.16"/><circle class="l" cx="399.47" cy="355.24" r="1.16"/><circle class="l" cx="414.9" cy="355.24" r="1.16"/><circle class="l" cx="430.32" cy="355.24" r="1.16"/><circle class="l" cx="445.74" cy="355.24" r="1.16"/><circle class="l" cx="461.16" cy="355.24" r="1.16"/><circle class="l" cx="44.77" cy="372" r="1.16"/><circle class="l" cx="60.2" cy="372" r="1.16"/><circle class="l" cx="75.62" cy="372" r="1.16"/><circle class="l" cx="91.04" cy="372" r="1.16"/><circle class="l" cx="106.46" cy="372" r="1.16"/><circle class="l" cx="121.88" cy="372" r="1.16"/><circle class="l" cx="137.3" cy="372" r="1.16"/><circle class="l" cx="152.73" cy="372" r="1.16"/><circle class="l" cx="168.15" cy="372" r="1.16"/><circle class="l" cx="183.57" cy="372" r="1.16"/><circle class="l" cx="198.99" cy="372" r="1.16"/><circle class="l" cx="214.41" cy="372" r="1.16"/><circle class="l" cx="229.84" cy="372" r="1.16"/><circle class="l" cx="245.26" cy="372" r="1.16"/><circle class="l" cx="260.68" cy="372" r="1.16"/><circle class="l" cx="276.1" cy="372" r="1.16"/><circle class="l" cx="291.52" cy="372" r="1.16"/><circle class="l" cx="306.94" cy="372" r="1.16"/><circle class="l" cx="322.37" cy="372" r="1.16"/><circle class="l" cx="337.79" cy="372" r="1.16"/><circle class="l" cx="353.21" cy="372" r="1.16"/><circle class="l" cx="368.63" cy="372" r="1.16"/><circle class="l" cx="384.05" cy="372" r="1.16"/><circle class="l" cx="399.47" cy="372" r="1.16"/><circle class="l" cx="414.9" cy="372" r="1.16"/><circle class="l" cx="430.32" cy="372" r="1.16"/><circle class="l" cx="445.74" cy="372" r="1.16"/><circle class="l" cx="461.16" cy="372" r="1.16"/><circle class="l" cx="44.77" cy="388.76" r="1.16"/><circle class="l" cx="60.2" cy="388.76" r="1.16"/><circle class="l" cx="75.62" cy="388.76" r="1.16"/><circle class="l" cx="91.04" cy="388.76" r="1.16"/><circle class="l" cx="106.46" cy="388.76" r="1.16"/><circle class="l" cx="121.88" cy="388.76" r="1.16"/><circle class="l" cx="137.3" cy="388.76" r="1.16"/><circle class="l" cx="152.73" cy="388.76" r="1.16"/><circle class="l" cx="168.15" cy="388.76" r="1.16"/><circle class="l" cx="183.57" cy="388.76" r="1.16"/><circle class="l" cx="198.99" cy="388.76" r="1.16"/><circle class="l" cx="214.41" cy="388.76" r="1.16"/><circle class="l" cx="229.84" cy="388.76" r="1.16"/><circle class="l" cx="245.26" cy="388.76" r="1.16"/><circle class="l" cx="260.68" cy="388.76" r="1.16"/><circle class="l" cx="276.1" cy="388.76" r="1.16"/><circle class="l" cx="291.52" cy="388.76" r="1.16"/><circle class="l" cx="306.94" cy="388.76" r="1.16"/><circle class="l" cx="322.37" cy="388.76" r="1.16"/><circle class="l" cx="337.79" cy="388.76" r="1.16"/><circle class="l" cx="353.21" cy="388.76" r="1.16"/><circle class="l" cx="368.63" cy="388.76" r="1.16"/><circle class="l" cx="384.05" cy="388.76" r="1.16"/><circle class="l" cx="399.47" cy="388.76" r="1.16"/><circle class="l" cx="414.9" cy="388.76" r="1.16"/><circle class="l" cx="430.32" cy="388.76" r="1.16"/><circle class="l" cx="445.74" cy="388.76" r="1.16"/><circle class="l" cx="461.16" cy="388.76" r="1.16"/><circle class="l" cx="44.77" cy="405.52" r="1.16"/><circle class="l" cx="60.2" cy="405.52" r="1.16"/><circle class="l" cx="75.62" cy="405.52" r="1.16"/><circle class="l" cx="91.04" cy="405.52" r="1.16"/><circle class="l" cx="106.46" cy="405.52" r="1.16"/><circle class="l" cx="121.88" cy="405.52" r="1.16"/><circle class="l" cx="137.3" cy="405.52" r="1.16"/><circle class="l" cx="152.73" cy="405.52" r="1.16"/><circle class="l" cx="168.15" cy="405.52" r="1.16"/><circle class="l" cx="183.57" cy="405.52" r="1.16"/><circle class="l" cx="198.99" cy="405.52" r="1.16"/><circle class="l" cx="214.41" cy="405.52" r="1.16"/><circle class="l" cx="229.84" cy="405.52" r="1.16"/><circle class="l" cx="245.26" cy="405.52" r="1.16"/><circle class="l" cx="260.68" cy="405.52" r="1.16"/><circle class="l" cx="276.1" cy="405.52" r="1.16"/><circle class="l" cx="291.52" cy="405.52" r="1.16"/><circle class="l" cx="306.94" cy="405.52" r="1.16"/><circle class="l" cx="322.37" cy="405.52" r="1.16"/><circle class="l" cx="337.79" cy="405.52" r="1.16"/><circle class="l" cx="353.21" cy="405.52" r="1.16"/><circle class="l" cx="368.63" cy="405.52" r="1.16"/><circle class="l" cx="384.05" cy="405.52" r="1.16"/><circle class="l" cx="399.47" cy="405.52" r="1.16"/><circle class="l" cx="414.9" cy="405.52" r="1.16"/><circle class="l" cx="430.32" cy="405.52" r="1.16"/><circle class="l" cx="445.74" cy="405.52" r="1.16"/><circle class="l" cx="461.16" cy="405.52" r="1.16"/><circle class="l" cx="44.77" cy="422.29" r="1.16"/><circle class="l" cx="60.2" cy="422.29" r="1.16"/><circle class="l" cx="75.62" cy="422.29" r="1.16"/><circle class="l" cx="91.04" cy="422.29" r="1.16"/><circle class="l" cx="106.46" cy="422.29" r="1.16"/><circle class="l" cx="121.88" cy="422.29" r="1.16"/><circle class="l" cx="137.3" cy="422.29" r="1.16"/><circle class="l" cx="152.73" cy="422.29" r="1.16"/><circle class="l" cx="168.15" cy="422.29" r="1.16"/><circle class="l" cx="183.57" cy="422.29" r="1.16"/><circle class="l" cx="198.99" cy="422.29" r="1.16"/><circle class="l" cx="214.41" cy="422.29" r="1.16"/><circle class="l" cx="229.84" cy="422.29" r="1.16"/><circle class="l" cx="245.26" cy="422.29" r="1.16"/><circle class="l" cx="260.68" cy="422.29" r="1.16"/><circle class="l" cx="276.1" cy="422.29" r="1.16"/><circle class="l" cx="291.52" cy="422.29" r="1.16"/><circle class="l" cx="306.94" cy="422.29" r="1.16"/><circle class="l" cx="322.37" cy="422.29" r="1.16"/><circle class="l" cx="337.79" cy="422.29" r="1.16"/><circle class="l" cx="353.21" cy="422.29" r="1.16"/><circle class="l" cx="368.63" cy="422.29" r="1.16"/><circle class="l" cx="384.05" cy="422.29" r="1.16"/><circle class="l" cx="399.47" cy="422.29" r="1.16"/><circle class="l" cx="414.9" cy="422.29" r="1.16"/><circle class="l" cx="430.32" cy="422.29" r="1.16"/><circle class="l" cx="445.74" cy="422.29" r="1.16"/><circle class="l" cx="461.16" cy="422.29" r="1.16"/><circle class="l" cx="44.77" cy="439.05" r="1.16"/><circle class="l" cx="60.2" cy="439.05" r="1.16"/><circle class="l" cx="75.62" cy="439.05" r="1.16"/><circle class="l" cx="91.04" cy="439.05" r="1.16"/><circle class="l" cx="106.46" cy="439.05" r="1.16"/><circle class="l" cx="121.88" cy="439.05" r="1.16"/><circle class="l" cx="137.3" cy="439.05" r="1.16"/><circle class="l" cx="152.73" cy="439.05" r="1.16"/><circle class="l" cx="168.15" cy="439.05" r="1.16"/><circle class="l" cx="183.57" cy="439.05" r="1.16"/><circle class="l" cx="198.99" cy="439.05" r="1.16"/><circle class="l" cx="214.41" cy="439.05" r="1.16"/><circle class="l" cx="229.84" cy="439.05" r="1.16"/><circle class="l" cx="245.26" cy="439.05" r="1.16"/><circle class="l" cx="260.68" cy="439.05" r="1.16"/><circle class="l" cx="276.1" cy="439.05" r="1.16"/><circle class="l" cx="291.52" cy="439.05" r="1.16"/><circle class="l" cx="306.94" cy="439.05" r="1.16"/><circle class="l" cx="322.37" cy="439.05" r="1.16"/><circle class="l" cx="337.79" cy="439.05" r="1.16"/><circle class="l" cx="353.21" cy="439.05" r="1.16"/><circle class="l" cx="368.63" cy="439.05" r="1.16"/><circle class="l" cx="384.05" cy="439.05" r="1.16"/><circle class="l" cx="399.47" cy="439.05" r="1.16"/><circle class="l" cx="414.9" cy="439.05" r="1.16"/><circle class="l" cx="430.32" cy="439.05" r="1.16"/><circle class="l" cx="445.74" cy="439.05" r="1.16"/><circle class="l" cx="461.16" cy="439.05" r="1.16"/><circle class="l" cx="44.77" cy="455.81" r="1.16"/><circle class="l" cx="60.2" cy="455.81" r="1.16"/><circle class="l" cx="75.62" cy="455.81" r="1.16"/><circle class="l" cx="91.04" cy="455.81" r="1.16"/><circle class="l" cx="106.46" cy="455.81" r="1.16"/><circle class="l" cx="121.88" cy="455.81" r="1.16"/><circle class="l" cx="137.3" cy="455.81" r="1.16"/><circle class="l" cx="152.73" cy="455.81" r="1.16"/><circle class="l" cx="168.15" cy="455.81" r="1.16"/><circle class="l" cx="183.57" cy="455.81" r="1.16"/><circle class="l" cx="198.99" cy="455.81" r="1.16"/><circle class="l" cx="214.41" cy="455.81" r="1.16"/><circle class="l" cx="229.84" cy="455.81" r="1.16"/><circle class="l" cx="245.26" cy="455.81" r="1.16"/><circle class="l" cx="260.68" cy="455.81" r="1.16"/><circle class="l" cx="276.1" cy="455.81" r="1.16"/><circle class="l" cx="291.52" cy="455.81" r="1.16"/><circle class="l" cx="306.94" cy="455.81" r="1.16"/><circle class="l" cx="322.37" cy="455.81" r="1.16"/><circle class="l" cx="337.79" cy="455.81" r="1.16"/><circle class="l" cx="353.21" cy="455.81" r="1.16"/><circle class="l" cx="368.63" cy="455.81" r="1.16"/><circle class="l" cx="384.05" cy="455.81" r="1.16"/><circle class="l" cx="399.47" cy="455.81" r="1.16"/><circle class="l" cx="414.9" cy="455.81" r="1.16"/><circle class="l" cx="430.32" cy="455.81" r="1.16"/><circle class="l" cx="445.74" cy="455.81" r="1.16"/><circle class="l" cx="461.16" cy="455.81" r="1.16"/><circle class="l" cx="44.77" cy="472.57" r="1.16"/><circle class="l" cx="60.2" cy="472.57" r="1.16"/><circle class="l" cx="75.62" cy="472.57" r="1.16"/><circle class="l" cx="91.04" cy="472.57" r="1.16"/><circle class="l" cx="106.46" cy="472.57" r="1.16"/><circle class="l" cx="121.88" cy="472.57" r="1.16"/><circle class="l" cx="137.3" cy="472.57" r="1.16"/><circle class="l" cx="152.73" cy="472.57" r="1.16"/><circle class="l" cx="168.15" cy="472.57" r="1.16"/><circle class="l" cx="183.57" cy="472.57" r="1.16"/><circle class="l" cx="198.99" cy="472.57" r="1.16"/><circle class="l" cx="214.41" cy="472.57" r="1.16"/><circle class="l" cx="229.84" cy="472.57" r="1.16"/><circle class="l" cx="245.26" cy="472.57" r="1.16"/><circle class="l" cx="260.68" cy="472.57" r="1.16"/><circle class="l" cx="276.1" cy="472.57" r="1.16"/><circle class="l" cx="291.52" cy="472.57" r="1.16"/><circle class="l" cx="306.94" cy="472.57" r="1.16"/><circle class="l" cx="322.37" cy="472.57" r="1.16"/><circle class="l" cx="337.79" cy="472.57" r="1.16"/><circle class="l" cx="353.21" cy="472.57" r="1.16"/><circle class="l" cx="368.63" cy="472.57" r="1.16"/><circle class="l" cx="384.05" cy="472.57" r="1.16"/><circle class="l" cx="399.47" cy="472.57" r="1.16"/><circle class="l" cx="414.9" cy="472.57" r="1.16"/><circle class="l" cx="430.32" cy="472.57" r="1.16"/><circle class="l" cx="445.74" cy="472.57" r="1.16"/><circle class="l" cx="461.16" cy="472.57" r="1.16"/></g></g><path class="q" d="M200.15,209.65l-109.46,62.98,218.74,126.29,109.46-62.98-218.74-126.29Z"/><g><polygon class="r" points="157.4 210.69 157.4 272.63 277.25 341.62 328.77 312.99 328.77 300.12 288.23 225.7 208.92 181.01 157.4 210.69"/><line class="m" x1="182.69" y1="214.03" x2="242.43" y2="247.24"/><line class="m" x1="213.22" y1="196.16" x2="272.96" y2="229.36"/><polygon class="p" points="253.65 274.35 271.53 304.65 317.34 280.47 300.69 249.91 253.65 274.35"/><polygon class="p" points="233.09 273.93 233.09 290.45 254.79 304.28 240.24 278.58 233.09 273.93"/><line class="m" x1="327.74" y1="298.18" x2="277.41" y2="325.13"/><line class="m" x1="311.92" y1="310.67" x2="292.32" y2="321.17"/><ellipse class="r" cx="257.57" cy="331.04" rx="7.67" ry="11.05" transform="translate(-122.01 152.57) rotate(-26.93)"/><ellipse class="r" cx="181.74" cy="285.46" rx="7.67" ry="11.05" transform="translate(-109.58 113.28) rotate(-26.93)"/></g><path class="q" d="M90.69,138.91c-11.08,4.93-17.24,18.54-17.24,28.32,0,7.93,3.28,11.99,3.28,11.99l13.96,23.21,13.14-33.97s4.1-9.85,4.1-18.88c0-8.21-6.16-15.6-17.24-10.67Zm2.7,30.53c-4.93,3.21-9.94,1.46-11.17-3.93-1.24-5.38,1.76-12.36,6.7-15.57,4.93-3.21,9.94-1.46,11.17,3.93,1.24,5.38-1.76,12.35-6.7,15.57Z"/><path class="q" d="M451.89,352.34c-11.08,4.93-17.24,18.54-17.24,28.32,0,7.93,3.28,11.99,3.28,11.99l13.96,23.21,13.14-33.97s4.1-9.85,4.1-18.88c0-8.21-6.16-15.6-17.24-10.67Zm2.7,30.53c-4.93,3.21-9.94,1.46-11.17-3.93-1.24-5.38,1.76-12.36,6.7-15.57,4.93-3.21,9.94-1.46,11.17,3.93,1.24,5.38-1.76,12.35-6.7,15.57Z"/></g></g><g id="e"/><g id="f"/><g id="g"/><g id="h"/><g id="i"/><g id="j"/></svg>