<?xml version="1.0" encoding="UTF-8"?><svg xmlns="http://www.w3.org/2000/svg" xmlns:xlink="http://www.w3.org/1999/xlink" viewBox="0 0 510.72 480"><defs><style>.l,.m,.n{fill:none;}.o{fill:#005d84;}.p{clip-path:url(#c);}.q{clip-path:url(#e);}.r{clip-path:url(#d);}.s,.t{fill:#002a3a;}.s,.t,.m,.n{stroke-linecap:round;stroke-linejoin:round;stroke-width:6px;}.s,.m{stroke:#002a3a;}.t,.n{stroke:#65a5bf;}</style><clipPath id="c"><path class="l" d="M252.04,351.65h0Zm-84.55-184.75l21.77-2,27.63,30.78,12.27,32.71,112.81-65.14-11.21-32.26-27.29-30.33-23.11,1.94-112.87,64.29Z"/></clipPath><clipPath id="d"><path class="l" d="M-27.45-56.91h0Zm-218.76-126.29h0Zm0,0L-27.46-56.91l218.74-126.29L-27.47-309.49l-218.74,126.29Z"/></clipPath><clipPath id="e"><path class="l" d="M565.1-56.91h0Zm-218.76-126.29h0Zm0,0l218.74,126.29,218.74-126.29-218.74-126.29-218.74,126.29Z"/></clipPath></defs><g id="a"/><g id="b"><g><g><path class="m" d="M265.72,430.8h0ZM46.95,304.51h0Zm0,0l218.74,126.29m218.74-126.29l-218.74-126.29"/><path class="s" d="M265.72,452.05h0ZM46.95,325.76h0Zm0,0l218.74,126.29v-21.25L46.96,304.5v21.25Z"/><path class="m" d="M265.73,452.05h0Zm0-21.26v21.25l218.74-126.29v-21.25"/></g><g><path class="m" d="M265.72,430.79c6.95-4.01,3.79-13.5,11.08-17.94,7.29-4.44,10.27,5.61,16.26,2.15"/><path class="m" d="M293.06,414.97c6.95-4.01,3.79-13.5,11.08-17.94,7.29-4.44,10.27,5.61,16.26,2.15"/><path class="m" d="M320.4,399.14c6.95-4.01,3.79-13.5,11.08-17.94,7.29-4.44,10.27,5.61,16.26,2.15"/><path class="m" d="M347.74,383.31c6.95-4.01,3.79-13.5,11.08-17.94,7.29-4.44,10.27,5.61,16.26,2.15"/><path class="m" d="M375.08,367.48c6.95-4.01,3.79-13.5,11.08-17.94s10.27,5.61,16.26,2.15"/><path class="m" d="M402.42,351.65c6.95-4.01,3.79-13.5,11.08-17.94,7.29-4.44,10.27,5.61,16.26,2.15"/><path class="m" d="M429.76,335.82c6.95-4.01,3.79-13.5,11.08-17.94,7.29-4.44,10.27,5.61,16.26,2.15"/><path class="m" d="M457.11,319.99c6.95-4.01,3.79-13.5,11.08-17.94,7.29-4.44,10.27,5.61,16.26,2.15"/></g><g><path class="m" d="M46.97,304.51c6.95-4.01,3.79-13.5,11.08-17.94,7.29-4.44,10.27,5.61,16.26,2.15"/><path class="m" d="M74.31,288.68c6.95-4.01,3.79-13.5,11.08-17.94,7.29-4.44,10.27,5.61,16.26,2.15"/><path class="m" d="M101.65,272.85c6.95-4.01,3.79-13.5,11.08-17.94,7.29-4.44,10.27,5.61,16.26,2.15"/><path class="m" d="M128.99,257.02c6.95-4.01,3.79-13.5,11.08-17.94,7.29-4.44,10.27,5.61,16.26,2.15"/><path class="m" d="M156.33,241.19c6.95-4.01,3.79-13.5,11.08-17.94,7.29-4.44,10.27,5.61,16.26,2.15"/><path class="m" d="M183.67,225.36c6.95-4.01,3.79-13.5,11.08-17.94,7.29-4.44,10.27,5.61,16.26,2.15"/><path class="m" d="M211.01,209.54c6.95-4.01,3.79-13.5,11.08-17.94,7.29-4.44,10.27,5.61,16.26,2.15"/><path class="m" d="M238.35,193.71c6.95-4.01,3.79-13.5,11.08-17.94,7.29-4.44,10.27,5.61,16.26,2.15"/></g><line class="m" x1="446.4" y1="316.91" x2="227.65" y2="190.61"/><line class="m" x1="419.43" y1="332.73" x2="200.69" y2="206.44"/><line class="m" x1="392.46" y1="348.56" x2="173.72" y2="222.27"/><line class="m" x1="365.5" y1="365.33" x2="146.75" y2="239.04"/><line class="m" x1="338.53" y1="381.17" x2="119.79" y2="254.88"/><line class="m" x1="311.56" y1="396.96" x2="92.82" y2="270.67"/><line class="m" x1="284.6" y1="412.91" x2="65.85" y2="286.62"/><g><line class="m" x1="402.48" y1="217.18" x2="405.07" y2="323.72"/><line class="m" x1="374.02" y1="301.95" x2="391.87" y2="216.6"/><line class="m" x1="411.47" y1="213.93" x2="430.83" y2="295.67"/><ellipse class="m" cx="389.81" cy="187.68" rx="21.5" ry="33.11" transform="translate(-36.33 262.37) rotate(-35.65)"/><line class="m" x1="387.35" y1="189.88" x2="451.95" y2="152.58"/><line class="m" x1="389.08" y1="160.16" x2="389.08" y2="213.93"/><line class="m" x1="365.21" y1="176.79" x2="412.95" y2="204.35"/></g><g><polygon class="t" points="227.65 285.81 166.49 167.29 280.35 102.61 303.12 100.22 330.75 131 341.52 161.87 341.52 221.13 227.65 285.81"/><path class="o" d="M252.04,351.65h0Zm-84.55-184.75l21.77-2,27.63,30.78,12.27,32.71,112.81-65.14-11.21-32.26-27.29-30.33-23.11,1.94-112.87,64.29Z"/><g class="p"><g><circle class="m" cx="167.83" cy="104.08" r="1.16"/><circle class="m" cx="183.25" cy="104.08" r="1.16"/><circle class="m" cx="198.67" cy="104.08" r="1.16"/><circle class="m" cx="214.09" cy="104.08" r="1.16"/><circle class="m" cx="229.51" cy="104.08" r="1.16"/><circle class="m" cx="244.94" cy="104.08" r="1.16"/><circle class="m" cx="260.36" cy="104.08" r="1.16"/><circle class="m" cx="275.78" cy="104.08" r="1.16"/><circle class="m" cx="291.2" cy="104.08" r="1.16"/><circle class="m" cx="306.62" cy="104.08" r="1.16"/><circle class="m" cx="322.05" cy="104.08" r="1.16"/><circle class="m" cx="337.47" cy="104.08" r="1.16"/><circle class="m" cx="167.83" cy="120.85" r="1.16"/><circle class="m" cx="183.25" cy="120.85" r="1.16"/><circle class="m" cx="198.67" cy="120.85" r="1.16"/><circle class="m" cx="214.09" cy="120.85" r="1.16"/><circle class="m" cx="229.51" cy="120.85" r="1.16"/><circle class="m" cx="244.94" cy="120.85" r="1.16"/><circle class="m" cx="260.36" cy="120.85" r="1.16"/><circle class="m" cx="275.78" cy="120.85" r="1.16"/><circle class="m" cx="291.2" cy="120.85" r="1.16"/><circle class="m" cx="306.62" cy="120.85" r="1.16"/><circle class="m" cx="322.05" cy="120.85" r="1.16"/><circle class="m" cx="337.47" cy="120.85" r="1.16"/><circle class="m" cx="167.83" cy="137.61" r="1.16"/><circle class="m" cx="183.25" cy="137.61" r="1.16"/><circle class="m" cx="198.67" cy="137.61" r="1.16"/><circle class="m" cx="214.09" cy="137.61" r="1.16"/><circle class="m" cx="229.51" cy="137.61" r="1.16"/><circle class="m" cx="244.94" cy="137.61" r="1.16"/><circle class="m" cx="260.36" cy="137.61" r="1.16"/><circle class="m" cx="275.78" cy="137.61" r="1.16"/><circle class="m" cx="291.2" cy="137.61" r="1.16"/><circle class="m" cx="306.62" cy="137.61" r="1.16"/><circle class="m" cx="322.05" cy="137.61" r="1.16"/><circle class="m" cx="337.47" cy="137.61" r="1.16"/><circle class="m" cx="167.83" cy="154.37" r="1.16"/><circle class="m" cx="183.25" cy="154.37" r="1.16"/><circle class="m" cx="198.67" cy="154.37" r="1.16"/><circle class="m" cx="214.09" cy="154.37" r="1.16"/><circle class="m" cx="229.51" cy="154.37" r="1.16"/><circle class="m" cx="244.94" cy="154.37" r="1.16"/><circle class="m" cx="260.36" cy="154.37" r="1.16"/><circle class="m" cx="275.78" cy="154.37" r="1.16"/><circle class="m" cx="291.2" cy="154.37" r="1.16"/><circle class="m" cx="306.62" cy="154.37" r="1.16"/><circle class="m" cx="322.05" cy="154.37" r="1.16"/><circle class="m" cx="337.47" cy="154.37" r="1.16"/><circle class="m" cx="167.83" cy="171.13" r="1.16"/><circle class="m" cx="183.25" cy="171.13" r="1.16"/><circle class="m" cx="198.67" cy="171.13" r="1.16"/><circle class="m" cx="214.09" cy="171.13" r="1.16"/><circle class="m" cx="229.51" cy="171.13" r="1.16"/><circle class="m" cx="244.94" cy="171.13" r="1.16"/><circle class="m" cx="260.36" cy="171.13" r="1.16"/><circle class="m" cx="275.78" cy="171.13" r="1.16"/><circle class="m" cx="291.2" cy="171.13" r="1.16"/><circle class="m" cx="306.62" cy="171.13" r="1.16"/><circle class="m" cx="322.05" cy="171.13" r="1.16"/><circle class="m" cx="337.47" cy="171.13" r="1.16"/><circle class="m" cx="167.83" cy="187.9" r="1.16"/><circle class="m" cx="183.25" cy="187.9" r="1.16"/><circle class="m" cx="198.67" cy="187.9" r="1.16"/><circle class="m" cx="214.09" cy="187.9" r="1.16"/><circle class="m" cx="229.51" cy="187.9" r="1.16"/><circle class="m" cx="244.94" cy="187.9" r="1.16"/><circle class="m" cx="260.36" cy="187.9" r="1.16"/><circle class="m" cx="275.78" cy="187.9" r="1.16"/><circle class="m" cx="291.2" cy="187.9" r="1.16"/><circle class="m" cx="306.62" cy="187.9" r="1.16"/><circle class="m" cx="322.05" cy="187.9" r="1.16"/><circle class="m" cx="337.47" cy="187.9" r="1.16"/><circle class="m" cx="167.83" cy="204.66" r="1.16"/><circle class="m" cx="183.25" cy="204.66" r="1.16"/><circle class="m" cx="198.67" cy="204.66" r="1.16"/><circle class="m" cx="214.09" cy="204.66" r="1.16"/><circle class="m" cx="229.51" cy="204.66" r="1.16"/><circle class="m" cx="244.94" cy="204.66" r="1.16"/><circle class="m" cx="260.36" cy="204.66" r="1.16"/><circle class="m" cx="275.78" cy="204.66" r="1.16"/><circle class="m" cx="291.2" cy="204.66" r="1.16"/><circle class="m" cx="306.62" cy="204.66" r="1.16"/><circle class="m" cx="322.05" cy="204.66" r="1.16"/><circle class="m" cx="337.47" cy="204.66" r="1.16"/><circle class="m" cx="167.83" cy="221.42" r="1.16"/><circle class="m" cx="183.25" cy="221.42" r="1.16"/><circle class="m" cx="198.67" cy="221.42" r="1.16"/><circle class="m" cx="214.09" cy="221.42" r="1.16"/><circle class="m" cx="229.51" cy="221.42" r="1.16"/><circle class="m" cx="244.94" cy="221.42" r="1.16"/><circle class="m" cx="260.36" cy="221.42" r="1.16"/><circle class="m" cx="275.78" cy="221.42" r="1.16"/><circle class="m" cx="291.2" cy="221.42" r="1.16"/><circle class="m" cx="306.62" cy="221.42" r="1.16"/><circle class="m" cx="322.05" cy="221.42" r="1.16"/><circle class="m" cx="337.47" cy="221.42" r="1.16"/></g></g><line class="n" x1="227.65" y1="229.26" x2="341.52" y2="163.52"/><line class="n" x1="217.43" y1="197.25" x2="330.75" y2="131.83"/><polyline class="n" points="303.12 100.22 330.75 131 341.52 161.87 341.52 221.13"/><polyline class="n" points="167.49 167 280.35 102.61 303.47 100.67 191.28 165.44"/><polygon class="t" points="150.86 240.91 150.86 183.6 166.49 167.29 189.25 164.9 216.89 195.68 227.65 226.55 227.65 285.81 150.86 240.91"/><polygon class="n" points="170 251.3 170 212.84 205.84 232.15 205.84 271.92 170 251.3"/><polygon class="n" points="181.36 201.06 181.36 186.97 194.48 194.04 194.48 208.61 181.36 201.06"/><line class="n" x1="170" y1="251.3" x2="205.84" y2="232.15"/><line class="n" x1="170" y1="212.84" x2="205.84" y2="271.92"/></g><g><line class="t" x1="144.86" y1="167.19" x2="47.44" y2="167.19"/><line class="t" x1="96.15" y1="195.31" x2="96.15" y2="139.07"/><line class="t" x1="47.44" y1="167.19" x2="47.44" y2="149.04"/><line class="t" x1="144.61" y1="167.19" x2="144.61" y2="149.04"/><line class="t" x1="96.15" y1="138.45" x2="96.15" y2="120.3"/><path class="t" d="M77.29,189.32c-5.16,0-10.18-2.68-12.94-7.47-4.12-7.14-1.68-16.27,5.46-20.39l24.94-14.4c7.14-4.12,16.27-1.67,20.39,5.46,4.12,7.14,1.68,16.27-5.46,20.39l-24.94,14.4c-2.35,1.36-4.92,2-7.45,2Z"/><line class="t" x1="96.15" y1="192.43" x2="96.15" y2="174.28"/><ellipse class="n" cx="47.44" cy="149.04" rx="22.88" ry="12.61"/><ellipse class="n" cx="144.61" cy="149.04" rx="22.88" ry="12.61"/><ellipse class="n" cx="96.15" cy="120.3" rx="22.88" ry="12.61"/><ellipse class="n" cx="96.15" cy="174.28" rx="22.88" ry="12.61"/></g><g><ellipse class="t" cx="251.25" cy="322" rx="11.77" ry="16.96" transform="translate(-118.6 148.73) rotate(-26.93)"/><ellipse class="t" cx="287.75" cy="344.05" rx="11.77" ry="16.96" transform="translate(-124.62 167.65) rotate(-26.93)"/><path class="t" d="M266.98,362.88c-2.74,0-5.51-.7-8.06-2.17l-36.07-20.83c-7.72-4.46-10.37-14.33-5.91-22.05,4.46-7.72,14.33-10.37,22.05-5.91l36.07,20.83c7.72,4.46,10.37,14.33,5.91,22.05-2.99,5.18-8.42,8.07-14,8.07Z"/><line class="t" x1="270.23" y1="341.79" x2="283.09" y2="295.76"/><ellipse class="t" cx="216.33" cy="345.2" rx="11.77" ry="16.96" transform="translate(-132.89 135.42) rotate(-26.93)"/><ellipse class="t" cx="252.83" cy="367.25" rx="11.77" ry="16.96" transform="translate(-138.92 154.35) rotate(-26.93)"/></g></g><g class="r"><g><circle class="m" cx="9.46" cy="1.64" r="1.16"/><circle class="m" cx="24.88" cy="1.64" r="1.16"/><circle class="m" cx="40.3" cy="1.64" r="1.16"/><circle class="m" cx="55.72" cy="1.64" r="1.16"/><circle class="m" cx="71.14" cy="1.64" r="1.16"/><circle class="m" cx="86.57" cy="1.64" r="1.16"/><circle class="m" cx="101.99" cy="1.64" r="1.16"/><circle class="m" cx="117.41" cy="1.64" r="1.16"/><circle class="m" cx="132.83" cy="1.64" r="1.16"/><circle class="m" cx="148.25" cy="1.64" r="1.16"/><circle class="m" cx="163.67" cy="1.64" r="1.16"/><circle class="m" cx="179.1" cy="1.64" r="1.16"/><circle class="m" cx="9.46" cy="18.4" r="1.16"/><circle class="m" cx="24.88" cy="18.4" r="1.16"/><circle class="m" cx="40.3" cy="18.4" r="1.16"/><circle class="m" cx="55.72" cy="18.4" r="1.16"/><circle class="m" cx="71.14" cy="18.4" r="1.16"/><circle class="m" cx="86.57" cy="18.4" r="1.16"/><circle class="m" cx="101.99" cy="18.4" r="1.16"/><circle class="m" cx="117.41" cy="18.4" r="1.16"/><circle class="m" cx="132.83" cy="18.4" r="1.16"/><circle class="m" cx="148.25" cy="18.4" r="1.16"/><circle class="m" cx="163.67" cy="18.4" r="1.16"/><circle class="m" cx="179.1" cy="18.4" r="1.16"/><circle class="m" cx="9.46" cy="35.16" r="1.16"/><circle class="m" cx="24.88" cy="35.16" r="1.16"/><circle class="m" cx="40.3" cy="35.16" r="1.16"/><circle class="m" cx="55.72" cy="35.16" r="1.16"/><circle class="m" cx="71.14" cy="35.16" r="1.16"/><circle class="m" cx="86.57" cy="35.16" r="1.16"/><circle class="m" cx="101.99" cy="35.16" r="1.16"/><circle class="m" cx="117.41" cy="35.16" r="1.16"/><circle class="m" cx="132.83" cy="35.16" r="1.16"/><circle class="m" cx="148.25" cy="35.16" r="1.16"/><circle class="m" cx="163.67" cy="35.16" r="1.16"/><circle class="m" cx="179.1" cy="35.16" r="1.16"/></g></g><g class="q"><g><circle class="m" cx="355.27" cy="1.64" r="1.16"/><circle class="m" cx="370.69" cy="1.64" r="1.16"/><circle class="m" cx="386.11" cy="1.64" r="1.16"/><circle class="m" cx="401.53" cy="1.64" r="1.16"/><circle class="m" cx="416.95" cy="1.64" r="1.16"/><circle class="m" cx="432.37" cy="1.64" r="1.16"/><circle class="m" cx="447.8" cy="1.64" r="1.16"/><circle class="m" cx="463.22" cy="1.64" r="1.16"/><circle class="m" cx="478.64" cy="1.64" r="1.16"/><circle class="m" cx="494.06" cy="1.64" r="1.16"/><circle class="m" cx="509.48" cy="1.64" r="1.16"/><circle class="m" cx="355.27" cy="18.4" r="1.16"/><circle class="m" cx="370.69" cy="18.4" r="1.16"/><circle class="m" cx="386.11" cy="18.4" r="1.16"/><circle class="m" cx="401.53" cy="18.4" r="1.16"/><circle class="m" cx="416.95" cy="18.4" r="1.16"/><circle class="m" cx="432.37" cy="18.4" r="1.16"/><circle class="m" cx="447.8" cy="18.4" r="1.16"/><circle class="m" cx="463.22" cy="18.4" r="1.16"/><circle class="m" cx="478.64" cy="18.4" r="1.16"/><circle class="m" cx="494.06" cy="18.4" r="1.16"/><circle class="m" cx="509.48" cy="18.4" r="1.16"/><circle class="m" cx="355.27" cy="35.16" r="1.16"/><circle class="m" cx="370.69" cy="35.16" r="1.16"/><circle class="m" cx="386.11" cy="35.16" r="1.16"/><circle class="m" cx="401.53" cy="35.16" r="1.16"/><circle class="m" cx="416.95" cy="35.16" r="1.16"/><circle class="m" cx="432.37" cy="35.16" r="1.16"/><circle class="m" cx="447.8" cy="35.16" r="1.16"/><circle class="m" cx="463.22" cy="35.16" r="1.16"/><circle class="m" cx="478.64" cy="35.16" r="1.16"/><circle class="m" cx="494.06" cy="35.16" r="1.16"/><circle class="m" cx="509.48" cy="35.16" r="1.16"/></g></g></g><g id="f"/><g id="g"/><g id="h"/><g id="i"/><g id="j"/><g id="k"/></svg>