<?xml version="1.0" encoding="UTF-8"?><svg xmlns="http://www.w3.org/2000/svg" viewBox="0 0 331.1 374.37"><defs><style>.i{stroke-miterlimit:10;}.i,.j,.k{stroke:#002a3a;}.i,.k{fill:none;}.j{fill:#65a5bf;}.j,.k{stroke-linecap:round;stroke-linejoin:round;stroke-width:6px;}</style></defs><g id="a"/><g id="b"><path class="j" d="M285.44,294.58c-.8-.41-1.58-.72-2.35-1.01,.15-1.12,.24-2.3,.24-3.55,0-15.71-12.73-34.89-28.44-42.85-12.23-6.19-22.65-3.76-26.67,5.03-2.3-1.9-4.75-3.55-7.3-4.84-13.19-6.69-23.89-1.41-23.89,11.79s10.7,29.31,23.89,36l64.51,32.68c9.19,4.65,16.63,.98,16.63-8.21s-7.45-20.41-16.63-25.06Z"/><polyline class="k" points="150.63 208.22 150.63 109.83 201.29 139.08 201.29 164.34 216.97 169.36 216.97 245.7"/><line class="k" x1="201.29" y1="139.08" x2="216.97" y2="169.36"/><polyline class="k" points="168.79 120.32 168.79 96.21 219.45 125.46 219.45 150.72 235.13 155.74 235.13 245.21 216.97 234.73"/><line class="k" x1="219.45" y1="125.46" x2="235.13" y2="155.74"/><polyline class="k" points="186.95 106.7 186.95 82.59 237.61 111.84 237.61 137.1 253.29 142.12 253.29 231.59 235.13 221.11"/><line class="k" x1="237.61" y1="111.84" x2="253.29" y2="142.12"/><polyline class="k" points="205.11 93.08 205.11 68.97 255.77 98.22 255.77 123.48 271.45 128.5 271.45 217.97 253.29 207.49"/><line class="k" x1="255.77" y1="98.22" x2="271.45" y2="128.5"/><polyline class="k" points="223.27 79.46 223.27 55.35 273.93 84.6 273.93 109.86 289.61 114.88 289.61 204.35 271.45 193.87"/><path class="j" d="M171.87,258.69c2.66-2.44,4.22-6.27,4.22-11.25,0-12.89-10.45-28.64-23.34-35.17-1.12-.57-2.22-1.02-3.3-1.41,.22-1.58,.34-3.23,.34-4.98,0-22.04-17.87-48.96-39.91-60.13-17.16-8.69-31.78-5.27-37.42,7.06-3.23-2.67-6.67-4.98-10.24-6.79-18.52-9.38-33.53-1.98-33.53,16.54s15.01,41.13,33.53,50.51l61.32,31.07"/><line class="k" x1="273.93" y1="84.6" x2="289.61" y2="114.88"/><path class="j" d="M191.75,303.94c-1.01-.51-2-.92-2.98-1.28,.2-1.43,.31-2.92,.31-4.5,0-19.92-16.15-44.26-36.08-54.36-15.51-7.86-28.73-4.77-33.83,6.39-2.92-2.41-6.03-4.5-9.26-6.14-16.74-8.48-30.31-1.79-30.31,14.95s13.57,37.18,30.31,45.67l81.84,41.46c11.65,5.9,21.1,1.24,21.1-10.41s-9.45-25.89-21.1-31.79Z"/><path class="i" d="M285.44,294.58c-.8-.41-1.58-.72-2.35-1.01,.15-1.12,.24-2.3,.24-3.55,0-15.71-12.73-34.89-28.44-42.85-12.23-6.19-22.65-3.76-26.67,5.03-2.3-1.9-4.75-3.55-7.3-4.84-13.19-6.69-23.89-1.41-23.89,11.79s10.7,29.31,23.89,36c8.73,4.42,56.83,28.79,64.51,32.68,9.19,4.65,16.63,.98,16.63-8.21s-7.45-20.41-16.63-25.06Zm-132.7-82.31c-1.12-.57-2.22-1.02-3.3-1.41,.22-1.58,.34-3.23,.34-4.98,0-22.04-17.87-48.96-39.91-60.13-17.16-8.69-31.78-5.27-37.42,7.06-3.23-2.67-6.67-4.98-10.24-6.79-18.52-9.38-33.53-1.98-33.53,16.54s15.01,41.13,33.53,50.51c7.76,3.93,61.32,31.07,61.32,31.07,22.7-15.16,48.34,14.54,48.34,14.54,2.66-2.44,4.22-6.27,4.22-11.25,0-12.89-10.45-28.64-23.34-35.17Z"/><line class="k" x1="200.06" y1="249.07" x2="172.63" y2="233.23"/></g><g id="c"/><g id="d"/><g id="e"/><g id="f"/><g id="g"/><g id="h"/></svg>