<?xml version="1.0" encoding="UTF-8"?><svg xmlns="http://www.w3.org/2000/svg" viewBox="0 0 341.53 366.02"><defs><style>.i{stroke-dasharray:0 0 15 20;}.i,.j{fill:none;stroke:#fff;stroke-linecap:round;stroke-linejoin:round;stroke-width:6px;}</style></defs><g id="a"/><g id="b"><polyline class="i" points="139.48 307.23 34.95 247.91 34.95 186.2"/><g><path class="j" d="M293.58,86.45c-.76-.38-1.49-.68-2.22-.95,.15-1.06,.23-2.17,.23-3.35,0-14.84-12.03-32.97-26.87-40.49-11.55-5.85-21.4-3.55-25.2,4.76-2.17-1.8-4.49-3.35-6.9-4.57-12.47-6.32-22.58-1.33-22.58,11.14s10.11,27.7,22.58,34.01l60.96,30.88c8.68,4.4,15.72,.93,15.72-7.75s-7.04-19.28-15.72-23.68Z"/><line class="i" x1="232.62" y1="88" x2="232.62" y2="269.21"/><line class="i" x1="259.67" y1="101.7" x2="259.67" y2="282.91"/><line class="i" x1="286.72" y1="115.4" x2="286.72" y2="296.62"/></g></g><g id="c"/><g id="d"/><g id="e"/><g id="f"/><g id="g"/><g id="h"/></svg>