<?xml version="1.0" encoding="UTF-8"?><svg xmlns="http://www.w3.org/2000/svg" viewBox="0 0 426 215.97"><defs><style>.i{stroke-dasharray:0 0 15 20;}.i,.j{fill:none;stroke:#fff;stroke-linecap:round;stroke-linejoin:round;stroke-width:6px;}</style></defs><g id="a"/><g id="b"><g><polyline class="i" points="261.43 120.1 326.84 63.86 382.41 91.02 369.42 130.99"/><g><ellipse class="j" cx="86.73" cy="79.92" rx="9.78" ry="14.16" transform="translate(-31.05 73.88) rotate(-39.73)"/><g><polyline class="j" points="76.18 50.28 81.65 38.89 91.67 42.62 97.29 58.14"/><polyline class="j" points="61.09 59.65 55.46 44.19 62.55 39.75 76.02 50.28"/><polyline class="j" points="61.02 80.89 47.59 70.42 47.59 60.4 61.02 59.78"/><polyline class="j" points="76.01 101.56 62.64 102.21 55.56 92.49 61.08 81.08"/><polyline class="j" points="97.28 109.55 91.8 120.94 81.78 117.21 76.16 101.69"/><polyline class="j" points="112.37 100.18 117.99 115.64 110.91 120.09 97.44 109.55"/><polyline class="j" points="112.44 78.94 125.86 89.41 125.86 99.43 112.44 100.05"/><polyline class="j" points="97.45 58.27 110.81 57.62 117.9 67.34 112.38 78.76"/></g></g><polyline class="i" points="86.72 137.07 86.72 153.49 123.77 174.94"/></g></g><g id="c"/><g id="d"/><g id="e"/><g id="f"/><g id="g"/><g id="h"/></svg>