<?xml version="1.0" encoding="UTF-8"?><svg xmlns="http://www.w3.org/2000/svg" viewBox="0 0 325.63 374.37"><defs><style>.i{fill:#002a3a;}.j{fill:#65a5bf;}.j,.k{stroke:#002a3a;stroke-linecap:round;stroke-linejoin:round;stroke-width:6px;}.k{fill:none;}</style></defs><g id="a"/><g id="b"><g><line class="k" x1="13.96" y1="251.25" x2="133.26" y2="182.88"/><line class="k" x1="27.72" y1="259.32" x2="147.02" y2="190.95"/><line class="k" x1="41.4" y1="267.35" x2="160.7" y2="198.98"/><line class="k" x1="55.16" y1="275.43" x2="174.46" y2="207.06"/><line class="k" x1="68.84" y1="283.46" x2="188.14" y2="215.09"/><line class="k" x1="82.6" y1="291.53" x2="201.9" y2="223.16"/><line class="k" x1="96.28" y1="299.56" x2="215.58" y2="231.19"/><line class="k" x1="110.04" y1="307.64" x2="229.34" y2="239.26"/><line class="k" x1="123.72" y1="315.67" x2="243.03" y2="247.29"/><line class="k" x1="137.48" y1="323.74" x2="256.78" y2="255.37"/><line class="k" x1="151.17" y1="331.77" x2="270.47" y2="263.4"/><line class="k" x1="164.93" y1="339.84" x2="284.23" y2="271.47"/><line class="k" x1="178.61" y1="347.87" x2="297.91" y2="279.5"/><line class="k" x1="192.37" y1="355.95" x2="311.67" y2="287.58"/></g><g><path class="i" d="M131.41,17.57l1.98,1.19c.22,.13,.36,.38,.36,.64v11.44c0,.58-.63,.93-1.13,.64l-1.98-1.19c-.22-.13-.36-.38-.36-.64v-11.44c0-.58,.63-.93,1.13-.64Z"/><path class="i" d="M140.71,23.19l3.22,1.94c.16,.1,.28,.25,.33,.43l2.45,8.55c.19,.68,1.13,.73,1.4,.08l1.82-4.43c.17-.42,.68-.59,1.07-.35l3.4,2.05c.22,.13,.36,.38,.36,.64v11.44c0,.58-.63,.93-1.13,.64l-1.81-1.09c-.22-.13-.36-.38-.36-.64v-4.23c0-.79-1.08-1.03-1.41-.32l-1.15,2.46c-.19,.4-.68,.55-1.06,.32l-1.8-1.09c-.16-.1-.27-.25-.33-.42l-1.38-4.61c-.25-.82-1.45-.64-1.45,.21v1.6c0,.58-.63,.93-1.13,.64l-1.81-1.09c-.22-.13-.36-.38-.36-.64v-11.44c0-.58,.63-.93,1.13-.64Z"/><path class="i" d="M163.59,37.01c.22,.13,.36,.38,.36,.64v7.22c0,.9,.17,1.69,.51,2.35s.89,1.22,1.66,1.69,1.32,.57,1.66,.31,.51-.83,.51-1.73v-6.32c0-.58,.63-.93,1.13-.64l1.98,1.19c.22,.13,.36,.38,.36,.64v7.03c0,1.88-.48,3.03-1.44,3.46-.96,.42-2.36,.08-4.19-1.02-1.83-1.11-3.23-2.45-4.19-4.03-.96-1.58-1.44-3.32-1.44-5.2v-6.14c0-.58,.63-.93,1.13-.64l1.98,1.19Z"/></g><ellipse class="j" cx="68.41" cy="183.24" rx="44.45" ry="68.47" transform="translate(-93.98 74.21) rotate(-35.65)"/><line class="k" x1="68.41" y1="239.62" x2="68.41" y2="283.5"/><ellipse class="j" cx="149.69" cy="108.42" rx="44.45" ry="68.47" transform="translate(-35.14 107.56) rotate(-35.65)"/><line class="k" x1="149.69" y1="164.81" x2="149.69" y2="208.69"/><line class="k" x1="166.66" y1="204.18" x2="166.66" y2="248.06"/><ellipse class="j" cx="191.54" cy="252.41" rx="44.45" ry="68.47" transform="translate(-111.22 158.94) rotate(-35.65)"/><path class="k" d="M218.71,242.12c-6.06-10.44-14.82-19.85-24.81-25.68-13.03-7.6-24.88-7.22-31.79-.36"/><path class="k" d="M160.51,254.8c5.76,13.48,16.33,26.31,28.79,33.59,13.94,8.13,26.53,7.13,33.16-1.17"/><path class="k" d="M210.1,245.67c-4.67-7.75-11.14-14.85-18.3-19.45-9.8-6.29-18.38-6.28-22.85-1.02"/><path class="k" d="M170.81,254.93c4.7,9.35,12.18,18.25,20.64,23.68,10.72,6.88,19.96,6.23,23.98-.58"/><line class="k" x1="191.54" y1="308.79" x2="191.54" y2="352.67"/><g><path class="i" d="M173.46,236.31c.23,.14,.38,.39,.38,.66v6.64c0,.84,.16,1.56,.47,2.16,.31,.61,.83,1.11,1.53,1.52s1.22,.49,1.53,.25c.31-.24,.47-.78,.47-1.62v-5.77c0-.58,.63-.95,1.14-.66l1.7,.98c.23,.14,.38,.39,.38,.66v6.47c0,1.74-.44,2.82-1.33,3.24-.89,.42-2.18,.13-3.88-.85-1.7-.98-2.99-2.19-3.88-3.64-.89-1.44-1.33-3.04-1.33-4.78v-5.6c0-.58,.63-.95,1.14-.66l1.7,.98Z"/><path class="i" d="M185.15,243.04l1.51,.86c.19,.11,.32,.29,.37,.5l1.25,6.05c.16,.77,1.25,.82,1.47,.06l.93-3.18c.14-.47,.68-.69,1.11-.44l1.67,.96c.19,.11,.32,.29,.36,.5l1.3,6.06c.17,.77,1.25,.81,1.47,.05l.91-3.19c.14-.47,.68-.69,1.11-.45l1.86,1.07c.31,.18,.45,.55,.34,.89l-2.82,8.83c-.15,.46-.68,.67-1.1,.42l-2.56-1.48c-.19-.11-.32-.29-.36-.5l-1.02-4.84c-.16-.78-1.27-.81-1.47-.04l-.6,2.27c-.13,.48-.68,.71-1.11,.46l-2.52-1.46c-.18-.1-.31-.28-.36-.48l-2.83-12.11c-.15-.64,.54-1.16,1.11-.83Z"/><path class="i" d="M208.48,256.54c1.48,.85,2.63,1.8,3.44,2.83,.82,1.03,1.23,2.07,1.23,3.1,0,.78-.22,1.27-.66,1.47-.44,.2-1.06,.14-1.85-.2,.93,.64,1.65,1.34,2.15,2.09,.51,.75,.76,1.55,.76,2.38,0,1.07-.42,1.67-1.26,1.81s-2.03-.24-3.55-1.12l-4.71-2.72c-.23-.14-.38-.39-.38-.66v-10.46c0-.58,.63-.95,1.14-.66l3.7,2.14Zm-1.62,3.49c0,.27,.14,.52,.38,.66l1.3,.75c.44,.26,.79,.34,1.04,.27,.25-.08,.37-.3,.37-.67s-.13-.74-.37-1.11c-.25-.37-.6-.68-1.04-.93l-.54-.31c-.5-.29-1.14,.07-1.14,.66v.69Zm0,4.9c0,.27,.14,.52,.38,.66l1.54,.89c.46,.27,.83,.37,1.09,.3,.26-.07,.39-.3,.39-.7s-.13-.78-.39-1.15c-.26-.37-.63-.69-1.09-.96l-.78-.45c-.5-.29-1.14,.07-1.14,.66v.76Z"/></g><g><ellipse class="k" cx="68.59" cy="206.07" rx="3.99" ry="6.49" transform="translate(-93.77 61.82) rotate(-29.97)"/><path class="k" d="M81.86,198.72c-3.29-5.8-8.02-10.77-13.27-13.42-4.98-2.51-9.48-2.46-12.74-.35"/><path class="k" d="M89,192.85c-5.22-8.66-12.43-16.02-20.4-20.05-7.87-3.97-15-3.94-20.21-.68"/><path class="k" d="M97.45,188.84c-7.27-12.43-17.51-23.06-28.85-28.79-11.02-5.57-21-5.45-28.22-.77"/></g><g><ellipse class="k" cx="150.77" cy="111.17" rx="17.17" ry="32.83" transform="translate(-21.95 38.65) rotate(-13.63)"/><ellipse class="k" cx="150.21" cy="110.87" rx="9.91" ry="37.93" transform="translate(-21.17 184.93) rotate(-59.8)"/><line class="k" x1="134.05" y1="92.58" x2="161.95" y2="123.48"/><line class="k" x1="125.85" y1="111.63" x2="174.56" y2="109.32"/><ellipse class="j" cx="121.42" cy="112.35" rx="4.16" ry="7.02" transform="translate(-43.33 97.36) rotate(-37.58)"/><ellipse class="j" cx="169.16" cy="131.46" rx="4.16" ry="7.02" transform="translate(-45.07 130.44) rotate(-37.58)"/><ellipse class="j" cx="150.77" cy="69.9" rx="4.16" ry="7.02" transform="translate(-11.35 106.45) rotate(-37.58)"/><line class="k" x1="150.77" y1="147.68" x2="150.77" y2="75.31"/></g></g><g id="c"/><g id="d"/><g id="e"/><g id="f"/><g id="g"/><g id="h"/></svg>