<?xml version="1.0" encoding="UTF-8"?><svg xmlns="http://www.w3.org/2000/svg" viewBox="0 0 1759.56 836"><defs><style>.i{font-family:Aeonik-Regular, Aeonik;font-size:40px;}.j{letter-spacing:-.02em;}.k{letter-spacing:-.02em;}.l{letter-spacing:0em;}.m{letter-spacing:0em;}.n{letter-spacing:0em;}.o{fill:#002a3a;}.p{fill:#fff;}.q{fill:#65a5bf;}.r{letter-spacing:-.02em;}.s{letter-spacing:0em;}.t{letter-spacing:0em;}.u{letter-spacing:0em;}.v{letter-spacing:-.03em;}.w{letter-spacing:-.03em;}.x{letter-spacing:-.03em;}.y{letter-spacing:-.01em;}.a`{letter-spacing:-.02em;}.aa{letter-spacing:0em;}.ab{letter-spacing:0em;}.ac{letter-spacing:-.01em;}.ad{letter-spacing:-.02em;}.ae{letter-spacing:0em;}.af{letter-spacing:-.01em;}.ag{letter-spacing:0em;}</style></defs><g id="a"/><g id="b"><rect class="o" y="0" width="1759.56" height="836"/><text class="i" transform="translate(732.61 292.2)"><tspan class="q"><tspan x="0" y="0">Smart </tspan><tspan class="a`" x="115.8" y="0">A</tspan><tspan class="aa" x="141.24" y="0">gricultu</tspan><tspan class="x" x="271.44" y="0">r</tspan><tspan x="283.64" y="0">e</tspan></tspan><tspan class="p"><tspan x="-336.63" y="108">P</tspan><tspan class="v" x="-312.87" y="108">r</tspan><tspan x="-300.67" y="108">ecision agricultu</tspan><tspan class="v" x="-12.8" y="108">r</tspan><tspan x="-.6" y="108">e a</tspan><tspan class="m" x="53.88" y="108">u</tspan><tspan class="af" x="76" y="108">t</tspan><tspan x="88.24" y="108">onomous machine</tspan><tspan class="ag" x="421.03" y="108">r</tspan><tspan x="434.59" y="108">y in need </tspan><tspan class="l" x="607.03" y="108">o</tspan><tspan x="630.07" y="108">f </tspan></tspan><tspan class="p"><tspan x="-323.95" y="162">a</tspan><tspan class="y" x="-302.35" y="162">c</tspan><tspan x="-280.79" y="162">cu</tspan><tspan class="r" x="-236.76" y="162">r</tspan><tspan x="-224.36" y="162">a</tspan><tspan class="af" x="-202.76" y="162">t</tspan><tspan x="-190.52" y="162">e and af</tspan><tspan class="j" x="-45.08" y="162">f</tspan><tspan x="-34.76" y="162">o</tspan><tspan class="v" x="-11.48" y="162">r</tspan><tspan x=".72" y="162">dable n</tspan><tspan class="ac" x="133.08" y="162">a</tspan><tspan x="154.08" y="162">vigation can </tspan><tspan class="w" x="380.15" y="162">r</tspan><tspan x="392.35" y="162">ely on SPEAR </tspan></tspan><tspan class="p"><tspan x="-370.37" y="216">embedded in their n</tspan><tspan class="ad" x="-10.3" y="216">a</tspan><tspan x="10.7" y="216">vigation on-boa</tspan><tspan class="w" x="292.17" y="216">r</tspan><tspan x="304.38" y="216">d unit </tspan><tspan class="af" x="414.17" y="216">t</tspan><tspan x="426.41" y="216">o g</tspan><tspan class="l" x="484.01" y="216">e</tspan><tspan x="506.17" y="216">t the b</tspan><tspan class="t" x="621.37" y="216">e</tspan><tspan x="643.69" y="216">st </tspan></tspan><tspan class="p"><tspan x="-393.01" y="270">n</tspan><tspan class="ad" x="-370.57" y="270">a</tspan><tspan x="-349.57" y="270">vigation p</tspan><tspan class="u" x="-176.18" y="270">o</tspan><tspan class="ae" x="-152.98" y="270">s</tspan><tspan x="-133.42" y="270">sible o</tspan><tspan class="n" x="-17.94" y="270">u</tspan><tspan class="ab" x="4.18" y="270">t </tspan><tspan class="s" x="27.42" y="270">o</tspan><tspan x="50.46" y="270">f the GN</tspan><tspan class="af" x="198.62" y="270">S</tspan><tspan x="222.38" y="270">S ha</tspan><tspan class="w" x="301.21" y="270">r</tspan><tspan x="313.41" y="270">d</tspan><tspan class="k" x="337.25" y="270">w</tspan><tspan x="367.73" y="270">a</tspan><tspan class="x" x="389.33" y="270">r</tspan><tspan x="401.53" y="270">e in the plat</tspan><tspan class="j" x="609.17" y="270">f</tspan><tspan x="619.49" y="270">orm. </tspan></tspan></text></g><g id="c"/><g id="d"/><g id="e"/><g id="f"/><g id="g"/><g id="h"/></svg>