<?xml version="1.0" encoding="UTF-8"?><svg xmlns="http://www.w3.org/2000/svg" viewBox="0 0 1759.56 836"><defs><style>.i{font-family:Aeonik-Regular, Aeonik;font-size:40px;}.j{letter-spacing:-.01em;}.k{letter-spacing:-.02em;}.l{letter-spacing:-.02em;}.m{letter-spacing:-.02em;}.n{letter-spacing:-.02em;}.o{letter-spacing:0em;}.p{letter-spacing:0em;}.q{letter-spacing:-.03em;}.r{letter-spacing:0em;}.s{fill:#002a3a;}.t{fill:#fff;}.u{fill:#65a5bf;}.v{letter-spacing:0em;}.w{letter-spacing:0em;}.x{letter-spacing:-.02em;}.y{letter-spacing:-.03em;}.a`{letter-spacing:-.02em;}.aa{letter-spacing:-.03em;}.ab{letter-spacing:0em;}.ac{letter-spacing:-.03em;}.ad{letter-spacing:-.03em;}.ae{letter-spacing:0em;}.af{letter-spacing:0em;}.ag{letter-spacing:-.03em;}.ah{letter-spacing:0em;}.ai{letter-spacing:-.01em;}.aj{letter-spacing:-.02em;}.ak{letter-spacing:0em;}.al{letter-spacing:0em;}.am{letter-spacing:-.01em;}.an{letter-spacing:-.02em;}.ao{letter-spacing:-.02em;}.ap{letter-spacing:-.03em;}.aq{letter-spacing:-.01em;}.ar{letter-spacing:0em;}</style></defs><g id="a"/><g id="b"><rect class="s" y="0" width="1759.56" height="836"/><text class="i" transform="translate(740.75 227.59)"><tspan class="u"><tspan class="aa" x="0" y="0">R</tspan><tspan x="23.4" y="0">oad N</tspan><tspan class="ao" x="129.68" y="0">a</tspan><tspan x="150.68" y="0">vigation</tspan></tspan><tspan class="t"><tspan x="-365.61" y="108">SPEAR is embedded in </tspan><tspan class="n" x="52.54" y="108">v</tspan><tspan class="ak" x="71.38" y="108">ehicle n</tspan><tspan class="am" x="209.1" y="108">a</tspan><tspan x="230.1" y="108">vigation On-Boa</tspan><tspan class="ad" x="519.45" y="108">r</tspan><tspan x="531.65" y="108">d Units </tspan></tspan><tspan class="t"><tspan x="-346.97" y="162">(O</tspan><tspan class="al" x="-304.9" y="162">B</tspan><tspan x="-280.18" y="162">U) </tspan><tspan class="aq" x="-231.22" y="162">t</tspan><tspan x="-218.98" y="162">o deli</tspan><tspan class="l" x="-123.46" y="162">v</tspan><tspan x="-104.62" y="162">er lan</tspan><tspan class="ar" x="-6.58" y="162">e</tspan><tspan x="16.02" y="162">-l</tspan><tspan class="n" x="41.26" y="162">ev</tspan><tspan x="81.7" y="162">el n</tspan><tspan class="an" x="144.78" y="162">a</tspan><tspan class="r" x="165.78" y="162">vigation </tspan><tspan class="aj" x="315.33" y="162">f</tspan><tspan x="327.01" y="162">or I</tspan><tspan class="n" x="383.05" y="162">V</tspan><tspan class="k" x="407.33" y="162">S</tspan><tspan x="430.77" y="162">, A</tspan><tspan class="q" x="475.81" y="162">D</tspan><tspan class="y" x="501.37" y="162">A</tspan><tspan class="k" x="526.69" y="162">S</tspan><tspan x="550.13" y="162">, and </tspan></tspan><tspan class="t"><tspan x="-305.02" y="216">a</tspan><tspan class="p" x="-283.42" y="216">u</tspan><tspan class="aq" x="-261.3" y="216">t</tspan><tspan x="-249.06" y="216">onomous driving application</tspan><tspan class="ae" x="254.13" y="216">s</tspan><tspan class="w" x="273.77" y="216">. SPEAR l</tspan><tspan class="m" x="431.81" y="216">ev</tspan><tspan x="472.25" y="216">e</tspan><tspan class="x" x="494.65" y="216">r</tspan><tspan x="507.05" y="216">ag</tspan><tspan class="ab" x="552.49" y="216">e</tspan><tspan x="574.81" y="216">s </tspan></tspan><tspan class="t"><tspan class="ai" x="-379.12" y="270">c</tspan><tspan x="-357.56" y="270">omplemen</tspan><tspan class="af" x="-166.08" y="270">t</tspan><tspan x="-153.64" y="270">a</tspan><tspan class="ar" x="-132.04" y="270">r</tspan><tspan x="-118.48" y="270">y senso</tspan><tspan class="a`" x="19.76" y="270">r</tspan><tspan class="ak" x="32.36" y="270">s (IM</tspan><tspan class="ap" x="117.59" y="270">U</tspan><tspan x="142.67" y="270">, dead </tspan><tspan class="ad" x="263.55" y="270">r</tspan><tspan x="275.75" y="270">ec</tspan><tspan class="ag" x="320.15" y="270">k</tspan><tspan x="339.67" y="270">oning…) and GN</tspan><tspan class="aq" x="620.83" y="270">S</tspan><tspan x="644.59" y="270">S </tspan></tspan><tspan class="t"><tspan class="ai" x="-332.49" y="324">c</tspan><tspan x="-310.93" y="324">or</tspan><tspan class="ac" x="-274.29" y="324">r</tspan><tspan x="-262.09" y="324">ections st</tspan><tspan class="ac" x="-88.3" y="324">r</tspan><tspan x="-76.1" y="324">eaming </tspan><tspan class="aq" x="67.1" y="324">t</tspan><tspan x="79.34" y="324">o g</tspan><tspan class="o" x="136.94" y="324">e</tspan><tspan x="159.1" y="324">t the b</tspan><tspan class="ah" x="274.29" y="324">e</tspan><tspan x="296.61" y="324">st p</tspan><tspan class="ab" x="363.65" y="324">o</tspan><tspan class="j" x="386.85" y="324">s</tspan><tspan x="406.41" y="324">sible </tspan><tspan class="m" x="498.61" y="324">v</tspan><tspan x="517.45" y="324">ehicle </tspan></tspan><tspan class="t"><tspan x="-25.42" y="378">n</tspan><tspan class="ao" x="-2.98" y="378">a</tspan><tspan x="18.02" y="378">vigation sol</tspan><tspan class="v" x="218.58" y="378">u</tspan><tspan x="240.7" y="378">tion. </tspan></tspan></text></g><g id="c"/><g id="d"/><g id="e"/><g id="f"/><g id="g"/><g id="h"/></svg>