<?xml version="1.0" encoding="UTF-8"?><svg xmlns="http://www.w3.org/2000/svg" viewBox="0 0 1759.56 836"><defs><style>.i{font-family:Aeonik-Regular, Aeonik;font-size:40px;}.j{letter-spacing:-.04em;}.k{letter-spacing:-.02em;}.l{letter-spacing:-.02em;}.m{letter-spacing:0em;}.n{letter-spacing:0em;}.o{fill:#002a3a;}.p{fill:#fff;}.q{fill:#65a5bf;}.r{letter-spacing:0em;}.s{letter-spacing:0em;}.t{letter-spacing:-.02em;}.u{letter-spacing:0em;}.v{letter-spacing:-.03em;}.w{letter-spacing:0em;}.x{letter-spacing:0em;}.y{letter-spacing:-.03em;}.a`{letter-spacing:-.03em;}.aa{letter-spacing:0em;}.ab{letter-spacing:-.03em;}.ac{letter-spacing:-.01em;}.ad{letter-spacing:0em;}.ae{letter-spacing:0em;}.af{letter-spacing:-.02em;}.ag{letter-spacing:-.02em;}.ah{letter-spacing:0em;}.ai{letter-spacing:-.01em;}.aj{letter-spacing:-.02em;}.ak{letter-spacing:-.01em;}.al{letter-spacing:0em;}</style></defs><g id="a"/><g id="b"><rect class="o" y="1.04" width="1759.56" height="836"/><text class="i" transform="translate(807.61 261.93)"><tspan class="q"><tspan class="v" x="0" y="0">R</tspan><tspan x="23.4" y="0">ob</tspan><tspan class="u" x="70.52" y="0">o</tspan><tspan x="93.56" y="0">tics</tspan></tspan><tspan class="p"><tspan class="aj" x="-485.65" y="108">A</tspan><tspan class="n" x="-460.01" y="108">u</tspan><tspan class="ak" x="-437.89" y="108">t</tspan><tspan x="-425.65" y="108">onomous </tspan><tspan class="y" x="-246.21" y="108">r</tspan><tspan x="-234.01" y="108">ob</tspan><tspan class="u" x="-186.9" y="108">o</tspan><tspan x="-163.86" y="108">tics that </tspan><tspan class="y" x="-10.82" y="108">r</tspan><tspan x="1.38" y="108">eli</tspan><tspan class="x" x="39.3" y="108">e</tspan><tspan class="ad" x="61.62" y="108">s on p</tspan><tspan class="ab" x="172.09" y="108">r</tspan><tspan x="184.3" y="108">ecise location in</tspan><tspan class="k" x="470.85" y="108">f</tspan><tspan x="482.53" y="108">ormation </tspan></tspan><tspan class="p"><tspan class="k" x="-370.92" y="162">f</tspan><tspan x="-359.24" y="162">or ope</tspan><tspan class="t" x="-242.6" y="162">r</tspan><tspan x="-230.2" y="162">ations such as a</tspan><tspan class="n" x="58.68" y="162">u</tspan><tspan class="ai" x="80.8" y="162">t</tspan><tspan x="93.04" y="162">oma</tspan><tspan class="ak" x="172.6" y="162">t</tspan><tspan x="184.84" y="162">ed deli</tspan><tspan class="l" x="303.31" y="162">v</tspan><tspan x="322.15" y="162">e</tspan><tspan class="al" x="344.55" y="162">r</tspan><tspan class="j" x="358.11" y="162">y</tspan><tspan x="376.27" y="162">, d</tspan><tspan class="a`" x="418.83" y="162">r</tspan><tspan x="431.03" y="162">on</tspan><tspan class="w" x="476.75" y="162">e</tspan><tspan class="aa" x="499.07" y="162">s</tspan><tspan x="518.71" y="162">, </tspan></tspan><tspan class="p"><tspan x="-484.83" y="216">or unmanned </tspan><tspan class="l" x="-235.36" y="216">v</tspan><tspan class="ae" x="-216.52" y="216">ehicl</tspan><tspan class="w" x="-134.12" y="216">e</tspan><tspan x="-111.8" y="216">s will find in SPEAR the </tspan><tspan class="ak" x="301.59" y="216">t</tspan><tspan x="313.83" y="216">ool </tspan><tspan class="ak" x="378.63" y="216">t</tspan><tspan x="390.87" y="216">o g</tspan><tspan class="u" x="448.47" y="216">e</tspan><tspan x="470.63" y="216">t the b</tspan><tspan class="w" x="585.83" y="216">e</tspan><tspan x="608.15" y="216">st </tspan></tspan><tspan class="p"><tspan x="-410.99" y="270">n</tspan><tspan class="ag" x="-388.55" y="270">a</tspan><tspan x="-367.55" y="270">vigation per</tspan><tspan class="k" x="-158.4" y="270">f</tspan><tspan x="-148.08" y="270">orman</tspan><tspan class="ac" x="-32.72" y="270">c</tspan><tspan class="ae" x="-11.16" y="270">e p</tspan><tspan class="w" x="45.56" y="270">o</tspan><tspan class="ah" x="68.76" y="270">s</tspan><tspan class="s" x="88.32" y="270">sible o</tspan><tspan class="r" x="203.8" y="270">u</tspan><tspan x="225.92" y="270">t </tspan><tspan class="m" x="249.16" y="270">o</tspan><tspan x="272.2" y="270">f their n</tspan><tspan class="af" x="406.95" y="270">a</tspan><tspan x="427.95" y="270">vigation </tspan></tspan><tspan class="p"><tspan x="-47.92" y="324">on-boa</tspan><tspan class="ab" x="84" y="324">r</tspan><tspan x="96.2" y="324">d uni</tspan><tspan class="al" x="182.76" y="324">t</tspan><tspan x="195.72" y="324" xml:space="preserve">.  </tspan></tspan></text></g><g id="c"/><g id="d"/><g id="e"/><g id="f"/><g id="g"/><g id="h"/></svg>