<?xml version="1.0" encoding="UTF-8"?><svg xmlns="http://www.w3.org/2000/svg" viewBox="0 0 1759.56 836"><defs><style>.i{font-family:Aeonik-Regular, Aeonik;font-size:40px;}.j{letter-spacing:-.04em;}.k{letter-spacing:-.01em;}.l{letter-spacing:-.02em;}.m{letter-spacing:-.02em;}.n{letter-spacing:-.02em;}.o{letter-spacing:0em;}.p{fill:#002a3a;}.q{fill:#fff;}.r{fill:#65a5bf;}.s{letter-spacing:-.02em;}.t{letter-spacing:-.02em;}.u{letter-spacing:0em;}.v{letter-spacing:0em;}.w{letter-spacing:-.02em;}.x{letter-spacing:0em;}.y{letter-spacing:-.03em;}.a`{letter-spacing:-.01em;}.aa{letter-spacing:-.01em;}.ab{letter-spacing:-.01em;}.ac{letter-spacing:0em;}.ad{letter-spacing:0em;}.ae{letter-spacing:-.01em;}.af{letter-spacing:-.02em;}.ag{letter-spacing:0em;}.ah{letter-spacing:-.03em;}.ai{letter-spacing:-.01em;}.aj{letter-spacing:-.01em;}</style></defs><g id="a"/><g id="b"><rect class="p" y="0" width="1759.56" height="836"/><text class="i" transform="translate(725.39 260.89)"><tspan class="r"><tspan x="0" y="0">In</tspan><tspan class="aj" x="31.36" y="0">t</tspan><tspan x="43.6" y="0">ern</tspan><tspan class="v" x="101.8" y="0">e</tspan><tspan x="123.96" y="0">t Of Things</tspan></tspan><tspan class="q"><tspan x="-403.99" y="108">IoT d</tspan><tspan class="m" x="-313.83" y="108">e</tspan><tspan class="ac" x="-292.23" y="108">vi</tspan><tspan class="aa" x="-264.83" y="108">c</tspan><tspan class="ad" x="-243.27" y="108">e location is the </tspan><tspan class="a`" x="47.28" y="108">c</tspan><tspan x="68.84" y="108">orne</tspan><tspan class="w" x="150.32" y="108">r</tspan><tspan x="162.92" y="108">s</tspan><tspan class="aj" x="182.88" y="108">t</tspan><tspan x="195.12" y="108">one in</tspan><tspan class="l" x="303.91" y="108">f</tspan><tspan x="315.59" y="108">ormation in a </tspan><tspan class="ae" x="557.99" y="108">m</tspan><tspan x="592.07" y="108">yriad </tspan><tspan class="u" x="688.83" y="108">o</tspan><tspan x="711.87" y="108">f </tspan></tspan><tspan class="q"><tspan x="-329.19" y="162">applications (mic</tspan><tspan class="y" x="-27.68" y="162">r</tspan><tspan x="-15.48" y="162">omobilit</tspan><tspan class="j" x="125.63" y="162">y</tspan><tspan x="143.79" y="162">, a</tspan><tspan class="k" x="184.11" y="162">s</tspan><tspan x="203.67" y="162">s</tspan><tspan class="o" x="223.63" y="162">e</tspan><tspan x="245.79" y="162">t t</tspan><tspan class="t" x="281.79" y="162">r</tspan><tspan x="294.19" y="162">acking, </tspan><tspan class="u" x="431.23" y="162">e</tspan><tspan class="ai" x="453.39" y="162">t</tspan><tspan class="af" x="465.63" y="162">c</tspan><tspan x="487.03" y="162">.). Should </tspan></tspan><tspan class="q"><tspan x="-397.75" y="216">a</tspan><tspan class="ab" x="-376.15" y="216">c</tspan><tspan x="-354.59" y="216">cu</tspan><tspan class="s" x="-310.55" y="216">r</tspan><tspan x="-298.15" y="216">a</tspan><tspan class="m" x="-276.55" y="216">c</tspan><tspan x="-255.35" y="216">y and </tspan><tspan class="y" x="-146.8" y="216">r</tspan><tspan x="-134.6" y="216">obustn</tspan><tspan class="x" x="-10.28" y="216">e</tspan><tspan class="ag" x="12.04" y="216">s</tspan><tspan x="31.6" y="216">s </tspan><tspan class="v" x="62.04" y="216">o</tspan><tspan x="85.08" y="216">f the location be a game changer in </tspan></tspan><tspan class="q"><tspan x="-395.87" y="270">the IoT application, SPEAR can be embedded in the IoT d</tspan><tspan class="n" x="623.39" y="270">e</tspan><tspan x="644.99" y="270">vi</tspan><tspan class="ab" x="672.39" y="270">c</tspan><tspan x="693.95" y="270">e </tspan></tspan><tspan class="q"><tspan class="aj" x="-151.76" y="324">t</tspan><tspan x="-139.52" y="324">o p</tspan><tspan class="y" x="-81.92" y="324">r</tspan><tspan class="m" x="-69.72" y="324">o</tspan><tspan x="-47.24" y="324">vide decim</tspan><tspan class="u" x="147.56" y="324">e</tspan><tspan x="169.72" y="324">tric per</tspan><tspan class="l" x="295.68" y="324">f</tspan><tspan x="306" y="324">orman</tspan><tspan class="ab" x="421.35" y="324">c</tspan><tspan class="ah" x="442.91" y="324">e</tspan><tspan x="463.99" y="324">.</tspan></tspan></text></g><g id="c"/><g id="d"/><g id="e"/><g id="f"/><g id="g"/><g id="h"/></svg>