<?xml version="1.0" encoding="UTF-8"?><svg xmlns="http://www.w3.org/2000/svg" viewBox="0 0 1759.56 836"><defs><style>.i{font-family:Aeonik-Regular, Aeonik;font-size:40px;}.j,.k{letter-spacing:-.02em;}.k,.l,.m,.n,.o,.p,.q,.r,.s,.t{fill:#65a5bf;}.u{letter-spacing:-.02em;}.v{letter-spacing:-.02em;}.w{letter-spacing:-.02em;}.x{letter-spacing:0em;}.y{fill:#002a3a;}.a`,.aa,.ab{fill:#fff;}.m,.ac{letter-spacing:-.01em;}.ad{letter-spacing:-.02em;}.ae,.n{letter-spacing:-.02em;}.af{letter-spacing:0em;}.ag{letter-spacing:0em;}.aa{letter-spacing:-.02em;}.ah,.o{letter-spacing:0em;}.ai{letter-spacing:0em;}.aj{letter-spacing:-.03em;}.ak{letter-spacing:-.03em;}.p{letter-spacing:-.01em;}.al{letter-spacing:0em;}.am{letter-spacing:0em;}.an{letter-spacing:0em;}.ao{letter-spacing:-.03em;}.ab{letter-spacing:-.03em;}.ap{letter-spacing:-.01em;}.aq{letter-spacing:-.01em;}.ar,.t{letter-spacing:0em;}.q{letter-spacing:-.01em;}.as{letter-spacing:-.09em;}.at{letter-spacing:0em;}.r{letter-spacing:-.01em;}.au{letter-spacing:-.01em;}.av{letter-spacing:-.02em;}.aw{letter-spacing:0em;}.ax{letter-spacing:-.03em;}.s{letter-spacing:-.02em;}.ay{letter-spacing:0em;}</style></defs><g id="a"/><g id="b"><rect class="y" width="1759.56" height="836"/><text class="i" transform="translate(345.02 213.25)"><tspan class="a`" x="0" y="0">S</tspan><tspan class="l" x="24.28" y="0">a</tspan><tspan class="m" x="45.88" y="0">t</tspan><tspan class="l" x="58.12" y="0">elli</tspan><tspan class="r" x="103.8" y="0">t</tspan><tspan class="t" x="116.04" y="0">e </tspan><tspan class="ab" x="148.92" y="0">P</tspan><tspan class="o" x="171.64" y="0">o</tspan><tspan class="l" x="194.84" y="0">sitioning </tspan><tspan class="a`" x="353.31" y="0">E</tspan><tspan class="l" x="375.59" y="0">ngine </tspan><tspan class="k" x="484.95" y="0">f</tspan><tspan class="l" x="496.63" y="0">or </tspan><tspan class="aa" x="543.75" y="0">A</tspan><tspan class="q" x="569.19" y="0">c</tspan><tspan class="l" x="590.75" y="0">cu</tspan><tspan class="n" x="634.79" y="0">r</tspan><tspan class="l" x="647.19" y="0">a</tspan><tspan class="m" x="668.79" y="0">t</tspan><tspan class="l" x="681.03" y="0">e </tspan><tspan class="ab" x="713.91" y="0">R</tspan><tspan class="l" x="737.31" y="0">eal</tspan><tspan class="p" x="789.07" y="0">-</tspan><tspan class="l" x="805.99" y="0">time </tspan><tspan class="a`" x="894.06" y="0">N</tspan><tspan class="s" x="921.14" y="0">a</tspan><tspan class="l" x="942.14" y="0">vigation</tspan><tspan class="a`"><tspan x="-10.34" y="108">SPEAR is a s</tspan><tspan class="ag" x="211.45" y="108">o</tspan><tspan x="234.49" y="108">ft</tspan><tspan class="w" x="258.49" y="108">w</tspan><tspan x="288.97" y="108">a</tspan><tspan class="aj" x="310.57" y="108">r</tspan><tspan x="322.77" y="108">e lib</tspan><tspan class="ad" x="395.01" y="108">r</tspan><tspan x="407.41" y="108">a</tspan><tspan class="ay" x="429.01" y="108">r</tspan><tspan x="442.57" y="108">y </tspan><tspan class="j" x="472.77" y="108">f</tspan><tspan x="484.45" y="108">or a</tspan><tspan class="aq" x="553.17" y="108">c</tspan><tspan x="574.73" y="108">cu</tspan><tspan class="ae" x="618.77" y="108">r</tspan><tspan x="631.17" y="108">a</tspan><tspan class="ac" x="652.77" y="108">t</tspan><tspan x="665.01" y="108">e and </tspan><tspan class="ak" x="776.25" y="108">r</tspan><tspan x="788.45" y="108">obust n</tspan><tspan class="au" x="923.25" y="108">a</tspan><tspan x="944.25" y="108">vigation. </tspan></tspan><tspan class="a`"><tspan x="14.14" y="162">It is a plat</tspan><tspan class="j" x="182.54" y="162">f</tspan><tspan x="192.86" y="162">orm-agn</tspan><tspan class="ai" x="349.53" y="162">o</tspan><tspan class="ar" x="372.73" y="162">stic location s</tspan><tspan class="al" x="617.01" y="162">t</tspan><tspan x="629.45" y="162">ack that bridg</tspan><tspan class="ah" x="876.92" y="162">e</tspan><tspan x="899.24" y="162">s the gap </tspan></tspan><tspan class="a`"><tspan x="-.44" y="216">b</tspan><tspan class="ag" x="23.4" y="216">e</tspan><tspan x="45.56" y="216">t</tspan><tspan class="av" x="58.32" y="216">w</tspan><tspan x="89" y="216">een GN</tspan><tspan class="ac" x="223.68" y="216">S</tspan><tspan x="247.44" y="216">S chi</tspan><tspan class="ai" x="334.43" y="216">p</tspan><tspan class="ar" x="358.19" y="216">s</tspan><tspan class="ag" x="378.15" y="216">e</tspan><tspan x="400.31" y="216">t (or So</tspan><tspan class="ax" x="530.23" y="216">C</tspan><tspan x="557.31" y="216">, So</tspan><tspan class="as" x="623.59" y="216">P</tspan><tspan x="643.79" y="216">…) and high-l</tspan><tspan class="v" x="870.02" y="216">ev</tspan><tspan x="910.46" y="216">el p</tspan><tspan class="ak" x="974.94" y="216">r</tspan><tspan x="987.14" y="216">ecise </tspan></tspan><tspan class="a`"><tspan x="-21" y="270">n</tspan><tspan class="av" x="1.44" y="270">a</tspan><tspan x="22.44" y="270">vigation sol</tspan><tspan class="x" x="223" y="270">u</tspan><tspan x="245.12" y="270">tion. SPEAR is specially d</tspan><tspan class="ah" x="686.95" y="270">e</tspan><tspan x="709.27" y="270">signed </tspan><tspan class="ac" x="839.98" y="270">t</tspan><tspan x="852.22" y="270">o g</tspan><tspan class="af" x="909.82" y="270">e</tspan><tspan x="931.98" y="270">t the b</tspan><tspan class="ah" x="1047.18" y="270">e</tspan><tspan x="1069.5" y="270">st </tspan></tspan><tspan class="a`"><tspan x="16.5" y="324">n</tspan><tspan class="av" x="38.94" y="324">a</tspan><tspan x="59.94" y="324">vigation per</tspan><tspan class="j" x="269.09" y="324">f</tspan><tspan x="279.41" y="324">orman</tspan><tspan class="ap" x="394.77" y="324">c</tspan><tspan class="at" x="416.33" y="324">e </tspan><tspan class="af" x="449.21" y="324">o</tspan><tspan x="472.25" y="324">f ma</tspan><tspan class="aw" x="551.61" y="324">s</tspan><tspan class="am" x="571.17" y="324">s</tspan><tspan x="590.81" y="324">-mar</tspan><tspan class="ao" x="677.93" y="324">k</tspan><tspan class="af" x="697.45" y="324">e</tspan><tspan x="719.61" y="324">t or industrial GN</tspan><tspan class="ac" x="1016.68" y="324">S</tspan><tspan x="1040.44" y="324">S </tspan></tspan><tspan class="a`"><tspan x="-29.2" y="378">d</tspan><tspan class="u" x="-5.36" y="378">e</tspan><tspan class="ar" x="16.24" y="378">vi</tspan><tspan class="ap" x="43.64" y="378">c</tspan><tspan class="ai" x="65.2" y="378">e</tspan><tspan class="an" x="87.52" y="378">s</tspan><tspan x="107.16" y="378">, achi</tspan><tspan class="w" x="199.72" y="378">e</tspan><tspan x="221.32" y="378">ving </tspan><tspan class="aq" x="305.47" y="378">c</tspan><tspan x="327.03" y="378">entim</tspan><tspan class="ag" x="427.07" y="378">e</tspan><tspan class="ac" x="449.23" y="378">t</tspan><tspan x="461.47" y="378">er </tspan><tspan class="ac" x="507.71" y="378">t</tspan><tspan class="at" x="519.95" y="378">o decim</tspan><tspan class="af" x="664.39" y="378">e</tspan><tspan class="ac" x="686.55" y="378">t</tspan><tspan x="698.79" y="378">er a</tspan><tspan class="aq" x="766.63" y="378">c</tspan><tspan x="788.19" y="378">cu</tspan><tspan class="ae" x="832.23" y="378">r</tspan><tspan x="844.63" y="378">a</tspan><tspan class="w" x="866.23" y="378">c</tspan><tspan x="887.43" y="378">y depending </tspan></tspan><tspan class="a`"><tspan x="311.89" y="432">on the ha</tspan><tspan class="aj" x="480.29" y="432">r</tspan><tspan x="492.49" y="432">d</tspan><tspan class="u" x="516.33" y="432">w</tspan><tspan x="546.81" y="432">a</tspan><tspan class="ak" x="568.41" y="432">r</tspan><tspan x="580.61" y="432">e plat</tspan><tspan class="j" x="679.45" y="432">f</tspan><tspan x="689.77" y="432">orm.</tspan></tspan></text></g><g id="c"/><g id="d"/><g id="e"/><g id="f"/><g id="g"/><g id="h"/></svg>