<?xml version="1.0" encoding="UTF-8"?><svg xmlns="http://www.w3.org/2000/svg" viewBox="0 0 1759.56 836"><defs><style>.i{font-family:Aeonik-Regular, Aeonik;font-size:40px;}.j{letter-spacing:-.02em;}.k{letter-spacing:-.02em;}.l{letter-spacing:-.02em;}.m{letter-spacing:-.02em;}.n{fill:#002a3a;}.o{fill:#fff;}.p{fill:#65a5bf;}.q{letter-spacing:-.02em;}.r{letter-spacing:-.02em;}.s{letter-spacing:0em;}.t{letter-spacing:-.02em;}.u{letter-spacing:-.05em;}.v{letter-spacing:-.03em;}.w{letter-spacing:0em;}.x{letter-spacing:-.03em;}.y{letter-spacing:0em;}.a`{letter-spacing:-.03em;}.aa{letter-spacing:-.01em;}.ab{letter-spacing:0em;}.ac{letter-spacing:-.01em;}.ad{letter-spacing:-.02em;}.ae{letter-spacing:0em;}.af{letter-spacing:-.01em;}.ag{letter-spacing:0em;}.ah{letter-spacing:-.03em;}</style></defs><g id="a"/><g id="b"><rect class="n" y="-1.73" width="1759.56" height="836"/><text class="i" transform="translate(663.55 259.16)"><tspan class="p"><tspan class="v" x="0" y="0">L</tspan><tspan x="18.88" y="0">ocation-Based Se</tspan><tspan class="ae" x="339.35" y="0">r</tspan><tspan x="352.92" y="0">vi</tspan><tspan class="aa" x="380.31" y="0">c</tspan><tspan class="w" x="401.88" y="0">e</tspan><tspan x="424.2" y="0">s</tspan></tspan><tspan class="o"><tspan x="-304.58" y="108">SPEAR has been d</tspan><tspan class="l" x="26.9" y="108">ev</tspan><tspan x="67.34" y="108">eloped </tspan><tspan class="af" x="201.34" y="108">t</tspan><tspan class="ab" x="213.58" y="108">o p</tspan><tspan class="x" x="271.18" y="108">r</tspan><tspan class="m" x="283.38" y="108">o</tspan><tspan x="305.86" y="108">vide a</tspan><tspan class="aa" x="411.57" y="108">c</tspan><tspan x="433.13" y="108">cu</tspan><tspan class="r" x="477.17" y="108">r</tspan><tspan x="489.58" y="108">a</tspan><tspan class="af" x="511.17" y="108">t</tspan><tspan x="523.42" y="108">e and </tspan><tspan class="a`" x="634.65" y="108">r</tspan><tspan x="646.85" y="108">obust </tspan></tspan><tspan class="o"><tspan x="-326.93" y="162">smartphone n</tspan><tspan class="ad" x="-78.58" y="162">a</tspan><tspan x="-57.58" y="162">vigation. A specific </tspan><tspan class="x" x="286.25" y="162">r</tspan><tspan x="298.45" y="162">elease </tspan><tspan class="k" x="425.45" y="162">f</tspan><tspan x="437.13" y="162">or And</tspan><tspan class="a`" x="556.85" y="162">r</tspan><tspan x="569.05" y="162">oid d</tspan><tspan class="m" x="658.25" y="162">e</tspan><tspan x="679.85" y="162">vi</tspan><tspan class="aa" x="707.25" y="162">c</tspan><tspan class="w" x="728.81" y="162">e</tspan><tspan x="751.13" y="162">s </tspan></tspan><tspan class="o"><tspan x="-273.34" y="216">l</tspan><tspan class="m" x="-265.58" y="216">ev</tspan><tspan x="-225.14" y="216">e</tspan><tspan class="q" x="-202.74" y="216">r</tspan><tspan x="-190.34" y="216">ag</tspan><tspan class="w" x="-144.9" y="216">e</tspan><tspan x="-122.58" y="216">s smartphone </tspan><tspan class="aa" x="133.78" y="216">c</tspan><tspan x="155.34" y="216">onnectivity and </tspan><tspan class="aa" x="437.13" y="216">c</tspan><tspan x="458.69" y="216">omplemen</tspan><tspan class="y" x="650.17" y="216">t</tspan><tspan x="662.61" y="216">a</tspan><tspan class="ag" x="684.21" y="216">r</tspan><tspan x="697.77" y="216">y </tspan></tspan><tspan class="o"><tspan x="-335.05" y="270">senso</tspan><tspan class="t" x="-227.02" y="270">r</tspan><tspan x="-214.42" y="270">s </tspan><tspan class="af" x="-183.98" y="270">t</tspan><tspan x="-171.74" y="270">o deli</tspan><tspan class="m" x="-76.22" y="270">v</tspan><tspan class="ab" x="-57.38" y="270">er smartphone n</tspan><tspan class="ac" x="237.22" y="270">a</tspan><tspan x="258.22" y="270">vigation with hori</tspan><tspan class="ah" x="559.41" y="270">z</tspan><tspan x="577.41" y="270">on</tspan><tspan class="y" x="623.13" y="270">t</tspan><tspan x="635.57" y="270">al er</tspan><tspan class="a`" x="711.17" y="270">r</tspan><tspan x="723.37" y="270">o</tspan><tspan class="j" x="746.65" y="270">r</tspan><tspan x="759.25" y="270">s </tspan></tspan><tspan class="o"><tspan x="97.64" y="324">under 1 m</tspan><tspan class="s" x="270.32" y="324">e</tspan><tspan class="af" x="292.48" y="324">t</tspan><tspan x="304.72" y="324">e</tspan><tspan class="u" x="327.12" y="324">r</tspan><tspan x="338.28" y="324">. </tspan></tspan></text></g><g id="c"/><g id="d"/><g id="e"/><g id="f"/><g id="g"/><g id="h"/></svg>