<?xml version="1.0" encoding="UTF-8"?><svg xmlns="http://www.w3.org/2000/svg" viewBox="0 0 812.13 115.42"><defs><style>.i{fill:#002a3a;}</style></defs><g id="a"/><g id="b"><g><path class="i" d="M768.44,34.16h-2.45c-1.9,.94-2.48,2.49-2.47,4.55,.05,10.03,.02,20.06-.03,30.09,0,.55-.42,1.11-.64,1.66-4.06-2.91-8.12-5.83-12.18-8.74l-.43-.3h-.02c-5.97-4.31-11.94-8.62-17.91-12.92-6.62-4.78-13.25-9.56-19.87-14.34h-2.45c-1.77,1.1-2.26,2.7-2.22,4.74,.1,5.29,0,10.59,.02,15.88,0,4.53,.06,9.07,.09,13.6-.03,3.12-.1,6.24-.06,9.36,.02,1.89,1.25,3.19,3.03,3.45,1.68,.24,3.09-.74,3.74-2.61,.09-.74,.27-1.47,.27-2.21,0-9.81,0-19.61-.02-29.42,0-.67,0-1.34,0-2.39,3.75,2.61,7.16,4.98,10.57,7.35l.04,.03c.09,.08,.19,.16,.28,.24,.06,.09,.15,.14,.26,.16l.46,.33h-.01l.36,.25c.21,.15,.42,.3,.63,.46,.15,.1,.29,.2,.44,.31h.01c.11,.09,.21,.18,.32,.26,.06,.08,.13,.13,.23,.14l.45,.32c.13,.1,.26,.19,.39,.29l.04,.02,.29,.25c.07,.09,.15,.14,.26,.15,.15,.1,.3,.21,.46,.31,4.55,3.27,9.09,6.54,13.64,9.81h0l.37,.28,.03,.02c.21,.15,.43,.3,.64,.46l-.06-.06c.14,.11,.29,.21,.43,.32h0c.12,.1,.24,.2,.37,.29l.04,.03c.21,.14,.43,.28,.64,.43l-.04-.03c.14,.1,.27,.2,.41,.3l.02,.02,.3,.26c.05,.09,.12,.13,.22,.14,.16,.11,.33,.22,.49,.32l.37,.28,.04,.03c.21,.15,.42,.3,.63,.45l10.54,7.55,.05,.04c.09,.08,.18,.16,.27,.24,.07,.1,.16,.15,.29,.16l.43,.31h0c.11,.09,.22,.18,.33,.27,.22,.15,.43,.31,.65,.46l.42,.29c.78,.6,1.55,1.22,2.35,1.8,2.82,2.04,4.44,1.76,6.39-1.07V36.26c-.7-.7-1.4-1.4-2.1-2.1Zm-495.5,47.03c1.78-.33,2.92-1.6,2.97-3.57,.07-2.96,.02-5.93,.03-8.9,0-1.44,0-2.87,0-4.31,7.56-2.99,14.9-5.89,22.22-8.79,2.71,2.39,5.27,4.66,7.83,6.93,6.47,5.93,12.91,11.89,19.42,17.78,1.57,1.43,3.66,1.19,4.98-.33,1.22-1.4,1.16-3.52-.31-4.87-6.23-5.68-12.5-11.3-18.76-16.95h0c-1.78-1.85-3.55-3.7-5.41-5.64,3.45-1.36,6.91-2.73,10.37-4.09,4.28-1.68,8.58-3.33,12.84-5.05,1.98-.8,2.8-2.7,2.11-4.54-.68-1.81-2.58-2.61-4.61-1.95-.28,.09-.55,.2-.82,.31-10.23,4.02-20.46,8.04-30.69,12.07-6.17,2.43-12.33,4.89-18.49,7.34-.15,.06-.3,.13-.44,.19h-.08c-.05-.74-.14-1.49-.14-2.24-.02-5.28-.03-10.57-.03-15.85,0-1.62-.41-3.01-1.96-3.79-2.48-1.25-5.02,.5-5.02,3.52-.03,12.95-.04,25.9-.04,38.85,0,.56,.21,1.12,.32,1.67,.89,1.71,2.19,2.48,3.71,2.2Zm-230.52-4.04c0-5.41-.01-10.81,0-16.22,0-.62,.06-1.23,.1-1.98,.93,0,1.67,0,2.42,0,8.51,0,17.01-.01,25.52-.02l1.72,.03c.13,.09,.27,.18,.4,.26l.06,.06c.1,.1,.2,.2,.3,.3l.05,.05c.1,.1,.2,.2,.29,.29,3.15,3.26,6.31,6.52,9.46,9.77l.05,.06c.1,.1,.19,.21,.29,.31l.03,.04,.31,.34,.02,.02,.33,.33,.02,.02,.33,.34h.01c.11,.13,.22,.24,.34,.35h.01c.11,.13,.22,.24,.34,.35h.01l.33,.36h0c.11,.13,.22,.25,.33,.37,.12,.12,.24,.24,.36,.37l-.02-.02c.12,.13,.25,.25,.38,.38l-.03-.03,.35,.35,.37,.38c1.6,1.68,3.14,3.41,4.8,5.02,1.4,1.35,3.54,1.26,4.88-.04,1.34-1.3,1.45-3.41,.08-4.85-2.76-2.89-5.61-5.71-8.42-8.55-1.9-2.05-3.81-4.11-5.71-6.16l.15-.43c1.38,0,2.77,.05,4.15-.01,1.39-.07,2.79-.16,4.17-.4,4.18-.73,6.63-3.23,7.16-7.2,0-2.53,.21-5.09-.08-7.58-.48-4.21-3-6.84-7.17-7.68-1.86-.37-3.8-.4-5.7-.59-.63-.07-1.26-.19-1.89-.19-14.18,0-28.35,0-42.53,.02-.76,0-1.52,0-2.27,.09-1.81,.23-3.02,1.45-3.03,3.25-.03,5.59,.01,11.17,.03,16.76-.02,7.21-.05,14.42-.07,21.63,0,2.5,1.37,4.14,3.45,4.15,2.1,.01,3.53-1.64,3.53-4.1Zm.14-34.59h46.09c1.69,.36,2.58,1.45,2.82,3.12-.08,1.83-.16,3.66-.24,5.52-1.04,.32-1.81,.55-2.58,.78H42.55v-9.42Zm336.41,34.38c1.02,2.9,3.39,4.29,7.42,4.3,15.84,.02,31.68,.03,47.51,.02,.8,0,1.6-.18,2.4-.28,3.75-.21,5.42-1.99,5.56-5.94-.04-.48-.07-.95-.11-1.43-.31-.45-.61-.91-.96-1.43,.35,.52,.66,.98,.96,1.43,.04,.48,.07,.95,.11,1.43,.07-.57,.2-1.14,.2-1.71-.01-11.17-.04-22.34-.07-33.51,0-.69-.01-1.41-.2-2.07-.42-1.5-1.52-2.34-3.03-2.5-1.46-.15-2.69,.48-3.32,1.79-.36,.75-.44,1.68-.44,2.53-.04,10.82-.04,21.64-.07,32.46,0,.75-.1,1.5-.16,2.25-16.3,0-32.59,.02-48.89,.03-.11-2.3-.3-4.61-.31-6.91-.05-9.3-.05-18.59-.05-27.89,0-1.39-.16-2.68-1.4-3.56-1.14-.8-2.37-.98-3.62-.34-1.32,.67-1.96,1.8-1.96,3.25-.02,11.97-.03,23.94-.03,35.91,0,.45,.2,.89,.31,1.34,.04,.28,.04,.58,.14,.85Zm110.96,2.27c.08,.11,.16,.22,.24,.33h0c.1,.15,.21,.3,.31,.44,.1,.1,.2,.2,.3,.3l.43,.31h.01l.32,.24c.21,.05,.42,.1,.63,.15,.68,.09,1.36,.27,2.04,.27,13.93,.02,27.86,.03,41.8,.02,1.45,0,2.89-.17,4.34-.26,2.11-.27,4.28-.31,6.32-.85,3.12-.82,5.21-2.85,5.8-6.16,.13-.83,.25-1.65,.38-2.48v.03c.47-5.52,.71-11.02-2.02-16.18,1.57-3.15,1.84-4.45,1.67-7.97,.31-7.9-2.67-11.6-10.44-12.23-4.91-.4-9.87-.2-14.81-.27-11.01-.02-22.03-.04-33.04-.05-3.54,0-4.7,1.16-4.7,4.72-.02,12.33-.03,24.65-.03,36.98,0,.68,.18,1.36,.27,2.04l.17,.62Zm22.31,1.68h0c8.44,0,16.89,.01,25.33,.03-8.44-.01-16.89-.02-25.33-.03Zm33.91-16.36c-.09,2.3-.21,4.61-.26,6.91-.03,1.41-.75,2.13-2.1,2.25-2.24,.21-4.48,.4-6.72,.59-2.5-.03-5-.09-7.51-.09-10.19,0-20.39,0-30.58,.01-.69,0-1.38,0-2.26,0v-15.65h29.5c2.76,.02,5.53,.04,8.29,.06l2.79,.03c1.96,.18,3.92,.37,5.88,.53,1.84,.15,2.66,1.15,2.68,2.96,.01,.8,.18,1.59,.28,2.39Zm-49.64-22.67h44.75c.51,.1,1.02,.19,1.53,.29,1.88,.36,2.6,1.14,2.69,3.04,.07,1.56,.05,3.12,.07,4.68l-.78,1.42c-.38,.09-.76,.18-1.13,.27-.21,.02-.41,.04-.62,.05-13.31,0-26.62,.02-39.93,.02-2.19,0-4.38-.05-6.58-.08v-9.69Zm-354.03,31.91c.04,4.62,2.28,6.96,6.93,7.15,2.15,.09,4.31,.03,6.47,.03,6.47,0,12.93,.03,19.4,0,2.94-.01,4.67-2.71,3.34-5.14-.79-1.45-2.1-1.85-3.67-1.85-8.45,.02-16.89,0-25.34,0V41.46c1.01,0,1.76,0,2.51,0,7.81,0,15.62,.02,23.43,0,1.94,0,3.35-1.38,3.45-3.21,.1-1.85-1.14-3.36-3.03-3.65-.46-.07-.93-.06-1.39-.06-7.93,0-15.86,0-23.78,.02-1.1,0-2.21,.09-3.3,.26-3.29,.51-4.81,2.14-4.87,5.51-.12,6.16-.12,12.33-.14,18.49,0,3.78,.06,7.55,.09,11.33-.03,1.22-.08,2.44-.07,3.66Zm47.57-32.32c7.7,.01,15.4,0,23.1,.02,.73,0,1.45,.11,2.34,.18,0,2.69,.01,5.19,0,7.68-.04,8.2-.09,16.41-.14,24.61-1.22,0-2.45,.02-3.67,.02-7.35,0-14.69,0-22.04,.02-2.15,0-3.63,1.45-3.67,3.41-.04,1.9,1.4,3.5,3.37,3.51,8.8,.04,17.61,.11,26.41-.01,4.48-.06,6.7-2.53,6.71-6.97,0-3.26-.05-6.51-.09-9.77,0-6.52,0-13.04,0-19.56,.03-.58,.1-1.16,.1-1.74,.02-6.77-1.55-8.37-8.3-8.38-8.05-.02-16.1-.01-24.15,0-2.45,0-4.1,1.52-4.05,3.61,.05,2.04,1.62,3.34,4.07,3.34Zm408.66,33.34c0,.88,.44,1.76,.68,2.64,.04,.13,.08,.25,.12,.38l.22,.32c.57,.59,1.13,1.19,1.7,1.78l.38,.26c.07,.07,.17,.11,.27,.11,.14,.08,.29,.16,.43,.25,.12,.02,.24,.05,.35,.07,.23,.09,.46,.18,.69,.27,.32,.04,.64,.08,.96,.12h0c.74,.09,1.49,.26,2.23,.26,15.66,.02,31.33,.03,46.99,.02,.92,0,1.83-.19,2.75-.29,3.04-.2,4.49-1.28,5.2-3.86,.13-.56,.36-1.11,.36-1.67,0-6.55-.03-13.1-.05-19.65,.02-5.64,.06-11.27,.05-16.91,0-2.15-1.41-3.64-3.37-3.68-1.98-.04-3.61,1.5-3.62,3.67-.04,5.05,.01,10.11,.03,15.17,0,6.52,0,13.04,0,19.56h0l-.09,.59h0c-2.09,.03-4.18,.07-6.27,.1-.81-.03-1.62-.1-2.43-.1-13.51-.01-27.01-.01-40.52-.02-.05-5.2-.09-10.4-.14-15.6,.01-6.63,.06-13.25,.02-19.88-.01-2.08-1.63-3.54-3.57-3.5-1.9,.05-3.39,1.48-3.4,3.49-.03,5.7,.02,11.39,.04,17.09-.02,6.33-.07,12.67-.03,19Zm29.23-.13c-6.58,0-13.16,0-19.75-.02,6.58,.01,13.16,.02,19.75,.02Zm-542.44-2.07h0v0Z"/><path class="i" d="M173.68,57.21c.44,1.76,.88,3.52,1.32,5.28,1.89,3.03,4.68,4.48,8.19,4.27,3.57-.21,6.23-1.97,7.69-5.33l.31-.72c.06-.08,.08-.17,.07-.26,.1-.38,.19-.76,.29-1.13,.03-.11,.04-.22,.02-.33,.43-2.02,.06-3.89-1.03-5.62-1.88-3.64-5.92-5.39-10.17-4.41-3.75,.87-6.62,4.41-6.7,8.27Z"/></g></g><g id="c"/><g id="d"/><g id="e"/><g id="f"/><g id="g"/><g id="h"/></svg>