<?xml version="1.0" encoding="UTF-8"?><svg xmlns="http://www.w3.org/2000/svg" viewBox="0 0 1420 204"><defs><style>.i{fill:#fff;}</style></defs><g id="a"/><g id="b"><g><path class="i" d="M659.94,114.03c0,9.15-.16,17.83,.08,26.5,.1,3.71,3.99,6.99,8.13,7.54,1.48,.2,3,.16,4.51,.16,42.13,.02,84.26,.02,126.39,.05,2.89,0,5.79,.14,8.68,.35,4.92,.36,8.21,3.81,8.32,8.56,.1,4.47-2.8,7.77-7.54,8.49-1.58,.24-3.2,.38-4.8,.38-43.85,.03-87.7,.04-131.55,.05-21.47,0-30.68-15.37-30.47-29.76,.31-21.81-.3-43.63,.17-65.43,.33-15.29,12.7-26.73,27.99-26.75,45.68-.07,91.36-.01,137.04,.02,5.27,0,9.02,3.46,9.2,8.33,.19,5.05-3.41,8.87-8.72,9.25-1.07,.07-2.15,.03-3.22,.03-43.31,0-86.63,.02-129.94,.03-1.18,0-2.37-.04-3.55,.04-6.8,.46-10.67,3.87-11.06,10.64-.41,7.18-.22,14.4-.11,21.59,.01,.71,1.23,1.69,2.09,2.01,.94,.35,2.12,.1,3.19,.1,28.59,.02,57.18,.02,85.77,.09,2.23,0,4.54,.18,6.67,.78,4.09,1.14,6.11,4.25,5.98,8.46-.13,3.97-2.37,6.82-6.45,7.77-2.07,.48-4.25,.68-6.38,.69-28.8,.05-57.61,.04-86.41,.04-1.28,0-2.56,0-4,0Z"/><g><path class="i" d="M1012.65,38.81c10.42,.48,19.12,4.16,25.13,13.25,18.39,27.82,36.83,55.6,55.31,83.35,3.84,5.76,7.96,11.34,11.89,17.04,1.31,1.9,2.69,3.82,3.59,5.92,2.02,4.72,.76,8.95-3.15,11.22-4.02,2.34-7.72,1.53-10.72-1.75-1.99-2.17-3.6-4.72-5.25-7.18-20.74-31.01-41.45-62.03-62.18-93.04-1.47-2.2-2.8-4.52-4.53-6.49-5.58-6.35-14.25-6.27-19.82,.18-1.71,1.99-3.02,4.32-4.49,6.52-20.51,30.76-41,61.54-61.52,92.29-1.83,2.74-3.65,5.53-5.85,7.96-3.08,3.4-6.92,3.67-10.76,1.27-3.92-2.45-4.8-6.12-3.27-10.33,.56-1.53,1.45-2.96,2.36-4.33,22.95-34.29,45.93-68.54,68.87-102.83,5.82-8.69,14.21-12.39,24.39-13.05Z"/><circle class="i" cx="1012.92" cy="133.33" r="25.47"/></g><path class="i" d="M1374.57,99.96c6.13-6.26,6.9-15.07,6.64-23.75-.64-32.31-20.3-32.18-52.74-32.05h-106.24c-2.43,0-4.85,1.02-6.51,2.68-1.79,1.79-2.68,4.09-2.68,6.51v104.32c0,5.11,4.09,9.19,9.19,9.19s9.19-4.09,9.19-9.19v-50.57l80.06,.26,51.59,53.37c1.79,1.92,4.21,2.81,6.64,2.81,2.3,0,4.6-.89,6.38-2.55,3.7-3.58,3.83-9.45,.26-13.02l-39.07-40.48c19.66,.38,30.13-.26,37.29-7.53Zm-43.93-10.6h-11.62l-87.47-.26v-26.18h97.04c33.84-.26,33.84,.13,34.09,13.92,.07,4.69-.49,7.23-.65,8.7-.27,2.44-2.21,2.5-3.6,2.79-5.25,1.1-16.28,1.02-27.8,1.02Z"/><path class="i" d="M509.22,100.91c5.83-5.96,6.57-17.98,6.32-26.25-.61-30.75-19.33-30.63-50.2-30.51h-101.13c-2.31,0-4.62,.97-6.2,2.55-1.7,1.7-2.55,3.89-2.56,9.84v107.3c0,1.22,3.89,5.11,8.75,5.11s8.75-3.89,8.75-8.75v-52.49l44.96,.14h72.59c8.56-.64,14.3-2.47,18.7-6.95Zm-52.87-10.09l-83.26-.24v-28.56h92.38c32.21-.24,32.44,.12,32.45,13.25,0,5.93-.12,9.21-.35,11.06-.34,2.77-2.7,3.45-3.55,3.67-4.84,1.27-15.62,.83-26.62,.83h-11.06Z"/><path class="i" d="M111.08,166.55c-21.36,0-42.73,0-64.09,0-1.45,0-2.92,0-4.35-.2-4.68-.67-8.26-4.49-8.29-8.73-.03-4.38,3.67-8.35,8.52-8.83,2.55-.25,5.13-.1,7.7-.1,35.9-.05,71.81-.08,107.71-.15,6.02-.01,12.09,.23,18.06-.41,5.98-.64,9.37-4.1,10.02-10.01,.5-4.6,.46-9.39-.22-13.96-.89-5.97-4.81-8.98-11.32-9.45-4.9-.35-9.82-.48-14.74-.49-24.83-.04-49.66,0-74.49,0-9.16,0-18.34,.32-27.47-.24-16.45-.99-27.11-12.52-27.21-29.02-.04-6.02-.26-12.18,.9-18.02,2.78-14.11,14.16-22.69,29.88-22.73,42.84-.13,85.68-.02,128.52,0,.78,0,1.57,.06,2.33,.2,5.36,.95,9.07,4.96,8.74,9.42-.34,4.58-4.34,8.31-9.72,8.43-9.61,.2-19.23,.05-28.85,.06-33.11,.03-66.21,.06-99.32,.12-1.66,0-3.35,.19-4.99,.48-5.17,.91-7.86,3.02-8.32,8.17-.51,5.73-.25,11.57,.14,17.33,.3,4.38,3.38,6.64,7.57,7.25,2.54,.37,5.11,.64,7.67,.64,24.94,0,49.88-.1,74.82-.11,10.4,0,20.8,.03,31.2,.21,3.22,.06,6.5,.33,9.64,1.03,14.71,3.29,23.28,13.77,23.5,28.88,.08,5.79,.11,11.71-.91,17.37-2.46,13.63-12.92,22.43-26.85,22.59-21.92,.24-43.84,.06-65.76,.06v.24Z"/></g></g><g id="c"/><g id="d"/><g id="e"/><g id="f"/><g id="g"/><g id="h"/></svg>